<?xml version="1.0"?>
<Project_Data Version="8.00">
<Project_Settings>
<ProfileName></ProfileName>
<ProjectWidth>1278</ProjectWidth>
<ProjectHeight>720</ProjectHeight>
<IsCustomProject>1</IsCustomProject>
<SavedProjectSettings>1</SavedProjectSettings>
<LastFlashTemplate>-1</LastFlashTemplate>
</Project_Settings>


<AutoSaveFile>C:\Users\SUSY\AppData\Local\TechSmith\Camtasia Studio\8.0\Auto-Saves\DIAGRAMAS_UML5eaf170.autosave.camproj</AutoSaveFile>

<ProjectID>5E638209-9C82-4E73-B8DA-C40EC3EDEAB6</ProjectID>

<PowerPointProject>0</PowerPointProject>

<PowerPointFilename></PowerPointFilename>


<Project_Notes>
</Project_Notes>

<Project_MetaData>
<Project_MetaData_Object>
<FieldArrayKey>8</FieldArrayKey>
<Value>DIAGRAMAS_UML</Value>
</Project_MetaData_Object>
<Project_MetaData_Object>
<FieldArrayKey>13</FieldArrayKey>
<Value>2015-12-08 12:34:41 a. m.</Value>
</Project_MetaData_Object>
<Project_MetaData_Object>
<FieldArrayKey>16</FieldArrayKey>
<Value>ENU</Value>
</Project_MetaData_Object>
</Project_MetaData>

<CSMLData>
<GoProject id="1" version="3.0" >
 <Project id="2" editRate="30/1" version="3.0" >
  <Author></Author>
  <Comment></Comment>
  <System></System>
  <SourceBin id="3"  >
    <Source id="4" src="C:\Users\SUSY\Desktop\capture-2.trec" lastMod="20151208T060426" rect="(0,0,1364,768)" >
      <SourceTrack range="(0,19736)" type="0" editRate="30/1" trackRect="(0,0,1364,768)" sampleRate="0/1" bitDepth="0" numChannels="0" filename="capture-2.trec!Strack0.tsc2" metaData="capture-2.trec;" />
    </Source>
    <Source id="5" src="C:\Users\SUSY\Desktop\capture-1.trec" lastMod="20151208T072123" rect="(0,0,1364,768)" >
      <SourceTrack range="(0,3393)" type="0" editRate="30/1" trackRect="(0,0,1364,768)" sampleRate="0/1" bitDepth="0" numChannels="0" filename="capture-1.trec!Strack0.tsc2" metaData="capture-1.trec;" />
    </Source>
    <Source id="6" src="C:\Users\SUSY\Desktop\capture-3.trec" lastMod="20151208T074831" rect="(0,0,1364,768)" >
      <SourceTrack range="(0,2688)" type="0" editRate="30/1" trackRect="(0,0,1364,768)" sampleRate="0/1" bitDepth="0" numChannels="0" filename="capture-3.trec!Strack0.tsc2" metaData="capture-3.trec;" />
    </Source>
    <Source id="7" src="C:\Users\SUSY\Desktop\capture-4.trec" lastMod="20151208T081607" rect="(0,0,1364,768)" >
      <SourceTrack range="(0,3205)" type="0" editRate="30/1" trackRect="(0,0,1364,768)" sampleRate="0/1" bitDepth="0" numChannels="0" filename="capture-4.trec!Strack0.tsc2" metaData="capture-4.trec;" />
    </Source>
    <Source id="8" src="C:\Users\SUSY\Desktop\capture-5.trec" lastMod="20151208T082606" rect="(0,0,1364,768)" >
      <SourceTrack range="(0,596)" type="0" editRate="30/1" trackRect="(0,0,1364,768)" sampleRate="0/1" bitDepth="0" numChannels="0" filename="capture-5.trec!Strack0.tsc2" metaData="capture-5.trec;" />
    </Source>
    <Source id="9" src="C:\Users\SUSY\Desktop\Kalimba.mp3" lastMod="20151208T012505" rect="(0,0,0,0)" >
      <SourceTrack range="(0,3506000000)" type="2" editRate="10000000/1" trackRect="(0,0,0,0)" sampleRate="44100/1" bitDepth="0" numChannels="2" filename="" metaData="" />
    </Source>
  </SourceBin>
  <Timeline id="10"  >
   <Attributes>
    <Attribute id="11" value="1278" name="width"/>
    <Attribute id="12" value="720" name="height"/>
    <Attribute id="13" value="(0,0,0,255)" name="backgroundColor"/>
   </Attributes>
    <GenericMixer id="14"  name="Unified Mixer">
     <MetaData>
      <entry key="MixerType" val="TimelineMixer"/>
     </MetaData>
     <Tracks>
      <GenericTrack id="15"  >
       <Attributes>
        <Attribute id="16" value="" name="ident"/>
        <Attribute id="17" value="0" name="audioMuted"/>
        <Attribute id="18" value="0" name="videoHidden"/>
       </Attributes>
       <MetaData>
        <entry key="IsLocked" val="False"/>
        <entry key="WinTrackHeight" val="62"/>
       </MetaData>
       <Medias>
        <ScreenVMFile id="19" start="3" duration="1505" scalar="1/1" mediaStart="135/1" mediaDuration="1505/1" trackNumber="0" src="4" >
         <Transformer>
          <VectorParam id="20"  name="translation">
           <InterpolatingParam id="21" interp="linr"  time="-9999999/1" value="-1.6560552746089596e-010" leadInLength="0/1"  />
           <InterpolatingParam id="22" interp="linr"  time="-9999999/1" value="6.4125632185657291e-011" leadInLength="0/1"  />
           <InterpolatingParam id="23" interp="linr"  time="-9999999/1" value="0" leadInLength="0/1"  />
          </VectorParam>
          <VectorParam id="24"  name="rotation">
           <InterpolatingParam id="25" interp="linr"  time="-9999999/1" value="0" leadInLength="0/1"  />
           <InterpolatingParam id="26" interp="linr"  time="-9999999/1" value="0" leadInLength="0/1"  />
           <InterpolatingParam id="27" interp="linr"  time="-9999999/1" value="0" leadInLength="0/1"  />
          </VectorParam>
          <VectorParam id="28"  name="shear">
           <InterpolatingParam id="29" interp="linr"  time="-9999999/1" value="0" leadInLength="0/1"  />
           <InterpolatingParam id="30" interp="linr"  time="-9999999/1" value="0" leadInLength="0/1"  />
           <InterpolatingParam id="31" interp="linr"  time="-9999999/1" value="0" leadInLength="0/1"  />
          </VectorParam>
          <VectorParam id="32"  name="scale">
           <InterpolatingParam id="33" interp="linr"  time="-9999999/1" value="0.93695014662756593" leadInLength="0/1"  />
           <InterpolatingParam id="34" interp="linr"  time="-9999999/1" value="0.93695014662756593" leadInLength="0/1"  />
           <InterpolatingParam id="35" interp="linr"  time="-9999999/1" value="1" leadInLength="0/1"  />
          </VectorParam>
          <VectorParam id="36"  name="anchor">
           <InterpolatingParam id="37" interp="linr"  time="0/1" value="0" leadInLength="0/1"  />
           <InterpolatingParam id="38" interp="linr"  time="0/1" value="0" leadInLength="0/1"  />
           <InterpolatingParam id="39" interp="linr"  time="0/1" value="0" leadInLength="0/1"  />
          </VectorParam>
         </Transformer>
         <Parameters>
          <VectorParam id="40"  name="sourceCrop">
           <InterpolatingParam id="41" interp="linr"  time="0/1" value="0" leadInLength="0/1"  />
           <InterpolatingParam id="42" interp="linr"  time="0/1" value="0" leadInLength="0/1"  />
           <InterpolatingParam id="43" interp="linr"  time="0/1" value="0" leadInLength="0/1"  />
           <InterpolatingParam id="44" interp="linr"  time="0/1" value="0" leadInLength="0/1"  />
          </VectorParam>
          <VectorParam id="45"  name="geometryCrop">
           <InterpolatingParam id="46" interp="linr"  time="-9999999/1" value="0" leadInLength="0/1"  />
           <InterpolatingParam id="47" interp="linr"  time="-9999999/1" value="0" leadInLength="0/1"  />
           <InterpolatingParam id="48" interp="linr"  time="-9999999/1" value="0" leadInLength="0/1"  />
           <InterpolatingParam id="49" interp="linr"  time="-9999999/1" value="0" leadInLength="0/1"  />
          </VectorParam>
          <InterpolatingParam id="50" interp="linr"  time="-9999999/1" value="1" leadInLength="0/1"  name="opacity"/>
          <InterpolatingParam id="51" interp="linr"  time="0/1" value="1" leadInLength="0/1"  name="cursorOpacity"/>
          <InterpolatingParam id="52" interp="linr"  time="0/1" value="1" leadInLength="0/1"  name="cursorScale"/>
         </Parameters>
         <Effects>
          <GenericEffect id="53" name = "CursorBaseEffectName" >
           <Parameters>
           <InterpolatingParam id="54" interp="linr"  time="-9999999/1" value="1" leadInLength="0/1"   name="cursorSize"/>
           <InterpolatingParam id="55" interp="linr"  time="-9999999/1" value="0" leadInLength="0/1"   name="highlightBlurRadius"/>
           <InterpolatingParam id="56" interp="linr"  time="-9999999/1" value="0" leadInLength="0/1"   name="highlightColorBlue"/>
           <InterpolatingParam id="57" interp="linr"  time="-9999999/1" value="255" leadInLength="0/1"   name="highlightColorGreen"/>
           <InterpolatingParam id="58" interp="linr"  time="-9999999/1" value="255" leadInLength="0/1"   name="highlightColorRed"/>
           <InterpolatingParam id="59" interp="linr"  time="-9999999/1" value="5" leadInLength="0/1"   name="highlightFeatherSize"/>
           <InterpolatingParam id="60" interp="linr"  time="-9999999/1" value="2" leadInLength="0/1"   name="highlightMagnification"/>
           <InterpolatingParam id="61" interp="linr"  time="-9999999/1" value="1" leadInLength="0/1"   name="highlightOpacity"/>
           <InterpolatingParam id="62" interp="linr"  time="-9999999/1" value="45" leadInLength="0/1"   name="highlightSize"/>
           <Parameter id="63"   name="highlightType">
            <Keyframes>
            <Keyframe id="64"  time="-9999999/1" value="0" leadInLength="0/1"  />
            </Keyframes>
           </Parameter>
           <InterpolatingParam id="65" interp="linr"  time="-9999999/1" value="0" leadInLength="0/1"   name="leftClickColorBlue"/>
           <InterpolatingParam id="66" interp="linr"  time="-9999999/1" value="0" leadInLength="0/1"   name="leftClickColorGreen"/>
           <InterpolatingParam id="67" interp="linr"  time="-9999999/1" value="255" leadInLength="0/1"   name="leftClickColorRed"/>
           <InterpolatingParam id="68" interp="linr"  time="-9999999/1" value="0.80000000000000004" leadInLength="0/1"   name="leftClickDuration"/>
           <InterpolatingParam id="69" interp="linr"  time="-9999999/1" value="20" leadInLength="0/1"   name="leftClickSize"/>
           <Parameter id="70"   name="leftClickSoundFilename">
            <Keyframes>
            <Keyframe id="71"  time="-9999999/1" value="" leadInLength="0/1"  />
            </Keyframes>
           </Parameter>
           <InterpolatingParam id="72" interp="linr"  time="-9999999/1" value="1" leadInLength="0/1"   name="leftClickSoundVolume"/>
           <Parameter id="73"   name="leftClickType">
            <Keyframes>
            <Keyframe id="74"  time="-9999999/1" value="0" leadInLength="0/1"  />
            </Keyframes>
           </Parameter>
           <InterpolatingParam id="75" interp="linr"  time="-9999999/1" value="1" leadInLength="0/1"   name="opacity"/>
           <InterpolatingParam id="76" interp="linr"  time="-9999999/1" value="255" leadInLength="0/1"   name="rightClickColorBlue"/>
           <InterpolatingParam id="77" interp="linr"  time="-9999999/1" value="0" leadInLength="0/1"   name="rightClickColorGreen"/>
           <InterpolatingParam id="78" interp="linr"  time="-9999999/1" value="0" leadInLength="0/1"   name="rightClickColorRed"/>
           <InterpolatingParam id="79" interp="linr"  time="-9999999/1" value="0.80000000000000004" leadInLength="0/1"   name="rightClickDuration"/>
           <InterpolatingParam id="80" interp="linr"  time="-9999999/1" value="20" leadInLength="0/1"   name="rightClickSize"/>
           <Parameter id="81"   name="rightClickSoundFilename">
            <Keyframes>
            <Keyframe id="82"  time="-9999999/1" value="" leadInLength="0/1"  />
            </Keyframes>
           </Parameter>
           <InterpolatingParam id="83" interp="linr"  time="-9999999/1" value="1" leadInLength="0/1"   name="rightClickSoundVolume"/>
           <Parameter id="84"   name="rightClickType">
            <Keyframes>
            <Keyframe id="85"  time="-9999999/1" value="0" leadInLength="0/1"  />
            </Keyframes>
           </Parameter>
           </Parameters>
          </GenericEffect>
         </Effects>
         <Attributes>
          <Attribute id="86" value="" name="ident"/>
         </Attributes>
         <MetaData>
          <entry key="AutoAppliedSmartFocus" val="False"/>
          <entry key="WinSubProjectDisplayName" val=""/>
         </MetaData>
         <ExtraData>
          <Entry key="ZoomPanBin">
           <ZoomPanBin id="87"  >
            <ZoomPanKeyframes>
             <ZoomPanKeyframe id="88" timeRangeEnd="-9999999/1" timeRangeDuration="0/1" interpolaterName="linr"  />
            </ZoomPanKeyframes>
           </ZoomPanBin>
          </Entry>
          <Entry key="CursorEffectBin">
           <CursorEffectBin id="89"  >
            <CursorEffectKeyframes>
             <CursorEffectKeyframe id="90" timeRangeEnd="-9999999/1" timeRangeDuration="0/1" interpolaterName=""  />
            </CursorEffectKeyframes>
           </CursorEffectBin>
          </Entry>
         </ExtraData>
        </ScreenVMFile>
        <StitchedMedia id="91" start="1508" duration="2196" scalar="1/1" mediaStart="1702/1" mediaDuration="2196/1" minMediaStart="0/1" >
         <Transformer>
          <VectorParam id="92"  name="translation">
           <InterpolatingParam id="93" interp="linr"  time="-9999999/1" value="-8.8767259448122249e-011" leadInLength="0/1"  />
           <InterpolatingParam id="94" interp="linr"  time="-9999999/1" value="2.8708098177420558e-011" leadInLength="0/1"  />
           <InterpolatingParam id="95" interp="linr"  time="-9999999/1" value="0" leadInLength="0/1"  />
          </VectorParam>
          <VectorParam id="96"  name="rotation">
           <InterpolatingParam id="97" interp="linr"  time="-9999999/1" value="0" leadInLength="0/1"  />
           <InterpolatingParam id="98" interp="linr"  time="-9999999/1" value="0" leadInLength="0/1"  />
           <InterpolatingParam id="99" interp="linr"  time="-9999999/1" value="0" leadInLength="0/1"  />
          </VectorParam>
          <VectorParam id="100"  name="shear">
           <InterpolatingParam id="101" interp="linr"  time="-9999999/1" value="0" leadInLength="0/1"  />
           <InterpolatingParam id="102" interp="linr"  time="-9999999/1" value="0" leadInLength="0/1"  />
           <InterpolatingParam id="103" interp="linr"  time="-9999999/1" value="0" leadInLength="0/1"  />
          </VectorParam>
          <VectorParam id="104"  name="scale">
           <InterpolatingParam id="105" interp="linr"  time="-9999999/1" value="0.93695014662756593" leadInLength="0/1"  />
           <InterpolatingParam id="106" interp="linr"  time="-9999999/1" value="0.93695014662756593" leadInLength="0/1"  />
           <InterpolatingParam id="107" interp="linr"  time="-9999999/1" value="1" leadInLength="0/1"  />
          </VectorParam>
          <VectorParam id="108"  name="anchor">
           <InterpolatingParam id="109" interp="linr"  time="0/1" value="0" leadInLength="0/1"  />
           <InterpolatingParam id="110" interp="linr"  time="0/1" value="0" leadInLength="0/1"  />
           <InterpolatingParam id="111" interp="linr"  time="0/1" value="0" leadInLength="0/1"  />
          </VectorParam>
         </Transformer>
         <Parameters>
          <VectorParam id="112"  name="sourceCrop">
           <InterpolatingParam id="113" interp="linr"  time="0/1" value="0" leadInLength="0/1"  />
           <InterpolatingParam id="114" interp="linr"  time="0/1" value="0" leadInLength="0/1"  />
           <InterpolatingParam id="115" interp="linr"  time="0/1" value="0" leadInLength="0/1"  />
           <InterpolatingParam id="116" interp="linr"  time="0/1" value="0" leadInLength="0/1"  />
          </VectorParam>
          <VectorParam id="117"  name="geometryCrop">
           <InterpolatingParam id="118" interp="linr"  time="-9999999/1" value="0" leadInLength="0/1"  />
           <InterpolatingParam id="119" interp="linr"  time="-9999999/1" value="0" leadInLength="0/1"  />
           <InterpolatingParam id="120" interp="linr"  time="-9999999/1" value="0" leadInLength="0/1"  />
           <InterpolatingParam id="121" interp="linr"  time="-9999999/1" value="0" leadInLength="0/1"  />
          </VectorParam>
          <InterpolatingParam id="122" interp="linr"  time="-9999999/1" value="1" leadInLength="0/1"  name="opacity"/>
          <InterpolatingParam id="123" interp="linr"  time="0/1" value="1" leadInLength="0/1"  name="cursorOpacity"/>
          <InterpolatingParam id="124" interp="linr"  time="0/1" value="1" leadInLength="0/1"  name="cursorScale"/>
          <Parameter id="125"  name="captions"/>
         </Parameters>
         <Effects>
          <GenericEffect id="126" name = "CursorBaseEffectName" >
           <Parameters>
           <InterpolatingParam id="127" interp="linr"  time="-9999999/1" value="1" leadInLength="0/1"   name="cursorSize"/>
           <InterpolatingParam id="128" interp="linr"  time="-9999999/1" value="0" leadInLength="0/1"   name="highlightBlurRadius"/>
           <InterpolatingParam id="129" interp="linr"  time="-9999999/1" value="0" leadInLength="0/1"   name="highlightColorBlue"/>
           <InterpolatingParam id="130" interp="linr"  time="-9999999/1" value="255" leadInLength="0/1"   name="highlightColorGreen"/>
           <InterpolatingParam id="131" interp="linr"  time="-9999999/1" value="255" leadInLength="0/1"   name="highlightColorRed"/>
           <InterpolatingParam id="132" interp="linr"  time="-9999999/1" value="5" leadInLength="0/1"   name="highlightFeatherSize"/>
           <InterpolatingParam id="133" interp="linr"  time="-9999999/1" value="2" leadInLength="0/1"   name="highlightMagnification"/>
           <InterpolatingParam id="134" interp="linr"  time="-9999999/1" value="1" leadInLength="0/1"   name="highlightOpacity"/>
           <InterpolatingParam id="135" interp="linr"  time="-9999999/1" value="45" leadInLength="0/1"   name="highlightSize"/>
           <Parameter id="136"   name="highlightType">
            <Keyframes>
            <Keyframe id="137"  time="-9999999/1" value="0" leadInLength="0/1"  />
            </Keyframes>
           </Parameter>
           <InterpolatingParam id="138" interp="linr"  time="-9999999/1" value="0" leadInLength="0/1"   name="leftClickColorBlue"/>
           <InterpolatingParam id="139" interp="linr"  time="-9999999/1" value="0" leadInLength="0/1"   name="leftClickColorGreen"/>
           <InterpolatingParam id="140" interp="linr"  time="-9999999/1" value="255" leadInLength="0/1"   name="leftClickColorRed"/>
           <InterpolatingParam id="141" interp="linr"  time="-9999999/1" value="0.80000000000000004" leadInLength="0/1"   name="leftClickDuration"/>
           <InterpolatingParam id="142" interp="linr"  time="-9999999/1" value="20" leadInLength="0/1"   name="leftClickSize"/>
           <Parameter id="143"   name="leftClickSoundFilename">
            <Keyframes>
            <Keyframe id="144"  time="-9999999/1" value="" leadInLength="0/1"  />
            </Keyframes>
           </Parameter>
           <InterpolatingParam id="145" interp="linr"  time="-9999999/1" value="1" leadInLength="0/1"   name="leftClickSoundVolume"/>
           <Parameter id="146"   name="leftClickType">
            <Keyframes>
            <Keyframe id="147"  time="-9999999/1" value="0" leadInLength="0/1"  />
            </Keyframes>
           </Parameter>
           <InterpolatingParam id="148" interp="linr"  time="-9999999/1" value="1" leadInLength="0/1"   name="opacity"/>
           <InterpolatingParam id="149" interp="linr"  time="-9999999/1" value="255" leadInLength="0/1"   name="rightClickColorBlue"/>
           <InterpolatingParam id="150" interp="linr"  time="-9999999/1" value="0" leadInLength="0/1"   name="rightClickColorGreen"/>
           <InterpolatingParam id="151" interp="linr"  time="-9999999/1" value="0" leadInLength="0/1"   name="rightClickColorRed"/>
           <InterpolatingParam id="152" interp="linr"  time="-9999999/1" value="0.80000000000000004" leadInLength="0/1"   name="rightClickDuration"/>
           <InterpolatingParam id="153" interp="linr"  time="-9999999/1" value="20" leadInLength="0/1"   name="rightClickSize"/>
           <Parameter id="154"   name="rightClickSoundFilename">
            <Keyframes>
            <Keyframe id="155"  time="-9999999/1" value="" leadInLength="0/1"  />
            </Keyframes>
           </Parameter>
           <InterpolatingParam id="156" interp="linr"  time="-9999999/1" value="1" leadInLength="0/1"   name="rightClickSoundVolume"/>
           <Parameter id="157"   name="rightClickType">
            <Keyframes>
            <Keyframe id="158"  time="-9999999/1" value="0" leadInLength="0/1"  />
            </Keyframes>
           </Parameter>
           </Parameters>
          </GenericEffect>
         </Effects>
         <Attributes>
          <Attribute id="159" value="" name="ident"/>
         </Attributes>
         <MetaData>
          <entry key="AutoAppliedSmartFocus" val="False"/>
          <entry key="WinSubProjectDisplayName" val=""/>
         </MetaData>
         <ExtraData>
          <Entry key="ZoomPanBin">
           <ZoomPanBin id="160"  >
            <ZoomPanKeyframes>
             <ZoomPanKeyframe id="161" timeRangeEnd="-9999999/1" timeRangeDuration="0/1" interpolaterName=""  />
            </ZoomPanKeyframes>
           </ZoomPanBin>
          </Entry>
          <Entry key="CursorEffectBin">
           <CursorEffectBin id="162"  >
            <CursorEffectKeyframes>
             <CursorEffectKeyframe id="163" timeRangeEnd="-9999999/1" timeRangeDuration="0/1" interpolaterName=""  />
            </CursorEffectKeyframes>
           </CursorEffectBin>
          </Entry>
         </ExtraData>
         <GenericTrack id="164"  >
          <Attributes>
           <Attribute id="165" value="" name="ident"/>
           <Attribute id="166" value="0" name="audioMuted"/>
           <Attribute id="167" value="0" name="videoHidden"/>
          </Attributes>
          <MetaData>
           <entry key="IsLocked" val="False"/>
           <entry key="WinTrackHeight" val="0"/>
          </MetaData>
          <Medias>
           <ScreenVMFile id="168" start="0" duration="2059" scalar="1/1" mediaStart="0/1" mediaDuration="2059/1" trackNumber="0" src="4" >
            <Transformer>
             <VectorParam id="169"  name="translation">
              <InterpolatingParam id="170" interp="linr"  time="-9999999/1" value="0" leadInLength="0/1"  />
              <InterpolatingParam id="171" interp="linr"  time="-9999999/1" value="0" leadInLength="0/1"  />
              <InterpolatingParam id="172" interp="linr"  time="-9999999/1" value="0" leadInLength="0/1"  />
             </VectorParam>
             <VectorParam id="173"  name="rotation">
              <InterpolatingParam id="174" interp="linr"  time="-9999999/1" value="0" leadInLength="0/1"  />
              <InterpolatingParam id="175" interp="linr"  time="-9999999/1" value="0" leadInLength="0/1"  />
              <InterpolatingParam id="176" interp="linr"  time="-9999999/1" value="0" leadInLength="0/1"  />
             </VectorParam>
             <VectorParam id="177"  name="shear">
              <InterpolatingParam id="178" interp="linr"  time="-9999999/1" value="0" leadInLength="0/1"  />
              <InterpolatingParam id="179" interp="linr"  time="-9999999/1" value="0" leadInLength="0/1"  />
              <InterpolatingParam id="180" interp="linr"  time="-9999999/1" value="0" leadInLength="0/1"  />
             </VectorParam>
             <VectorParam id="181"  name="scale">
              <InterpolatingParam id="182" interp="linr"  time="-9999999/1" value="1" leadInLength="0/1"  />
              <InterpolatingParam id="183" interp="linr"  time="-9999999/1" value="1" leadInLength="0/1"  />
              <InterpolatingParam id="184" interp="linr"  time="-9999999/1" value="1" leadInLength="0/1"  />
             </VectorParam>
             <VectorParam id="185"  name="anchor">
              <InterpolatingParam id="186" interp="linr"  time="0/1" value="0" leadInLength="0/1"  />
              <InterpolatingParam id="187" interp="linr"  time="0/1" value="0" leadInLength="0/1"  />
              <InterpolatingParam id="188" interp="linr"  time="0/1" value="0" leadInLength="0/1"  />
             </VectorParam>
            </Transformer>
            <Parameters>
             <VectorParam id="189"  name="sourceCrop">
              <InterpolatingParam id="190" interp="linr"  time="0/1" value="0" leadInLength="0/1"  />
              <InterpolatingParam id="191" interp="linr"  time="0/1" value="0" leadInLength="0/1"  />
              <InterpolatingParam id="192" interp="linr"  time="0/1" value="0" leadInLength="0/1"  />
              <InterpolatingParam id="193" interp="linr"  time="0/1" value="0" leadInLength="0/1"  />
             </VectorParam>
             <VectorParam id="194"  name="geometryCrop">
              <InterpolatingParam id="195" interp="linr"  time="-9999999/1" value="0" leadInLength="0/1"  />
              <InterpolatingParam id="196" interp="linr"  time="-9999999/1" value="0" leadInLength="0/1"  />
              <InterpolatingParam id="197" interp="linr"  time="-9999999/1" value="0" leadInLength="0/1"  />
              <InterpolatingParam id="198" interp="linr"  time="-9999999/1" value="0" leadInLength="0/1"  />
             </VectorParam>
             <InterpolatingParam id="199" interp="linr"  time="-9999999/1" value="1" leadInLength="0/1"  name="opacity"/>
             <InterpolatingParam id="200" interp="linr"  time="0/1" value="0" leadInLength="0/1"  name="cursorOpacity"/>
             <InterpolatingParam id="201" interp="linr"  time="0/1" value="0" leadInLength="0/1"  name="cursorScale"/>
            </Parameters>
            <Attributes>
             <Attribute id="202" value="" name="ident"/>
            </Attributes>
            <MetaData>
             <entry key="AutoAppliedSmartFocus" val="False"/>
             <entry key="WinSubProjectDisplayName" val=""/>
            </MetaData>
            <ExtraData>
             <Entry key="ZoomPanBin">
              <ZoomPanBin id="203"  >
               <ZoomPanKeyframes>
                <ZoomPanKeyframe id="204" timeRangeEnd="-9999999/1" timeRangeDuration="0/1" interpolaterName=""  />
               </ZoomPanKeyframes>
              </ZoomPanBin>
             </Entry>
             <Entry key="CursorEffectBin">
              <CursorEffectBin id="205"  >
               <CursorEffectKeyframes>
               </CursorEffectKeyframes>
              </CursorEffectBin>
             </Entry>
            </ExtraData>
           </ScreenVMFile>
           <ScreenVMFile id="206" start="2059" duration="199" scalar="1/1" mediaStart="2069/1" mediaDuration="199/1" trackNumber="0" src="4" >
            <Transformer>
             <VectorParam id="207"  name="translation">
              <InterpolatingParam id="208" interp="linr"  time="-9999999/1" value="0" leadInLength="0/1"  />
              <InterpolatingParam id="209" interp="linr"  time="-9999999/1" value="0" leadInLength="0/1"  />
              <InterpolatingParam id="210" interp="linr"  time="-9999999/1" value="0" leadInLength="0/1"  />
             </VectorParam>
             <VectorParam id="211"  name="rotation">
              <InterpolatingParam id="212" interp="linr"  time="-9999999/1" value="0" leadInLength="0/1"  />
              <InterpolatingParam id="213" interp="linr"  time="-9999999/1" value="0" leadInLength="0/1"  />
              <InterpolatingParam id="214" interp="linr"  time="-9999999/1" value="0" leadInLength="0/1"  />
             </VectorParam>
             <VectorParam id="215"  name="shear">
              <InterpolatingParam id="216" interp="linr"  time="-9999999/1" value="0" leadInLength="0/1"  />
              <InterpolatingParam id="217" interp="linr"  time="-9999999/1" value="0" leadInLength="0/1"  />
              <InterpolatingParam id="218" interp="linr"  time="-9999999/1" value="0" leadInLength="0/1"  />
             </VectorParam>
             <VectorParam id="219"  name="scale">
              <InterpolatingParam id="220" interp="linr"  time="-9999999/1" value="1" leadInLength="0/1"  />
              <InterpolatingParam id="221" interp="linr"  time="-9999999/1" value="1" leadInLength="0/1"  />
              <InterpolatingParam id="222" interp="linr"  time="-9999999/1" value="1" leadInLength="0/1"  />
             </VectorParam>
             <VectorParam id="223"  name="anchor">
              <InterpolatingParam id="224" interp="linr"  time="0/1" value="0" leadInLength="0/1"  />
              <InterpolatingParam id="225" interp="linr"  time="0/1" value="0" leadInLength="0/1"  />
              <InterpolatingParam id="226" interp="linr"  time="0/1" value="0" leadInLength="0/1"  />
             </VectorParam>
            </Transformer>
            <Parameters>
             <VectorParam id="227"  name="sourceCrop">
              <InterpolatingParam id="228" interp="linr"  time="0/1" value="0" leadInLength="0/1"  />
              <InterpolatingParam id="229" interp="linr"  time="0/1" value="0" leadInLength="0/1"  />
              <InterpolatingParam id="230" interp="linr"  time="0/1" value="0" leadInLength="0/1"  />
              <InterpolatingParam id="231" interp="linr"  time="0/1" value="0" leadInLength="0/1"  />
             </VectorParam>
             <VectorParam id="232"  name="geometryCrop">
              <InterpolatingParam id="233" interp="linr"  time="-9999999/1" value="0" leadInLength="0/1"  />
              <InterpolatingParam id="234" interp="linr"  time="-9999999/1" value="0" leadInLength="0/1"  />
              <InterpolatingParam id="235" interp="linr"  time="-9999999/1" value="0" leadInLength="0/1"  />
              <InterpolatingParam id="236" interp="linr"  time="-9999999/1" value="0" leadInLength="0/1"  />
             </VectorParam>
             <InterpolatingParam id="237" interp="linr"  time="-9999999/1" value="1" leadInLength="0/1"  name="opacity"/>
             <InterpolatingParam id="238" interp="linr"  time="0/1" value="0" leadInLength="0/1"  name="cursorOpacity"/>
             <InterpolatingParam id="239" interp="linr"  time="0/1" value="0" leadInLength="0/1"  name="cursorScale"/>
            </Parameters>
            <Attributes>
             <Attribute id="240" value="" name="ident"/>
            </Attributes>
            <MetaData>
             <entry key="AutoAppliedSmartFocus" val="False"/>
             <entry key="WinSubProjectDisplayName" val=""/>
            </MetaData>
            <ExtraData>
             <Entry key="ZoomPanBin">
              <ZoomPanBin id="241"  >
               <ZoomPanKeyframes>
                <ZoomPanKeyframe id="242" timeRangeEnd="-9999999/1" timeRangeDuration="0/1" interpolaterName=""  />
               </ZoomPanKeyframes>
              </ZoomPanBin>
             </Entry>
             <Entry key="CursorEffectBin">
              <CursorEffectBin id="243"  >
               <CursorEffectKeyframes>
               </CursorEffectKeyframes>
              </CursorEffectBin>
             </Entry>
            </ExtraData>
           </ScreenVMFile>
           <ScreenVMFile id="244" start="2258" duration="30" scalar="1/1" mediaStart="2276/1" mediaDuration="30/1" trackNumber="0" src="4" >
            <Transformer>
             <VectorParam id="245"  name="translation">
              <InterpolatingParam id="246" interp="linr"  time="-9999999/1" value="0" leadInLength="0/1"  />
              <InterpolatingParam id="247" interp="linr"  time="-9999999/1" value="0" leadInLength="0/1"  />
              <InterpolatingParam id="248" interp="linr"  time="-9999999/1" value="0" leadInLength="0/1"  />
             </VectorParam>
             <VectorParam id="249"  name="rotation">
              <InterpolatingParam id="250" interp="linr"  time="-9999999/1" value="0" leadInLength="0/1"  />
              <InterpolatingParam id="251" interp="linr"  time="-9999999/1" value="0" leadInLength="0/1"  />
              <InterpolatingParam id="252" interp="linr"  time="-9999999/1" value="0" leadInLength="0/1"  />
             </VectorParam>
             <VectorParam id="253"  name="shear">
              <InterpolatingParam id="254" interp="linr"  time="-9999999/1" value="0" leadInLength="0/1"  />
              <InterpolatingParam id="255" interp="linr"  time="-9999999/1" value="0" leadInLength="0/1"  />
              <InterpolatingParam id="256" interp="linr"  time="-9999999/1" value="0" leadInLength="0/1"  />
             </VectorParam>
             <VectorParam id="257"  name="scale">
              <InterpolatingParam id="258" interp="linr"  time="-9999999/1" value="1" leadInLength="0/1"  />
              <InterpolatingParam id="259" interp="linr"  time="-9999999/1" value="1" leadInLength="0/1"  />
              <InterpolatingParam id="260" interp="linr"  time="-9999999/1" value="1" leadInLength="0/1"  />
             </VectorParam>
             <VectorParam id="261"  name="anchor">
              <InterpolatingParam id="262" interp="linr"  time="0/1" value="0" leadInLength="0/1"  />
              <InterpolatingParam id="263" interp="linr"  time="0/1" value="0" leadInLength="0/1"  />
              <InterpolatingParam id="264" interp="linr"  time="0/1" value="0" leadInLength="0/1"  />
             </VectorParam>
            </Transformer>
            <Parameters>
             <VectorParam id="265"  name="sourceCrop">
              <InterpolatingParam id="266" interp="linr"  time="0/1" value="0" leadInLength="0/1"  />
              <InterpolatingParam id="267" interp="linr"  time="0/1" value="0" leadInLength="0/1"  />
              <InterpolatingParam id="268" interp="linr"  time="0/1" value="0" leadInLength="0/1"  />
              <InterpolatingParam id="269" interp="linr"  time="0/1" value="0" leadInLength="0/1"  />
             </VectorParam>
             <VectorParam id="270"  name="geometryCrop">
              <InterpolatingParam id="271" interp="linr"  time="-9999999/1" value="0" leadInLength="0/1"  />
              <InterpolatingParam id="272" interp="linr"  time="-9999999/1" value="0" leadInLength="0/1"  />
              <InterpolatingParam id="273" interp="linr"  time="-9999999/1" value="0" leadInLength="0/1"  />
              <InterpolatingParam id="274" interp="linr"  time="-9999999/1" value="0" leadInLength="0/1"  />
             </VectorParam>
             <InterpolatingParam id="275" interp="linr"  time="-9999999/1" value="1" leadInLength="0/1"  name="opacity"/>
             <InterpolatingParam id="276" interp="linr"  time="0/1" value="0" leadInLength="0/1"  name="cursorOpacity"/>
             <InterpolatingParam id="277" interp="linr"  time="0/1" value="0" leadInLength="0/1"  name="cursorScale"/>
            </Parameters>
            <Attributes>
             <Attribute id="278" value="" name="ident"/>
            </Attributes>
            <MetaData>
             <entry key="AutoAppliedSmartFocus" val="False"/>
             <entry key="WinSubProjectDisplayName" val=""/>
            </MetaData>
            <ExtraData>
             <Entry key="ZoomPanBin">
              <ZoomPanBin id="279"  >
               <ZoomPanKeyframes>
                <ZoomPanKeyframe id="280" timeRangeEnd="-9999999/1" timeRangeDuration="0/1" interpolaterName=""  />
               </ZoomPanKeyframes>
              </ZoomPanBin>
             </Entry>
             <Entry key="CursorEffectBin">
              <CursorEffectBin id="281"  >
               <CursorEffectKeyframes>
               </CursorEffectKeyframes>
              </CursorEffectBin>
             </Entry>
            </ExtraData>
           </ScreenVMFile>
           <ScreenVMFile id="282" start="2288" duration="33" scalar="1/1" mediaStart="2319/1" mediaDuration="33/1" trackNumber="0" src="4" >
            <Transformer>
             <VectorParam id="283"  name="translation">
              <InterpolatingParam id="284" interp="linr"  time="-9999999/1" value="0" leadInLength="0/1"  />
              <InterpolatingParam id="285" interp="linr"  time="-9999999/1" value="0" leadInLength="0/1"  />
              <InterpolatingParam id="286" interp="linr"  time="-9999999/1" value="0" leadInLength="0/1"  />
             </VectorParam>
             <VectorParam id="287"  name="rotation">
              <InterpolatingParam id="288" interp="linr"  time="-9999999/1" value="0" leadInLength="0/1"  />
              <InterpolatingParam id="289" interp="linr"  time="-9999999/1" value="0" leadInLength="0/1"  />
              <InterpolatingParam id="290" interp="linr"  time="-9999999/1" value="0" leadInLength="0/1"  />
             </VectorParam>
             <VectorParam id="291"  name="shear">
              <InterpolatingParam id="292" interp="linr"  time="-9999999/1" value="0" leadInLength="0/1"  />
              <InterpolatingParam id="293" interp="linr"  time="-9999999/1" value="0" leadInLength="0/1"  />
              <InterpolatingParam id="294" interp="linr"  time="-9999999/1" value="0" leadInLength="0/1"  />
             </VectorParam>
             <VectorParam id="295"  name="scale">
              <InterpolatingParam id="296" interp="linr"  time="-9999999/1" value="1" leadInLength="0/1"  />
              <InterpolatingParam id="297" interp="linr"  time="-9999999/1" value="1" leadInLength="0/1"  />
              <InterpolatingParam id="298" interp="linr"  time="-9999999/1" value="1" leadInLength="0/1"  />
             </VectorParam>
             <VectorParam id="299"  name="anchor">
              <InterpolatingParam id="300" interp="linr"  time="0/1" value="0" leadInLength="0/1"  />
              <InterpolatingParam id="301" interp="linr"  time="0/1" value="0" leadInLength="0/1"  />
              <InterpolatingParam id="302" interp="linr"  time="0/1" value="0" leadInLength="0/1"  />
             </VectorParam>
            </Transformer>
            <Parameters>
             <VectorParam id="303"  name="sourceCrop">
              <InterpolatingParam id="304" interp="linr"  time="0/1" value="0" leadInLength="0/1"  />
              <InterpolatingParam id="305" interp="linr"  time="0/1" value="0" leadInLength="0/1"  />
              <InterpolatingParam id="306" interp="linr"  time="0/1" value="0" leadInLength="0/1"  />
              <InterpolatingParam id="307" interp="linr"  time="0/1" value="0" leadInLength="0/1"  />
             </VectorParam>
             <VectorParam id="308"  name="geometryCrop">
              <InterpolatingParam id="309" interp="linr"  time="-9999999/1" value="0" leadInLength="0/1"  />
              <InterpolatingParam id="310" interp="linr"  time="-9999999/1" value="0" leadInLength="0/1"  />
              <InterpolatingParam id="311" interp="linr"  time="-9999999/1" value="0" leadInLength="0/1"  />
              <InterpolatingParam id="312" interp="linr"  time="-9999999/1" value="0" leadInLength="0/1"  />
             </VectorParam>
             <InterpolatingParam id="313" interp="linr"  time="-9999999/1" value="1" leadInLength="0/1"  name="opacity"/>
             <InterpolatingParam id="314" interp="linr"  time="0/1" value="0" leadInLength="0/1"  name="cursorOpacity"/>
             <InterpolatingParam id="315" interp="linr"  time="0/1" value="0" leadInLength="0/1"  name="cursorScale"/>
            </Parameters>
            <Attributes>
             <Attribute id="316" value="" name="ident"/>
            </Attributes>
            <MetaData>
             <entry key="AutoAppliedSmartFocus" val="False"/>
             <entry key="WinSubProjectDisplayName" val=""/>
            </MetaData>
            <ExtraData>
             <Entry key="ZoomPanBin">
              <ZoomPanBin id="317"  >
               <ZoomPanKeyframes>
                <ZoomPanKeyframe id="318" timeRangeEnd="-9999999/1" timeRangeDuration="0/1" interpolaterName=""  />
               </ZoomPanKeyframes>
              </ZoomPanBin>
             </Entry>
             <Entry key="CursorEffectBin">
              <CursorEffectBin id="319"  >
               <CursorEffectKeyframes>
               </CursorEffectKeyframes>
              </CursorEffectBin>
             </Entry>
            </ExtraData>
           </ScreenVMFile>
           <ScreenVMFile id="320" start="2321" duration="21" scalar="1/1" mediaStart="2382/1" mediaDuration="21/1" trackNumber="0" src="4" >
            <Transformer>
             <VectorParam id="321"  name="translation">
              <InterpolatingParam id="322" interp="linr"  time="-9999999/1" value="0" leadInLength="0/1"  />
              <InterpolatingParam id="323" interp="linr"  time="-9999999/1" value="0" leadInLength="0/1"  />
              <InterpolatingParam id="324" interp="linr"  time="-9999999/1" value="0" leadInLength="0/1"  />
             </VectorParam>
             <VectorParam id="325"  name="rotation">
              <InterpolatingParam id="326" interp="linr"  time="-9999999/1" value="0" leadInLength="0/1"  />
              <InterpolatingParam id="327" interp="linr"  time="-9999999/1" value="0" leadInLength="0/1"  />
              <InterpolatingParam id="328" interp="linr"  time="-9999999/1" value="0" leadInLength="0/1"  />
             </VectorParam>
             <VectorParam id="329"  name="shear">
              <InterpolatingParam id="330" interp="linr"  time="-9999999/1" value="0" leadInLength="0/1"  />
              <InterpolatingParam id="331" interp="linr"  time="-9999999/1" value="0" leadInLength="0/1"  />
              <InterpolatingParam id="332" interp="linr"  time="-9999999/1" value="0" leadInLength="0/1"  />
             </VectorParam>
             <VectorParam id="333"  name="scale">
              <InterpolatingParam id="334" interp="linr"  time="-9999999/1" value="1" leadInLength="0/1"  />
              <InterpolatingParam id="335" interp="linr"  time="-9999999/1" value="1" leadInLength="0/1"  />
              <InterpolatingParam id="336" interp="linr"  time="-9999999/1" value="1" leadInLength="0/1"  />
             </VectorParam>
             <VectorParam id="337"  name="anchor">
              <InterpolatingParam id="338" interp="linr"  time="0/1" value="0" leadInLength="0/1"  />
              <InterpolatingParam id="339" interp="linr"  time="0/1" value="0" leadInLength="0/1"  />
              <InterpolatingParam id="340" interp="linr"  time="0/1" value="0" leadInLength="0/1"  />
             </VectorParam>
            </Transformer>
            <Parameters>
             <VectorParam id="341"  name="sourceCrop">
              <InterpolatingParam id="342" interp="linr"  time="0/1" value="0" leadInLength="0/1"  />
              <InterpolatingParam id="343" interp="linr"  time="0/1" value="0" leadInLength="0/1"  />
              <InterpolatingParam id="344" interp="linr"  time="0/1" value="0" leadInLength="0/1"  />
              <InterpolatingParam id="345" interp="linr"  time="0/1" value="0" leadInLength="0/1"  />
             </VectorParam>
             <VectorParam id="346"  name="geometryCrop">
              <InterpolatingParam id="347" interp="linr"  time="-9999999/1" value="0" leadInLength="0/1"  />
              <InterpolatingParam id="348" interp="linr"  time="-9999999/1" value="0" leadInLength="0/1"  />
              <InterpolatingParam id="349" interp="linr"  time="-9999999/1" value="0" leadInLength="0/1"  />
              <InterpolatingParam id="350" interp="linr"  time="-9999999/1" value="0" leadInLength="0/1"  />
             </VectorParam>
             <InterpolatingParam id="351" interp="linr"  time="-9999999/1" value="1" leadInLength="0/1"  name="opacity"/>
             <InterpolatingParam id="352" interp="linr"  time="0/1" value="0" leadInLength="0/1"  name="cursorOpacity"/>
             <InterpolatingParam id="353" interp="linr"  time="0/1" value="0" leadInLength="0/1"  name="cursorScale"/>
            </Parameters>
            <Attributes>
             <Attribute id="354" value="" name="ident"/>
            </Attributes>
            <MetaData>
             <entry key="AutoAppliedSmartFocus" val="False"/>
             <entry key="WinSubProjectDisplayName" val=""/>
            </MetaData>
            <ExtraData>
             <Entry key="ZoomPanBin">
              <ZoomPanBin id="355"  >
               <ZoomPanKeyframes>
                <ZoomPanKeyframe id="356" timeRangeEnd="-9999999/1" timeRangeDuration="0/1" interpolaterName=""  />
               </ZoomPanKeyframes>
              </ZoomPanBin>
             </Entry>
             <Entry key="CursorEffectBin">
              <CursorEffectBin id="357"  >
               <CursorEffectKeyframes>
               </CursorEffectKeyframes>
              </CursorEffectBin>
             </Entry>
            </ExtraData>
           </ScreenVMFile>
           <ScreenVMFile id="358" start="2342" duration="13" scalar="1/1" mediaStart="2413/1" mediaDuration="13/1" trackNumber="0" src="4" >
            <Transformer>
             <VectorParam id="359"  name="translation">
              <InterpolatingParam id="360" interp="linr"  time="-9999999/1" value="0" leadInLength="0/1"  />
              <InterpolatingParam id="361" interp="linr"  time="-9999999/1" value="0" leadInLength="0/1"  />
              <InterpolatingParam id="362" interp="linr"  time="-9999999/1" value="0" leadInLength="0/1"  />
             </VectorParam>
             <VectorParam id="363"  name="rotation">
              <InterpolatingParam id="364" interp="linr"  time="-9999999/1" value="0" leadInLength="0/1"  />
              <InterpolatingParam id="365" interp="linr"  time="-9999999/1" value="0" leadInLength="0/1"  />
              <InterpolatingParam id="366" interp="linr"  time="-9999999/1" value="0" leadInLength="0/1"  />
             </VectorParam>
             <VectorParam id="367"  name="shear">
              <InterpolatingParam id="368" interp="linr"  time="-9999999/1" value="0" leadInLength="0/1"  />
              <InterpolatingParam id="369" interp="linr"  time="-9999999/1" value="0" leadInLength="0/1"  />
              <InterpolatingParam id="370" interp="linr"  time="-9999999/1" value="0" leadInLength="0/1"  />
             </VectorParam>
             <VectorParam id="371"  name="scale">
              <InterpolatingParam id="372" interp="linr"  time="-9999999/1" value="1" leadInLength="0/1"  />
              <InterpolatingParam id="373" interp="linr"  time="-9999999/1" value="1" leadInLength="0/1"  />
              <InterpolatingParam id="374" interp="linr"  time="-9999999/1" value="1" leadInLength="0/1"  />
             </VectorParam>
             <VectorParam id="375"  name="anchor">
              <InterpolatingParam id="376" interp="linr"  time="0/1" value="0" leadInLength="0/1"  />
              <InterpolatingParam id="377" interp="linr"  time="0/1" value="0" leadInLength="0/1"  />
              <InterpolatingParam id="378" interp="linr"  time="0/1" value="0" leadInLength="0/1"  />
             </VectorParam>
            </Transformer>
            <Parameters>
             <VectorParam id="379"  name="sourceCrop">
              <InterpolatingParam id="380" interp="linr"  time="0/1" value="0" leadInLength="0/1"  />
              <InterpolatingParam id="381" interp="linr"  time="0/1" value="0" leadInLength="0/1"  />
              <InterpolatingParam id="382" interp="linr"  time="0/1" value="0" leadInLength="0/1"  />
              <InterpolatingParam id="383" interp="linr"  time="0/1" value="0" leadInLength="0/1"  />
             </VectorParam>
             <VectorParam id="384"  name="geometryCrop">
              <InterpolatingParam id="385" interp="linr"  time="-9999999/1" value="0" leadInLength="0/1"  />
              <InterpolatingParam id="386" interp="linr"  time="-9999999/1" value="0" leadInLength="0/1"  />
              <InterpolatingParam id="387" interp="linr"  time="-9999999/1" value="0" leadInLength="0/1"  />
              <InterpolatingParam id="388" interp="linr"  time="-9999999/1" value="0" leadInLength="0/1"  />
             </VectorParam>
             <InterpolatingParam id="389" interp="linr"  time="-9999999/1" value="1" leadInLength="0/1"  name="opacity"/>
             <InterpolatingParam id="390" interp="linr"  time="0/1" value="0" leadInLength="0/1"  name="cursorOpacity"/>
             <InterpolatingParam id="391" interp="linr"  time="0/1" value="0" leadInLength="0/1"  name="cursorScale"/>
            </Parameters>
            <Attributes>
             <Attribute id="392" value="" name="ident"/>
            </Attributes>
            <MetaData>
             <entry key="AutoAppliedSmartFocus" val="False"/>
             <entry key="WinSubProjectDisplayName" val=""/>
            </MetaData>
            <ExtraData>
             <Entry key="ZoomPanBin">
              <ZoomPanBin id="393"  >
               <ZoomPanKeyframes>
                <ZoomPanKeyframe id="394" timeRangeEnd="-9999999/1" timeRangeDuration="0/1" interpolaterName=""  />
               </ZoomPanKeyframes>
              </ZoomPanBin>
             </Entry>
             <Entry key="CursorEffectBin">
              <CursorEffectBin id="395"  >
               <CursorEffectKeyframes>
               </CursorEffectKeyframes>
              </CursorEffectBin>
             </Entry>
            </ExtraData>
           </ScreenVMFile>
           <ScreenVMFile id="396" start="2355" duration="34" scalar="1/1" mediaStart="2441/1" mediaDuration="34/1" trackNumber="0" src="4" >
            <Transformer>
             <VectorParam id="397"  name="translation">
              <InterpolatingParam id="398" interp="linr"  time="-9999999/1" value="0" leadInLength="0/1"  />
              <InterpolatingParam id="399" interp="linr"  time="-9999999/1" value="0" leadInLength="0/1"  />
              <InterpolatingParam id="400" interp="linr"  time="-9999999/1" value="0" leadInLength="0/1"  />
             </VectorParam>
             <VectorParam id="401"  name="rotation">
              <InterpolatingParam id="402" interp="linr"  time="-9999999/1" value="0" leadInLength="0/1"  />
              <InterpolatingParam id="403" interp="linr"  time="-9999999/1" value="0" leadInLength="0/1"  />
              <InterpolatingParam id="404" interp="linr"  time="-9999999/1" value="0" leadInLength="0/1"  />
             </VectorParam>
             <VectorParam id="405"  name="shear">
              <InterpolatingParam id="406" interp="linr"  time="-9999999/1" value="0" leadInLength="0/1"  />
              <InterpolatingParam id="407" interp="linr"  time="-9999999/1" value="0" leadInLength="0/1"  />
              <InterpolatingParam id="408" interp="linr"  time="-9999999/1" value="0" leadInLength="0/1"  />
             </VectorParam>
             <VectorParam id="409"  name="scale">
              <InterpolatingParam id="410" interp="linr"  time="-9999999/1" value="1" leadInLength="0/1"  />
              <InterpolatingParam id="411" interp="linr"  time="-9999999/1" value="1" leadInLength="0/1"  />
              <InterpolatingParam id="412" interp="linr"  time="-9999999/1" value="1" leadInLength="0/1"  />
             </VectorParam>
             <VectorParam id="413"  name="anchor">
              <InterpolatingParam id="414" interp="linr"  time="0/1" value="0" leadInLength="0/1"  />
              <InterpolatingParam id="415" interp="linr"  time="0/1" value="0" leadInLength="0/1"  />
              <InterpolatingParam id="416" interp="linr"  time="0/1" value="0" leadInLength="0/1"  />
             </VectorParam>
            </Transformer>
            <Parameters>
             <VectorParam id="417"  name="sourceCrop">
              <InterpolatingParam id="418" interp="linr"  time="0/1" value="0" leadInLength="0/1"  />
              <InterpolatingParam id="419" interp="linr"  time="0/1" value="0" leadInLength="0/1"  />
              <InterpolatingParam id="420" interp="linr"  time="0/1" value="0" leadInLength="0/1"  />
              <InterpolatingParam id="421" interp="linr"  time="0/1" value="0" leadInLength="0/1"  />
             </VectorParam>
             <VectorParam id="422"  name="geometryCrop">
              <InterpolatingParam id="423" interp="linr"  time="-9999999/1" value="0" leadInLength="0/1"  />
              <InterpolatingParam id="424" interp="linr"  time="-9999999/1" value="0" leadInLength="0/1"  />
              <InterpolatingParam id="425" interp="linr"  time="-9999999/1" value="0" leadInLength="0/1"  />
              <InterpolatingParam id="426" interp="linr"  time="-9999999/1" value="0" leadInLength="0/1"  />
             </VectorParam>
             <InterpolatingParam id="427" interp="linr"  time="-9999999/1" value="1" leadInLength="0/1"  name="opacity"/>
             <InterpolatingParam id="428" interp="linr"  time="0/1" value="0" leadInLength="0/1"  name="cursorOpacity"/>
             <InterpolatingParam id="429" interp="linr"  time="0/1" value="0" leadInLength="0/1"  name="cursorScale"/>
            </Parameters>
            <Attributes>
             <Attribute id="430" value="" name="ident"/>
            </Attributes>
            <MetaData>
             <entry key="AutoAppliedSmartFocus" val="False"/>
             <entry key="WinSubProjectDisplayName" val=""/>
            </MetaData>
            <ExtraData>
             <Entry key="ZoomPanBin">
              <ZoomPanBin id="431"  >
               <ZoomPanKeyframes>
                <ZoomPanKeyframe id="432" timeRangeEnd="-9999999/1" timeRangeDuration="0/1" interpolaterName=""  />
               </ZoomPanKeyframes>
              </ZoomPanBin>
             </Entry>
             <Entry key="CursorEffectBin">
              <CursorEffectBin id="433"  >
               <CursorEffectKeyframes>
               </CursorEffectKeyframes>
              </CursorEffectBin>
             </Entry>
            </ExtraData>
           </ScreenVMFile>
           <ScreenVMFile id="434" start="2389" duration="208" scalar="1/1" mediaStart="2500/1" mediaDuration="208/1" trackNumber="0" src="4" >
            <Transformer>
             <VectorParam id="435"  name="translation">
              <InterpolatingParam id="436" interp="linr"  time="-9999999/1" value="0" leadInLength="0/1"  />
              <InterpolatingParam id="437" interp="linr"  time="-9999999/1" value="0" leadInLength="0/1"  />
              <InterpolatingParam id="438" interp="linr"  time="-9999999/1" value="0" leadInLength="0/1"  />
             </VectorParam>
             <VectorParam id="439"  name="rotation">
              <InterpolatingParam id="440" interp="linr"  time="-9999999/1" value="0" leadInLength="0/1"  />
              <InterpolatingParam id="441" interp="linr"  time="-9999999/1" value="0" leadInLength="0/1"  />
              <InterpolatingParam id="442" interp="linr"  time="-9999999/1" value="0" leadInLength="0/1"  />
             </VectorParam>
             <VectorParam id="443"  name="shear">
              <InterpolatingParam id="444" interp="linr"  time="-9999999/1" value="0" leadInLength="0/1"  />
              <InterpolatingParam id="445" interp="linr"  time="-9999999/1" value="0" leadInLength="0/1"  />
              <InterpolatingParam id="446" interp="linr"  time="-9999999/1" value="0" leadInLength="0/1"  />
             </VectorParam>
             <VectorParam id="447"  name="scale">
              <InterpolatingParam id="448" interp="linr"  time="-9999999/1" value="1" leadInLength="0/1"  />
              <InterpolatingParam id="449" interp="linr"  time="-9999999/1" value="1" leadInLength="0/1"  />
              <InterpolatingParam id="450" interp="linr"  time="-9999999/1" value="1" leadInLength="0/1"  />
             </VectorParam>
             <VectorParam id="451"  name="anchor">
              <InterpolatingParam id="452" interp="linr"  time="0/1" value="0" leadInLength="0/1"  />
              <InterpolatingParam id="453" interp="linr"  time="0/1" value="0" leadInLength="0/1"  />
              <InterpolatingParam id="454" interp="linr"  time="0/1" value="0" leadInLength="0/1"  />
             </VectorParam>
            </Transformer>
            <Parameters>
             <VectorParam id="455"  name="sourceCrop">
              <InterpolatingParam id="456" interp="linr"  time="0/1" value="0" leadInLength="0/1"  />
              <InterpolatingParam id="457" interp="linr"  time="0/1" value="0" leadInLength="0/1"  />
              <InterpolatingParam id="458" interp="linr"  time="0/1" value="0" leadInLength="0/1"  />
              <InterpolatingParam id="459" interp="linr"  time="0/1" value="0" leadInLength="0/1"  />
             </VectorParam>
             <VectorParam id="460"  name="geometryCrop">
              <InterpolatingParam id="461" interp="linr"  time="-9999999/1" value="0" leadInLength="0/1"  />
              <InterpolatingParam id="462" interp="linr"  time="-9999999/1" value="0" leadInLength="0/1"  />
              <InterpolatingParam id="463" interp="linr"  time="-9999999/1" value="0" leadInLength="0/1"  />
              <InterpolatingParam id="464" interp="linr"  time="-9999999/1" value="0" leadInLength="0/1"  />
             </VectorParam>
             <InterpolatingParam id="465" interp="linr"  time="-9999999/1" value="1" leadInLength="0/1"  name="opacity"/>
             <InterpolatingParam id="466" interp="linr"  time="0/1" value="0" leadInLength="0/1"  name="cursorOpacity"/>
             <InterpolatingParam id="467" interp="linr"  time="0/1" value="0" leadInLength="0/1"  name="cursorScale"/>
            </Parameters>
            <Attributes>
             <Attribute id="468" value="" name="ident"/>
            </Attributes>
            <MetaData>
             <entry key="AutoAppliedSmartFocus" val="False"/>
             <entry key="WinSubProjectDisplayName" val=""/>
            </MetaData>
            <ExtraData>
             <Entry key="ZoomPanBin">
              <ZoomPanBin id="469"  >
               <ZoomPanKeyframes>
                <ZoomPanKeyframe id="470" timeRangeEnd="-9999999/1" timeRangeDuration="0/1" interpolaterName=""  />
               </ZoomPanKeyframes>
              </ZoomPanBin>
             </Entry>
             <Entry key="CursorEffectBin">
              <CursorEffectBin id="471"  >
               <CursorEffectKeyframes>
               </CursorEffectKeyframes>
              </CursorEffectBin>
             </Entry>
            </ExtraData>
           </ScreenVMFile>
           <ScreenVMFile id="472" start="2597" duration="237" scalar="1/1" mediaStart="2753/1" mediaDuration="237/1" trackNumber="0" src="4" >
            <Transformer>
             <VectorParam id="473"  name="translation">
              <InterpolatingParam id="474" interp="linr"  time="-9999999/1" value="0" leadInLength="0/1"  />
              <InterpolatingParam id="475" interp="linr"  time="-9999999/1" value="0" leadInLength="0/1"  />
              <InterpolatingParam id="476" interp="linr"  time="-9999999/1" value="0" leadInLength="0/1"  />
             </VectorParam>
             <VectorParam id="477"  name="rotation">
              <InterpolatingParam id="478" interp="linr"  time="-9999999/1" value="0" leadInLength="0/1"  />
              <InterpolatingParam id="479" interp="linr"  time="-9999999/1" value="0" leadInLength="0/1"  />
              <InterpolatingParam id="480" interp="linr"  time="-9999999/1" value="0" leadInLength="0/1"  />
             </VectorParam>
             <VectorParam id="481"  name="shear">
              <InterpolatingParam id="482" interp="linr"  time="-9999999/1" value="0" leadInLength="0/1"  />
              <InterpolatingParam id="483" interp="linr"  time="-9999999/1" value="0" leadInLength="0/1"  />
              <InterpolatingParam id="484" interp="linr"  time="-9999999/1" value="0" leadInLength="0/1"  />
             </VectorParam>
             <VectorParam id="485"  name="scale">
              <InterpolatingParam id="486" interp="linr"  time="-9999999/1" value="1" leadInLength="0/1"  />
              <InterpolatingParam id="487" interp="linr"  time="-9999999/1" value="1" leadInLength="0/1"  />
              <InterpolatingParam id="488" interp="linr"  time="-9999999/1" value="1" leadInLength="0/1"  />
             </VectorParam>
             <VectorParam id="489"  name="anchor">
              <InterpolatingParam id="490" interp="linr"  time="0/1" value="0" leadInLength="0/1"  />
              <InterpolatingParam id="491" interp="linr"  time="0/1" value="0" leadInLength="0/1"  />
              <InterpolatingParam id="492" interp="linr"  time="0/1" value="0" leadInLength="0/1"  />
             </VectorParam>
            </Transformer>
            <Parameters>
             <VectorParam id="493"  name="sourceCrop">
              <InterpolatingParam id="494" interp="linr"  time="0/1" value="0" leadInLength="0/1"  />
              <InterpolatingParam id="495" interp="linr"  time="0/1" value="0" leadInLength="0/1"  />
              <InterpolatingParam id="496" interp="linr"  time="0/1" value="0" leadInLength="0/1"  />
              <InterpolatingParam id="497" interp="linr"  time="0/1" value="0" leadInLength="0/1"  />
             </VectorParam>
             <VectorParam id="498"  name="geometryCrop">
              <InterpolatingParam id="499" interp="linr"  time="-9999999/1" value="0" leadInLength="0/1"  />
              <InterpolatingParam id="500" interp="linr"  time="-9999999/1" value="0" leadInLength="0/1"  />
              <InterpolatingParam id="501" interp="linr"  time="-9999999/1" value="0" leadInLength="0/1"  />
              <InterpolatingParam id="502" interp="linr"  time="-9999999/1" value="0" leadInLength="0/1"  />
             </VectorParam>
             <InterpolatingParam id="503" interp="linr"  time="-9999999/1" value="1" leadInLength="0/1"  name="opacity"/>
             <InterpolatingParam id="504" interp="linr"  time="0/1" value="0" leadInLength="0/1"  name="cursorOpacity"/>
             <InterpolatingParam id="505" interp="linr"  time="0/1" value="0" leadInLength="0/1"  name="cursorScale"/>
            </Parameters>
            <Attributes>
             <Attribute id="506" value="" name="ident"/>
            </Attributes>
            <MetaData>
             <entry key="AutoAppliedSmartFocus" val="False"/>
             <entry key="WinSubProjectDisplayName" val=""/>
            </MetaData>
            <ExtraData>
             <Entry key="ZoomPanBin">
              <ZoomPanBin id="507"  >
               <ZoomPanKeyframes>
                <ZoomPanKeyframe id="508" timeRangeEnd="-9999999/1" timeRangeDuration="0/1" interpolaterName=""  />
               </ZoomPanKeyframes>
              </ZoomPanBin>
             </Entry>
             <Entry key="CursorEffectBin">
              <CursorEffectBin id="509"  >
               <CursorEffectKeyframes>
               </CursorEffectKeyframes>
              </CursorEffectBin>
             </Entry>
            </ExtraData>
           </ScreenVMFile>
           <ScreenVMFile id="510" start="2834" duration="115" scalar="1/1" mediaStart="3035/1" mediaDuration="115/1" trackNumber="0" src="4" >
            <Transformer>
             <VectorParam id="511"  name="translation">
              <InterpolatingParam id="512" interp="linr"  time="-9999999/1" value="0" leadInLength="0/1"  />
              <InterpolatingParam id="513" interp="linr"  time="-9999999/1" value="0" leadInLength="0/1"  />
              <InterpolatingParam id="514" interp="linr"  time="-9999999/1" value="0" leadInLength="0/1"  />
             </VectorParam>
             <VectorParam id="515"  name="rotation">
              <InterpolatingParam id="516" interp="linr"  time="-9999999/1" value="0" leadInLength="0/1"  />
              <InterpolatingParam id="517" interp="linr"  time="-9999999/1" value="0" leadInLength="0/1"  />
              <InterpolatingParam id="518" interp="linr"  time="-9999999/1" value="0" leadInLength="0/1"  />
             </VectorParam>
             <VectorParam id="519"  name="shear">
              <InterpolatingParam id="520" interp="linr"  time="-9999999/1" value="0" leadInLength="0/1"  />
              <InterpolatingParam id="521" interp="linr"  time="-9999999/1" value="0" leadInLength="0/1"  />
              <InterpolatingParam id="522" interp="linr"  time="-9999999/1" value="0" leadInLength="0/1"  />
             </VectorParam>
             <VectorParam id="523"  name="scale">
              <InterpolatingParam id="524" interp="linr"  time="-9999999/1" value="1" leadInLength="0/1"  />
              <InterpolatingParam id="525" interp="linr"  time="-9999999/1" value="1" leadInLength="0/1"  />
              <InterpolatingParam id="526" interp="linr"  time="-9999999/1" value="1" leadInLength="0/1"  />
             </VectorParam>
             <VectorParam id="527"  name="anchor">
              <InterpolatingParam id="528" interp="linr"  time="0/1" value="0" leadInLength="0/1"  />
              <InterpolatingParam id="529" interp="linr"  time="0/1" value="0" leadInLength="0/1"  />
              <InterpolatingParam id="530" interp="linr"  time="0/1" value="0" leadInLength="0/1"  />
             </VectorParam>
            </Transformer>
            <Parameters>
             <VectorParam id="531"  name="sourceCrop">
              <InterpolatingParam id="532" interp="linr"  time="0/1" value="0" leadInLength="0/1"  />
              <InterpolatingParam id="533" interp="linr"  time="0/1" value="0" leadInLength="0/1"  />
              <InterpolatingParam id="534" interp="linr"  time="0/1" value="0" leadInLength="0/1"  />
              <InterpolatingParam id="535" interp="linr"  time="0/1" value="0" leadInLength="0/1"  />
             </VectorParam>
             <VectorParam id="536"  name="geometryCrop">
              <InterpolatingParam id="537" interp="linr"  time="-9999999/1" value="0" leadInLength="0/1"  />
              <InterpolatingParam id="538" interp="linr"  time="-9999999/1" value="0" leadInLength="0/1"  />
              <InterpolatingParam id="539" interp="linr"  time="-9999999/1" value="0" leadInLength="0/1"  />
              <InterpolatingParam id="540" interp="linr"  time="-9999999/1" value="0" leadInLength="0/1"  />
             </VectorParam>
             <InterpolatingParam id="541" interp="linr"  time="-9999999/1" value="1" leadInLength="0/1"  name="opacity"/>
             <InterpolatingParam id="542" interp="linr"  time="0/1" value="0" leadInLength="0/1"  name="cursorOpacity"/>
             <InterpolatingParam id="543" interp="linr"  time="0/1" value="0" leadInLength="0/1"  name="cursorScale"/>
            </Parameters>
            <Attributes>
             <Attribute id="544" value="" name="ident"/>
            </Attributes>
            <MetaData>
             <entry key="AutoAppliedSmartFocus" val="False"/>
             <entry key="WinSubProjectDisplayName" val=""/>
            </MetaData>
            <ExtraData>
             <Entry key="ZoomPanBin">
              <ZoomPanBin id="545"  >
               <ZoomPanKeyframes>
                <ZoomPanKeyframe id="546" timeRangeEnd="-9999999/1" timeRangeDuration="0/1" interpolaterName=""  />
               </ZoomPanKeyframes>
              </ZoomPanBin>
             </Entry>
             <Entry key="CursorEffectBin">
              <CursorEffectBin id="547"  >
               <CursorEffectKeyframes>
               </CursorEffectKeyframes>
              </CursorEffectBin>
             </Entry>
            </ExtraData>
           </ScreenVMFile>
           <ScreenVMFile id="548" start="2949" duration="305" scalar="1/1" mediaStart="3165/1" mediaDuration="305/1" trackNumber="0" src="4" >
            <Transformer>
             <VectorParam id="549"  name="translation">
              <InterpolatingParam id="550" interp="linr"  time="-9999999/1" value="0" leadInLength="0/1"  />
              <InterpolatingParam id="551" interp="linr"  time="-9999999/1" value="0" leadInLength="0/1"  />
              <InterpolatingParam id="552" interp="linr"  time="-9999999/1" value="0" leadInLength="0/1"  />
             </VectorParam>
             <VectorParam id="553"  name="rotation">
              <InterpolatingParam id="554" interp="linr"  time="-9999999/1" value="0" leadInLength="0/1"  />
              <InterpolatingParam id="555" interp="linr"  time="-9999999/1" value="0" leadInLength="0/1"  />
              <InterpolatingParam id="556" interp="linr"  time="-9999999/1" value="0" leadInLength="0/1"  />
             </VectorParam>
             <VectorParam id="557"  name="shear">
              <InterpolatingParam id="558" interp="linr"  time="-9999999/1" value="0" leadInLength="0/1"  />
              <InterpolatingParam id="559" interp="linr"  time="-9999999/1" value="0" leadInLength="0/1"  />
              <InterpolatingParam id="560" interp="linr"  time="-9999999/1" value="0" leadInLength="0/1"  />
             </VectorParam>
             <VectorParam id="561"  name="scale">
              <InterpolatingParam id="562" interp="linr"  time="-9999999/1" value="1" leadInLength="0/1"  />
              <InterpolatingParam id="563" interp="linr"  time="-9999999/1" value="1" leadInLength="0/1"  />
              <InterpolatingParam id="564" interp="linr"  time="-9999999/1" value="1" leadInLength="0/1"  />
             </VectorParam>
             <VectorParam id="565"  name="anchor">
              <InterpolatingParam id="566" interp="linr"  time="0/1" value="0" leadInLength="0/1"  />
              <InterpolatingParam id="567" interp="linr"  time="0/1" value="0" leadInLength="0/1"  />
              <InterpolatingParam id="568" interp="linr"  time="0/1" value="0" leadInLength="0/1"  />
             </VectorParam>
            </Transformer>
            <Parameters>
             <VectorParam id="569"  name="sourceCrop">
              <InterpolatingParam id="570" interp="linr"  time="0/1" value="0" leadInLength="0/1"  />
              <InterpolatingParam id="571" interp="linr"  time="0/1" value="0" leadInLength="0/1"  />
              <InterpolatingParam id="572" interp="linr"  time="0/1" value="0" leadInLength="0/1"  />
              <InterpolatingParam id="573" interp="linr"  time="0/1" value="0" leadInLength="0/1"  />
             </VectorParam>
             <VectorParam id="574"  name="geometryCrop">
              <InterpolatingParam id="575" interp="linr"  time="-9999999/1" value="0" leadInLength="0/1"  />
              <InterpolatingParam id="576" interp="linr"  time="-9999999/1" value="0" leadInLength="0/1"  />
              <InterpolatingParam id="577" interp="linr"  time="-9999999/1" value="0" leadInLength="0/1"  />
              <InterpolatingParam id="578" interp="linr"  time="-9999999/1" value="0" leadInLength="0/1"  />
             </VectorParam>
             <InterpolatingParam id="579" interp="linr"  time="-9999999/1" value="1" leadInLength="0/1"  name="opacity"/>
             <InterpolatingParam id="580" interp="linr"  time="0/1" value="0" leadInLength="0/1"  name="cursorOpacity"/>
             <InterpolatingParam id="581" interp="linr"  time="0/1" value="0" leadInLength="0/1"  name="cursorScale"/>
            </Parameters>
            <Attributes>
             <Attribute id="582" value="" name="ident"/>
            </Attributes>
            <MetaData>
             <entry key="AutoAppliedSmartFocus" val="False"/>
             <entry key="WinSubProjectDisplayName" val=""/>
            </MetaData>
            <ExtraData>
             <Entry key="ZoomPanBin">
              <ZoomPanBin id="583"  >
               <ZoomPanKeyframes>
                <ZoomPanKeyframe id="584" timeRangeEnd="-9999999/1" timeRangeDuration="0/1" interpolaterName=""  />
               </ZoomPanKeyframes>
              </ZoomPanBin>
             </Entry>
             <Entry key="CursorEffectBin">
              <CursorEffectBin id="585"  >
               <CursorEffectKeyframes>
               </CursorEffectKeyframes>
              </CursorEffectBin>
             </Entry>
            </ExtraData>
           </ScreenVMFile>
           <ScreenVMFile id="586" start="3254" duration="150" scalar="1/1" mediaStart="3477/1" mediaDuration="150/1" trackNumber="0" src="4" >
            <Transformer>
             <VectorParam id="587"  name="translation">
              <InterpolatingParam id="588" interp="linr"  time="-9999999/1" value="0" leadInLength="0/1"  />
              <InterpolatingParam id="589" interp="linr"  time="-9999999/1" value="0" leadInLength="0/1"  />
              <InterpolatingParam id="590" interp="linr"  time="-9999999/1" value="0" leadInLength="0/1"  />
             </VectorParam>
             <VectorParam id="591"  name="rotation">
              <InterpolatingParam id="592" interp="linr"  time="-9999999/1" value="0" leadInLength="0/1"  />
              <InterpolatingParam id="593" interp="linr"  time="-9999999/1" value="0" leadInLength="0/1"  />
              <InterpolatingParam id="594" interp="linr"  time="-9999999/1" value="0" leadInLength="0/1"  />
             </VectorParam>
             <VectorParam id="595"  name="shear">
              <InterpolatingParam id="596" interp="linr"  time="-9999999/1" value="0" leadInLength="0/1"  />
              <InterpolatingParam id="597" interp="linr"  time="-9999999/1" value="0" leadInLength="0/1"  />
              <InterpolatingParam id="598" interp="linr"  time="-9999999/1" value="0" leadInLength="0/1"  />
             </VectorParam>
             <VectorParam id="599"  name="scale">
              <InterpolatingParam id="600" interp="linr"  time="-9999999/1" value="1" leadInLength="0/1"  />
              <InterpolatingParam id="601" interp="linr"  time="-9999999/1" value="1" leadInLength="0/1"  />
              <InterpolatingParam id="602" interp="linr"  time="-9999999/1" value="1" leadInLength="0/1"  />
             </VectorParam>
             <VectorParam id="603"  name="anchor">
              <InterpolatingParam id="604" interp="linr"  time="0/1" value="0" leadInLength="0/1"  />
              <InterpolatingParam id="605" interp="linr"  time="0/1" value="0" leadInLength="0/1"  />
              <InterpolatingParam id="606" interp="linr"  time="0/1" value="0" leadInLength="0/1"  />
             </VectorParam>
            </Transformer>
            <Parameters>
             <VectorParam id="607"  name="sourceCrop">
              <InterpolatingParam id="608" interp="linr"  time="0/1" value="0" leadInLength="0/1"  />
              <InterpolatingParam id="609" interp="linr"  time="0/1" value="0" leadInLength="0/1"  />
              <InterpolatingParam id="610" interp="linr"  time="0/1" value="0" leadInLength="0/1"  />
              <InterpolatingParam id="611" interp="linr"  time="0/1" value="0" leadInLength="0/1"  />
             </VectorParam>
             <VectorParam id="612"  name="geometryCrop">
              <InterpolatingParam id="613" interp="linr"  time="-9999999/1" value="0" leadInLength="0/1"  />
              <InterpolatingParam id="614" interp="linr"  time="-9999999/1" value="0" leadInLength="0/1"  />
              <InterpolatingParam id="615" interp="linr"  time="-9999999/1" value="0" leadInLength="0/1"  />
              <InterpolatingParam id="616" interp="linr"  time="-9999999/1" value="0" leadInLength="0/1"  />
             </VectorParam>
             <InterpolatingParam id="617" interp="linr"  time="-9999999/1" value="1" leadInLength="0/1"  name="opacity"/>
             <InterpolatingParam id="618" interp="linr"  time="0/1" value="0" leadInLength="0/1"  name="cursorOpacity"/>
             <InterpolatingParam id="619" interp="linr"  time="0/1" value="0" leadInLength="0/1"  name="cursorScale"/>
            </Parameters>
            <Attributes>
             <Attribute id="620" value="" name="ident"/>
            </Attributes>
            <MetaData>
             <entry key="AutoAppliedSmartFocus" val="False"/>
             <entry key="WinSubProjectDisplayName" val=""/>
            </MetaData>
            <ExtraData>
             <Entry key="ZoomPanBin">
              <ZoomPanBin id="621"  >
               <ZoomPanKeyframes>
                <ZoomPanKeyframe id="622" timeRangeEnd="-9999999/1" timeRangeDuration="0/1" interpolaterName=""  />
               </ZoomPanKeyframes>
              </ZoomPanBin>
             </Entry>
             <Entry key="CursorEffectBin">
              <CursorEffectBin id="623"  >
               <CursorEffectKeyframes>
               </CursorEffectKeyframes>
              </CursorEffectBin>
             </Entry>
            </ExtraData>
           </ScreenVMFile>
           <ScreenVMFile id="624" start="3404" duration="277" scalar="1/1" mediaStart="3674/1" mediaDuration="277/1" trackNumber="0" src="4" >
            <Transformer>
             <VectorParam id="625"  name="translation">
              <InterpolatingParam id="626" interp="linr"  time="-9999999/1" value="0" leadInLength="0/1"  />
              <InterpolatingParam id="627" interp="linr"  time="-9999999/1" value="0" leadInLength="0/1"  />
              <InterpolatingParam id="628" interp="linr"  time="-9999999/1" value="0" leadInLength="0/1"  />
             </VectorParam>
             <VectorParam id="629"  name="rotation">
              <InterpolatingParam id="630" interp="linr"  time="-9999999/1" value="0" leadInLength="0/1"  />
              <InterpolatingParam id="631" interp="linr"  time="-9999999/1" value="0" leadInLength="0/1"  />
              <InterpolatingParam id="632" interp="linr"  time="-9999999/1" value="0" leadInLength="0/1"  />
             </VectorParam>
             <VectorParam id="633"  name="shear">
              <InterpolatingParam id="634" interp="linr"  time="-9999999/1" value="0" leadInLength="0/1"  />
              <InterpolatingParam id="635" interp="linr"  time="-9999999/1" value="0" leadInLength="0/1"  />
              <InterpolatingParam id="636" interp="linr"  time="-9999999/1" value="0" leadInLength="0/1"  />
             </VectorParam>
             <VectorParam id="637"  name="scale">
              <InterpolatingParam id="638" interp="linr"  time="-9999999/1" value="1" leadInLength="0/1"  />
              <InterpolatingParam id="639" interp="linr"  time="-9999999/1" value="1" leadInLength="0/1"  />
              <InterpolatingParam id="640" interp="linr"  time="-9999999/1" value="1" leadInLength="0/1"  />
             </VectorParam>
             <VectorParam id="641"  name="anchor">
              <InterpolatingParam id="642" interp="linr"  time="0/1" value="0" leadInLength="0/1"  />
              <InterpolatingParam id="643" interp="linr"  time="0/1" value="0" leadInLength="0/1"  />
              <InterpolatingParam id="644" interp="linr"  time="0/1" value="0" leadInLength="0/1"  />
             </VectorParam>
            </Transformer>
            <Parameters>
             <VectorParam id="645"  name="sourceCrop">
              <InterpolatingParam id="646" interp="linr"  time="0/1" value="0" leadInLength="0/1"  />
              <InterpolatingParam id="647" interp="linr"  time="0/1" value="0" leadInLength="0/1"  />
              <InterpolatingParam id="648" interp="linr"  time="0/1" value="0" leadInLength="0/1"  />
              <InterpolatingParam id="649" interp="linr"  time="0/1" value="0" leadInLength="0/1"  />
             </VectorParam>
             <VectorParam id="650"  name="geometryCrop">
              <InterpolatingParam id="651" interp="linr"  time="-9999999/1" value="0" leadInLength="0/1"  />
              <InterpolatingParam id="652" interp="linr"  time="-9999999/1" value="0" leadInLength="0/1"  />
              <InterpolatingParam id="653" interp="linr"  time="-9999999/1" value="0" leadInLength="0/1"  />
              <InterpolatingParam id="654" interp="linr"  time="-9999999/1" value="0" leadInLength="0/1"  />
             </VectorParam>
             <InterpolatingParam id="655" interp="linr"  time="-9999999/1" value="1" leadInLength="0/1"  name="opacity"/>
             <InterpolatingParam id="656" interp="linr"  time="0/1" value="0" leadInLength="0/1"  name="cursorOpacity"/>
             <InterpolatingParam id="657" interp="linr"  time="0/1" value="0" leadInLength="0/1"  name="cursorScale"/>
            </Parameters>
            <Attributes>
             <Attribute id="658" value="" name="ident"/>
            </Attributes>
            <MetaData>
             <entry key="AutoAppliedSmartFocus" val="False"/>
             <entry key="WinSubProjectDisplayName" val=""/>
            </MetaData>
            <ExtraData>
             <Entry key="ZoomPanBin">
              <ZoomPanBin id="659"  >
               <ZoomPanKeyframes>
                <ZoomPanKeyframe id="660" timeRangeEnd="-9999999/1" timeRangeDuration="0/1" interpolaterName=""  />
               </ZoomPanKeyframes>
              </ZoomPanBin>
             </Entry>
             <Entry key="CursorEffectBin">
              <CursorEffectBin id="661"  >
               <CursorEffectKeyframes>
               </CursorEffectKeyframes>
              </CursorEffectBin>
             </Entry>
            </ExtraData>
           </ScreenVMFile>
           <ScreenVMFile id="662" start="3681" duration="20" scalar="1/1" mediaStart="3968/1" mediaDuration="20/1" trackNumber="0" src="4" >
            <Transformer>
             <VectorParam id="663"  name="translation">
              <InterpolatingParam id="664" interp="linr"  time="-9999999/1" value="0" leadInLength="0/1"  />
              <InterpolatingParam id="665" interp="linr"  time="-9999999/1" value="0" leadInLength="0/1"  />
              <InterpolatingParam id="666" interp="linr"  time="-9999999/1" value="0" leadInLength="0/1"  />
             </VectorParam>
             <VectorParam id="667"  name="rotation">
              <InterpolatingParam id="668" interp="linr"  time="-9999999/1" value="0" leadInLength="0/1"  />
              <InterpolatingParam id="669" interp="linr"  time="-9999999/1" value="0" leadInLength="0/1"  />
              <InterpolatingParam id="670" interp="linr"  time="-9999999/1" value="0" leadInLength="0/1"  />
             </VectorParam>
             <VectorParam id="671"  name="shear">
              <InterpolatingParam id="672" interp="linr"  time="-9999999/1" value="0" leadInLength="0/1"  />
              <InterpolatingParam id="673" interp="linr"  time="-9999999/1" value="0" leadInLength="0/1"  />
              <InterpolatingParam id="674" interp="linr"  time="-9999999/1" value="0" leadInLength="0/1"  />
             </VectorParam>
             <VectorParam id="675"  name="scale">
              <InterpolatingParam id="676" interp="linr"  time="-9999999/1" value="1" leadInLength="0/1"  />
              <InterpolatingParam id="677" interp="linr"  time="-9999999/1" value="1" leadInLength="0/1"  />
              <InterpolatingParam id="678" interp="linr"  time="-9999999/1" value="1" leadInLength="0/1"  />
             </VectorParam>
             <VectorParam id="679"  name="anchor">
              <InterpolatingParam id="680" interp="linr"  time="0/1" value="0" leadInLength="0/1"  />
              <InterpolatingParam id="681" interp="linr"  time="0/1" value="0" leadInLength="0/1"  />
              <InterpolatingParam id="682" interp="linr"  time="0/1" value="0" leadInLength="0/1"  />
             </VectorParam>
            </Transformer>
            <Parameters>
             <VectorParam id="683"  name="sourceCrop">
              <InterpolatingParam id="684" interp="linr"  time="0/1" value="0" leadInLength="0/1"  />
              <InterpolatingParam id="685" interp="linr"  time="0/1" value="0" leadInLength="0/1"  />
              <InterpolatingParam id="686" interp="linr"  time="0/1" value="0" leadInLength="0/1"  />
              <InterpolatingParam id="687" interp="linr"  time="0/1" value="0" leadInLength="0/1"  />
             </VectorParam>
             <VectorParam id="688"  name="geometryCrop">
              <InterpolatingParam id="689" interp="linr"  time="-9999999/1" value="0" leadInLength="0/1"  />
              <InterpolatingParam id="690" interp="linr"  time="-9999999/1" value="0" leadInLength="0/1"  />
              <InterpolatingParam id="691" interp="linr"  time="-9999999/1" value="0" leadInLength="0/1"  />
              <InterpolatingParam id="692" interp="linr"  time="-9999999/1" value="0" leadInLength="0/1"  />
             </VectorParam>
             <InterpolatingParam id="693" interp="linr"  time="-9999999/1" value="1" leadInLength="0/1"  name="opacity"/>
             <InterpolatingParam id="694" interp="linr"  time="0/1" value="0" leadInLength="0/1"  name="cursorOpacity"/>
             <InterpolatingParam id="695" interp="linr"  time="0/1" value="0" leadInLength="0/1"  name="cursorScale"/>
            </Parameters>
            <Attributes>
             <Attribute id="696" value="" name="ident"/>
            </Attributes>
            <MetaData>
             <entry key="AutoAppliedSmartFocus" val="False"/>
             <entry key="WinSubProjectDisplayName" val=""/>
            </MetaData>
            <ExtraData>
             <Entry key="ZoomPanBin">
              <ZoomPanBin id="697"  >
               <ZoomPanKeyframes>
                <ZoomPanKeyframe id="698" timeRangeEnd="-9999999/1" timeRangeDuration="0/1" interpolaterName=""  />
               </ZoomPanKeyframes>
              </ZoomPanBin>
             </Entry>
             <Entry key="CursorEffectBin">
              <CursorEffectBin id="699"  >
               <CursorEffectKeyframes>
               </CursorEffectKeyframes>
              </CursorEffectBin>
             </Entry>
            </ExtraData>
           </ScreenVMFile>
           <ScreenVMFile id="700" start="3701" duration="101" scalar="1/1" mediaStart="4000/1" mediaDuration="101/1" trackNumber="0" src="4" >
            <Transformer>
             <VectorParam id="701"  name="translation">
              <InterpolatingParam id="702" interp="linr"  time="-9999999/1" value="0" leadInLength="0/1"  />
              <InterpolatingParam id="703" interp="linr"  time="-9999999/1" value="0" leadInLength="0/1"  />
              <InterpolatingParam id="704" interp="linr"  time="-9999999/1" value="0" leadInLength="0/1"  />
             </VectorParam>
             <VectorParam id="705"  name="rotation">
              <InterpolatingParam id="706" interp="linr"  time="-9999999/1" value="0" leadInLength="0/1"  />
              <InterpolatingParam id="707" interp="linr"  time="-9999999/1" value="0" leadInLength="0/1"  />
              <InterpolatingParam id="708" interp="linr"  time="-9999999/1" value="0" leadInLength="0/1"  />
             </VectorParam>
             <VectorParam id="709"  name="shear">
              <InterpolatingParam id="710" interp="linr"  time="-9999999/1" value="0" leadInLength="0/1"  />
              <InterpolatingParam id="711" interp="linr"  time="-9999999/1" value="0" leadInLength="0/1"  />
              <InterpolatingParam id="712" interp="linr"  time="-9999999/1" value="0" leadInLength="0/1"  />
             </VectorParam>
             <VectorParam id="713"  name="scale">
              <InterpolatingParam id="714" interp="linr"  time="-9999999/1" value="1" leadInLength="0/1"  />
              <InterpolatingParam id="715" interp="linr"  time="-9999999/1" value="1" leadInLength="0/1"  />
              <InterpolatingParam id="716" interp="linr"  time="-9999999/1" value="1" leadInLength="0/1"  />
             </VectorParam>
             <VectorParam id="717"  name="anchor">
              <InterpolatingParam id="718" interp="linr"  time="0/1" value="0" leadInLength="0/1"  />
              <InterpolatingParam id="719" interp="linr"  time="0/1" value="0" leadInLength="0/1"  />
              <InterpolatingParam id="720" interp="linr"  time="0/1" value="0" leadInLength="0/1"  />
             </VectorParam>
            </Transformer>
            <Parameters>
             <VectorParam id="721"  name="sourceCrop">
              <InterpolatingParam id="722" interp="linr"  time="0/1" value="0" leadInLength="0/1"  />
              <InterpolatingParam id="723" interp="linr"  time="0/1" value="0" leadInLength="0/1"  />
              <InterpolatingParam id="724" interp="linr"  time="0/1" value="0" leadInLength="0/1"  />
              <InterpolatingParam id="725" interp="linr"  time="0/1" value="0" leadInLength="0/1"  />
             </VectorParam>
             <VectorParam id="726"  name="geometryCrop">
              <InterpolatingParam id="727" interp="linr"  time="-9999999/1" value="0" leadInLength="0/1"  />
              <InterpolatingParam id="728" interp="linr"  time="-9999999/1" value="0" leadInLength="0/1"  />
              <InterpolatingParam id="729" interp="linr"  time="-9999999/1" value="0" leadInLength="0/1"  />
              <InterpolatingParam id="730" interp="linr"  time="-9999999/1" value="0" leadInLength="0/1"  />
             </VectorParam>
             <InterpolatingParam id="731" interp="linr"  time="-9999999/1" value="1" leadInLength="0/1"  name="opacity"/>
             <InterpolatingParam id="732" interp="linr"  time="0/1" value="0" leadInLength="0/1"  name="cursorOpacity"/>
             <InterpolatingParam id="733" interp="linr"  time="0/1" value="0" leadInLength="0/1"  name="cursorScale"/>
            </Parameters>
            <Attributes>
             <Attribute id="734" value="" name="ident"/>
            </Attributes>
            <MetaData>
             <entry key="AutoAppliedSmartFocus" val="False"/>
             <entry key="WinSubProjectDisplayName" val=""/>
            </MetaData>
            <ExtraData>
             <Entry key="ZoomPanBin">
              <ZoomPanBin id="735"  >
               <ZoomPanKeyframes>
                <ZoomPanKeyframe id="736" timeRangeEnd="-9999999/1" timeRangeDuration="0/1" interpolaterName=""  />
               </ZoomPanKeyframes>
              </ZoomPanBin>
             </Entry>
             <Entry key="CursorEffectBin">
              <CursorEffectBin id="737"  >
               <CursorEffectKeyframes>
               </CursorEffectKeyframes>
              </CursorEffectBin>
             </Entry>
            </ExtraData>
           </ScreenVMFile>
           <ScreenVMFile id="738" start="3802" duration="102" scalar="1/1" mediaStart="4258/1" mediaDuration="102/1" trackNumber="0" src="4" >
            <Transformer>
             <VectorParam id="739"  name="translation">
              <InterpolatingParam id="740" interp="linr"  time="-9999999/1" value="0" leadInLength="0/1"  />
              <InterpolatingParam id="741" interp="linr"  time="-9999999/1" value="0" leadInLength="0/1"  />
              <InterpolatingParam id="742" interp="linr"  time="-9999999/1" value="0" leadInLength="0/1"  />
             </VectorParam>
             <VectorParam id="743"  name="rotation">
              <InterpolatingParam id="744" interp="linr"  time="-9999999/1" value="0" leadInLength="0/1"  />
              <InterpolatingParam id="745" interp="linr"  time="-9999999/1" value="0" leadInLength="0/1"  />
              <InterpolatingParam id="746" interp="linr"  time="-9999999/1" value="0" leadInLength="0/1"  />
             </VectorParam>
             <VectorParam id="747"  name="shear">
              <InterpolatingParam id="748" interp="linr"  time="-9999999/1" value="0" leadInLength="0/1"  />
              <InterpolatingParam id="749" interp="linr"  time="-9999999/1" value="0" leadInLength="0/1"  />
              <InterpolatingParam id="750" interp="linr"  time="-9999999/1" value="0" leadInLength="0/1"  />
             </VectorParam>
             <VectorParam id="751"  name="scale">
              <InterpolatingParam id="752" interp="linr"  time="-9999999/1" value="1" leadInLength="0/1"  />
              <InterpolatingParam id="753" interp="linr"  time="-9999999/1" value="1" leadInLength="0/1"  />
              <InterpolatingParam id="754" interp="linr"  time="-9999999/1" value="1" leadInLength="0/1"  />
             </VectorParam>
             <VectorParam id="755"  name="anchor">
              <InterpolatingParam id="756" interp="linr"  time="0/1" value="0" leadInLength="0/1"  />
              <InterpolatingParam id="757" interp="linr"  time="0/1" value="0" leadInLength="0/1"  />
              <InterpolatingParam id="758" interp="linr"  time="0/1" value="0" leadInLength="0/1"  />
             </VectorParam>
            </Transformer>
            <Parameters>
             <VectorParam id="759"  name="sourceCrop">
              <InterpolatingParam id="760" interp="linr"  time="0/1" value="0" leadInLength="0/1"  />
              <InterpolatingParam id="761" interp="linr"  time="0/1" value="0" leadInLength="0/1"  />
              <InterpolatingParam id="762" interp="linr"  time="0/1" value="0" leadInLength="0/1"  />
              <InterpolatingParam id="763" interp="linr"  time="0/1" value="0" leadInLength="0/1"  />
             </VectorParam>
             <VectorParam id="764"  name="geometryCrop">
              <InterpolatingParam id="765" interp="linr"  time="-9999999/1" value="0" leadInLength="0/1"  />
              <InterpolatingParam id="766" interp="linr"  time="-9999999/1" value="0" leadInLength="0/1"  />
              <InterpolatingParam id="767" interp="linr"  time="-9999999/1" value="0" leadInLength="0/1"  />
              <InterpolatingParam id="768" interp="linr"  time="-9999999/1" value="0" leadInLength="0/1"  />
             </VectorParam>
             <InterpolatingParam id="769" interp="linr"  time="-9999999/1" value="1" leadInLength="0/1"  name="opacity"/>
             <InterpolatingParam id="770" interp="linr"  time="0/1" value="0" leadInLength="0/1"  name="cursorOpacity"/>
             <InterpolatingParam id="771" interp="linr"  time="0/1" value="0" leadInLength="0/1"  name="cursorScale"/>
            </Parameters>
            <Attributes>
             <Attribute id="772" value="" name="ident"/>
            </Attributes>
            <MetaData>
             <entry key="AutoAppliedSmartFocus" val="False"/>
             <entry key="WinSubProjectDisplayName" val=""/>
            </MetaData>
            <ExtraData>
             <Entry key="ZoomPanBin">
              <ZoomPanBin id="773"  >
               <ZoomPanKeyframes>
                <ZoomPanKeyframe id="774" timeRangeEnd="-9999999/1" timeRangeDuration="0/1" interpolaterName=""  />
               </ZoomPanKeyframes>
              </ZoomPanBin>
             </Entry>
             <Entry key="CursorEffectBin">
              <CursorEffectBin id="775"  >
               <CursorEffectKeyframes>
               </CursorEffectKeyframes>
              </CursorEffectBin>
             </Entry>
            </ExtraData>
           </ScreenVMFile>
           <ScreenVMFile id="776" start="3904" duration="15258" scalar="1/1" mediaStart="4478/1" mediaDuration="15258/1" trackNumber="0" src="4" >
            <Transformer>
             <VectorParam id="777"  name="translation">
              <InterpolatingParam id="778" interp="linr"  time="-9999999/1" value="0" leadInLength="0/1"  />
              <InterpolatingParam id="779" interp="linr"  time="-9999999/1" value="0" leadInLength="0/1"  />
              <InterpolatingParam id="780" interp="linr"  time="-9999999/1" value="0" leadInLength="0/1"  />
             </VectorParam>
             <VectorParam id="781"  name="rotation">
              <InterpolatingParam id="782" interp="linr"  time="-9999999/1" value="0" leadInLength="0/1"  />
              <InterpolatingParam id="783" interp="linr"  time="-9999999/1" value="0" leadInLength="0/1"  />
              <InterpolatingParam id="784" interp="linr"  time="-9999999/1" value="0" leadInLength="0/1"  />
             </VectorParam>
             <VectorParam id="785"  name="shear">
              <InterpolatingParam id="786" interp="linr"  time="-9999999/1" value="0" leadInLength="0/1"  />
              <InterpolatingParam id="787" interp="linr"  time="-9999999/1" value="0" leadInLength="0/1"  />
              <InterpolatingParam id="788" interp="linr"  time="-9999999/1" value="0" leadInLength="0/1"  />
             </VectorParam>
             <VectorParam id="789"  name="scale">
              <InterpolatingParam id="790" interp="linr"  time="-9999999/1" value="1" leadInLength="0/1"  />
              <InterpolatingParam id="791" interp="linr"  time="-9999999/1" value="1" leadInLength="0/1"  />
              <InterpolatingParam id="792" interp="linr"  time="-9999999/1" value="1" leadInLength="0/1"  />
             </VectorParam>
             <VectorParam id="793"  name="anchor">
              <InterpolatingParam id="794" interp="linr"  time="0/1" value="0" leadInLength="0/1"  />
              <InterpolatingParam id="795" interp="linr"  time="0/1" value="0" leadInLength="0/1"  />
              <InterpolatingParam id="796" interp="linr"  time="0/1" value="0" leadInLength="0/1"  />
             </VectorParam>
            </Transformer>
            <Parameters>
             <VectorParam id="797"  name="sourceCrop">
              <InterpolatingParam id="798" interp="linr"  time="0/1" value="0" leadInLength="0/1"  />
              <InterpolatingParam id="799" interp="linr"  time="0/1" value="0" leadInLength="0/1"  />
              <InterpolatingParam id="800" interp="linr"  time="0/1" value="0" leadInLength="0/1"  />
              <InterpolatingParam id="801" interp="linr"  time="0/1" value="0" leadInLength="0/1"  />
             </VectorParam>
             <VectorParam id="802"  name="geometryCrop">
              <InterpolatingParam id="803" interp="linr"  time="-9999999/1" value="0" leadInLength="0/1"  />
              <InterpolatingParam id="804" interp="linr"  time="-9999999/1" value="0" leadInLength="0/1"  />
              <InterpolatingParam id="805" interp="linr"  time="-9999999/1" value="0" leadInLength="0/1"  />
              <InterpolatingParam id="806" interp="linr"  time="-9999999/1" value="0" leadInLength="0/1"  />
             </VectorParam>
             <InterpolatingParam id="807" interp="linr"  time="-9999999/1" value="1" leadInLength="0/1"  name="opacity"/>
             <InterpolatingParam id="808" interp="linr"  time="0/1" value="0" leadInLength="0/1"  name="cursorOpacity"/>
             <InterpolatingParam id="809" interp="linr"  time="0/1" value="0" leadInLength="0/1"  name="cursorScale"/>
            </Parameters>
            <Attributes>
             <Attribute id="810" value="" name="ident"/>
            </Attributes>
            <MetaData>
             <entry key="AutoAppliedSmartFocus" val="False"/>
             <entry key="WinSubProjectDisplayName" val=""/>
            </MetaData>
            <ExtraData>
             <Entry key="ZoomPanBin">
              <ZoomPanBin id="811"  >
               <ZoomPanKeyframes>
                <ZoomPanKeyframe id="812" timeRangeEnd="-9999999/1" timeRangeDuration="0/1" interpolaterName=""  />
               </ZoomPanKeyframes>
              </ZoomPanBin>
             </Entry>
             <Entry key="CursorEffectBin">
              <CursorEffectBin id="813"  >
               <CursorEffectKeyframes>
               </CursorEffectKeyframes>
              </CursorEffectBin>
             </Entry>
            </ExtraData>
           </ScreenVMFile>
          </Medias>
         </GenericTrack>
        </StitchedMedia>
        <StitchedMedia id="814" start="3704" duration="2597" scalar="1/1" mediaStart="0/1" mediaDuration="2597/1" minMediaStart="0/1" >
         <Transformer>
          <VectorParam id="815"  name="translation">
           <InterpolatingParam id="816" interp="linr"  time="-9999999/1" value="5.4135338346032684" leadInLength="0/1"  />
           <InterpolatingParam id="817" interp="linr"  time="-9999999/1" value="0.21114369503330882" leadInLength="0/1"  />
           <InterpolatingParam id="818" interp="linr"  time="-9999999/1" value="-3.4106051316482886e-010" leadInLength="0/1"  />
          </VectorParam>
          <VectorParam id="819"  name="rotation">
           <InterpolatingParam id="820" interp="linr"  time="-9999999/1" value="0" leadInLength="0/1"  />
           <InterpolatingParam id="821" interp="linr"  time="-9999999/1" value="0" leadInLength="0/1"  />
           <InterpolatingParam id="822" interp="linr"  time="-9999999/1" value="0" leadInLength="0/1"  />
          </VectorParam>
          <VectorParam id="823"  name="shear">
           <InterpolatingParam id="824" interp="linr"  time="-9999999/1" value="0" leadInLength="0/1"  />
           <InterpolatingParam id="825" interp="linr"  time="-9999999/1" value="0" leadInLength="0/1"  />
           <InterpolatingParam id="826" interp="linr"  time="-9999999/1" value="0" leadInLength="0/1"  />
          </VectorParam>
          <VectorParam id="827"  name="scale">
           <InterpolatingParam id="828" interp="linr"  time="-9999999/1" value="0.94488787952291353" leadInLength="0/1"  />
           <InterpolatingParam id="829" interp="linr"  time="-9999999/1" value="0.93695014662756582" leadInLength="0/1"  />
           <InterpolatingParam id="830" interp="linr"  time="-9999999/1" value="1" leadInLength="0/1"  />
          </VectorParam>
          <VectorParam id="831"  name="anchor">
           <InterpolatingParam id="832" interp="linr"  time="0/1" value="0" leadInLength="0/1"  />
           <InterpolatingParam id="833" interp="linr"  time="0/1" value="0" leadInLength="0/1"  />
           <InterpolatingParam id="834" interp="linr"  time="0/1" value="0" leadInLength="0/1"  />
          </VectorParam>
         </Transformer>
         <Parameters>
          <VectorParam id="835"  name="sourceCrop">
           <InterpolatingParam id="836" interp="linr"  time="0/1" value="0" leadInLength="0/1"  />
           <InterpolatingParam id="837" interp="linr"  time="0/1" value="0" leadInLength="0/1"  />
           <InterpolatingParam id="838" interp="linr"  time="0/1" value="0" leadInLength="0/1"  />
           <InterpolatingParam id="839" interp="linr"  time="0/1" value="0" leadInLength="0/1"  />
          </VectorParam>
          <VectorParam id="840"  name="geometryCrop">
           <InterpolatingParam id="841" interp="linr"  time="-9999999/1" value="0" leadInLength="0/1"  />
           <InterpolatingParam id="842" interp="linr"  time="-9999999/1" value="0" leadInLength="0/1"  />
           <InterpolatingParam id="843" interp="linr"  time="-9999999/1" value="0" leadInLength="0/1"  />
           <InterpolatingParam id="844" interp="linr"  time="-9999999/1" value="0" leadInLength="0/1"  />
          </VectorParam>
          <InterpolatingParam id="845" interp="linr"  time="-9999999/1" value="1" leadInLength="0/1"  name="opacity"/>
          <InterpolatingParam id="846" interp="linr"  time="0/1" value="1" leadInLength="0/1"  name="cursorOpacity"/>
          <InterpolatingParam id="847" interp="linr"  time="0/1" value="1" leadInLength="0/1"  name="cursorScale"/>
          <Parameter id="848"  name="captions"/>
         </Parameters>
         <Effects>
          <GenericEffect id="849" name = "CursorBaseEffectName" >
           <Parameters>
           <InterpolatingParam id="850" interp="linr"  time="-9999999/1" value="1" leadInLength="0/1"   name="cursorSize"/>
           <InterpolatingParam id="851" interp="linr"  time="-9999999/1" value="0" leadInLength="0/1"   name="highlightBlurRadius"/>
           <InterpolatingParam id="852" interp="linr"  time="-9999999/1" value="0" leadInLength="0/1"   name="highlightColorBlue"/>
           <InterpolatingParam id="853" interp="linr"  time="-9999999/1" value="255" leadInLength="0/1"   name="highlightColorGreen"/>
           <InterpolatingParam id="854" interp="linr"  time="-9999999/1" value="255" leadInLength="0/1"   name="highlightColorRed"/>
           <InterpolatingParam id="855" interp="linr"  time="-9999999/1" value="5" leadInLength="0/1"   name="highlightFeatherSize"/>
           <InterpolatingParam id="856" interp="linr"  time="-9999999/1" value="2" leadInLength="0/1"   name="highlightMagnification"/>
           <InterpolatingParam id="857" interp="linr"  time="-9999999/1" value="1" leadInLength="0/1"   name="highlightOpacity"/>
           <InterpolatingParam id="858" interp="linr"  time="-9999999/1" value="45" leadInLength="0/1"   name="highlightSize"/>
           <Parameter id="859"   name="highlightType">
            <Keyframes>
            <Keyframe id="860"  time="-9999999/1" value="0" leadInLength="0/1"  />
            </Keyframes>
           </Parameter>
           <InterpolatingParam id="861" interp="linr"  time="-9999999/1" value="0" leadInLength="0/1"   name="leftClickColorBlue"/>
           <InterpolatingParam id="862" interp="linr"  time="-9999999/1" value="0" leadInLength="0/1"   name="leftClickColorGreen"/>
           <InterpolatingParam id="863" interp="linr"  time="-9999999/1" value="255" leadInLength="0/1"   name="leftClickColorRed"/>
           <InterpolatingParam id="864" interp="linr"  time="-9999999/1" value="0.80000000000000004" leadInLength="0/1"   name="leftClickDuration"/>
           <InterpolatingParam id="865" interp="linr"  time="-9999999/1" value="20" leadInLength="0/1"   name="leftClickSize"/>
           <Parameter id="866"   name="leftClickSoundFilename">
            <Keyframes>
            <Keyframe id="867"  time="-9999999/1" value="" leadInLength="0/1"  />
            </Keyframes>
           </Parameter>
           <InterpolatingParam id="868" interp="linr"  time="-9999999/1" value="1" leadInLength="0/1"   name="leftClickSoundVolume"/>
           <Parameter id="869"   name="leftClickType">
            <Keyframes>
            <Keyframe id="870"  time="-9999999/1" value="0" leadInLength="0/1"  />
            </Keyframes>
           </Parameter>
           <InterpolatingParam id="871" interp="linr"  time="-9999999/1" value="1" leadInLength="0/1"   name="opacity"/>
           <InterpolatingParam id="872" interp="linr"  time="-9999999/1" value="255" leadInLength="0/1"   name="rightClickColorBlue"/>
           <InterpolatingParam id="873" interp="linr"  time="-9999999/1" value="0" leadInLength="0/1"   name="rightClickColorGreen"/>
           <InterpolatingParam id="874" interp="linr"  time="-9999999/1" value="0" leadInLength="0/1"   name="rightClickColorRed"/>
           <InterpolatingParam id="875" interp="linr"  time="-9999999/1" value="0.80000000000000004" leadInLength="0/1"   name="rightClickDuration"/>
           <InterpolatingParam id="876" interp="linr"  time="-9999999/1" value="20" leadInLength="0/1"   name="rightClickSize"/>
           <Parameter id="877"   name="rightClickSoundFilename">
            <Keyframes>
            <Keyframe id="878"  time="-9999999/1" value="" leadInLength="0/1"  />
            </Keyframes>
           </Parameter>
           <InterpolatingParam id="879" interp="linr"  time="-9999999/1" value="1" leadInLength="0/1"   name="rightClickSoundVolume"/>
           <Parameter id="880"   name="rightClickType">
            <Keyframes>
            <Keyframe id="881"  time="-9999999/1" value="0" leadInLength="0/1"  />
            </Keyframes>
           </Parameter>
           </Parameters>
          </GenericEffect>
         </Effects>
         <Attributes>
          <Attribute id="882" value="" name="ident"/>
         </Attributes>
         <MetaData>
          <entry key="AutoAppliedSmartFocus" val="False"/>
          <entry key="WinSubProjectDisplayName" val=""/>
         </MetaData>
         <ExtraData>
          <Entry key="ZoomPanBin">
           <ZoomPanBin id="883"  >
            <ZoomPanKeyframes>
             <ZoomPanKeyframe id="884" timeRangeEnd="-9999999/1" timeRangeDuration="0/1" interpolaterName=""  />
            </ZoomPanKeyframes>
           </ZoomPanBin>
          </Entry>
          <Entry key="CursorEffectBin">
           <CursorEffectBin id="885"  >
            <CursorEffectKeyframes>
             <CursorEffectKeyframe id="886" timeRangeEnd="-9999999/1" timeRangeDuration="0/1" interpolaterName=""  />
            </CursorEffectKeyframes>
           </CursorEffectBin>
          </Entry>
         </ExtraData>
         <GenericTrack id="887"  >
          <Attributes>
           <Attribute id="888" value="" name="ident"/>
           <Attribute id="889" value="0" name="audioMuted"/>
           <Attribute id="890" value="0" name="videoHidden"/>
          </Attributes>
          <MetaData>
           <entry key="IsLocked" val="False"/>
           <entry key="WinTrackHeight" val="0"/>
          </MetaData>
          <Medias>
           <ScreenVMFile id="891" start="0" duration="721" scalar="1/1" mediaStart="0/1" mediaDuration="721/1" trackNumber="0" src="5" >
            <Transformer>
             <VectorParam id="892"  name="translation">
              <InterpolatingParam id="893" interp="linr"  time="-9999999/1" value="0" leadInLength="0/1"  />
              <InterpolatingParam id="894" interp="linr"  time="-9999999/1" value="0" leadInLength="0/1"  />
              <InterpolatingParam id="895" interp="linr"  time="-9999999/1" value="0" leadInLength="0/1"  />
             </VectorParam>
             <VectorParam id="896"  name="rotation">
              <InterpolatingParam id="897" interp="linr"  time="-9999999/1" value="0" leadInLength="0/1"  />
              <InterpolatingParam id="898" interp="linr"  time="-9999999/1" value="0" leadInLength="0/1"  />
              <InterpolatingParam id="899" interp="linr"  time="-9999999/1" value="0" leadInLength="0/1"  />
             </VectorParam>
             <VectorParam id="900"  name="shear">
              <InterpolatingParam id="901" interp="linr"  time="-9999999/1" value="0" leadInLength="0/1"  />
              <InterpolatingParam id="902" interp="linr"  time="-9999999/1" value="0" leadInLength="0/1"  />
              <InterpolatingParam id="903" interp="linr"  time="-9999999/1" value="0" leadInLength="0/1"  />
             </VectorParam>
             <VectorParam id="904"  name="scale">
              <InterpolatingParam id="905" interp="linr"  time="-9999999/1" value="1" leadInLength="0/1"  />
              <InterpolatingParam id="906" interp="linr"  time="-9999999/1" value="1" leadInLength="0/1"  />
              <InterpolatingParam id="907" interp="linr"  time="-9999999/1" value="1" leadInLength="0/1"  />
             </VectorParam>
             <VectorParam id="908"  name="anchor">
              <InterpolatingParam id="909" interp="linr"  time="0/1" value="0" leadInLength="0/1"  />
              <InterpolatingParam id="910" interp="linr"  time="0/1" value="0" leadInLength="0/1"  />
              <InterpolatingParam id="911" interp="linr"  time="0/1" value="0" leadInLength="0/1"  />
             </VectorParam>
            </Transformer>
            <Parameters>
             <VectorParam id="912"  name="sourceCrop">
              <InterpolatingParam id="913" interp="linr"  time="0/1" value="0" leadInLength="0/1"  />
              <InterpolatingParam id="914" interp="linr"  time="0/1" value="0" leadInLength="0/1"  />
              <InterpolatingParam id="915" interp="linr"  time="0/1" value="0" leadInLength="0/1"  />
              <InterpolatingParam id="916" interp="linr"  time="0/1" value="0" leadInLength="0/1"  />
             </VectorParam>
             <VectorParam id="917"  name="geometryCrop">
              <InterpolatingParam id="918" interp="linr"  time="-9999999/1" value="0" leadInLength="0/1"  />
              <InterpolatingParam id="919" interp="linr"  time="-9999999/1" value="0" leadInLength="0/1"  />
              <InterpolatingParam id="920" interp="linr"  time="-9999999/1" value="0" leadInLength="0/1"  />
              <InterpolatingParam id="921" interp="linr"  time="-9999999/1" value="0" leadInLength="0/1"  />
             </VectorParam>
             <InterpolatingParam id="922" interp="linr"  time="-9999999/1" value="1" leadInLength="0/1"  name="opacity"/>
             <InterpolatingParam id="923" interp="linr"  time="0/1" value="0" leadInLength="0/1"  name="cursorOpacity"/>
             <InterpolatingParam id="924" interp="linr"  time="0/1" value="0" leadInLength="0/1"  name="cursorScale"/>
            </Parameters>
            <Attributes>
             <Attribute id="925" value="" name="ident"/>
            </Attributes>
            <MetaData>
             <entry key="AutoAppliedSmartFocus" val="False"/>
             <entry key="WinSubProjectDisplayName" val=""/>
            </MetaData>
            <ExtraData>
             <Entry key="ZoomPanBin">
              <ZoomPanBin id="926"  >
               <ZoomPanKeyframes>
                <ZoomPanKeyframe id="927" timeRangeEnd="-9999999/1" timeRangeDuration="0/1" interpolaterName=""  />
               </ZoomPanKeyframes>
              </ZoomPanBin>
             </Entry>
             <Entry key="CursorEffectBin">
              <CursorEffectBin id="928"  >
               <CursorEffectKeyframes>
               </CursorEffectKeyframes>
              </CursorEffectBin>
             </Entry>
            </ExtraData>
           </ScreenVMFile>
           <ScreenVMFile id="929" start="721" duration="1449" scalar="1/1" mediaStart="736/1" mediaDuration="1449/1" trackNumber="0" src="5" >
            <Transformer>
             <VectorParam id="930"  name="translation">
              <InterpolatingParam id="931" interp="linr"  time="-9999999/1" value="0" leadInLength="0/1"  />
              <InterpolatingParam id="932" interp="linr"  time="-9999999/1" value="0" leadInLength="0/1"  />
              <InterpolatingParam id="933" interp="linr"  time="-9999999/1" value="0" leadInLength="0/1"  />
             </VectorParam>
             <VectorParam id="934"  name="rotation">
              <InterpolatingParam id="935" interp="linr"  time="-9999999/1" value="0" leadInLength="0/1"  />
              <InterpolatingParam id="936" interp="linr"  time="-9999999/1" value="0" leadInLength="0/1"  />
              <InterpolatingParam id="937" interp="linr"  time="-9999999/1" value="0" leadInLength="0/1"  />
             </VectorParam>
             <VectorParam id="938"  name="shear">
              <InterpolatingParam id="939" interp="linr"  time="-9999999/1" value="0" leadInLength="0/1"  />
              <InterpolatingParam id="940" interp="linr"  time="-9999999/1" value="0" leadInLength="0/1"  />
              <InterpolatingParam id="941" interp="linr"  time="-9999999/1" value="0" leadInLength="0/1"  />
             </VectorParam>
             <VectorParam id="942"  name="scale">
              <InterpolatingParam id="943" interp="linr"  time="-9999999/1" value="1" leadInLength="0/1"  />
              <InterpolatingParam id="944" interp="linr"  time="-9999999/1" value="1" leadInLength="0/1"  />
              <InterpolatingParam id="945" interp="linr"  time="-9999999/1" value="1" leadInLength="0/1"  />
             </VectorParam>
             <VectorParam id="946"  name="anchor">
              <InterpolatingParam id="947" interp="linr"  time="0/1" value="0" leadInLength="0/1"  />
              <InterpolatingParam id="948" interp="linr"  time="0/1" value="0" leadInLength="0/1"  />
              <InterpolatingParam id="949" interp="linr"  time="0/1" value="0" leadInLength="0/1"  />
             </VectorParam>
            </Transformer>
            <Parameters>
             <VectorParam id="950"  name="sourceCrop">
              <InterpolatingParam id="951" interp="linr"  time="0/1" value="0" leadInLength="0/1"  />
              <InterpolatingParam id="952" interp="linr"  time="0/1" value="0" leadInLength="0/1"  />
              <InterpolatingParam id="953" interp="linr"  time="0/1" value="0" leadInLength="0/1"  />
              <InterpolatingParam id="954" interp="linr"  time="0/1" value="0" leadInLength="0/1"  />
             </VectorParam>
             <VectorParam id="955"  name="geometryCrop">
              <InterpolatingParam id="956" interp="linr"  time="-9999999/1" value="0" leadInLength="0/1"  />
              <InterpolatingParam id="957" interp="linr"  time="-9999999/1" value="0" leadInLength="0/1"  />
              <InterpolatingParam id="958" interp="linr"  time="-9999999/1" value="0" leadInLength="0/1"  />
              <InterpolatingParam id="959" interp="linr"  time="-9999999/1" value="0" leadInLength="0/1"  />
             </VectorParam>
             <InterpolatingParam id="960" interp="linr"  time="-9999999/1" value="1" leadInLength="0/1"  name="opacity"/>
             <InterpolatingParam id="961" interp="linr"  time="0/1" value="0" leadInLength="0/1"  name="cursorOpacity"/>
             <InterpolatingParam id="962" interp="linr"  time="0/1" value="0" leadInLength="0/1"  name="cursorScale"/>
            </Parameters>
            <Attributes>
             <Attribute id="963" value="" name="ident"/>
            </Attributes>
            <MetaData>
             <entry key="AutoAppliedSmartFocus" val="False"/>
             <entry key="WinSubProjectDisplayName" val=""/>
            </MetaData>
            <ExtraData>
             <Entry key="ZoomPanBin">
              <ZoomPanBin id="964"  >
               <ZoomPanKeyframes>
                <ZoomPanKeyframe id="965" timeRangeEnd="-9999999/1" timeRangeDuration="0/1" interpolaterName=""  />
               </ZoomPanKeyframes>
              </ZoomPanBin>
             </Entry>
             <Entry key="CursorEffectBin">
              <CursorEffectBin id="966"  >
               <CursorEffectKeyframes>
               </CursorEffectKeyframes>
              </CursorEffectBin>
             </Entry>
            </ExtraData>
           </ScreenVMFile>
           <ScreenVMFile id="967" start="2170" duration="452" scalar="1/1" mediaStart="2200/1" mediaDuration="452/1" trackNumber="0" src="5" >
            <Transformer>
             <VectorParam id="968"  name="translation">
              <InterpolatingParam id="969" interp="linr"  time="-9999999/1" value="0" leadInLength="0/1"  />
              <InterpolatingParam id="970" interp="linr"  time="-9999999/1" value="0" leadInLength="0/1"  />
              <InterpolatingParam id="971" interp="linr"  time="-9999999/1" value="0" leadInLength="0/1"  />
             </VectorParam>
             <VectorParam id="972"  name="rotation">
              <InterpolatingParam id="973" interp="linr"  time="-9999999/1" value="0" leadInLength="0/1"  />
              <InterpolatingParam id="974" interp="linr"  time="-9999999/1" value="0" leadInLength="0/1"  />
              <InterpolatingParam id="975" interp="linr"  time="-9999999/1" value="0" leadInLength="0/1"  />
             </VectorParam>
             <VectorParam id="976"  name="shear">
              <InterpolatingParam id="977" interp="linr"  time="-9999999/1" value="0" leadInLength="0/1"  />
              <InterpolatingParam id="978" interp="linr"  time="-9999999/1" value="0" leadInLength="0/1"  />
              <InterpolatingParam id="979" interp="linr"  time="-9999999/1" value="0" leadInLength="0/1"  />
             </VectorParam>
             <VectorParam id="980"  name="scale">
              <InterpolatingParam id="981" interp="linr"  time="-9999999/1" value="1" leadInLength="0/1"  />
              <InterpolatingParam id="982" interp="linr"  time="-9999999/1" value="1" leadInLength="0/1"  />
              <InterpolatingParam id="983" interp="linr"  time="-9999999/1" value="1" leadInLength="0/1"  />
             </VectorParam>
             <VectorParam id="984"  name="anchor">
              <InterpolatingParam id="985" interp="linr"  time="0/1" value="0" leadInLength="0/1"  />
              <InterpolatingParam id="986" interp="linr"  time="0/1" value="0" leadInLength="0/1"  />
              <InterpolatingParam id="987" interp="linr"  time="0/1" value="0" leadInLength="0/1"  />
             </VectorParam>
            </Transformer>
            <Parameters>
             <VectorParam id="988"  name="sourceCrop">
              <InterpolatingParam id="989" interp="linr"  time="0/1" value="0" leadInLength="0/1"  />
              <InterpolatingParam id="990" interp="linr"  time="0/1" value="0" leadInLength="0/1"  />
              <InterpolatingParam id="991" interp="linr"  time="0/1" value="0" leadInLength="0/1"  />
              <InterpolatingParam id="992" interp="linr"  time="0/1" value="0" leadInLength="0/1"  />
             </VectorParam>
             <VectorParam id="993"  name="geometryCrop">
              <InterpolatingParam id="994" interp="linr"  time="-9999999/1" value="0" leadInLength="0/1"  />
              <InterpolatingParam id="995" interp="linr"  time="-9999999/1" value="0" leadInLength="0/1"  />
              <InterpolatingParam id="996" interp="linr"  time="-9999999/1" value="0" leadInLength="0/1"  />
              <InterpolatingParam id="997" interp="linr"  time="-9999999/1" value="0" leadInLength="0/1"  />
             </VectorParam>
             <InterpolatingParam id="998" interp="linr"  time="-9999999/1" value="1" leadInLength="0/1"  name="opacity"/>
             <InterpolatingParam id="999" interp="linr"  time="0/1" value="0" leadInLength="0/1"  name="cursorOpacity"/>
             <InterpolatingParam id="1000" interp="linr"  time="0/1" value="0" leadInLength="0/1"  name="cursorScale"/>
            </Parameters>
            <Attributes>
             <Attribute id="1001" value="" name="ident"/>
            </Attributes>
            <MetaData>
             <entry key="AutoAppliedSmartFocus" val="False"/>
             <entry key="WinSubProjectDisplayName" val=""/>
            </MetaData>
            <ExtraData>
             <Entry key="ZoomPanBin">
              <ZoomPanBin id="1002"  >
               <ZoomPanKeyframes>
                <ZoomPanKeyframe id="1003" timeRangeEnd="-9999999/1" timeRangeDuration="0/1" interpolaterName=""  />
               </ZoomPanKeyframes>
              </ZoomPanBin>
             </Entry>
             <Entry key="CursorEffectBin">
              <CursorEffectBin id="1004"  >
               <CursorEffectKeyframes>
               </CursorEffectKeyframes>
              </CursorEffectBin>
             </Entry>
            </ExtraData>
           </ScreenVMFile>
           <ScreenVMFile id="1005" start="2622" duration="32" scalar="1/1" mediaStart="2797/1" mediaDuration="32/1" trackNumber="0" src="5" >
            <Transformer>
             <VectorParam id="1006"  name="translation">
              <InterpolatingParam id="1007" interp="linr"  time="-9999999/1" value="0" leadInLength="0/1"  />
              <InterpolatingParam id="1008" interp="linr"  time="-9999999/1" value="0" leadInLength="0/1"  />
              <InterpolatingParam id="1009" interp="linr"  time="-9999999/1" value="0" leadInLength="0/1"  />
             </VectorParam>
             <VectorParam id="1010"  name="rotation">
              <InterpolatingParam id="1011" interp="linr"  time="-9999999/1" value="0" leadInLength="0/1"  />
              <InterpolatingParam id="1012" interp="linr"  time="-9999999/1" value="0" leadInLength="0/1"  />
              <InterpolatingParam id="1013" interp="linr"  time="-9999999/1" value="0" leadInLength="0/1"  />
             </VectorParam>
             <VectorParam id="1014"  name="shear">
              <InterpolatingParam id="1015" interp="linr"  time="-9999999/1" value="0" leadInLength="0/1"  />
              <InterpolatingParam id="1016" interp="linr"  time="-9999999/1" value="0" leadInLength="0/1"  />
              <InterpolatingParam id="1017" interp="linr"  time="-9999999/1" value="0" leadInLength="0/1"  />
             </VectorParam>
             <VectorParam id="1018"  name="scale">
              <InterpolatingParam id="1019" interp="linr"  time="-9999999/1" value="1" leadInLength="0/1"  />
              <InterpolatingParam id="1020" interp="linr"  time="-9999999/1" value="1" leadInLength="0/1"  />
              <InterpolatingParam id="1021" interp="linr"  time="-9999999/1" value="1" leadInLength="0/1"  />
             </VectorParam>
             <VectorParam id="1022"  name="anchor">
              <InterpolatingParam id="1023" interp="linr"  time="0/1" value="0" leadInLength="0/1"  />
              <InterpolatingParam id="1024" interp="linr"  time="0/1" value="0" leadInLength="0/1"  />
              <InterpolatingParam id="1025" interp="linr"  time="0/1" value="0" leadInLength="0/1"  />
             </VectorParam>
            </Transformer>
            <Parameters>
             <VectorParam id="1026"  name="sourceCrop">
              <InterpolatingParam id="1027" interp="linr"  time="0/1" value="0" leadInLength="0/1"  />
              <InterpolatingParam id="1028" interp="linr"  time="0/1" value="0" leadInLength="0/1"  />
              <InterpolatingParam id="1029" interp="linr"  time="0/1" value="0" leadInLength="0/1"  />
              <InterpolatingParam id="1030" interp="linr"  time="0/1" value="0" leadInLength="0/1"  />
             </VectorParam>
             <VectorParam id="1031"  name="geometryCrop">
              <InterpolatingParam id="1032" interp="linr"  time="-9999999/1" value="0" leadInLength="0/1"  />
              <InterpolatingParam id="1033" interp="linr"  time="-9999999/1" value="0" leadInLength="0/1"  />
              <InterpolatingParam id="1034" interp="linr"  time="-9999999/1" value="0" leadInLength="0/1"  />
              <InterpolatingParam id="1035" interp="linr"  time="-9999999/1" value="0" leadInLength="0/1"  />
             </VectorParam>
             <InterpolatingParam id="1036" interp="linr"  time="-9999999/1" value="1" leadInLength="0/1"  name="opacity"/>
             <InterpolatingParam id="1037" interp="linr"  time="0/1" value="0" leadInLength="0/1"  name="cursorOpacity"/>
             <InterpolatingParam id="1038" interp="linr"  time="0/1" value="0" leadInLength="0/1"  name="cursorScale"/>
            </Parameters>
            <Attributes>
             <Attribute id="1039" value="" name="ident"/>
            </Attributes>
            <MetaData>
             <entry key="AutoAppliedSmartFocus" val="False"/>
             <entry key="WinSubProjectDisplayName" val=""/>
            </MetaData>
            <ExtraData>
             <Entry key="ZoomPanBin">
              <ZoomPanBin id="1040"  >
               <ZoomPanKeyframes>
                <ZoomPanKeyframe id="1041" timeRangeEnd="-9999999/1" timeRangeDuration="0/1" interpolaterName=""  />
               </ZoomPanKeyframes>
              </ZoomPanBin>
             </Entry>
             <Entry key="CursorEffectBin">
              <CursorEffectBin id="1042"  >
               <CursorEffectKeyframes>
               </CursorEffectKeyframes>
              </CursorEffectBin>
             </Entry>
            </ExtraData>
           </ScreenVMFile>
           <ScreenVMFile id="1043" start="2654" duration="196" scalar="1/1" mediaStart="2929/1" mediaDuration="196/1" trackNumber="0" src="5" >
            <Transformer>
             <VectorParam id="1044"  name="translation">
              <InterpolatingParam id="1045" interp="linr"  time="-9999999/1" value="0" leadInLength="0/1"  />
              <InterpolatingParam id="1046" interp="linr"  time="-9999999/1" value="0" leadInLength="0/1"  />
              <InterpolatingParam id="1047" interp="linr"  time="-9999999/1" value="0" leadInLength="0/1"  />
             </VectorParam>
             <VectorParam id="1048"  name="rotation">
              <InterpolatingParam id="1049" interp="linr"  time="-9999999/1" value="0" leadInLength="0/1"  />
              <InterpolatingParam id="1050" interp="linr"  time="-9999999/1" value="0" leadInLength="0/1"  />
              <InterpolatingParam id="1051" interp="linr"  time="-9999999/1" value="0" leadInLength="0/1"  />
             </VectorParam>
             <VectorParam id="1052"  name="shear">
              <InterpolatingParam id="1053" interp="linr"  time="-9999999/1" value="0" leadInLength="0/1"  />
              <InterpolatingParam id="1054" interp="linr"  time="-9999999/1" value="0" leadInLength="0/1"  />
              <InterpolatingParam id="1055" interp="linr"  time="-9999999/1" value="0" leadInLength="0/1"  />
             </VectorParam>
             <VectorParam id="1056"  name="scale">
              <InterpolatingParam id="1057" interp="linr"  time="-9999999/1" value="1" leadInLength="0/1"  />
              <InterpolatingParam id="1058" interp="linr"  time="-9999999/1" value="1" leadInLength="0/1"  />
              <InterpolatingParam id="1059" interp="linr"  time="-9999999/1" value="1" leadInLength="0/1"  />
             </VectorParam>
             <VectorParam id="1060"  name="anchor">
              <InterpolatingParam id="1061" interp="linr"  time="0/1" value="0" leadInLength="0/1"  />
              <InterpolatingParam id="1062" interp="linr"  time="0/1" value="0" leadInLength="0/1"  />
              <InterpolatingParam id="1063" interp="linr"  time="0/1" value="0" leadInLength="0/1"  />
             </VectorParam>
            </Transformer>
            <Parameters>
             <VectorParam id="1064"  name="sourceCrop">
              <InterpolatingParam id="1065" interp="linr"  time="0/1" value="0" leadInLength="0/1"  />
              <InterpolatingParam id="1066" interp="linr"  time="0/1" value="0" leadInLength="0/1"  />
              <InterpolatingParam id="1067" interp="linr"  time="0/1" value="0" leadInLength="0/1"  />
              <InterpolatingParam id="1068" interp="linr"  time="0/1" value="0" leadInLength="0/1"  />
             </VectorParam>
             <VectorParam id="1069"  name="geometryCrop">
              <InterpolatingParam id="1070" interp="linr"  time="-9999999/1" value="0" leadInLength="0/1"  />
              <InterpolatingParam id="1071" interp="linr"  time="-9999999/1" value="0" leadInLength="0/1"  />
              <InterpolatingParam id="1072" interp="linr"  time="-9999999/1" value="0" leadInLength="0/1"  />
              <InterpolatingParam id="1073" interp="linr"  time="-9999999/1" value="0" leadInLength="0/1"  />
             </VectorParam>
             <InterpolatingParam id="1074" interp="linr"  time="-9999999/1" value="1" leadInLength="0/1"  name="opacity"/>
             <InterpolatingParam id="1075" interp="linr"  time="0/1" value="0" leadInLength="0/1"  name="cursorOpacity"/>
             <InterpolatingParam id="1076" interp="linr"  time="0/1" value="0" leadInLength="0/1"  name="cursorScale"/>
            </Parameters>
            <Attributes>
             <Attribute id="1077" value="" name="ident"/>
            </Attributes>
            <MetaData>
             <entry key="AutoAppliedSmartFocus" val="False"/>
             <entry key="WinSubProjectDisplayName" val=""/>
            </MetaData>
            <ExtraData>
             <Entry key="ZoomPanBin">
              <ZoomPanBin id="1078"  >
               <ZoomPanKeyframes>
                <ZoomPanKeyframe id="1079" timeRangeEnd="-9999999/1" timeRangeDuration="0/1" interpolaterName=""  />
               </ZoomPanKeyframes>
              </ZoomPanBin>
             </Entry>
             <Entry key="CursorEffectBin">
              <CursorEffectBin id="1080"  >
               <CursorEffectKeyframes>
               </CursorEffectKeyframes>
              </CursorEffectBin>
             </Entry>
            </ExtraData>
           </ScreenVMFile>
           <ScreenVMFile id="1081" start="2850" duration="183" scalar="1/1" mediaStart="3210/1" mediaDuration="183/1" trackNumber="0" src="5" >
            <Transformer>
             <VectorParam id="1082"  name="translation">
              <InterpolatingParam id="1083" interp="linr"  time="-9999999/1" value="0" leadInLength="0/1"  />
              <InterpolatingParam id="1084" interp="linr"  time="-9999999/1" value="0" leadInLength="0/1"  />
              <InterpolatingParam id="1085" interp="linr"  time="-9999999/1" value="0" leadInLength="0/1"  />
             </VectorParam>
             <VectorParam id="1086"  name="rotation">
              <InterpolatingParam id="1087" interp="linr"  time="-9999999/1" value="0" leadInLength="0/1"  />
              <InterpolatingParam id="1088" interp="linr"  time="-9999999/1" value="0" leadInLength="0/1"  />
              <InterpolatingParam id="1089" interp="linr"  time="-9999999/1" value="0" leadInLength="0/1"  />
             </VectorParam>
             <VectorParam id="1090"  name="shear">
              <InterpolatingParam id="1091" interp="linr"  time="-9999999/1" value="0" leadInLength="0/1"  />
              <InterpolatingParam id="1092" interp="linr"  time="-9999999/1" value="0" leadInLength="0/1"  />
              <InterpolatingParam id="1093" interp="linr"  time="-9999999/1" value="0" leadInLength="0/1"  />
             </VectorParam>
             <VectorParam id="1094"  name="scale">
              <InterpolatingParam id="1095" interp="linr"  time="-9999999/1" value="1" leadInLength="0/1"  />
              <InterpolatingParam id="1096" interp="linr"  time="-9999999/1" value="1" leadInLength="0/1"  />
              <InterpolatingParam id="1097" interp="linr"  time="-9999999/1" value="1" leadInLength="0/1"  />
             </VectorParam>
             <VectorParam id="1098"  name="anchor">
              <InterpolatingParam id="1099" interp="linr"  time="0/1" value="0" leadInLength="0/1"  />
              <InterpolatingParam id="1100" interp="linr"  time="0/1" value="0" leadInLength="0/1"  />
              <InterpolatingParam id="1101" interp="linr"  time="0/1" value="0" leadInLength="0/1"  />
             </VectorParam>
            </Transformer>
            <Parameters>
             <VectorParam id="1102"  name="sourceCrop">
              <InterpolatingParam id="1103" interp="linr"  time="0/1" value="0" leadInLength="0/1"  />
              <InterpolatingParam id="1104" interp="linr"  time="0/1" value="0" leadInLength="0/1"  />
              <InterpolatingParam id="1105" interp="linr"  time="0/1" value="0" leadInLength="0/1"  />
              <InterpolatingParam id="1106" interp="linr"  time="0/1" value="0" leadInLength="0/1"  />
             </VectorParam>
             <VectorParam id="1107"  name="geometryCrop">
              <InterpolatingParam id="1108" interp="linr"  time="-9999999/1" value="0" leadInLength="0/1"  />
              <InterpolatingParam id="1109" interp="linr"  time="-9999999/1" value="0" leadInLength="0/1"  />
              <InterpolatingParam id="1110" interp="linr"  time="-9999999/1" value="0" leadInLength="0/1"  />
              <InterpolatingParam id="1111" interp="linr"  time="-9999999/1" value="0" leadInLength="0/1"  />
             </VectorParam>
             <InterpolatingParam id="1112" interp="linr"  time="-9999999/1" value="1" leadInLength="0/1"  name="opacity"/>
             <InterpolatingParam id="1113" interp="linr"  time="0/1" value="0" leadInLength="0/1"  name="cursorOpacity"/>
             <InterpolatingParam id="1114" interp="linr"  time="0/1" value="0" leadInLength="0/1"  name="cursorScale"/>
            </Parameters>
            <Attributes>
             <Attribute id="1115" value="" name="ident"/>
            </Attributes>
            <MetaData>
             <entry key="AutoAppliedSmartFocus" val="False"/>
             <entry key="WinSubProjectDisplayName" val=""/>
            </MetaData>
            <ExtraData>
             <Entry key="ZoomPanBin">
              <ZoomPanBin id="1116"  >
               <ZoomPanKeyframes>
                <ZoomPanKeyframe id="1117" timeRangeEnd="-9999999/1" timeRangeDuration="0/1" interpolaterName=""  />
               </ZoomPanKeyframes>
              </ZoomPanBin>
             </Entry>
             <Entry key="CursorEffectBin">
              <CursorEffectBin id="1118"  >
               <CursorEffectKeyframes>
               </CursorEffectKeyframes>
              </CursorEffectBin>
             </Entry>
            </ExtraData>
           </ScreenVMFile>
          </Medias>
         </GenericTrack>
        </StitchedMedia>
        <StitchedMedia id="1119" start="6301" duration="54" scalar="1/1" mediaStart="8443/1" mediaDuration="54/1" minMediaStart="0/1" >
         <Transformer>
          <VectorParam id="1120"  name="translation">
           <InterpolatingParam id="1121" interp="linr"  time="-9999999/1" value="-8.8767259448122249e-011" leadInLength="0/1"  />
           <InterpolatingParam id="1122" interp="linr"  time="-9999999/1" value="2.8708098177420558e-011" leadInLength="0/1"  />
           <InterpolatingParam id="1123" interp="linr"  time="-9999999/1" value="0" leadInLength="0/1"  />
          </VectorParam>
          <VectorParam id="1124"  name="rotation">
           <InterpolatingParam id="1125" interp="linr"  time="-9999999/1" value="0" leadInLength="0/1"  />
           <InterpolatingParam id="1126" interp="linr"  time="-9999999/1" value="0" leadInLength="0/1"  />
           <InterpolatingParam id="1127" interp="linr"  time="-9999999/1" value="0" leadInLength="0/1"  />
          </VectorParam>
          <VectorParam id="1128"  name="shear">
           <InterpolatingParam id="1129" interp="linr"  time="-9999999/1" value="0" leadInLength="0/1"  />
           <InterpolatingParam id="1130" interp="linr"  time="-9999999/1" value="0" leadInLength="0/1"  />
           <InterpolatingParam id="1131" interp="linr"  time="-9999999/1" value="0" leadInLength="0/1"  />
          </VectorParam>
          <VectorParam id="1132"  name="scale">
           <InterpolatingParam id="1133" interp="linr"  time="-9999999/1" value="0.93695014662756593" leadInLength="0/1"  />
           <InterpolatingParam id="1134" interp="linr"  time="-9999999/1" value="0.93695014662756593" leadInLength="0/1"  />
           <InterpolatingParam id="1135" interp="linr"  time="-9999999/1" value="1" leadInLength="0/1"  />
          </VectorParam>
          <VectorParam id="1136"  name="anchor">
           <InterpolatingParam id="1137" interp="linr"  time="0/1" value="0" leadInLength="0/1"  />
           <InterpolatingParam id="1138" interp="linr"  time="0/1" value="0" leadInLength="0/1"  />
           <InterpolatingParam id="1139" interp="linr"  time="0/1" value="0" leadInLength="0/1"  />
          </VectorParam>
         </Transformer>
         <Parameters>
          <VectorParam id="1140"  name="sourceCrop">
           <InterpolatingParam id="1141" interp="linr"  time="0/1" value="0" leadInLength="0/1"  />
           <InterpolatingParam id="1142" interp="linr"  time="0/1" value="0" leadInLength="0/1"  />
           <InterpolatingParam id="1143" interp="linr"  time="0/1" value="0" leadInLength="0/1"  />
           <InterpolatingParam id="1144" interp="linr"  time="0/1" value="0" leadInLength="0/1"  />
          </VectorParam>
          <VectorParam id="1145"  name="geometryCrop">
           <InterpolatingParam id="1146" interp="linr"  time="-9999999/1" value="0" leadInLength="0/1"  />
           <InterpolatingParam id="1147" interp="linr"  time="-9999999/1" value="0" leadInLength="0/1"  />
           <InterpolatingParam id="1148" interp="linr"  time="-9999999/1" value="0" leadInLength="0/1"  />
           <InterpolatingParam id="1149" interp="linr"  time="-9999999/1" value="0" leadInLength="0/1"  />
          </VectorParam>
          <InterpolatingParam id="1150" interp="linr"  time="-9999999/1" value="1" leadInLength="0/1"  name="opacity"/>
          <InterpolatingParam id="1151" interp="linr"  time="0/1" value="1" leadInLength="0/1"  name="cursorOpacity"/>
          <InterpolatingParam id="1152" interp="linr"  time="0/1" value="1" leadInLength="0/1"  name="cursorScale"/>
          <Parameter id="1153"  name="captions"/>
         </Parameters>
         <Effects>
          <GenericEffect id="1154" name = "CursorBaseEffectName" >
           <Parameters>
           <InterpolatingParam id="1155" interp="linr"  time="-9999999/1" value="1" leadInLength="0/1"   name="cursorSize"/>
           <InterpolatingParam id="1156" interp="linr"  time="-9999999/1" value="0" leadInLength="0/1"   name="highlightBlurRadius"/>
           <InterpolatingParam id="1157" interp="linr"  time="-9999999/1" value="0" leadInLength="0/1"   name="highlightColorBlue"/>
           <InterpolatingParam id="1158" interp="linr"  time="-9999999/1" value="255" leadInLength="0/1"   name="highlightColorGreen"/>
           <InterpolatingParam id="1159" interp="linr"  time="-9999999/1" value="255" leadInLength="0/1"   name="highlightColorRed"/>
           <InterpolatingParam id="1160" interp="linr"  time="-9999999/1" value="5" leadInLength="0/1"   name="highlightFeatherSize"/>
           <InterpolatingParam id="1161" interp="linr"  time="-9999999/1" value="2" leadInLength="0/1"   name="highlightMagnification"/>
           <InterpolatingParam id="1162" interp="linr"  time="-9999999/1" value="1" leadInLength="0/1"   name="highlightOpacity"/>
           <InterpolatingParam id="1163" interp="linr"  time="-9999999/1" value="45" leadInLength="0/1"   name="highlightSize"/>
           <Parameter id="1164"   name="highlightType">
            <Keyframes>
            <Keyframe id="1165"  time="-9999999/1" value="0" leadInLength="0/1"  />
            </Keyframes>
           </Parameter>
           <InterpolatingParam id="1166" interp="linr"  time="-9999999/1" value="0" leadInLength="0/1"   name="leftClickColorBlue"/>
           <InterpolatingParam id="1167" interp="linr"  time="-9999999/1" value="0" leadInLength="0/1"   name="leftClickColorGreen"/>
           <InterpolatingParam id="1168" interp="linr"  time="-9999999/1" value="255" leadInLength="0/1"   name="leftClickColorRed"/>
           <InterpolatingParam id="1169" interp="linr"  time="-9999999/1" value="0.80000000000000004" leadInLength="0/1"   name="leftClickDuration"/>
           <InterpolatingParam id="1170" interp="linr"  time="-9999999/1" value="20" leadInLength="0/1"   name="leftClickSize"/>
           <Parameter id="1171"   name="leftClickSoundFilename">
            <Keyframes>
            <Keyframe id="1172"  time="-9999999/1" value="" leadInLength="0/1"  />
            </Keyframes>
           </Parameter>
           <InterpolatingParam id="1173" interp="linr"  time="-9999999/1" value="1" leadInLength="0/1"   name="leftClickSoundVolume"/>
           <Parameter id="1174"   name="leftClickType">
            <Keyframes>
            <Keyframe id="1175"  time="-9999999/1" value="0" leadInLength="0/1"  />
            </Keyframes>
           </Parameter>
           <InterpolatingParam id="1176" interp="linr"  time="-9999999/1" value="1" leadInLength="0/1"   name="opacity"/>
           <InterpolatingParam id="1177" interp="linr"  time="-9999999/1" value="255" leadInLength="0/1"   name="rightClickColorBlue"/>
           <InterpolatingParam id="1178" interp="linr"  time="-9999999/1" value="0" leadInLength="0/1"   name="rightClickColorGreen"/>
           <InterpolatingParam id="1179" interp="linr"  time="-9999999/1" value="0" leadInLength="0/1"   name="rightClickColorRed"/>
           <InterpolatingParam id="1180" interp="linr"  time="-9999999/1" value="0.80000000000000004" leadInLength="0/1"   name="rightClickDuration"/>
           <InterpolatingParam id="1181" interp="linr"  time="-9999999/1" value="20" leadInLength="0/1"   name="rightClickSize"/>
           <Parameter id="1182"   name="rightClickSoundFilename">
            <Keyframes>
            <Keyframe id="1183"  time="-9999999/1" value="" leadInLength="0/1"  />
            </Keyframes>
           </Parameter>
           <InterpolatingParam id="1184" interp="linr"  time="-9999999/1" value="1" leadInLength="0/1"   name="rightClickSoundVolume"/>
           <Parameter id="1185"   name="rightClickType">
            <Keyframes>
            <Keyframe id="1186"  time="-9999999/1" value="0" leadInLength="0/1"  />
            </Keyframes>
           </Parameter>
           </Parameters>
          </GenericEffect>
         </Effects>
         <Attributes>
          <Attribute id="1187" value="" name="ident"/>
         </Attributes>
         <MetaData>
          <entry key="AutoAppliedSmartFocus" val="False"/>
          <entry key="WinSubProjectDisplayName" val=""/>
         </MetaData>
         <ExtraData>
          <Entry key="ZoomPanBin">
           <ZoomPanBin id="1188"  >
            <ZoomPanKeyframes>
             <ZoomPanKeyframe id="1189" timeRangeEnd="-9999999/1" timeRangeDuration="0/1" interpolaterName=""  />
            </ZoomPanKeyframes>
           </ZoomPanBin>
          </Entry>
          <Entry key="CursorEffectBin">
           <CursorEffectBin id="1190"  >
            <CursorEffectKeyframes>
             <CursorEffectKeyframe id="1191" timeRangeEnd="-9999999/1" timeRangeDuration="0/1" interpolaterName=""  />
            </CursorEffectKeyframes>
           </CursorEffectBin>
          </Entry>
         </ExtraData>
         <GenericTrack id="1192"  >
          <Attributes>
           <Attribute id="1193" value="" name="ident"/>
           <Attribute id="1194" value="0" name="audioMuted"/>
           <Attribute id="1195" value="0" name="videoHidden"/>
          </Attributes>
          <MetaData>
           <entry key="IsLocked" val="False"/>
           <entry key="WinTrackHeight" val="0"/>
          </MetaData>
          <Medias>
           <ScreenVMFile id="1196" start="0" duration="2059" scalar="1/1" mediaStart="0/1" mediaDuration="2059/1" trackNumber="0" src="4" >
            <Transformer>
             <VectorParam id="1197"  name="translation">
              <InterpolatingParam id="1198" interp="linr"  time="-9999999/1" value="0" leadInLength="0/1"  />
              <InterpolatingParam id="1199" interp="linr"  time="-9999999/1" value="0" leadInLength="0/1"  />
              <InterpolatingParam id="1200" interp="linr"  time="-9999999/1" value="0" leadInLength="0/1"  />
             </VectorParam>
             <VectorParam id="1201"  name="rotation">
              <InterpolatingParam id="1202" interp="linr"  time="-9999999/1" value="0" leadInLength="0/1"  />
              <InterpolatingParam id="1203" interp="linr"  time="-9999999/1" value="0" leadInLength="0/1"  />
              <InterpolatingParam id="1204" interp="linr"  time="-9999999/1" value="0" leadInLength="0/1"  />
             </VectorParam>
             <VectorParam id="1205"  name="shear">
              <InterpolatingParam id="1206" interp="linr"  time="-9999999/1" value="0" leadInLength="0/1"  />
              <InterpolatingParam id="1207" interp="linr"  time="-9999999/1" value="0" leadInLength="0/1"  />
              <InterpolatingParam id="1208" interp="linr"  time="-9999999/1" value="0" leadInLength="0/1"  />
             </VectorParam>
             <VectorParam id="1209"  name="scale">
              <InterpolatingParam id="1210" interp="linr"  time="-9999999/1" value="1" leadInLength="0/1"  />
              <InterpolatingParam id="1211" interp="linr"  time="-9999999/1" value="1" leadInLength="0/1"  />
              <InterpolatingParam id="1212" interp="linr"  time="-9999999/1" value="1" leadInLength="0/1"  />
             </VectorParam>
             <VectorParam id="1213"  name="anchor">
              <InterpolatingParam id="1214" interp="linr"  time="0/1" value="0" leadInLength="0/1"  />
              <InterpolatingParam id="1215" interp="linr"  time="0/1" value="0" leadInLength="0/1"  />
              <InterpolatingParam id="1216" interp="linr"  time="0/1" value="0" leadInLength="0/1"  />
             </VectorParam>
            </Transformer>
            <Parameters>
             <VectorParam id="1217"  name="sourceCrop">
              <InterpolatingParam id="1218" interp="linr"  time="0/1" value="0" leadInLength="0/1"  />
              <InterpolatingParam id="1219" interp="linr"  time="0/1" value="0" leadInLength="0/1"  />
              <InterpolatingParam id="1220" interp="linr"  time="0/1" value="0" leadInLength="0/1"  />
              <InterpolatingParam id="1221" interp="linr"  time="0/1" value="0" leadInLength="0/1"  />
             </VectorParam>
             <VectorParam id="1222"  name="geometryCrop">
              <InterpolatingParam id="1223" interp="linr"  time="-9999999/1" value="0" leadInLength="0/1"  />
              <InterpolatingParam id="1224" interp="linr"  time="-9999999/1" value="0" leadInLength="0/1"  />
              <InterpolatingParam id="1225" interp="linr"  time="-9999999/1" value="0" leadInLength="0/1"  />
              <InterpolatingParam id="1226" interp="linr"  time="-9999999/1" value="0" leadInLength="0/1"  />
             </VectorParam>
             <InterpolatingParam id="1227" interp="linr"  time="-9999999/1" value="1" leadInLength="0/1"  name="opacity"/>
             <InterpolatingParam id="1228" interp="linr"  time="0/1" value="0" leadInLength="0/1"  name="cursorOpacity"/>
             <InterpolatingParam id="1229" interp="linr"  time="0/1" value="0" leadInLength="0/1"  name="cursorScale"/>
            </Parameters>
            <Attributes>
             <Attribute id="1230" value="" name="ident"/>
            </Attributes>
            <MetaData>
             <entry key="AutoAppliedSmartFocus" val="False"/>
             <entry key="WinSubProjectDisplayName" val=""/>
            </MetaData>
            <ExtraData>
             <Entry key="ZoomPanBin">
              <ZoomPanBin id="1231"  >
               <ZoomPanKeyframes>
                <ZoomPanKeyframe id="1232" timeRangeEnd="-9999999/1" timeRangeDuration="0/1" interpolaterName=""  />
               </ZoomPanKeyframes>
              </ZoomPanBin>
             </Entry>
             <Entry key="CursorEffectBin">
              <CursorEffectBin id="1233"  >
               <CursorEffectKeyframes>
               </CursorEffectKeyframes>
              </CursorEffectBin>
             </Entry>
            </ExtraData>
           </ScreenVMFile>
           <ScreenVMFile id="1234" start="2059" duration="199" scalar="1/1" mediaStart="2069/1" mediaDuration="199/1" trackNumber="0" src="4" >
            <Transformer>
             <VectorParam id="1235"  name="translation">
              <InterpolatingParam id="1236" interp="linr"  time="-9999999/1" value="0" leadInLength="0/1"  />
              <InterpolatingParam id="1237" interp="linr"  time="-9999999/1" value="0" leadInLength="0/1"  />
              <InterpolatingParam id="1238" interp="linr"  time="-9999999/1" value="0" leadInLength="0/1"  />
             </VectorParam>
             <VectorParam id="1239"  name="rotation">
              <InterpolatingParam id="1240" interp="linr"  time="-9999999/1" value="0" leadInLength="0/1"  />
              <InterpolatingParam id="1241" interp="linr"  time="-9999999/1" value="0" leadInLength="0/1"  />
              <InterpolatingParam id="1242" interp="linr"  time="-9999999/1" value="0" leadInLength="0/1"  />
             </VectorParam>
             <VectorParam id="1243"  name="shear">
              <InterpolatingParam id="1244" interp="linr"  time="-9999999/1" value="0" leadInLength="0/1"  />
              <InterpolatingParam id="1245" interp="linr"  time="-9999999/1" value="0" leadInLength="0/1"  />
              <InterpolatingParam id="1246" interp="linr"  time="-9999999/1" value="0" leadInLength="0/1"  />
             </VectorParam>
             <VectorParam id="1247"  name="scale">
              <InterpolatingParam id="1248" interp="linr"  time="-9999999/1" value="1" leadInLength="0/1"  />
              <InterpolatingParam id="1249" interp="linr"  time="-9999999/1" value="1" leadInLength="0/1"  />
              <InterpolatingParam id="1250" interp="linr"  time="-9999999/1" value="1" leadInLength="0/1"  />
             </VectorParam>
             <VectorParam id="1251"  name="anchor">
              <InterpolatingParam id="1252" interp="linr"  time="0/1" value="0" leadInLength="0/1"  />
              <InterpolatingParam id="1253" interp="linr"  time="0/1" value="0" leadInLength="0/1"  />
              <InterpolatingParam id="1254" interp="linr"  time="0/1" value="0" leadInLength="0/1"  />
             </VectorParam>
            </Transformer>
            <Parameters>
             <VectorParam id="1255"  name="sourceCrop">
              <InterpolatingParam id="1256" interp="linr"  time="0/1" value="0" leadInLength="0/1"  />
              <InterpolatingParam id="1257" interp="linr"  time="0/1" value="0" leadInLength="0/1"  />
              <InterpolatingParam id="1258" interp="linr"  time="0/1" value="0" leadInLength="0/1"  />
              <InterpolatingParam id="1259" interp="linr"  time="0/1" value="0" leadInLength="0/1"  />
             </VectorParam>
             <VectorParam id="1260"  name="geometryCrop">
              <InterpolatingParam id="1261" interp="linr"  time="-9999999/1" value="0" leadInLength="0/1"  />
              <InterpolatingParam id="1262" interp="linr"  time="-9999999/1" value="0" leadInLength="0/1"  />
              <InterpolatingParam id="1263" interp="linr"  time="-9999999/1" value="0" leadInLength="0/1"  />
              <InterpolatingParam id="1264" interp="linr"  time="-9999999/1" value="0" leadInLength="0/1"  />
             </VectorParam>
             <InterpolatingParam id="1265" interp="linr"  time="-9999999/1" value="1" leadInLength="0/1"  name="opacity"/>
             <InterpolatingParam id="1266" interp="linr"  time="0/1" value="0" leadInLength="0/1"  name="cursorOpacity"/>
             <InterpolatingParam id="1267" interp="linr"  time="0/1" value="0" leadInLength="0/1"  name="cursorScale"/>
            </Parameters>
            <Attributes>
             <Attribute id="1268" value="" name="ident"/>
            </Attributes>
            <MetaData>
             <entry key="AutoAppliedSmartFocus" val="False"/>
             <entry key="WinSubProjectDisplayName" val=""/>
            </MetaData>
            <ExtraData>
             <Entry key="ZoomPanBin">
              <ZoomPanBin id="1269"  >
               <ZoomPanKeyframes>
                <ZoomPanKeyframe id="1270" timeRangeEnd="-9999999/1" timeRangeDuration="0/1" interpolaterName=""  />
               </ZoomPanKeyframes>
              </ZoomPanBin>
             </Entry>
             <Entry key="CursorEffectBin">
              <CursorEffectBin id="1271"  >
               <CursorEffectKeyframes>
               </CursorEffectKeyframes>
              </CursorEffectBin>
             </Entry>
            </ExtraData>
           </ScreenVMFile>
           <ScreenVMFile id="1272" start="2258" duration="30" scalar="1/1" mediaStart="2276/1" mediaDuration="30/1" trackNumber="0" src="4" >
            <Transformer>
             <VectorParam id="1273"  name="translation">
              <InterpolatingParam id="1274" interp="linr"  time="-9999999/1" value="0" leadInLength="0/1"  />
              <InterpolatingParam id="1275" interp="linr"  time="-9999999/1" value="0" leadInLength="0/1"  />
              <InterpolatingParam id="1276" interp="linr"  time="-9999999/1" value="0" leadInLength="0/1"  />
             </VectorParam>
             <VectorParam id="1277"  name="rotation">
              <InterpolatingParam id="1278" interp="linr"  time="-9999999/1" value="0" leadInLength="0/1"  />
              <InterpolatingParam id="1279" interp="linr"  time="-9999999/1" value="0" leadInLength="0/1"  />
              <InterpolatingParam id="1280" interp="linr"  time="-9999999/1" value="0" leadInLength="0/1"  />
             </VectorParam>
             <VectorParam id="1281"  name="shear">
              <InterpolatingParam id="1282" interp="linr"  time="-9999999/1" value="0" leadInLength="0/1"  />
              <InterpolatingParam id="1283" interp="linr"  time="-9999999/1" value="0" leadInLength="0/1"  />
              <InterpolatingParam id="1284" interp="linr"  time="-9999999/1" value="0" leadInLength="0/1"  />
             </VectorParam>
             <VectorParam id="1285"  name="scale">
              <InterpolatingParam id="1286" interp="linr"  time="-9999999/1" value="1" leadInLength="0/1"  />
              <InterpolatingParam id="1287" interp="linr"  time="-9999999/1" value="1" leadInLength="0/1"  />
              <InterpolatingParam id="1288" interp="linr"  time="-9999999/1" value="1" leadInLength="0/1"  />
             </VectorParam>
             <VectorParam id="1289"  name="anchor">
              <InterpolatingParam id="1290" interp="linr"  time="0/1" value="0" leadInLength="0/1"  />
              <InterpolatingParam id="1291" interp="linr"  time="0/1" value="0" leadInLength="0/1"  />
              <InterpolatingParam id="1292" interp="linr"  time="0/1" value="0" leadInLength="0/1"  />
             </VectorParam>
            </Transformer>
            <Parameters>
             <VectorParam id="1293"  name="sourceCrop">
              <InterpolatingParam id="1294" interp="linr"  time="0/1" value="0" leadInLength="0/1"  />
              <InterpolatingParam id="1295" interp="linr"  time="0/1" value="0" leadInLength="0/1"  />
              <InterpolatingParam id="1296" interp="linr"  time="0/1" value="0" leadInLength="0/1"  />
              <InterpolatingParam id="1297" interp="linr"  time="0/1" value="0" leadInLength="0/1"  />
             </VectorParam>
             <VectorParam id="1298"  name="geometryCrop">
              <InterpolatingParam id="1299" interp="linr"  time="-9999999/1" value="0" leadInLength="0/1"  />
              <InterpolatingParam id="1300" interp="linr"  time="-9999999/1" value="0" leadInLength="0/1"  />
              <InterpolatingParam id="1301" interp="linr"  time="-9999999/1" value="0" leadInLength="0/1"  />
              <InterpolatingParam id="1302" interp="linr"  time="-9999999/1" value="0" leadInLength="0/1"  />
             </VectorParam>
             <InterpolatingParam id="1303" interp="linr"  time="-9999999/1" value="1" leadInLength="0/1"  name="opacity"/>
             <InterpolatingParam id="1304" interp="linr"  time="0/1" value="0" leadInLength="0/1"  name="cursorOpacity"/>
             <InterpolatingParam id="1305" interp="linr"  time="0/1" value="0" leadInLength="0/1"  name="cursorScale"/>
            </Parameters>
            <Attributes>
             <Attribute id="1306" value="" name="ident"/>
            </Attributes>
            <MetaData>
             <entry key="AutoAppliedSmartFocus" val="False"/>
             <entry key="WinSubProjectDisplayName" val=""/>
            </MetaData>
            <ExtraData>
             <Entry key="ZoomPanBin">
              <ZoomPanBin id="1307"  >
               <ZoomPanKeyframes>
                <ZoomPanKeyframe id="1308" timeRangeEnd="-9999999/1" timeRangeDuration="0/1" interpolaterName=""  />
               </ZoomPanKeyframes>
              </ZoomPanBin>
             </Entry>
             <Entry key="CursorEffectBin">
              <CursorEffectBin id="1309"  >
               <CursorEffectKeyframes>
               </CursorEffectKeyframes>
              </CursorEffectBin>
             </Entry>
            </ExtraData>
           </ScreenVMFile>
           <ScreenVMFile id="1310" start="2288" duration="33" scalar="1/1" mediaStart="2319/1" mediaDuration="33/1" trackNumber="0" src="4" >
            <Transformer>
             <VectorParam id="1311"  name="translation">
              <InterpolatingParam id="1312" interp="linr"  time="-9999999/1" value="0" leadInLength="0/1"  />
              <InterpolatingParam id="1313" interp="linr"  time="-9999999/1" value="0" leadInLength="0/1"  />
              <InterpolatingParam id="1314" interp="linr"  time="-9999999/1" value="0" leadInLength="0/1"  />
             </VectorParam>
             <VectorParam id="1315"  name="rotation">
              <InterpolatingParam id="1316" interp="linr"  time="-9999999/1" value="0" leadInLength="0/1"  />
              <InterpolatingParam id="1317" interp="linr"  time="-9999999/1" value="0" leadInLength="0/1"  />
              <InterpolatingParam id="1318" interp="linr"  time="-9999999/1" value="0" leadInLength="0/1"  />
             </VectorParam>
             <VectorParam id="1319"  name="shear">
              <InterpolatingParam id="1320" interp="linr"  time="-9999999/1" value="0" leadInLength="0/1"  />
              <InterpolatingParam id="1321" interp="linr"  time="-9999999/1" value="0" leadInLength="0/1"  />
              <InterpolatingParam id="1322" interp="linr"  time="-9999999/1" value="0" leadInLength="0/1"  />
             </VectorParam>
             <VectorParam id="1323"  name="scale">
              <InterpolatingParam id="1324" interp="linr"  time="-9999999/1" value="1" leadInLength="0/1"  />
              <InterpolatingParam id="1325" interp="linr"  time="-9999999/1" value="1" leadInLength="0/1"  />
              <InterpolatingParam id="1326" interp="linr"  time="-9999999/1" value="1" leadInLength="0/1"  />
             </VectorParam>
             <VectorParam id="1327"  name="anchor">
              <InterpolatingParam id="1328" interp="linr"  time="0/1" value="0" leadInLength="0/1"  />
              <InterpolatingParam id="1329" interp="linr"  time="0/1" value="0" leadInLength="0/1"  />
              <InterpolatingParam id="1330" interp="linr"  time="0/1" value="0" leadInLength="0/1"  />
             </VectorParam>
            </Transformer>
            <Parameters>
             <VectorParam id="1331"  name="sourceCrop">
              <InterpolatingParam id="1332" interp="linr"  time="0/1" value="0" leadInLength="0/1"  />
              <InterpolatingParam id="1333" interp="linr"  time="0/1" value="0" leadInLength="0/1"  />
              <InterpolatingParam id="1334" interp="linr"  time="0/1" value="0" leadInLength="0/1"  />
              <InterpolatingParam id="1335" interp="linr"  time="0/1" value="0" leadInLength="0/1"  />
             </VectorParam>
             <VectorParam id="1336"  name="geometryCrop">
              <InterpolatingParam id="1337" interp="linr"  time="-9999999/1" value="0" leadInLength="0/1"  />
              <InterpolatingParam id="1338" interp="linr"  time="-9999999/1" value="0" leadInLength="0/1"  />
              <InterpolatingParam id="1339" interp="linr"  time="-9999999/1" value="0" leadInLength="0/1"  />
              <InterpolatingParam id="1340" interp="linr"  time="-9999999/1" value="0" leadInLength="0/1"  />
             </VectorParam>
             <InterpolatingParam id="1341" interp="linr"  time="-9999999/1" value="1" leadInLength="0/1"  name="opacity"/>
             <InterpolatingParam id="1342" interp="linr"  time="0/1" value="0" leadInLength="0/1"  name="cursorOpacity"/>
             <InterpolatingParam id="1343" interp="linr"  time="0/1" value="0" leadInLength="0/1"  name="cursorScale"/>
            </Parameters>
            <Attributes>
             <Attribute id="1344" value="" name="ident"/>
            </Attributes>
            <MetaData>
             <entry key="AutoAppliedSmartFocus" val="False"/>
             <entry key="WinSubProjectDisplayName" val=""/>
            </MetaData>
            <ExtraData>
             <Entry key="ZoomPanBin">
              <ZoomPanBin id="1345"  >
               <ZoomPanKeyframes>
                <ZoomPanKeyframe id="1346" timeRangeEnd="-9999999/1" timeRangeDuration="0/1" interpolaterName=""  />
               </ZoomPanKeyframes>
              </ZoomPanBin>
             </Entry>
             <Entry key="CursorEffectBin">
              <CursorEffectBin id="1347"  >
               <CursorEffectKeyframes>
               </CursorEffectKeyframes>
              </CursorEffectBin>
             </Entry>
            </ExtraData>
           </ScreenVMFile>
           <ScreenVMFile id="1348" start="2321" duration="21" scalar="1/1" mediaStart="2382/1" mediaDuration="21/1" trackNumber="0" src="4" >
            <Transformer>
             <VectorParam id="1349"  name="translation">
              <InterpolatingParam id="1350" interp="linr"  time="-9999999/1" value="0" leadInLength="0/1"  />
              <InterpolatingParam id="1351" interp="linr"  time="-9999999/1" value="0" leadInLength="0/1"  />
              <InterpolatingParam id="1352" interp="linr"  time="-9999999/1" value="0" leadInLength="0/1"  />
             </VectorParam>
             <VectorParam id="1353"  name="rotation">
              <InterpolatingParam id="1354" interp="linr"  time="-9999999/1" value="0" leadInLength="0/1"  />
              <InterpolatingParam id="1355" interp="linr"  time="-9999999/1" value="0" leadInLength="0/1"  />
              <InterpolatingParam id="1356" interp="linr"  time="-9999999/1" value="0" leadInLength="0/1"  />
             </VectorParam>
             <VectorParam id="1357"  name="shear">
              <InterpolatingParam id="1358" interp="linr"  time="-9999999/1" value="0" leadInLength="0/1"  />
              <InterpolatingParam id="1359" interp="linr"  time="-9999999/1" value="0" leadInLength="0/1"  />
              <InterpolatingParam id="1360" interp="linr"  time="-9999999/1" value="0" leadInLength="0/1"  />
             </VectorParam>
             <VectorParam id="1361"  name="scale">
              <InterpolatingParam id="1362" interp="linr"  time="-9999999/1" value="1" leadInLength="0/1"  />
              <InterpolatingParam id="1363" interp="linr"  time="-9999999/1" value="1" leadInLength="0/1"  />
              <InterpolatingParam id="1364" interp="linr"  time="-9999999/1" value="1" leadInLength="0/1"  />
             </VectorParam>
             <VectorParam id="1365"  name="anchor">
              <InterpolatingParam id="1366" interp="linr"  time="0/1" value="0" leadInLength="0/1"  />
              <InterpolatingParam id="1367" interp="linr"  time="0/1" value="0" leadInLength="0/1"  />
              <InterpolatingParam id="1368" interp="linr"  time="0/1" value="0" leadInLength="0/1"  />
             </VectorParam>
            </Transformer>
            <Parameters>
             <VectorParam id="1369"  name="sourceCrop">
              <InterpolatingParam id="1370" interp="linr"  time="0/1" value="0" leadInLength="0/1"  />
              <InterpolatingParam id="1371" interp="linr"  time="0/1" value="0" leadInLength="0/1"  />
              <InterpolatingParam id="1372" interp="linr"  time="0/1" value="0" leadInLength="0/1"  />
              <InterpolatingParam id="1373" interp="linr"  time="0/1" value="0" leadInLength="0/1"  />
             </VectorParam>
             <VectorParam id="1374"  name="geometryCrop">
              <InterpolatingParam id="1375" interp="linr"  time="-9999999/1" value="0" leadInLength="0/1"  />
              <InterpolatingParam id="1376" interp="linr"  time="-9999999/1" value="0" leadInLength="0/1"  />
              <InterpolatingParam id="1377" interp="linr"  time="-9999999/1" value="0" leadInLength="0/1"  />
              <InterpolatingParam id="1378" interp="linr"  time="-9999999/1" value="0" leadInLength="0/1"  />
             </VectorParam>
             <InterpolatingParam id="1379" interp="linr"  time="-9999999/1" value="1" leadInLength="0/1"  name="opacity"/>
             <InterpolatingParam id="1380" interp="linr"  time="0/1" value="0" leadInLength="0/1"  name="cursorOpacity"/>
             <InterpolatingParam id="1381" interp="linr"  time="0/1" value="0" leadInLength="0/1"  name="cursorScale"/>
            </Parameters>
            <Attributes>
             <Attribute id="1382" value="" name="ident"/>
            </Attributes>
            <MetaData>
             <entry key="AutoAppliedSmartFocus" val="False"/>
             <entry key="WinSubProjectDisplayName" val=""/>
            </MetaData>
            <ExtraData>
             <Entry key="ZoomPanBin">
              <ZoomPanBin id="1383"  >
               <ZoomPanKeyframes>
                <ZoomPanKeyframe id="1384" timeRangeEnd="-9999999/1" timeRangeDuration="0/1" interpolaterName=""  />
               </ZoomPanKeyframes>
              </ZoomPanBin>
             </Entry>
             <Entry key="CursorEffectBin">
              <CursorEffectBin id="1385"  >
               <CursorEffectKeyframes>
               </CursorEffectKeyframes>
              </CursorEffectBin>
             </Entry>
            </ExtraData>
           </ScreenVMFile>
           <ScreenVMFile id="1386" start="2342" duration="13" scalar="1/1" mediaStart="2413/1" mediaDuration="13/1" trackNumber="0" src="4" >
            <Transformer>
             <VectorParam id="1387"  name="translation">
              <InterpolatingParam id="1388" interp="linr"  time="-9999999/1" value="0" leadInLength="0/1"  />
              <InterpolatingParam id="1389" interp="linr"  time="-9999999/1" value="0" leadInLength="0/1"  />
              <InterpolatingParam id="1390" interp="linr"  time="-9999999/1" value="0" leadInLength="0/1"  />
             </VectorParam>
             <VectorParam id="1391"  name="rotation">
              <InterpolatingParam id="1392" interp="linr"  time="-9999999/1" value="0" leadInLength="0/1"  />
              <InterpolatingParam id="1393" interp="linr"  time="-9999999/1" value="0" leadInLength="0/1"  />
              <InterpolatingParam id="1394" interp="linr"  time="-9999999/1" value="0" leadInLength="0/1"  />
             </VectorParam>
             <VectorParam id="1395"  name="shear">
              <InterpolatingParam id="1396" interp="linr"  time="-9999999/1" value="0" leadInLength="0/1"  />
              <InterpolatingParam id="1397" interp="linr"  time="-9999999/1" value="0" leadInLength="0/1"  />
              <InterpolatingParam id="1398" interp="linr"  time="-9999999/1" value="0" leadInLength="0/1"  />
             </VectorParam>
             <VectorParam id="1399"  name="scale">
              <InterpolatingParam id="1400" interp="linr"  time="-9999999/1" value="1" leadInLength="0/1"  />
              <InterpolatingParam id="1401" interp="linr"  time="-9999999/1" value="1" leadInLength="0/1"  />
              <InterpolatingParam id="1402" interp="linr"  time="-9999999/1" value="1" leadInLength="0/1"  />
             </VectorParam>
             <VectorParam id="1403"  name="anchor">
              <InterpolatingParam id="1404" interp="linr"  time="0/1" value="0" leadInLength="0/1"  />
              <InterpolatingParam id="1405" interp="linr"  time="0/1" value="0" leadInLength="0/1"  />
              <InterpolatingParam id="1406" interp="linr"  time="0/1" value="0" leadInLength="0/1"  />
             </VectorParam>
            </Transformer>
            <Parameters>
             <VectorParam id="1407"  name="sourceCrop">
              <InterpolatingParam id="1408" interp="linr"  time="0/1" value="0" leadInLength="0/1"  />
              <InterpolatingParam id="1409" interp="linr"  time="0/1" value="0" leadInLength="0/1"  />
              <InterpolatingParam id="1410" interp="linr"  time="0/1" value="0" leadInLength="0/1"  />
              <InterpolatingParam id="1411" interp="linr"  time="0/1" value="0" leadInLength="0/1"  />
             </VectorParam>
             <VectorParam id="1412"  name="geometryCrop">
              <InterpolatingParam id="1413" interp="linr"  time="-9999999/1" value="0" leadInLength="0/1"  />
              <InterpolatingParam id="1414" interp="linr"  time="-9999999/1" value="0" leadInLength="0/1"  />
              <InterpolatingParam id="1415" interp="linr"  time="-9999999/1" value="0" leadInLength="0/1"  />
              <InterpolatingParam id="1416" interp="linr"  time="-9999999/1" value="0" leadInLength="0/1"  />
             </VectorParam>
             <InterpolatingParam id="1417" interp="linr"  time="-9999999/1" value="1" leadInLength="0/1"  name="opacity"/>
             <InterpolatingParam id="1418" interp="linr"  time="0/1" value="0" leadInLength="0/1"  name="cursorOpacity"/>
             <InterpolatingParam id="1419" interp="linr"  time="0/1" value="0" leadInLength="0/1"  name="cursorScale"/>
            </Parameters>
            <Attributes>
             <Attribute id="1420" value="" name="ident"/>
            </Attributes>
            <MetaData>
             <entry key="AutoAppliedSmartFocus" val="False"/>
             <entry key="WinSubProjectDisplayName" val=""/>
            </MetaData>
            <ExtraData>
             <Entry key="ZoomPanBin">
              <ZoomPanBin id="1421"  >
               <ZoomPanKeyframes>
                <ZoomPanKeyframe id="1422" timeRangeEnd="-9999999/1" timeRangeDuration="0/1" interpolaterName=""  />
               </ZoomPanKeyframes>
              </ZoomPanBin>
             </Entry>
             <Entry key="CursorEffectBin">
              <CursorEffectBin id="1423"  >
               <CursorEffectKeyframes>
               </CursorEffectKeyframes>
              </CursorEffectBin>
             </Entry>
            </ExtraData>
           </ScreenVMFile>
           <ScreenVMFile id="1424" start="2355" duration="34" scalar="1/1" mediaStart="2441/1" mediaDuration="34/1" trackNumber="0" src="4" >
            <Transformer>
             <VectorParam id="1425"  name="translation">
              <InterpolatingParam id="1426" interp="linr"  time="-9999999/1" value="0" leadInLength="0/1"  />
              <InterpolatingParam id="1427" interp="linr"  time="-9999999/1" value="0" leadInLength="0/1"  />
              <InterpolatingParam id="1428" interp="linr"  time="-9999999/1" value="0" leadInLength="0/1"  />
             </VectorParam>
             <VectorParam id="1429"  name="rotation">
              <InterpolatingParam id="1430" interp="linr"  time="-9999999/1" value="0" leadInLength="0/1"  />
              <InterpolatingParam id="1431" interp="linr"  time="-9999999/1" value="0" leadInLength="0/1"  />
              <InterpolatingParam id="1432" interp="linr"  time="-9999999/1" value="0" leadInLength="0/1"  />
             </VectorParam>
             <VectorParam id="1433"  name="shear">
              <InterpolatingParam id="1434" interp="linr"  time="-9999999/1" value="0" leadInLength="0/1"  />
              <InterpolatingParam id="1435" interp="linr"  time="-9999999/1" value="0" leadInLength="0/1"  />
              <InterpolatingParam id="1436" interp="linr"  time="-9999999/1" value="0" leadInLength="0/1"  />
             </VectorParam>
             <VectorParam id="1437"  name="scale">
              <InterpolatingParam id="1438" interp="linr"  time="-9999999/1" value="1" leadInLength="0/1"  />
              <InterpolatingParam id="1439" interp="linr"  time="-9999999/1" value="1" leadInLength="0/1"  />
              <InterpolatingParam id="1440" interp="linr"  time="-9999999/1" value="1" leadInLength="0/1"  />
             </VectorParam>
             <VectorParam id="1441"  name="anchor">
              <InterpolatingParam id="1442" interp="linr"  time="0/1" value="0" leadInLength="0/1"  />
              <InterpolatingParam id="1443" interp="linr"  time="0/1" value="0" leadInLength="0/1"  />
              <InterpolatingParam id="1444" interp="linr"  time="0/1" value="0" leadInLength="0/1"  />
             </VectorParam>
            </Transformer>
            <Parameters>
             <VectorParam id="1445"  name="sourceCrop">
              <InterpolatingParam id="1446" interp="linr"  time="0/1" value="0" leadInLength="0/1"  />
              <InterpolatingParam id="1447" interp="linr"  time="0/1" value="0" leadInLength="0/1"  />
              <InterpolatingParam id="1448" interp="linr"  time="0/1" value="0" leadInLength="0/1"  />
              <InterpolatingParam id="1449" interp="linr"  time="0/1" value="0" leadInLength="0/1"  />
             </VectorParam>
             <VectorParam id="1450"  name="geometryCrop">
              <InterpolatingParam id="1451" interp="linr"  time="-9999999/1" value="0" leadInLength="0/1"  />
              <InterpolatingParam id="1452" interp="linr"  time="-9999999/1" value="0" leadInLength="0/1"  />
              <InterpolatingParam id="1453" interp="linr"  time="-9999999/1" value="0" leadInLength="0/1"  />
              <InterpolatingParam id="1454" interp="linr"  time="-9999999/1" value="0" leadInLength="0/1"  />
             </VectorParam>
             <InterpolatingParam id="1455" interp="linr"  time="-9999999/1" value="1" leadInLength="0/1"  name="opacity"/>
             <InterpolatingParam id="1456" interp="linr"  time="0/1" value="0" leadInLength="0/1"  name="cursorOpacity"/>
             <InterpolatingParam id="1457" interp="linr"  time="0/1" value="0" leadInLength="0/1"  name="cursorScale"/>
            </Parameters>
            <Attributes>
             <Attribute id="1458" value="" name="ident"/>
            </Attributes>
            <MetaData>
             <entry key="AutoAppliedSmartFocus" val="False"/>
             <entry key="WinSubProjectDisplayName" val=""/>
            </MetaData>
            <ExtraData>
             <Entry key="ZoomPanBin">
              <ZoomPanBin id="1459"  >
               <ZoomPanKeyframes>
                <ZoomPanKeyframe id="1460" timeRangeEnd="-9999999/1" timeRangeDuration="0/1" interpolaterName=""  />
               </ZoomPanKeyframes>
              </ZoomPanBin>
             </Entry>
             <Entry key="CursorEffectBin">
              <CursorEffectBin id="1461"  >
               <CursorEffectKeyframes>
               </CursorEffectKeyframes>
              </CursorEffectBin>
             </Entry>
            </ExtraData>
           </ScreenVMFile>
           <ScreenVMFile id="1462" start="2389" duration="208" scalar="1/1" mediaStart="2500/1" mediaDuration="208/1" trackNumber="0" src="4" >
            <Transformer>
             <VectorParam id="1463"  name="translation">
              <InterpolatingParam id="1464" interp="linr"  time="-9999999/1" value="0" leadInLength="0/1"  />
              <InterpolatingParam id="1465" interp="linr"  time="-9999999/1" value="0" leadInLength="0/1"  />
              <InterpolatingParam id="1466" interp="linr"  time="-9999999/1" value="0" leadInLength="0/1"  />
             </VectorParam>
             <VectorParam id="1467"  name="rotation">
              <InterpolatingParam id="1468" interp="linr"  time="-9999999/1" value="0" leadInLength="0/1"  />
              <InterpolatingParam id="1469" interp="linr"  time="-9999999/1" value="0" leadInLength="0/1"  />
              <InterpolatingParam id="1470" interp="linr"  time="-9999999/1" value="0" leadInLength="0/1"  />
             </VectorParam>
             <VectorParam id="1471"  name="shear">
              <InterpolatingParam id="1472" interp="linr"  time="-9999999/1" value="0" leadInLength="0/1"  />
              <InterpolatingParam id="1473" interp="linr"  time="-9999999/1" value="0" leadInLength="0/1"  />
              <InterpolatingParam id="1474" interp="linr"  time="-9999999/1" value="0" leadInLength="0/1"  />
             </VectorParam>
             <VectorParam id="1475"  name="scale">
              <InterpolatingParam id="1476" interp="linr"  time="-9999999/1" value="1" leadInLength="0/1"  />
              <InterpolatingParam id="1477" interp="linr"  time="-9999999/1" value="1" leadInLength="0/1"  />
              <InterpolatingParam id="1478" interp="linr"  time="-9999999/1" value="1" leadInLength="0/1"  />
             </VectorParam>
             <VectorParam id="1479"  name="anchor">
              <InterpolatingParam id="1480" interp="linr"  time="0/1" value="0" leadInLength="0/1"  />
              <InterpolatingParam id="1481" interp="linr"  time="0/1" value="0" leadInLength="0/1"  />
              <InterpolatingParam id="1482" interp="linr"  time="0/1" value="0" leadInLength="0/1"  />
             </VectorParam>
            </Transformer>
            <Parameters>
             <VectorParam id="1483"  name="sourceCrop">
              <InterpolatingParam id="1484" interp="linr"  time="0/1" value="0" leadInLength="0/1"  />
              <InterpolatingParam id="1485" interp="linr"  time="0/1" value="0" leadInLength="0/1"  />
              <InterpolatingParam id="1486" interp="linr"  time="0/1" value="0" leadInLength="0/1"  />
              <InterpolatingParam id="1487" interp="linr"  time="0/1" value="0" leadInLength="0/1"  />
             </VectorParam>
             <VectorParam id="1488"  name="geometryCrop">
              <InterpolatingParam id="1489" interp="linr"  time="-9999999/1" value="0" leadInLength="0/1"  />
              <InterpolatingParam id="1490" interp="linr"  time="-9999999/1" value="0" leadInLength="0/1"  />
              <InterpolatingParam id="1491" interp="linr"  time="-9999999/1" value="0" leadInLength="0/1"  />
              <InterpolatingParam id="1492" interp="linr"  time="-9999999/1" value="0" leadInLength="0/1"  />
             </VectorParam>
             <InterpolatingParam id="1493" interp="linr"  time="-9999999/1" value="1" leadInLength="0/1"  name="opacity"/>
             <InterpolatingParam id="1494" interp="linr"  time="0/1" value="0" leadInLength="0/1"  name="cursorOpacity"/>
             <InterpolatingParam id="1495" interp="linr"  time="0/1" value="0" leadInLength="0/1"  name="cursorScale"/>
            </Parameters>
            <Attributes>
             <Attribute id="1496" value="" name="ident"/>
            </Attributes>
            <MetaData>
             <entry key="AutoAppliedSmartFocus" val="False"/>
             <entry key="WinSubProjectDisplayName" val=""/>
            </MetaData>
            <ExtraData>
             <Entry key="ZoomPanBin">
              <ZoomPanBin id="1497"  >
               <ZoomPanKeyframes>
                <ZoomPanKeyframe id="1498" timeRangeEnd="-9999999/1" timeRangeDuration="0/1" interpolaterName=""  />
               </ZoomPanKeyframes>
              </ZoomPanBin>
             </Entry>
             <Entry key="CursorEffectBin">
              <CursorEffectBin id="1499"  >
               <CursorEffectKeyframes>
               </CursorEffectKeyframes>
              </CursorEffectBin>
             </Entry>
            </ExtraData>
           </ScreenVMFile>
           <ScreenVMFile id="1500" start="2597" duration="237" scalar="1/1" mediaStart="2753/1" mediaDuration="237/1" trackNumber="0" src="4" >
            <Transformer>
             <VectorParam id="1501"  name="translation">
              <InterpolatingParam id="1502" interp="linr"  time="-9999999/1" value="0" leadInLength="0/1"  />
              <InterpolatingParam id="1503" interp="linr"  time="-9999999/1" value="0" leadInLength="0/1"  />
              <InterpolatingParam id="1504" interp="linr"  time="-9999999/1" value="0" leadInLength="0/1"  />
             </VectorParam>
             <VectorParam id="1505"  name="rotation">
              <InterpolatingParam id="1506" interp="linr"  time="-9999999/1" value="0" leadInLength="0/1"  />
              <InterpolatingParam id="1507" interp="linr"  time="-9999999/1" value="0" leadInLength="0/1"  />
              <InterpolatingParam id="1508" interp="linr"  time="-9999999/1" value="0" leadInLength="0/1"  />
             </VectorParam>
             <VectorParam id="1509"  name="shear">
              <InterpolatingParam id="1510" interp="linr"  time="-9999999/1" value="0" leadInLength="0/1"  />
              <InterpolatingParam id="1511" interp="linr"  time="-9999999/1" value="0" leadInLength="0/1"  />
              <InterpolatingParam id="1512" interp="linr"  time="-9999999/1" value="0" leadInLength="0/1"  />
             </VectorParam>
             <VectorParam id="1513"  name="scale">
              <InterpolatingParam id="1514" interp="linr"  time="-9999999/1" value="1" leadInLength="0/1"  />
              <InterpolatingParam id="1515" interp="linr"  time="-9999999/1" value="1" leadInLength="0/1"  />
              <InterpolatingParam id="1516" interp="linr"  time="-9999999/1" value="1" leadInLength="0/1"  />
             </VectorParam>
             <VectorParam id="1517"  name="anchor">
              <InterpolatingParam id="1518" interp="linr"  time="0/1" value="0" leadInLength="0/1"  />
              <InterpolatingParam id="1519" interp="linr"  time="0/1" value="0" leadInLength="0/1"  />
              <InterpolatingParam id="1520" interp="linr"  time="0/1" value="0" leadInLength="0/1"  />
             </VectorParam>
            </Transformer>
            <Parameters>
             <VectorParam id="1521"  name="sourceCrop">
              <InterpolatingParam id="1522" interp="linr"  time="0/1" value="0" leadInLength="0/1"  />
              <InterpolatingParam id="1523" interp="linr"  time="0/1" value="0" leadInLength="0/1"  />
              <InterpolatingParam id="1524" interp="linr"  time="0/1" value="0" leadInLength="0/1"  />
              <InterpolatingParam id="1525" interp="linr"  time="0/1" value="0" leadInLength="0/1"  />
             </VectorParam>
             <VectorParam id="1526"  name="geometryCrop">
              <InterpolatingParam id="1527" interp="linr"  time="-9999999/1" value="0" leadInLength="0/1"  />
              <InterpolatingParam id="1528" interp="linr"  time="-9999999/1" value="0" leadInLength="0/1"  />
              <InterpolatingParam id="1529" interp="linr"  time="-9999999/1" value="0" leadInLength="0/1"  />
              <InterpolatingParam id="1530" interp="linr"  time="-9999999/1" value="0" leadInLength="0/1"  />
             </VectorParam>
             <InterpolatingParam id="1531" interp="linr"  time="-9999999/1" value="1" leadInLength="0/1"  name="opacity"/>
             <InterpolatingParam id="1532" interp="linr"  time="0/1" value="0" leadInLength="0/1"  name="cursorOpacity"/>
             <InterpolatingParam id="1533" interp="linr"  time="0/1" value="0" leadInLength="0/1"  name="cursorScale"/>
            </Parameters>
            <Attributes>
             <Attribute id="1534" value="" name="ident"/>
            </Attributes>
            <MetaData>
             <entry key="AutoAppliedSmartFocus" val="False"/>
             <entry key="WinSubProjectDisplayName" val=""/>
            </MetaData>
            <ExtraData>
             <Entry key="ZoomPanBin">
              <ZoomPanBin id="1535"  >
               <ZoomPanKeyframes>
                <ZoomPanKeyframe id="1536" timeRangeEnd="-9999999/1" timeRangeDuration="0/1" interpolaterName=""  />
               </ZoomPanKeyframes>
              </ZoomPanBin>
             </Entry>
             <Entry key="CursorEffectBin">
              <CursorEffectBin id="1537"  >
               <CursorEffectKeyframes>
               </CursorEffectKeyframes>
              </CursorEffectBin>
             </Entry>
            </ExtraData>
           </ScreenVMFile>
           <ScreenVMFile id="1538" start="2834" duration="115" scalar="1/1" mediaStart="3035/1" mediaDuration="115/1" trackNumber="0" src="4" >
            <Transformer>
             <VectorParam id="1539"  name="translation">
              <InterpolatingParam id="1540" interp="linr"  time="-9999999/1" value="0" leadInLength="0/1"  />
              <InterpolatingParam id="1541" interp="linr"  time="-9999999/1" value="0" leadInLength="0/1"  />
              <InterpolatingParam id="1542" interp="linr"  time="-9999999/1" value="0" leadInLength="0/1"  />
             </VectorParam>
             <VectorParam id="1543"  name="rotation">
              <InterpolatingParam id="1544" interp="linr"  time="-9999999/1" value="0" leadInLength="0/1"  />
              <InterpolatingParam id="1545" interp="linr"  time="-9999999/1" value="0" leadInLength="0/1"  />
              <InterpolatingParam id="1546" interp="linr"  time="-9999999/1" value="0" leadInLength="0/1"  />
             </VectorParam>
             <VectorParam id="1547"  name="shear">
              <InterpolatingParam id="1548" interp="linr"  time="-9999999/1" value="0" leadInLength="0/1"  />
              <InterpolatingParam id="1549" interp="linr"  time="-9999999/1" value="0" leadInLength="0/1"  />
              <InterpolatingParam id="1550" interp="linr"  time="-9999999/1" value="0" leadInLength="0/1"  />
             </VectorParam>
             <VectorParam id="1551"  name="scale">
              <InterpolatingParam id="1552" interp="linr"  time="-9999999/1" value="1" leadInLength="0/1"  />
              <InterpolatingParam id="1553" interp="linr"  time="-9999999/1" value="1" leadInLength="0/1"  />
              <InterpolatingParam id="1554" interp="linr"  time="-9999999/1" value="1" leadInLength="0/1"  />
             </VectorParam>
             <VectorParam id="1555"  name="anchor">
              <InterpolatingParam id="1556" interp="linr"  time="0/1" value="0" leadInLength="0/1"  />
              <InterpolatingParam id="1557" interp="linr"  time="0/1" value="0" leadInLength="0/1"  />
              <InterpolatingParam id="1558" interp="linr"  time="0/1" value="0" leadInLength="0/1"  />
             </VectorParam>
            </Transformer>
            <Parameters>
             <VectorParam id="1559"  name="sourceCrop">
              <InterpolatingParam id="1560" interp="linr"  time="0/1" value="0" leadInLength="0/1"  />
              <InterpolatingParam id="1561" interp="linr"  time="0/1" value="0" leadInLength="0/1"  />
              <InterpolatingParam id="1562" interp="linr"  time="0/1" value="0" leadInLength="0/1"  />
              <InterpolatingParam id="1563" interp="linr"  time="0/1" value="0" leadInLength="0/1"  />
             </VectorParam>
             <VectorParam id="1564"  name="geometryCrop">
              <InterpolatingParam id="1565" interp="linr"  time="-9999999/1" value="0" leadInLength="0/1"  />
              <InterpolatingParam id="1566" interp="linr"  time="-9999999/1" value="0" leadInLength="0/1"  />
              <InterpolatingParam id="1567" interp="linr"  time="-9999999/1" value="0" leadInLength="0/1"  />
              <InterpolatingParam id="1568" interp="linr"  time="-9999999/1" value="0" leadInLength="0/1"  />
             </VectorParam>
             <InterpolatingParam id="1569" interp="linr"  time="-9999999/1" value="1" leadInLength="0/1"  name="opacity"/>
             <InterpolatingParam id="1570" interp="linr"  time="0/1" value="0" leadInLength="0/1"  name="cursorOpacity"/>
             <InterpolatingParam id="1571" interp="linr"  time="0/1" value="0" leadInLength="0/1"  name="cursorScale"/>
            </Parameters>
            <Attributes>
             <Attribute id="1572" value="" name="ident"/>
            </Attributes>
            <MetaData>
             <entry key="AutoAppliedSmartFocus" val="False"/>
             <entry key="WinSubProjectDisplayName" val=""/>
            </MetaData>
            <ExtraData>
             <Entry key="ZoomPanBin">
              <ZoomPanBin id="1573"  >
               <ZoomPanKeyframes>
                <ZoomPanKeyframe id="1574" timeRangeEnd="-9999999/1" timeRangeDuration="0/1" interpolaterName=""  />
               </ZoomPanKeyframes>
              </ZoomPanBin>
             </Entry>
             <Entry key="CursorEffectBin">
              <CursorEffectBin id="1575"  >
               <CursorEffectKeyframes>
               </CursorEffectKeyframes>
              </CursorEffectBin>
             </Entry>
            </ExtraData>
           </ScreenVMFile>
           <ScreenVMFile id="1576" start="2949" duration="305" scalar="1/1" mediaStart="3165/1" mediaDuration="305/1" trackNumber="0" src="4" >
            <Transformer>
             <VectorParam id="1577"  name="translation">
              <InterpolatingParam id="1578" interp="linr"  time="-9999999/1" value="0" leadInLength="0/1"  />
              <InterpolatingParam id="1579" interp="linr"  time="-9999999/1" value="0" leadInLength="0/1"  />
              <InterpolatingParam id="1580" interp="linr"  time="-9999999/1" value="0" leadInLength="0/1"  />
             </VectorParam>
             <VectorParam id="1581"  name="rotation">
              <InterpolatingParam id="1582" interp="linr"  time="-9999999/1" value="0" leadInLength="0/1"  />
              <InterpolatingParam id="1583" interp="linr"  time="-9999999/1" value="0" leadInLength="0/1"  />
              <InterpolatingParam id="1584" interp="linr"  time="-9999999/1" value="0" leadInLength="0/1"  />
             </VectorParam>
             <VectorParam id="1585"  name="shear">
              <InterpolatingParam id="1586" interp="linr"  time="-9999999/1" value="0" leadInLength="0/1"  />
              <InterpolatingParam id="1587" interp="linr"  time="-9999999/1" value="0" leadInLength="0/1"  />
              <InterpolatingParam id="1588" interp="linr"  time="-9999999/1" value="0" leadInLength="0/1"  />
             </VectorParam>
             <VectorParam id="1589"  name="scale">
              <InterpolatingParam id="1590" interp="linr"  time="-9999999/1" value="1" leadInLength="0/1"  />
              <InterpolatingParam id="1591" interp="linr"  time="-9999999/1" value="1" leadInLength="0/1"  />
              <InterpolatingParam id="1592" interp="linr"  time="-9999999/1" value="1" leadInLength="0/1"  />
             </VectorParam>
             <VectorParam id="1593"  name="anchor">
              <InterpolatingParam id="1594" interp="linr"  time="0/1" value="0" leadInLength="0/1"  />
              <InterpolatingParam id="1595" interp="linr"  time="0/1" value="0" leadInLength="0/1"  />
              <InterpolatingParam id="1596" interp="linr"  time="0/1" value="0" leadInLength="0/1"  />
             </VectorParam>
            </Transformer>
            <Parameters>
             <VectorParam id="1597"  name="sourceCrop">
              <InterpolatingParam id="1598" interp="linr"  time="0/1" value="0" leadInLength="0/1"  />
              <InterpolatingParam id="1599" interp="linr"  time="0/1" value="0" leadInLength="0/1"  />
              <InterpolatingParam id="1600" interp="linr"  time="0/1" value="0" leadInLength="0/1"  />
              <InterpolatingParam id="1601" interp="linr"  time="0/1" value="0" leadInLength="0/1"  />
             </VectorParam>
             <VectorParam id="1602"  name="geometryCrop">
              <InterpolatingParam id="1603" interp="linr"  time="-9999999/1" value="0" leadInLength="0/1"  />
              <InterpolatingParam id="1604" interp="linr"  time="-9999999/1" value="0" leadInLength="0/1"  />
              <InterpolatingParam id="1605" interp="linr"  time="-9999999/1" value="0" leadInLength="0/1"  />
              <InterpolatingParam id="1606" interp="linr"  time="-9999999/1" value="0" leadInLength="0/1"  />
             </VectorParam>
             <InterpolatingParam id="1607" interp="linr"  time="-9999999/1" value="1" leadInLength="0/1"  name="opacity"/>
             <InterpolatingParam id="1608" interp="linr"  time="0/1" value="0" leadInLength="0/1"  name="cursorOpacity"/>
             <InterpolatingParam id="1609" interp="linr"  time="0/1" value="0" leadInLength="0/1"  name="cursorScale"/>
            </Parameters>
            <Attributes>
             <Attribute id="1610" value="" name="ident"/>
            </Attributes>
            <MetaData>
             <entry key="AutoAppliedSmartFocus" val="False"/>
             <entry key="WinSubProjectDisplayName" val=""/>
            </MetaData>
            <ExtraData>
             <Entry key="ZoomPanBin">
              <ZoomPanBin id="1611"  >
               <ZoomPanKeyframes>
                <ZoomPanKeyframe id="1612" timeRangeEnd="-9999999/1" timeRangeDuration="0/1" interpolaterName=""  />
               </ZoomPanKeyframes>
              </ZoomPanBin>
             </Entry>
             <Entry key="CursorEffectBin">
              <CursorEffectBin id="1613"  >
               <CursorEffectKeyframes>
               </CursorEffectKeyframes>
              </CursorEffectBin>
             </Entry>
            </ExtraData>
           </ScreenVMFile>
           <ScreenVMFile id="1614" start="3254" duration="150" scalar="1/1" mediaStart="3477/1" mediaDuration="150/1" trackNumber="0" src="4" >
            <Transformer>
             <VectorParam id="1615"  name="translation">
              <InterpolatingParam id="1616" interp="linr"  time="-9999999/1" value="0" leadInLength="0/1"  />
              <InterpolatingParam id="1617" interp="linr"  time="-9999999/1" value="0" leadInLength="0/1"  />
              <InterpolatingParam id="1618" interp="linr"  time="-9999999/1" value="0" leadInLength="0/1"  />
             </VectorParam>
             <VectorParam id="1619"  name="rotation">
              <InterpolatingParam id="1620" interp="linr"  time="-9999999/1" value="0" leadInLength="0/1"  />
              <InterpolatingParam id="1621" interp="linr"  time="-9999999/1" value="0" leadInLength="0/1"  />
              <InterpolatingParam id="1622" interp="linr"  time="-9999999/1" value="0" leadInLength="0/1"  />
             </VectorParam>
             <VectorParam id="1623"  name="shear">
              <InterpolatingParam id="1624" interp="linr"  time="-9999999/1" value="0" leadInLength="0/1"  />
              <InterpolatingParam id="1625" interp="linr"  time="-9999999/1" value="0" leadInLength="0/1"  />
              <InterpolatingParam id="1626" interp="linr"  time="-9999999/1" value="0" leadInLength="0/1"  />
             </VectorParam>
             <VectorParam id="1627"  name="scale">
              <InterpolatingParam id="1628" interp="linr"  time="-9999999/1" value="1" leadInLength="0/1"  />
              <InterpolatingParam id="1629" interp="linr"  time="-9999999/1" value="1" leadInLength="0/1"  />
              <InterpolatingParam id="1630" interp="linr"  time="-9999999/1" value="1" leadInLength="0/1"  />
             </VectorParam>
             <VectorParam id="1631"  name="anchor">
              <InterpolatingParam id="1632" interp="linr"  time="0/1" value="0" leadInLength="0/1"  />
              <InterpolatingParam id="1633" interp="linr"  time="0/1" value="0" leadInLength="0/1"  />
              <InterpolatingParam id="1634" interp="linr"  time="0/1" value="0" leadInLength="0/1"  />
             </VectorParam>
            </Transformer>
            <Parameters>
             <VectorParam id="1635"  name="sourceCrop">
              <InterpolatingParam id="1636" interp="linr"  time="0/1" value="0" leadInLength="0/1"  />
              <InterpolatingParam id="1637" interp="linr"  time="0/1" value="0" leadInLength="0/1"  />
              <InterpolatingParam id="1638" interp="linr"  time="0/1" value="0" leadInLength="0/1"  />
              <InterpolatingParam id="1639" interp="linr"  time="0/1" value="0" leadInLength="0/1"  />
             </VectorParam>
             <VectorParam id="1640"  name="geometryCrop">
              <InterpolatingParam id="1641" interp="linr"  time="-9999999/1" value="0" leadInLength="0/1"  />
              <InterpolatingParam id="1642" interp="linr"  time="-9999999/1" value="0" leadInLength="0/1"  />
              <InterpolatingParam id="1643" interp="linr"  time="-9999999/1" value="0" leadInLength="0/1"  />
              <InterpolatingParam id="1644" interp="linr"  time="-9999999/1" value="0" leadInLength="0/1"  />
             </VectorParam>
             <InterpolatingParam id="1645" interp="linr"  time="-9999999/1" value="1" leadInLength="0/1"  name="opacity"/>
             <InterpolatingParam id="1646" interp="linr"  time="0/1" value="0" leadInLength="0/1"  name="cursorOpacity"/>
             <InterpolatingParam id="1647" interp="linr"  time="0/1" value="0" leadInLength="0/1"  name="cursorScale"/>
            </Parameters>
            <Attributes>
             <Attribute id="1648" value="" name="ident"/>
            </Attributes>
            <MetaData>
             <entry key="AutoAppliedSmartFocus" val="False"/>
             <entry key="WinSubProjectDisplayName" val=""/>
            </MetaData>
            <ExtraData>
             <Entry key="ZoomPanBin">
              <ZoomPanBin id="1649"  >
               <ZoomPanKeyframes>
                <ZoomPanKeyframe id="1650" timeRangeEnd="-9999999/1" timeRangeDuration="0/1" interpolaterName=""  />
               </ZoomPanKeyframes>
              </ZoomPanBin>
             </Entry>
             <Entry key="CursorEffectBin">
              <CursorEffectBin id="1651"  >
               <CursorEffectKeyframes>
               </CursorEffectKeyframes>
              </CursorEffectBin>
             </Entry>
            </ExtraData>
           </ScreenVMFile>
           <ScreenVMFile id="1652" start="3404" duration="277" scalar="1/1" mediaStart="3674/1" mediaDuration="277/1" trackNumber="0" src="4" >
            <Transformer>
             <VectorParam id="1653"  name="translation">
              <InterpolatingParam id="1654" interp="linr"  time="-9999999/1" value="0" leadInLength="0/1"  />
              <InterpolatingParam id="1655" interp="linr"  time="-9999999/1" value="0" leadInLength="0/1"  />
              <InterpolatingParam id="1656" interp="linr"  time="-9999999/1" value="0" leadInLength="0/1"  />
             </VectorParam>
             <VectorParam id="1657"  name="rotation">
              <InterpolatingParam id="1658" interp="linr"  time="-9999999/1" value="0" leadInLength="0/1"  />
              <InterpolatingParam id="1659" interp="linr"  time="-9999999/1" value="0" leadInLength="0/1"  />
              <InterpolatingParam id="1660" interp="linr"  time="-9999999/1" value="0" leadInLength="0/1"  />
             </VectorParam>
             <VectorParam id="1661"  name="shear">
              <InterpolatingParam id="1662" interp="linr"  time="-9999999/1" value="0" leadInLength="0/1"  />
              <InterpolatingParam id="1663" interp="linr"  time="-9999999/1" value="0" leadInLength="0/1"  />
              <InterpolatingParam id="1664" interp="linr"  time="-9999999/1" value="0" leadInLength="0/1"  />
             </VectorParam>
             <VectorParam id="1665"  name="scale">
              <InterpolatingParam id="1666" interp="linr"  time="-9999999/1" value="1" leadInLength="0/1"  />
              <InterpolatingParam id="1667" interp="linr"  time="-9999999/1" value="1" leadInLength="0/1"  />
              <InterpolatingParam id="1668" interp="linr"  time="-9999999/1" value="1" leadInLength="0/1"  />
             </VectorParam>
             <VectorParam id="1669"  name="anchor">
              <InterpolatingParam id="1670" interp="linr"  time="0/1" value="0" leadInLength="0/1"  />
              <InterpolatingParam id="1671" interp="linr"  time="0/1" value="0" leadInLength="0/1"  />
              <InterpolatingParam id="1672" interp="linr"  time="0/1" value="0" leadInLength="0/1"  />
             </VectorParam>
            </Transformer>
            <Parameters>
             <VectorParam id="1673"  name="sourceCrop">
              <InterpolatingParam id="1674" interp="linr"  time="0/1" value="0" leadInLength="0/1"  />
              <InterpolatingParam id="1675" interp="linr"  time="0/1" value="0" leadInLength="0/1"  />
              <InterpolatingParam id="1676" interp="linr"  time="0/1" value="0" leadInLength="0/1"  />
              <InterpolatingParam id="1677" interp="linr"  time="0/1" value="0" leadInLength="0/1"  />
             </VectorParam>
             <VectorParam id="1678"  name="geometryCrop">
              <InterpolatingParam id="1679" interp="linr"  time="-9999999/1" value="0" leadInLength="0/1"  />
              <InterpolatingParam id="1680" interp="linr"  time="-9999999/1" value="0" leadInLength="0/1"  />
              <InterpolatingParam id="1681" interp="linr"  time="-9999999/1" value="0" leadInLength="0/1"  />
              <InterpolatingParam id="1682" interp="linr"  time="-9999999/1" value="0" leadInLength="0/1"  />
             </VectorParam>
             <InterpolatingParam id="1683" interp="linr"  time="-9999999/1" value="1" leadInLength="0/1"  name="opacity"/>
             <InterpolatingParam id="1684" interp="linr"  time="0/1" value="0" leadInLength="0/1"  name="cursorOpacity"/>
             <InterpolatingParam id="1685" interp="linr"  time="0/1" value="0" leadInLength="0/1"  name="cursorScale"/>
            </Parameters>
            <Attributes>
             <Attribute id="1686" value="" name="ident"/>
            </Attributes>
            <MetaData>
             <entry key="AutoAppliedSmartFocus" val="False"/>
             <entry key="WinSubProjectDisplayName" val=""/>
            </MetaData>
            <ExtraData>
             <Entry key="ZoomPanBin">
              <ZoomPanBin id="1687"  >
               <ZoomPanKeyframes>
                <ZoomPanKeyframe id="1688" timeRangeEnd="-9999999/1" timeRangeDuration="0/1" interpolaterName=""  />
               </ZoomPanKeyframes>
              </ZoomPanBin>
             </Entry>
             <Entry key="CursorEffectBin">
              <CursorEffectBin id="1689"  >
               <CursorEffectKeyframes>
               </CursorEffectKeyframes>
              </CursorEffectBin>
             </Entry>
            </ExtraData>
           </ScreenVMFile>
           <ScreenVMFile id="1690" start="3681" duration="20" scalar="1/1" mediaStart="3968/1" mediaDuration="20/1" trackNumber="0" src="4" >
            <Transformer>
             <VectorParam id="1691"  name="translation">
              <InterpolatingParam id="1692" interp="linr"  time="-9999999/1" value="0" leadInLength="0/1"  />
              <InterpolatingParam id="1693" interp="linr"  time="-9999999/1" value="0" leadInLength="0/1"  />
              <InterpolatingParam id="1694" interp="linr"  time="-9999999/1" value="0" leadInLength="0/1"  />
             </VectorParam>
             <VectorParam id="1695"  name="rotation">
              <InterpolatingParam id="1696" interp="linr"  time="-9999999/1" value="0" leadInLength="0/1"  />
              <InterpolatingParam id="1697" interp="linr"  time="-9999999/1" value="0" leadInLength="0/1"  />
              <InterpolatingParam id="1698" interp="linr"  time="-9999999/1" value="0" leadInLength="0/1"  />
             </VectorParam>
             <VectorParam id="1699"  name="shear">
              <InterpolatingParam id="1700" interp="linr"  time="-9999999/1" value="0" leadInLength="0/1"  />
              <InterpolatingParam id="1701" interp="linr"  time="-9999999/1" value="0" leadInLength="0/1"  />
              <InterpolatingParam id="1702" interp="linr"  time="-9999999/1" value="0" leadInLength="0/1"  />
             </VectorParam>
             <VectorParam id="1703"  name="scale">
              <InterpolatingParam id="1704" interp="linr"  time="-9999999/1" value="1" leadInLength="0/1"  />
              <InterpolatingParam id="1705" interp="linr"  time="-9999999/1" value="1" leadInLength="0/1"  />
              <InterpolatingParam id="1706" interp="linr"  time="-9999999/1" value="1" leadInLength="0/1"  />
             </VectorParam>
             <VectorParam id="1707"  name="anchor">
              <InterpolatingParam id="1708" interp="linr"  time="0/1" value="0" leadInLength="0/1"  />
              <InterpolatingParam id="1709" interp="linr"  time="0/1" value="0" leadInLength="0/1"  />
              <InterpolatingParam id="1710" interp="linr"  time="0/1" value="0" leadInLength="0/1"  />
             </VectorParam>
            </Transformer>
            <Parameters>
             <VectorParam id="1711"  name="sourceCrop">
              <InterpolatingParam id="1712" interp="linr"  time="0/1" value="0" leadInLength="0/1"  />
              <InterpolatingParam id="1713" interp="linr"  time="0/1" value="0" leadInLength="0/1"  />
              <InterpolatingParam id="1714" interp="linr"  time="0/1" value="0" leadInLength="0/1"  />
              <InterpolatingParam id="1715" interp="linr"  time="0/1" value="0" leadInLength="0/1"  />
             </VectorParam>
             <VectorParam id="1716"  name="geometryCrop">
              <InterpolatingParam id="1717" interp="linr"  time="-9999999/1" value="0" leadInLength="0/1"  />
              <InterpolatingParam id="1718" interp="linr"  time="-9999999/1" value="0" leadInLength="0/1"  />
              <InterpolatingParam id="1719" interp="linr"  time="-9999999/1" value="0" leadInLength="0/1"  />
              <InterpolatingParam id="1720" interp="linr"  time="-9999999/1" value="0" leadInLength="0/1"  />
             </VectorParam>
             <InterpolatingParam id="1721" interp="linr"  time="-9999999/1" value="1" leadInLength="0/1"  name="opacity"/>
             <InterpolatingParam id="1722" interp="linr"  time="0/1" value="0" leadInLength="0/1"  name="cursorOpacity"/>
             <InterpolatingParam id="1723" interp="linr"  time="0/1" value="0" leadInLength="0/1"  name="cursorScale"/>
            </Parameters>
            <Attributes>
             <Attribute id="1724" value="" name="ident"/>
            </Attributes>
            <MetaData>
             <entry key="AutoAppliedSmartFocus" val="False"/>
             <entry key="WinSubProjectDisplayName" val=""/>
            </MetaData>
            <ExtraData>
             <Entry key="ZoomPanBin">
              <ZoomPanBin id="1725"  >
               <ZoomPanKeyframes>
                <ZoomPanKeyframe id="1726" timeRangeEnd="-9999999/1" timeRangeDuration="0/1" interpolaterName=""  />
               </ZoomPanKeyframes>
              </ZoomPanBin>
             </Entry>
             <Entry key="CursorEffectBin">
              <CursorEffectBin id="1727"  >
               <CursorEffectKeyframes>
               </CursorEffectKeyframes>
              </CursorEffectBin>
             </Entry>
            </ExtraData>
           </ScreenVMFile>
           <ScreenVMFile id="1728" start="3701" duration="101" scalar="1/1" mediaStart="4000/1" mediaDuration="101/1" trackNumber="0" src="4" >
            <Transformer>
             <VectorParam id="1729"  name="translation">
              <InterpolatingParam id="1730" interp="linr"  time="-9999999/1" value="0" leadInLength="0/1"  />
              <InterpolatingParam id="1731" interp="linr"  time="-9999999/1" value="0" leadInLength="0/1"  />
              <InterpolatingParam id="1732" interp="linr"  time="-9999999/1" value="0" leadInLength="0/1"  />
             </VectorParam>
             <VectorParam id="1733"  name="rotation">
              <InterpolatingParam id="1734" interp="linr"  time="-9999999/1" value="0" leadInLength="0/1"  />
              <InterpolatingParam id="1735" interp="linr"  time="-9999999/1" value="0" leadInLength="0/1"  />
              <InterpolatingParam id="1736" interp="linr"  time="-9999999/1" value="0" leadInLength="0/1"  />
             </VectorParam>
             <VectorParam id="1737"  name="shear">
              <InterpolatingParam id="1738" interp="linr"  time="-9999999/1" value="0" leadInLength="0/1"  />
              <InterpolatingParam id="1739" interp="linr"  time="-9999999/1" value="0" leadInLength="0/1"  />
              <InterpolatingParam id="1740" interp="linr"  time="-9999999/1" value="0" leadInLength="0/1"  />
             </VectorParam>
             <VectorParam id="1741"  name="scale">
              <InterpolatingParam id="1742" interp="linr"  time="-9999999/1" value="1" leadInLength="0/1"  />
              <InterpolatingParam id="1743" interp="linr"  time="-9999999/1" value="1" leadInLength="0/1"  />
              <InterpolatingParam id="1744" interp="linr"  time="-9999999/1" value="1" leadInLength="0/1"  />
             </VectorParam>
             <VectorParam id="1745"  name="anchor">
              <InterpolatingParam id="1746" interp="linr"  time="0/1" value="0" leadInLength="0/1"  />
              <InterpolatingParam id="1747" interp="linr"  time="0/1" value="0" leadInLength="0/1"  />
              <InterpolatingParam id="1748" interp="linr"  time="0/1" value="0" leadInLength="0/1"  />
             </VectorParam>
            </Transformer>
            <Parameters>
             <VectorParam id="1749"  name="sourceCrop">
              <InterpolatingParam id="1750" interp="linr"  time="0/1" value="0" leadInLength="0/1"  />
              <InterpolatingParam id="1751" interp="linr"  time="0/1" value="0" leadInLength="0/1"  />
              <InterpolatingParam id="1752" interp="linr"  time="0/1" value="0" leadInLength="0/1"  />
              <InterpolatingParam id="1753" interp="linr"  time="0/1" value="0" leadInLength="0/1"  />
             </VectorParam>
             <VectorParam id="1754"  name="geometryCrop">
              <InterpolatingParam id="1755" interp="linr"  time="-9999999/1" value="0" leadInLength="0/1"  />
              <InterpolatingParam id="1756" interp="linr"  time="-9999999/1" value="0" leadInLength="0/1"  />
              <InterpolatingParam id="1757" interp="linr"  time="-9999999/1" value="0" leadInLength="0/1"  />
              <InterpolatingParam id="1758" interp="linr"  time="-9999999/1" value="0" leadInLength="0/1"  />
             </VectorParam>
             <InterpolatingParam id="1759" interp="linr"  time="-9999999/1" value="1" leadInLength="0/1"  name="opacity"/>
             <InterpolatingParam id="1760" interp="linr"  time="0/1" value="0" leadInLength="0/1"  name="cursorOpacity"/>
             <InterpolatingParam id="1761" interp="linr"  time="0/1" value="0" leadInLength="0/1"  name="cursorScale"/>
            </Parameters>
            <Attributes>
             <Attribute id="1762" value="" name="ident"/>
            </Attributes>
            <MetaData>
             <entry key="AutoAppliedSmartFocus" val="False"/>
             <entry key="WinSubProjectDisplayName" val=""/>
            </MetaData>
            <ExtraData>
             <Entry key="ZoomPanBin">
              <ZoomPanBin id="1763"  >
               <ZoomPanKeyframes>
                <ZoomPanKeyframe id="1764" timeRangeEnd="-9999999/1" timeRangeDuration="0/1" interpolaterName=""  />
               </ZoomPanKeyframes>
              </ZoomPanBin>
             </Entry>
             <Entry key="CursorEffectBin">
              <CursorEffectBin id="1765"  >
               <CursorEffectKeyframes>
               </CursorEffectKeyframes>
              </CursorEffectBin>
             </Entry>
            </ExtraData>
           </ScreenVMFile>
           <ScreenVMFile id="1766" start="3802" duration="102" scalar="1/1" mediaStart="4258/1" mediaDuration="102/1" trackNumber="0" src="4" >
            <Transformer>
             <VectorParam id="1767"  name="translation">
              <InterpolatingParam id="1768" interp="linr"  time="-9999999/1" value="0" leadInLength="0/1"  />
              <InterpolatingParam id="1769" interp="linr"  time="-9999999/1" value="0" leadInLength="0/1"  />
              <InterpolatingParam id="1770" interp="linr"  time="-9999999/1" value="0" leadInLength="0/1"  />
             </VectorParam>
             <VectorParam id="1771"  name="rotation">
              <InterpolatingParam id="1772" interp="linr"  time="-9999999/1" value="0" leadInLength="0/1"  />
              <InterpolatingParam id="1773" interp="linr"  time="-9999999/1" value="0" leadInLength="0/1"  />
              <InterpolatingParam id="1774" interp="linr"  time="-9999999/1" value="0" leadInLength="0/1"  />
             </VectorParam>
             <VectorParam id="1775"  name="shear">
              <InterpolatingParam id="1776" interp="linr"  time="-9999999/1" value="0" leadInLength="0/1"  />
              <InterpolatingParam id="1777" interp="linr"  time="-9999999/1" value="0" leadInLength="0/1"  />
              <InterpolatingParam id="1778" interp="linr"  time="-9999999/1" value="0" leadInLength="0/1"  />
             </VectorParam>
             <VectorParam id="1779"  name="scale">
              <InterpolatingParam id="1780" interp="linr"  time="-9999999/1" value="1" leadInLength="0/1"  />
              <InterpolatingParam id="1781" interp="linr"  time="-9999999/1" value="1" leadInLength="0/1"  />
              <InterpolatingParam id="1782" interp="linr"  time="-9999999/1" value="1" leadInLength="0/1"  />
             </VectorParam>
             <VectorParam id="1783"  name="anchor">
              <InterpolatingParam id="1784" interp="linr"  time="0/1" value="0" leadInLength="0/1"  />
              <InterpolatingParam id="1785" interp="linr"  time="0/1" value="0" leadInLength="0/1"  />
              <InterpolatingParam id="1786" interp="linr"  time="0/1" value="0" leadInLength="0/1"  />
             </VectorParam>
            </Transformer>
            <Parameters>
             <VectorParam id="1787"  name="sourceCrop">
              <InterpolatingParam id="1788" interp="linr"  time="0/1" value="0" leadInLength="0/1"  />
              <InterpolatingParam id="1789" interp="linr"  time="0/1" value="0" leadInLength="0/1"  />
              <InterpolatingParam id="1790" interp="linr"  time="0/1" value="0" leadInLength="0/1"  />
              <InterpolatingParam id="1791" interp="linr"  time="0/1" value="0" leadInLength="0/1"  />
             </VectorParam>
             <VectorParam id="1792"  name="geometryCrop">
              <InterpolatingParam id="1793" interp="linr"  time="-9999999/1" value="0" leadInLength="0/1"  />
              <InterpolatingParam id="1794" interp="linr"  time="-9999999/1" value="0" leadInLength="0/1"  />
              <InterpolatingParam id="1795" interp="linr"  time="-9999999/1" value="0" leadInLength="0/1"  />
              <InterpolatingParam id="1796" interp="linr"  time="-9999999/1" value="0" leadInLength="0/1"  />
             </VectorParam>
             <InterpolatingParam id="1797" interp="linr"  time="-9999999/1" value="1" leadInLength="0/1"  name="opacity"/>
             <InterpolatingParam id="1798" interp="linr"  time="0/1" value="0" leadInLength="0/1"  name="cursorOpacity"/>
             <InterpolatingParam id="1799" interp="linr"  time="0/1" value="0" leadInLength="0/1"  name="cursorScale"/>
            </Parameters>
            <Attributes>
             <Attribute id="1800" value="" name="ident"/>
            </Attributes>
            <MetaData>
             <entry key="AutoAppliedSmartFocus" val="False"/>
             <entry key="WinSubProjectDisplayName" val=""/>
            </MetaData>
            <ExtraData>
             <Entry key="ZoomPanBin">
              <ZoomPanBin id="1801"  >
               <ZoomPanKeyframes>
                <ZoomPanKeyframe id="1802" timeRangeEnd="-9999999/1" timeRangeDuration="0/1" interpolaterName=""  />
               </ZoomPanKeyframes>
              </ZoomPanBin>
             </Entry>
             <Entry key="CursorEffectBin">
              <CursorEffectBin id="1803"  >
               <CursorEffectKeyframes>
               </CursorEffectKeyframes>
              </CursorEffectBin>
             </Entry>
            </ExtraData>
           </ScreenVMFile>
           <ScreenVMFile id="1804" start="3904" duration="15258" scalar="1/1" mediaStart="4478/1" mediaDuration="15258/1" trackNumber="0" src="4" >
            <Transformer>
             <VectorParam id="1805"  name="translation">
              <InterpolatingParam id="1806" interp="linr"  time="-9999999/1" value="0" leadInLength="0/1"  />
              <InterpolatingParam id="1807" interp="linr"  time="-9999999/1" value="0" leadInLength="0/1"  />
              <InterpolatingParam id="1808" interp="linr"  time="-9999999/1" value="0" leadInLength="0/1"  />
             </VectorParam>
             <VectorParam id="1809"  name="rotation">
              <InterpolatingParam id="1810" interp="linr"  time="-9999999/1" value="0" leadInLength="0/1"  />
              <InterpolatingParam id="1811" interp="linr"  time="-9999999/1" value="0" leadInLength="0/1"  />
              <InterpolatingParam id="1812" interp="linr"  time="-9999999/1" value="0" leadInLength="0/1"  />
             </VectorParam>
             <VectorParam id="1813"  name="shear">
              <InterpolatingParam id="1814" interp="linr"  time="-9999999/1" value="0" leadInLength="0/1"  />
              <InterpolatingParam id="1815" interp="linr"  time="-9999999/1" value="0" leadInLength="0/1"  />
              <InterpolatingParam id="1816" interp="linr"  time="-9999999/1" value="0" leadInLength="0/1"  />
             </VectorParam>
             <VectorParam id="1817"  name="scale">
              <InterpolatingParam id="1818" interp="linr"  time="-9999999/1" value="1" leadInLength="0/1"  />
              <InterpolatingParam id="1819" interp="linr"  time="-9999999/1" value="1" leadInLength="0/1"  />
              <InterpolatingParam id="1820" interp="linr"  time="-9999999/1" value="1" leadInLength="0/1"  />
             </VectorParam>
             <VectorParam id="1821"  name="anchor">
              <InterpolatingParam id="1822" interp="linr"  time="0/1" value="0" leadInLength="0/1"  />
              <InterpolatingParam id="1823" interp="linr"  time="0/1" value="0" leadInLength="0/1"  />
              <InterpolatingParam id="1824" interp="linr"  time="0/1" value="0" leadInLength="0/1"  />
             </VectorParam>
            </Transformer>
            <Parameters>
             <VectorParam id="1825"  name="sourceCrop">
              <InterpolatingParam id="1826" interp="linr"  time="0/1" value="0" leadInLength="0/1"  />
              <InterpolatingParam id="1827" interp="linr"  time="0/1" value="0" leadInLength="0/1"  />
              <InterpolatingParam id="1828" interp="linr"  time="0/1" value="0" leadInLength="0/1"  />
              <InterpolatingParam id="1829" interp="linr"  time="0/1" value="0" leadInLength="0/1"  />
             </VectorParam>
             <VectorParam id="1830"  name="geometryCrop">
              <InterpolatingParam id="1831" interp="linr"  time="-9999999/1" value="0" leadInLength="0/1"  />
              <InterpolatingParam id="1832" interp="linr"  time="-9999999/1" value="0" leadInLength="0/1"  />
              <InterpolatingParam id="1833" interp="linr"  time="-9999999/1" value="0" leadInLength="0/1"  />
              <InterpolatingParam id="1834" interp="linr"  time="-9999999/1" value="0" leadInLength="0/1"  />
             </VectorParam>
             <InterpolatingParam id="1835" interp="linr"  time="-9999999/1" value="1" leadInLength="0/1"  name="opacity"/>
             <InterpolatingParam id="1836" interp="linr"  time="0/1" value="0" leadInLength="0/1"  name="cursorOpacity"/>
             <InterpolatingParam id="1837" interp="linr"  time="0/1" value="0" leadInLength="0/1"  name="cursorScale"/>
            </Parameters>
            <Attributes>
             <Attribute id="1838" value="" name="ident"/>
            </Attributes>
            <MetaData>
             <entry key="AutoAppliedSmartFocus" val="False"/>
             <entry key="WinSubProjectDisplayName" val=""/>
            </MetaData>
            <ExtraData>
             <Entry key="ZoomPanBin">
              <ZoomPanBin id="1839"  >
               <ZoomPanKeyframes>
                <ZoomPanKeyframe id="1840" timeRangeEnd="-9999999/1" timeRangeDuration="0/1" interpolaterName=""  />
               </ZoomPanKeyframes>
              </ZoomPanBin>
             </Entry>
             <Entry key="CursorEffectBin">
              <CursorEffectBin id="1841"  >
               <CursorEffectKeyframes>
               </CursorEffectKeyframes>
              </CursorEffectBin>
             </Entry>
            </ExtraData>
           </ScreenVMFile>
          </Medias>
         </GenericTrack>
        </StitchedMedia>
        <StitchedMedia id="1842" start="6355" duration="2368" scalar="1/1" mediaStart="55/1" mediaDuration="2368/1" minMediaStart="0/1" >
         <Transformer>
          <VectorParam id="1843"  name="translation">
           <InterpolatingParam id="1844" interp="linr"  time="-9999999/1" value="-4.287346106252899e-011" leadInLength="0/1"  />
           <InterpolatingParam id="1845" interp="linr"  time="-9999999/1" value="0.21114369497740154" leadInLength="0/1"  />
           <InterpolatingParam id="1846" interp="linr"  time="-9999999/1" value="0" leadInLength="0/1"  />
          </VectorParam>
          <VectorParam id="1847"  name="rotation">
           <InterpolatingParam id="1848" interp="linr"  time="-9999999/1" value="0" leadInLength="0/1"  />
           <InterpolatingParam id="1849" interp="linr"  time="-9999999/1" value="0" leadInLength="0/1"  />
           <InterpolatingParam id="1850" interp="linr"  time="-9999999/1" value="0" leadInLength="0/1"  />
          </VectorParam>
          <VectorParam id="1851"  name="shear">
           <InterpolatingParam id="1852" interp="linr"  time="-9999999/1" value="0" leadInLength="0/1"  />
           <InterpolatingParam id="1853" interp="linr"  time="-9999999/1" value="0" leadInLength="0/1"  />
           <InterpolatingParam id="1854" interp="linr"  time="-9999999/1" value="0" leadInLength="0/1"  />
          </VectorParam>
          <VectorParam id="1855"  name="scale">
           <InterpolatingParam id="1856" interp="linr"  time="-9999999/1" value="0.93695014662756593" leadInLength="0/1"  />
           <InterpolatingParam id="1857" interp="linr"  time="-9999999/1" value="0.93695014662756593" leadInLength="0/1"  />
           <InterpolatingParam id="1858" interp="linr"  time="-9999999/1" value="1" leadInLength="0/1"  />
          </VectorParam>
          <VectorParam id="1859"  name="anchor">
           <InterpolatingParam id="1860" interp="linr"  time="0/1" value="0" leadInLength="0/1"  />
           <InterpolatingParam id="1861" interp="linr"  time="0/1" value="0" leadInLength="0/1"  />
           <InterpolatingParam id="1862" interp="linr"  time="0/1" value="0" leadInLength="0/1"  />
          </VectorParam>
         </Transformer>
         <Parameters>
          <VectorParam id="1863"  name="sourceCrop">
           <InterpolatingParam id="1864" interp="linr"  time="0/1" value="0" leadInLength="0/1"  />
           <InterpolatingParam id="1865" interp="linr"  time="0/1" value="0" leadInLength="0/1"  />
           <InterpolatingParam id="1866" interp="linr"  time="0/1" value="0" leadInLength="0/1"  />
           <InterpolatingParam id="1867" interp="linr"  time="0/1" value="0" leadInLength="0/1"  />
          </VectorParam>
          <VectorParam id="1868"  name="geometryCrop">
           <InterpolatingParam id="1869" interp="linr"  time="-9999999/1" value="0" leadInLength="0/1"  />
           <InterpolatingParam id="1870" interp="linr"  time="-9999999/1" value="0" leadInLength="0/1"  />
           <InterpolatingParam id="1871" interp="linr"  time="-9999999/1" value="0" leadInLength="0/1"  />
           <InterpolatingParam id="1872" interp="linr"  time="-9999999/1" value="0" leadInLength="0/1"  />
          </VectorParam>
          <InterpolatingParam id="1873" interp="linr"  time="-9999999/1" value="1" leadInLength="0/1"  name="opacity"/>
          <InterpolatingParam id="1874" interp="linr"  time="0/1" value="1" leadInLength="0/1"  name="cursorOpacity"/>
          <InterpolatingParam id="1875" interp="linr"  time="0/1" value="1" leadInLength="0/1"  name="cursorScale"/>
          <Parameter id="1876"  name="captions"/>
         </Parameters>
         <Effects>
          <GenericEffect id="1877" name = "CursorBaseEffectName" >
           <Parameters>
           <InterpolatingParam id="1878" interp="linr"  time="-9999999/1" value="1" leadInLength="0/1"   name="cursorSize"/>
           <InterpolatingParam id="1879" interp="linr"  time="-9999999/1" value="0" leadInLength="0/1"   name="highlightBlurRadius"/>
           <InterpolatingParam id="1880" interp="linr"  time="-9999999/1" value="0" leadInLength="0/1"   name="highlightColorBlue"/>
           <InterpolatingParam id="1881" interp="linr"  time="-9999999/1" value="255" leadInLength="0/1"   name="highlightColorGreen"/>
           <InterpolatingParam id="1882" interp="linr"  time="-9999999/1" value="255" leadInLength="0/1"   name="highlightColorRed"/>
           <InterpolatingParam id="1883" interp="linr"  time="-9999999/1" value="5" leadInLength="0/1"   name="highlightFeatherSize"/>
           <InterpolatingParam id="1884" interp="linr"  time="-9999999/1" value="2" leadInLength="0/1"   name="highlightMagnification"/>
           <InterpolatingParam id="1885" interp="linr"  time="-9999999/1" value="1" leadInLength="0/1"   name="highlightOpacity"/>
           <InterpolatingParam id="1886" interp="linr"  time="-9999999/1" value="45" leadInLength="0/1"   name="highlightSize"/>
           <Parameter id="1887"   name="highlightType">
            <Keyframes>
            <Keyframe id="1888"  time="-9999999/1" value="0" leadInLength="0/1"  />
            </Keyframes>
           </Parameter>
           <InterpolatingParam id="1889" interp="linr"  time="-9999999/1" value="0" leadInLength="0/1"   name="leftClickColorBlue"/>
           <InterpolatingParam id="1890" interp="linr"  time="-9999999/1" value="0" leadInLength="0/1"   name="leftClickColorGreen"/>
           <InterpolatingParam id="1891" interp="linr"  time="-9999999/1" value="255" leadInLength="0/1"   name="leftClickColorRed"/>
           <InterpolatingParam id="1892" interp="linr"  time="-9999999/1" value="0.80000000000000004" leadInLength="0/1"   name="leftClickDuration"/>
           <InterpolatingParam id="1893" interp="linr"  time="-9999999/1" value="20" leadInLength="0/1"   name="leftClickSize"/>
           <Parameter id="1894"   name="leftClickSoundFilename">
            <Keyframes>
            <Keyframe id="1895"  time="-9999999/1" value="" leadInLength="0/1"  />
            </Keyframes>
           </Parameter>
           <InterpolatingParam id="1896" interp="linr"  time="-9999999/1" value="1" leadInLength="0/1"   name="leftClickSoundVolume"/>
           <Parameter id="1897"   name="leftClickType">
            <Keyframes>
            <Keyframe id="1898"  time="-9999999/1" value="0" leadInLength="0/1"  />
            </Keyframes>
           </Parameter>
           <InterpolatingParam id="1899" interp="linr"  time="-9999999/1" value="1" leadInLength="0/1"   name="opacity"/>
           <InterpolatingParam id="1900" interp="linr"  time="-9999999/1" value="255" leadInLength="0/1"   name="rightClickColorBlue"/>
           <InterpolatingParam id="1901" interp="linr"  time="-9999999/1" value="0" leadInLength="0/1"   name="rightClickColorGreen"/>
           <InterpolatingParam id="1902" interp="linr"  time="-9999999/1" value="0" leadInLength="0/1"   name="rightClickColorRed"/>
           <InterpolatingParam id="1903" interp="linr"  time="-9999999/1" value="0.80000000000000004" leadInLength="0/1"   name="rightClickDuration"/>
           <InterpolatingParam id="1904" interp="linr"  time="-9999999/1" value="20" leadInLength="0/1"   name="rightClickSize"/>
           <Parameter id="1905"   name="rightClickSoundFilename">
            <Keyframes>
            <Keyframe id="1906"  time="-9999999/1" value="" leadInLength="0/1"  />
            </Keyframes>
           </Parameter>
           <InterpolatingParam id="1907" interp="linr"  time="-9999999/1" value="1" leadInLength="0/1"   name="rightClickSoundVolume"/>
           <Parameter id="1908"   name="rightClickType">
            <Keyframes>
            <Keyframe id="1909"  time="-9999999/1" value="0" leadInLength="0/1"  />
            </Keyframes>
           </Parameter>
           </Parameters>
          </GenericEffect>
         </Effects>
         <Attributes>
          <Attribute id="1910" value="" name="ident"/>
         </Attributes>
         <MetaData>
          <entry key="AutoAppliedSmartFocus" val="False"/>
          <entry key="WinSubProjectDisplayName" val=""/>
         </MetaData>
         <ExtraData>
          <Entry key="ZoomPanBin">
           <ZoomPanBin id="1911"  >
            <ZoomPanKeyframes>
             <ZoomPanKeyframe id="1912" timeRangeEnd="-9999999/1" timeRangeDuration="0/1" interpolaterName=""  />
            </ZoomPanKeyframes>
           </ZoomPanBin>
          </Entry>
          <Entry key="CursorEffectBin">
           <CursorEffectBin id="1913"  >
            <CursorEffectKeyframes>
             <CursorEffectKeyframe id="1914" timeRangeEnd="-9999999/1" timeRangeDuration="0/1" interpolaterName=""  />
            </CursorEffectKeyframes>
           </CursorEffectBin>
          </Entry>
         </ExtraData>
         <GenericTrack id="1915"  >
          <Attributes>
           <Attribute id="1916" value="" name="ident"/>
           <Attribute id="1917" value="0" name="audioMuted"/>
           <Attribute id="1918" value="0" name="videoHidden"/>
          </Attributes>
          <MetaData>
           <entry key="IsLocked" val="False"/>
           <entry key="WinTrackHeight" val="0"/>
          </MetaData>
          <Medias>
           <ScreenVMFile id="1919" start="0" duration="316" scalar="1/1" mediaStart="0/1" mediaDuration="316/1" trackNumber="0" src="6" >
            <Transformer>
             <VectorParam id="1920"  name="translation">
              <InterpolatingParam id="1921" interp="linr"  time="-9999999/1" value="0" leadInLength="0/1"  />
              <InterpolatingParam id="1922" interp="linr"  time="-9999999/1" value="0" leadInLength="0/1"  />
              <InterpolatingParam id="1923" interp="linr"  time="-9999999/1" value="0" leadInLength="0/1"  />
             </VectorParam>
             <VectorParam id="1924"  name="rotation">
              <InterpolatingParam id="1925" interp="linr"  time="-9999999/1" value="0" leadInLength="0/1"  />
              <InterpolatingParam id="1926" interp="linr"  time="-9999999/1" value="0" leadInLength="0/1"  />
              <InterpolatingParam id="1927" interp="linr"  time="-9999999/1" value="0" leadInLength="0/1"  />
             </VectorParam>
             <VectorParam id="1928"  name="shear">
              <InterpolatingParam id="1929" interp="linr"  time="-9999999/1" value="0" leadInLength="0/1"  />
              <InterpolatingParam id="1930" interp="linr"  time="-9999999/1" value="0" leadInLength="0/1"  />
              <InterpolatingParam id="1931" interp="linr"  time="-9999999/1" value="0" leadInLength="0/1"  />
             </VectorParam>
             <VectorParam id="1932"  name="scale">
              <InterpolatingParam id="1933" interp="linr"  time="-9999999/1" value="1" leadInLength="0/1"  />
              <InterpolatingParam id="1934" interp="linr"  time="-9999999/1" value="1" leadInLength="0/1"  />
              <InterpolatingParam id="1935" interp="linr"  time="-9999999/1" value="1" leadInLength="0/1"  />
             </VectorParam>
             <VectorParam id="1936"  name="anchor">
              <InterpolatingParam id="1937" interp="linr"  time="0/1" value="0" leadInLength="0/1"  />
              <InterpolatingParam id="1938" interp="linr"  time="0/1" value="0" leadInLength="0/1"  />
              <InterpolatingParam id="1939" interp="linr"  time="0/1" value="0" leadInLength="0/1"  />
             </VectorParam>
            </Transformer>
            <Parameters>
             <VectorParam id="1940"  name="sourceCrop">
              <InterpolatingParam id="1941" interp="linr"  time="0/1" value="0" leadInLength="0/1"  />
              <InterpolatingParam id="1942" interp="linr"  time="0/1" value="0" leadInLength="0/1"  />
              <InterpolatingParam id="1943" interp="linr"  time="0/1" value="0" leadInLength="0/1"  />
              <InterpolatingParam id="1944" interp="linr"  time="0/1" value="0" leadInLength="0/1"  />
             </VectorParam>
             <VectorParam id="1945"  name="geometryCrop">
              <InterpolatingParam id="1946" interp="linr"  time="-9999999/1" value="0" leadInLength="0/1"  />
              <InterpolatingParam id="1947" interp="linr"  time="-9999999/1" value="0" leadInLength="0/1"  />
              <InterpolatingParam id="1948" interp="linr"  time="-9999999/1" value="0" leadInLength="0/1"  />
              <InterpolatingParam id="1949" interp="linr"  time="-9999999/1" value="0" leadInLength="0/1"  />
             </VectorParam>
             <InterpolatingParam id="1950" interp="linr"  time="-9999999/1" value="1" leadInLength="0/1"  name="opacity"/>
             <InterpolatingParam id="1951" interp="linr"  time="0/1" value="0" leadInLength="0/1"  name="cursorOpacity"/>
             <InterpolatingParam id="1952" interp="linr"  time="0/1" value="0" leadInLength="0/1"  name="cursorScale"/>
            </Parameters>
            <Attributes>
             <Attribute id="1953" value="" name="ident"/>
            </Attributes>
            <MetaData>
             <entry key="AutoAppliedSmartFocus" val="False"/>
             <entry key="WinSubProjectDisplayName" val=""/>
            </MetaData>
            <ExtraData>
             <Entry key="ZoomPanBin">
              <ZoomPanBin id="1954"  >
               <ZoomPanKeyframes>
                <ZoomPanKeyframe id="1955" timeRangeEnd="-9999999/1" timeRangeDuration="0/1" interpolaterName=""  />
               </ZoomPanKeyframes>
              </ZoomPanBin>
             </Entry>
             <Entry key="CursorEffectBin">
              <CursorEffectBin id="1956"  >
               <CursorEffectKeyframes>
               </CursorEffectKeyframes>
              </CursorEffectBin>
             </Entry>
            </ExtraData>
           </ScreenVMFile>
           <ScreenVMFile id="1957" start="316" duration="295" scalar="1/1" mediaStart="439/1" mediaDuration="295/1" trackNumber="0" src="6" >
            <Transformer>
             <VectorParam id="1958"  name="translation">
              <InterpolatingParam id="1959" interp="linr"  time="-9999999/1" value="0" leadInLength="0/1"  />
              <InterpolatingParam id="1960" interp="linr"  time="-9999999/1" value="0" leadInLength="0/1"  />
              <InterpolatingParam id="1961" interp="linr"  time="-9999999/1" value="0" leadInLength="0/1"  />
             </VectorParam>
             <VectorParam id="1962"  name="rotation">
              <InterpolatingParam id="1963" interp="linr"  time="-9999999/1" value="0" leadInLength="0/1"  />
              <InterpolatingParam id="1964" interp="linr"  time="-9999999/1" value="0" leadInLength="0/1"  />
              <InterpolatingParam id="1965" interp="linr"  time="-9999999/1" value="0" leadInLength="0/1"  />
             </VectorParam>
             <VectorParam id="1966"  name="shear">
              <InterpolatingParam id="1967" interp="linr"  time="-9999999/1" value="0" leadInLength="0/1"  />
              <InterpolatingParam id="1968" interp="linr"  time="-9999999/1" value="0" leadInLength="0/1"  />
              <InterpolatingParam id="1969" interp="linr"  time="-9999999/1" value="0" leadInLength="0/1"  />
             </VectorParam>
             <VectorParam id="1970"  name="scale">
              <InterpolatingParam id="1971" interp="linr"  time="-9999999/1" value="1" leadInLength="0/1"  />
              <InterpolatingParam id="1972" interp="linr"  time="-9999999/1" value="1" leadInLength="0/1"  />
              <InterpolatingParam id="1973" interp="linr"  time="-9999999/1" value="1" leadInLength="0/1"  />
             </VectorParam>
             <VectorParam id="1974"  name="anchor">
              <InterpolatingParam id="1975" interp="linr"  time="0/1" value="0" leadInLength="0/1"  />
              <InterpolatingParam id="1976" interp="linr"  time="0/1" value="0" leadInLength="0/1"  />
              <InterpolatingParam id="1977" interp="linr"  time="0/1" value="0" leadInLength="0/1"  />
             </VectorParam>
            </Transformer>
            <Parameters>
             <VectorParam id="1978"  name="sourceCrop">
              <InterpolatingParam id="1979" interp="linr"  time="0/1" value="0" leadInLength="0/1"  />
              <InterpolatingParam id="1980" interp="linr"  time="0/1" value="0" leadInLength="0/1"  />
              <InterpolatingParam id="1981" interp="linr"  time="0/1" value="0" leadInLength="0/1"  />
              <InterpolatingParam id="1982" interp="linr"  time="0/1" value="0" leadInLength="0/1"  />
             </VectorParam>
             <VectorParam id="1983"  name="geometryCrop">
              <InterpolatingParam id="1984" interp="linr"  time="-9999999/1" value="0" leadInLength="0/1"  />
              <InterpolatingParam id="1985" interp="linr"  time="-9999999/1" value="0" leadInLength="0/1"  />
              <InterpolatingParam id="1986" interp="linr"  time="-9999999/1" value="0" leadInLength="0/1"  />
              <InterpolatingParam id="1987" interp="linr"  time="-9999999/1" value="0" leadInLength="0/1"  />
             </VectorParam>
             <InterpolatingParam id="1988" interp="linr"  time="-9999999/1" value="1" leadInLength="0/1"  name="opacity"/>
             <InterpolatingParam id="1989" interp="linr"  time="0/1" value="0" leadInLength="0/1"  name="cursorOpacity"/>
             <InterpolatingParam id="1990" interp="linr"  time="0/1" value="0" leadInLength="0/1"  name="cursorScale"/>
            </Parameters>
            <Attributes>
             <Attribute id="1991" value="" name="ident"/>
            </Attributes>
            <MetaData>
             <entry key="AutoAppliedSmartFocus" val="False"/>
             <entry key="WinSubProjectDisplayName" val=""/>
            </MetaData>
            <ExtraData>
             <Entry key="ZoomPanBin">
              <ZoomPanBin id="1992"  >
               <ZoomPanKeyframes>
                <ZoomPanKeyframe id="1993" timeRangeEnd="-9999999/1" timeRangeDuration="0/1" interpolaterName=""  />
               </ZoomPanKeyframes>
              </ZoomPanBin>
             </Entry>
             <Entry key="CursorEffectBin">
              <CursorEffectBin id="1994"  >
               <CursorEffectKeyframes>
               </CursorEffectKeyframes>
              </CursorEffectBin>
             </Entry>
            </ExtraData>
           </ScreenVMFile>
           <ScreenVMFile id="1995" start="611" duration="1919" scalar="1/1" mediaStart="769/1" mediaDuration="1919/1" trackNumber="0" src="6" >
            <Transformer>
             <VectorParam id="1996"  name="translation">
              <InterpolatingParam id="1997" interp="linr"  time="-9999999/1" value="0" leadInLength="0/1"  />
              <InterpolatingParam id="1998" interp="linr"  time="-9999999/1" value="0" leadInLength="0/1"  />
              <InterpolatingParam id="1999" interp="linr"  time="-9999999/1" value="0" leadInLength="0/1"  />
             </VectorParam>
             <VectorParam id="2000"  name="rotation">
              <InterpolatingParam id="2001" interp="linr"  time="-9999999/1" value="0" leadInLength="0/1"  />
              <InterpolatingParam id="2002" interp="linr"  time="-9999999/1" value="0" leadInLength="0/1"  />
              <InterpolatingParam id="2003" interp="linr"  time="-9999999/1" value="0" leadInLength="0/1"  />
             </VectorParam>
             <VectorParam id="2004"  name="shear">
              <InterpolatingParam id="2005" interp="linr"  time="-9999999/1" value="0" leadInLength="0/1"  />
              <InterpolatingParam id="2006" interp="linr"  time="-9999999/1" value="0" leadInLength="0/1"  />
              <InterpolatingParam id="2007" interp="linr"  time="-9999999/1" value="0" leadInLength="0/1"  />
             </VectorParam>
             <VectorParam id="2008"  name="scale">
              <InterpolatingParam id="2009" interp="linr"  time="-9999999/1" value="1" leadInLength="0/1"  />
              <InterpolatingParam id="2010" interp="linr"  time="-9999999/1" value="1" leadInLength="0/1"  />
              <InterpolatingParam id="2011" interp="linr"  time="-9999999/1" value="1" leadInLength="0/1"  />
             </VectorParam>
             <VectorParam id="2012"  name="anchor">
              <InterpolatingParam id="2013" interp="linr"  time="0/1" value="0" leadInLength="0/1"  />
              <InterpolatingParam id="2014" interp="linr"  time="0/1" value="0" leadInLength="0/1"  />
              <InterpolatingParam id="2015" interp="linr"  time="0/1" value="0" leadInLength="0/1"  />
             </VectorParam>
            </Transformer>
            <Parameters>
             <VectorParam id="2016"  name="sourceCrop">
              <InterpolatingParam id="2017" interp="linr"  time="0/1" value="0" leadInLength="0/1"  />
              <InterpolatingParam id="2018" interp="linr"  time="0/1" value="0" leadInLength="0/1"  />
              <InterpolatingParam id="2019" interp="linr"  time="0/1" value="0" leadInLength="0/1"  />
              <InterpolatingParam id="2020" interp="linr"  time="0/1" value="0" leadInLength="0/1"  />
             </VectorParam>
             <VectorParam id="2021"  name="geometryCrop">
              <InterpolatingParam id="2022" interp="linr"  time="-9999999/1" value="0" leadInLength="0/1"  />
              <InterpolatingParam id="2023" interp="linr"  time="-9999999/1" value="0" leadInLength="0/1"  />
              <InterpolatingParam id="2024" interp="linr"  time="-9999999/1" value="0" leadInLength="0/1"  />
              <InterpolatingParam id="2025" interp="linr"  time="-9999999/1" value="0" leadInLength="0/1"  />
             </VectorParam>
             <InterpolatingParam id="2026" interp="linr"  time="-9999999/1" value="1" leadInLength="0/1"  name="opacity"/>
             <InterpolatingParam id="2027" interp="linr"  time="0/1" value="0" leadInLength="0/1"  name="cursorOpacity"/>
             <InterpolatingParam id="2028" interp="linr"  time="0/1" value="0" leadInLength="0/1"  name="cursorScale"/>
            </Parameters>
            <Attributes>
             <Attribute id="2029" value="" name="ident"/>
            </Attributes>
            <MetaData>
             <entry key="AutoAppliedSmartFocus" val="False"/>
             <entry key="WinSubProjectDisplayName" val=""/>
            </MetaData>
            <ExtraData>
             <Entry key="ZoomPanBin">
              <ZoomPanBin id="2030"  >
               <ZoomPanKeyframes>
                <ZoomPanKeyframe id="2031" timeRangeEnd="-9999999/1" timeRangeDuration="0/1" interpolaterName=""  />
               </ZoomPanKeyframes>
              </ZoomPanBin>
             </Entry>
             <Entry key="CursorEffectBin">
              <CursorEffectBin id="2032"  >
               <CursorEffectKeyframes>
               </CursorEffectKeyframes>
              </CursorEffectBin>
             </Entry>
            </ExtraData>
           </ScreenVMFile>
          </Medias>
         </GenericTrack>
        </StitchedMedia>
        <StitchedMedia id="2033" start="8723" duration="3337" scalar="1/1" mediaStart="12100/1" mediaDuration="3337/1" minMediaStart="0/1" >
         <Transformer>
          <VectorParam id="2034"  name="translation">
           <InterpolatingParam id="2035" interp="linr"  time="-9999999/1" value="-1.4239668681729201e-010" leadInLength="0/1"  />
           <InterpolatingParam id="2036" interp="linr"  time="-9999999/1" value="0.21114369504897376" leadInLength="0/1"  />
           <InterpolatingParam id="2037" interp="linr"  time="-9999999/1" value="-3.4106051316482886e-010" leadInLength="0/1"  />
          </VectorParam>
          <VectorParam id="2038"  name="rotation">
           <InterpolatingParam id="2039" interp="linr"  time="-9999999/1" value="0" leadInLength="0/1"  />
           <InterpolatingParam id="2040" interp="linr"  time="-9999999/1" value="0" leadInLength="0/1"  />
           <InterpolatingParam id="2041" interp="linr"  time="-9999999/1" value="0" leadInLength="0/1"  />
          </VectorParam>
          <VectorParam id="2042"  name="shear">
           <InterpolatingParam id="2043" interp="linr"  time="-9999999/1" value="0" leadInLength="0/1"  />
           <InterpolatingParam id="2044" interp="linr"  time="-9999999/1" value="0" leadInLength="0/1"  />
           <InterpolatingParam id="2045" interp="linr"  time="-9999999/1" value="0" leadInLength="0/1"  />
          </VectorParam>
          <VectorParam id="2046"  name="scale">
           <InterpolatingParam id="2047" interp="linr"  time="-9999999/1" value="0.93695014662756593" leadInLength="0/1"  />
           <InterpolatingParam id="2048" interp="linr"  time="-9999999/1" value="0.93695014662756593" leadInLength="0/1"  />
           <InterpolatingParam id="2049" interp="linr"  time="-9999999/1" value="1" leadInLength="0/1"  />
          </VectorParam>
          <VectorParam id="2050"  name="anchor">
           <InterpolatingParam id="2051" interp="linr"  time="0/1" value="0" leadInLength="0/1"  />
           <InterpolatingParam id="2052" interp="linr"  time="0/1" value="0" leadInLength="0/1"  />
           <InterpolatingParam id="2053" interp="linr"  time="0/1" value="0" leadInLength="0/1"  />
          </VectorParam>
         </Transformer>
         <Parameters>
          <VectorParam id="2054"  name="sourceCrop">
           <InterpolatingParam id="2055" interp="linr"  time="0/1" value="0" leadInLength="0/1"  />
           <InterpolatingParam id="2056" interp="linr"  time="0/1" value="0" leadInLength="0/1"  />
           <InterpolatingParam id="2057" interp="linr"  time="0/1" value="0" leadInLength="0/1"  />
           <InterpolatingParam id="2058" interp="linr"  time="0/1" value="0" leadInLength="0/1"  />
          </VectorParam>
          <VectorParam id="2059"  name="geometryCrop">
           <InterpolatingParam id="2060" interp="linr"  time="-9999999/1" value="0" leadInLength="0/1"  />
           <InterpolatingParam id="2061" interp="linr"  time="-9999999/1" value="0" leadInLength="0/1"  />
           <InterpolatingParam id="2062" interp="linr"  time="-9999999/1" value="0" leadInLength="0/1"  />
           <InterpolatingParam id="2063" interp="linr"  time="-9999999/1" value="0" leadInLength="0/1"  />
          </VectorParam>
          <InterpolatingParam id="2064" interp="linr"  time="-9999999/1" value="1" leadInLength="0/1"  name="opacity"/>
          <InterpolatingParam id="2065" interp="linr"  time="0/1" value="1" leadInLength="0/1"  name="cursorOpacity"/>
          <InterpolatingParam id="2066" interp="linr"  time="0/1" value="1" leadInLength="0/1"  name="cursorScale"/>
          <Parameter id="2067"  name="captions"/>
         </Parameters>
         <Effects>
          <GenericEffect id="2068" name = "CursorBaseEffectName" >
           <Parameters>
           <InterpolatingParam id="2069" interp="linr"  time="-9999999/1" value="1" leadInLength="0/1"   name="cursorSize"/>
           <InterpolatingParam id="2070" interp="linr"  time="-9999999/1" value="0" leadInLength="0/1"   name="highlightBlurRadius"/>
           <InterpolatingParam id="2071" interp="linr"  time="-9999999/1" value="0" leadInLength="0/1"   name="highlightColorBlue"/>
           <InterpolatingParam id="2072" interp="linr"  time="-9999999/1" value="255" leadInLength="0/1"   name="highlightColorGreen"/>
           <InterpolatingParam id="2073" interp="linr"  time="-9999999/1" value="255" leadInLength="0/1"   name="highlightColorRed"/>
           <InterpolatingParam id="2074" interp="linr"  time="-9999999/1" value="5" leadInLength="0/1"   name="highlightFeatherSize"/>
           <InterpolatingParam id="2075" interp="linr"  time="-9999999/1" value="2" leadInLength="0/1"   name="highlightMagnification"/>
           <InterpolatingParam id="2076" interp="linr"  time="-9999999/1" value="1" leadInLength="0/1"   name="highlightOpacity"/>
           <InterpolatingParam id="2077" interp="linr"  time="-9999999/1" value="45" leadInLength="0/1"   name="highlightSize"/>
           <Parameter id="2078"   name="highlightType">
            <Keyframes>
            <Keyframe id="2079"  time="-9999999/1" value="0" leadInLength="0/1"  />
            </Keyframes>
           </Parameter>
           <InterpolatingParam id="2080" interp="linr"  time="-9999999/1" value="0" leadInLength="0/1"   name="leftClickColorBlue"/>
           <InterpolatingParam id="2081" interp="linr"  time="-9999999/1" value="0" leadInLength="0/1"   name="leftClickColorGreen"/>
           <InterpolatingParam id="2082" interp="linr"  time="-9999999/1" value="255" leadInLength="0/1"   name="leftClickColorRed"/>
           <InterpolatingParam id="2083" interp="linr"  time="-9999999/1" value="0.80000000000000004" leadInLength="0/1"   name="leftClickDuration"/>
           <InterpolatingParam id="2084" interp="linr"  time="-9999999/1" value="20" leadInLength="0/1"   name="leftClickSize"/>
           <Parameter id="2085"   name="leftClickSoundFilename">
            <Keyframes>
            <Keyframe id="2086"  time="-9999999/1" value="" leadInLength="0/1"  />
            </Keyframes>
           </Parameter>
           <InterpolatingParam id="2087" interp="linr"  time="-9999999/1" value="1" leadInLength="0/1"   name="leftClickSoundVolume"/>
           <Parameter id="2088"   name="leftClickType">
            <Keyframes>
            <Keyframe id="2089"  time="-9999999/1" value="0" leadInLength="0/1"  />
            </Keyframes>
           </Parameter>
           <InterpolatingParam id="2090" interp="linr"  time="-9999999/1" value="1" leadInLength="0/1"   name="opacity"/>
           <InterpolatingParam id="2091" interp="linr"  time="-9999999/1" value="255" leadInLength="0/1"   name="rightClickColorBlue"/>
           <InterpolatingParam id="2092" interp="linr"  time="-9999999/1" value="0" leadInLength="0/1"   name="rightClickColorGreen"/>
           <InterpolatingParam id="2093" interp="linr"  time="-9999999/1" value="0" leadInLength="0/1"   name="rightClickColorRed"/>
           <InterpolatingParam id="2094" interp="linr"  time="-9999999/1" value="0.80000000000000004" leadInLength="0/1"   name="rightClickDuration"/>
           <InterpolatingParam id="2095" interp="linr"  time="-9999999/1" value="20" leadInLength="0/1"   name="rightClickSize"/>
           <Parameter id="2096"   name="rightClickSoundFilename">
            <Keyframes>
            <Keyframe id="2097"  time="-9999999/1" value="" leadInLength="0/1"  />
            </Keyframes>
           </Parameter>
           <InterpolatingParam id="2098" interp="linr"  time="-9999999/1" value="1" leadInLength="0/1"   name="rightClickSoundVolume"/>
           <Parameter id="2099"   name="rightClickType">
            <Keyframes>
            <Keyframe id="2100"  time="-9999999/1" value="0" leadInLength="0/1"  />
            </Keyframes>
           </Parameter>
           </Parameters>
          </GenericEffect>
         </Effects>
         <Attributes>
          <Attribute id="2101" value="" name="ident"/>
         </Attributes>
         <MetaData>
          <entry key="AutoAppliedSmartFocus" val="False"/>
          <entry key="WinSubProjectDisplayName" val=""/>
         </MetaData>
         <ExtraData>
          <Entry key="ZoomPanBin">
           <ZoomPanBin id="2102"  >
            <ZoomPanKeyframes>
             <ZoomPanKeyframe id="2103" timeRangeEnd="-9999999/1" timeRangeDuration="0/1" interpolaterName=""  />
            </ZoomPanKeyframes>
           </ZoomPanBin>
          </Entry>
          <Entry key="CursorEffectBin">
           <CursorEffectBin id="2104"  >
            <CursorEffectKeyframes>
             <CursorEffectKeyframe id="2105" timeRangeEnd="-9999999/1" timeRangeDuration="0/1" interpolaterName=""  />
            </CursorEffectKeyframes>
           </CursorEffectBin>
          </Entry>
         </ExtraData>
         <GenericTrack id="2106"  >
          <Attributes>
           <Attribute id="2107" value="" name="ident"/>
           <Attribute id="2108" value="0" name="audioMuted"/>
           <Attribute id="2109" value="0" name="videoHidden"/>
          </Attributes>
          <MetaData>
           <entry key="IsLocked" val="False"/>
           <entry key="WinTrackHeight" val="0"/>
          </MetaData>
          <Medias>
           <ScreenVMFile id="2110" start="0" duration="2059" scalar="1/1" mediaStart="0/1" mediaDuration="2059/1" trackNumber="0" src="4" >
            <Transformer>
             <VectorParam id="2111"  name="translation">
              <InterpolatingParam id="2112" interp="linr"  time="-9999999/1" value="0" leadInLength="0/1"  />
              <InterpolatingParam id="2113" interp="linr"  time="-9999999/1" value="0" leadInLength="0/1"  />
              <InterpolatingParam id="2114" interp="linr"  time="-9999999/1" value="0" leadInLength="0/1"  />
             </VectorParam>
             <VectorParam id="2115"  name="rotation">
              <InterpolatingParam id="2116" interp="linr"  time="-9999999/1" value="0" leadInLength="0/1"  />
              <InterpolatingParam id="2117" interp="linr"  time="-9999999/1" value="0" leadInLength="0/1"  />
              <InterpolatingParam id="2118" interp="linr"  time="-9999999/1" value="0" leadInLength="0/1"  />
             </VectorParam>
             <VectorParam id="2119"  name="shear">
              <InterpolatingParam id="2120" interp="linr"  time="-9999999/1" value="0" leadInLength="0/1"  />
              <InterpolatingParam id="2121" interp="linr"  time="-9999999/1" value="0" leadInLength="0/1"  />
              <InterpolatingParam id="2122" interp="linr"  time="-9999999/1" value="0" leadInLength="0/1"  />
             </VectorParam>
             <VectorParam id="2123"  name="scale">
              <InterpolatingParam id="2124" interp="linr"  time="-9999999/1" value="1" leadInLength="0/1"  />
              <InterpolatingParam id="2125" interp="linr"  time="-9999999/1" value="1" leadInLength="0/1"  />
              <InterpolatingParam id="2126" interp="linr"  time="-9999999/1" value="1" leadInLength="0/1"  />
             </VectorParam>
             <VectorParam id="2127"  name="anchor">
              <InterpolatingParam id="2128" interp="linr"  time="0/1" value="0" leadInLength="0/1"  />
              <InterpolatingParam id="2129" interp="linr"  time="0/1" value="0" leadInLength="0/1"  />
              <InterpolatingParam id="2130" interp="linr"  time="0/1" value="0" leadInLength="0/1"  />
             </VectorParam>
            </Transformer>
            <Parameters>
             <VectorParam id="2131"  name="sourceCrop">
              <InterpolatingParam id="2132" interp="linr"  time="0/1" value="0" leadInLength="0/1"  />
              <InterpolatingParam id="2133" interp="linr"  time="0/1" value="0" leadInLength="0/1"  />
              <InterpolatingParam id="2134" interp="linr"  time="0/1" value="0" leadInLength="0/1"  />
              <InterpolatingParam id="2135" interp="linr"  time="0/1" value="0" leadInLength="0/1"  />
             </VectorParam>
             <VectorParam id="2136"  name="geometryCrop">
              <InterpolatingParam id="2137" interp="linr"  time="-9999999/1" value="0" leadInLength="0/1"  />
              <InterpolatingParam id="2138" interp="linr"  time="-9999999/1" value="0" leadInLength="0/1"  />
              <InterpolatingParam id="2139" interp="linr"  time="-9999999/1" value="0" leadInLength="0/1"  />
              <InterpolatingParam id="2140" interp="linr"  time="-9999999/1" value="0" leadInLength="0/1"  />
             </VectorParam>
             <InterpolatingParam id="2141" interp="linr"  time="-9999999/1" value="1" leadInLength="0/1"  name="opacity"/>
             <InterpolatingParam id="2142" interp="linr"  time="0/1" value="0" leadInLength="0/1"  name="cursorOpacity"/>
             <InterpolatingParam id="2143" interp="linr"  time="0/1" value="0" leadInLength="0/1"  name="cursorScale"/>
            </Parameters>
            <Attributes>
             <Attribute id="2144" value="" name="ident"/>
            </Attributes>
            <MetaData>
             <entry key="AutoAppliedSmartFocus" val="False"/>
             <entry key="WinSubProjectDisplayName" val=""/>
            </MetaData>
            <ExtraData>
             <Entry key="ZoomPanBin">
              <ZoomPanBin id="2145"  >
               <ZoomPanKeyframes>
                <ZoomPanKeyframe id="2146" timeRangeEnd="-9999999/1" timeRangeDuration="0/1" interpolaterName=""  />
               </ZoomPanKeyframes>
              </ZoomPanBin>
             </Entry>
             <Entry key="CursorEffectBin">
              <CursorEffectBin id="2147"  >
               <CursorEffectKeyframes>
               </CursorEffectKeyframes>
              </CursorEffectBin>
             </Entry>
            </ExtraData>
           </ScreenVMFile>
           <ScreenVMFile id="2148" start="2059" duration="199" scalar="1/1" mediaStart="2069/1" mediaDuration="199/1" trackNumber="0" src="4" >
            <Transformer>
             <VectorParam id="2149"  name="translation">
              <InterpolatingParam id="2150" interp="linr"  time="-9999999/1" value="0" leadInLength="0/1"  />
              <InterpolatingParam id="2151" interp="linr"  time="-9999999/1" value="0" leadInLength="0/1"  />
              <InterpolatingParam id="2152" interp="linr"  time="-9999999/1" value="0" leadInLength="0/1"  />
             </VectorParam>
             <VectorParam id="2153"  name="rotation">
              <InterpolatingParam id="2154" interp="linr"  time="-9999999/1" value="0" leadInLength="0/1"  />
              <InterpolatingParam id="2155" interp="linr"  time="-9999999/1" value="0" leadInLength="0/1"  />
              <InterpolatingParam id="2156" interp="linr"  time="-9999999/1" value="0" leadInLength="0/1"  />
             </VectorParam>
             <VectorParam id="2157"  name="shear">
              <InterpolatingParam id="2158" interp="linr"  time="-9999999/1" value="0" leadInLength="0/1"  />
              <InterpolatingParam id="2159" interp="linr"  time="-9999999/1" value="0" leadInLength="0/1"  />
              <InterpolatingParam id="2160" interp="linr"  time="-9999999/1" value="0" leadInLength="0/1"  />
             </VectorParam>
             <VectorParam id="2161"  name="scale">
              <InterpolatingParam id="2162" interp="linr"  time="-9999999/1" value="1" leadInLength="0/1"  />
              <InterpolatingParam id="2163" interp="linr"  time="-9999999/1" value="1" leadInLength="0/1"  />
              <InterpolatingParam id="2164" interp="linr"  time="-9999999/1" value="1" leadInLength="0/1"  />
             </VectorParam>
             <VectorParam id="2165"  name="anchor">
              <InterpolatingParam id="2166" interp="linr"  time="0/1" value="0" leadInLength="0/1"  />
              <InterpolatingParam id="2167" interp="linr"  time="0/1" value="0" leadInLength="0/1"  />
              <InterpolatingParam id="2168" interp="linr"  time="0/1" value="0" leadInLength="0/1"  />
             </VectorParam>
            </Transformer>
            <Parameters>
             <VectorParam id="2169"  name="sourceCrop">
              <InterpolatingParam id="2170" interp="linr"  time="0/1" value="0" leadInLength="0/1"  />
              <InterpolatingParam id="2171" interp="linr"  time="0/1" value="0" leadInLength="0/1"  />
              <InterpolatingParam id="2172" interp="linr"  time="0/1" value="0" leadInLength="0/1"  />
              <InterpolatingParam id="2173" interp="linr"  time="0/1" value="0" leadInLength="0/1"  />
             </VectorParam>
             <VectorParam id="2174"  name="geometryCrop">
              <InterpolatingParam id="2175" interp="linr"  time="-9999999/1" value="0" leadInLength="0/1"  />
              <InterpolatingParam id="2176" interp="linr"  time="-9999999/1" value="0" leadInLength="0/1"  />
              <InterpolatingParam id="2177" interp="linr"  time="-9999999/1" value="0" leadInLength="0/1"  />
              <InterpolatingParam id="2178" interp="linr"  time="-9999999/1" value="0" leadInLength="0/1"  />
             </VectorParam>
             <InterpolatingParam id="2179" interp="linr"  time="-9999999/1" value="1" leadInLength="0/1"  name="opacity"/>
             <InterpolatingParam id="2180" interp="linr"  time="0/1" value="0" leadInLength="0/1"  name="cursorOpacity"/>
             <InterpolatingParam id="2181" interp="linr"  time="0/1" value="0" leadInLength="0/1"  name="cursorScale"/>
            </Parameters>
            <Attributes>
             <Attribute id="2182" value="" name="ident"/>
            </Attributes>
            <MetaData>
             <entry key="AutoAppliedSmartFocus" val="False"/>
             <entry key="WinSubProjectDisplayName" val=""/>
            </MetaData>
            <ExtraData>
             <Entry key="ZoomPanBin">
              <ZoomPanBin id="2183"  >
               <ZoomPanKeyframes>
                <ZoomPanKeyframe id="2184" timeRangeEnd="-9999999/1" timeRangeDuration="0/1" interpolaterName=""  />
               </ZoomPanKeyframes>
              </ZoomPanBin>
             </Entry>
             <Entry key="CursorEffectBin">
              <CursorEffectBin id="2185"  >
               <CursorEffectKeyframes>
               </CursorEffectKeyframes>
              </CursorEffectBin>
             </Entry>
            </ExtraData>
           </ScreenVMFile>
           <ScreenVMFile id="2186" start="2258" duration="30" scalar="1/1" mediaStart="2276/1" mediaDuration="30/1" trackNumber="0" src="4" >
            <Transformer>
             <VectorParam id="2187"  name="translation">
              <InterpolatingParam id="2188" interp="linr"  time="-9999999/1" value="0" leadInLength="0/1"  />
              <InterpolatingParam id="2189" interp="linr"  time="-9999999/1" value="0" leadInLength="0/1"  />
              <InterpolatingParam id="2190" interp="linr"  time="-9999999/1" value="0" leadInLength="0/1"  />
             </VectorParam>
             <VectorParam id="2191"  name="rotation">
              <InterpolatingParam id="2192" interp="linr"  time="-9999999/1" value="0" leadInLength="0/1"  />
              <InterpolatingParam id="2193" interp="linr"  time="-9999999/1" value="0" leadInLength="0/1"  />
              <InterpolatingParam id="2194" interp="linr"  time="-9999999/1" value="0" leadInLength="0/1"  />
             </VectorParam>
             <VectorParam id="2195"  name="shear">
              <InterpolatingParam id="2196" interp="linr"  time="-9999999/1" value="0" leadInLength="0/1"  />
              <InterpolatingParam id="2197" interp="linr"  time="-9999999/1" value="0" leadInLength="0/1"  />
              <InterpolatingParam id="2198" interp="linr"  time="-9999999/1" value="0" leadInLength="0/1"  />
             </VectorParam>
             <VectorParam id="2199"  name="scale">
              <InterpolatingParam id="2200" interp="linr"  time="-9999999/1" value="1" leadInLength="0/1"  />
              <InterpolatingParam id="2201" interp="linr"  time="-9999999/1" value="1" leadInLength="0/1"  />
              <InterpolatingParam id="2202" interp="linr"  time="-9999999/1" value="1" leadInLength="0/1"  />
             </VectorParam>
             <VectorParam id="2203"  name="anchor">
              <InterpolatingParam id="2204" interp="linr"  time="0/1" value="0" leadInLength="0/1"  />
              <InterpolatingParam id="2205" interp="linr"  time="0/1" value="0" leadInLength="0/1"  />
              <InterpolatingParam id="2206" interp="linr"  time="0/1" value="0" leadInLength="0/1"  />
             </VectorParam>
            </Transformer>
            <Parameters>
             <VectorParam id="2207"  name="sourceCrop">
              <InterpolatingParam id="2208" interp="linr"  time="0/1" value="0" leadInLength="0/1"  />
              <InterpolatingParam id="2209" interp="linr"  time="0/1" value="0" leadInLength="0/1"  />
              <InterpolatingParam id="2210" interp="linr"  time="0/1" value="0" leadInLength="0/1"  />
              <InterpolatingParam id="2211" interp="linr"  time="0/1" value="0" leadInLength="0/1"  />
             </VectorParam>
             <VectorParam id="2212"  name="geometryCrop">
              <InterpolatingParam id="2213" interp="linr"  time="-9999999/1" value="0" leadInLength="0/1"  />
              <InterpolatingParam id="2214" interp="linr"  time="-9999999/1" value="0" leadInLength="0/1"  />
              <InterpolatingParam id="2215" interp="linr"  time="-9999999/1" value="0" leadInLength="0/1"  />
              <InterpolatingParam id="2216" interp="linr"  time="-9999999/1" value="0" leadInLength="0/1"  />
             </VectorParam>
             <InterpolatingParam id="2217" interp="linr"  time="-9999999/1" value="1" leadInLength="0/1"  name="opacity"/>
             <InterpolatingParam id="2218" interp="linr"  time="0/1" value="0" leadInLength="0/1"  name="cursorOpacity"/>
             <InterpolatingParam id="2219" interp="linr"  time="0/1" value="0" leadInLength="0/1"  name="cursorScale"/>
            </Parameters>
            <Attributes>
             <Attribute id="2220" value="" name="ident"/>
            </Attributes>
            <MetaData>
             <entry key="AutoAppliedSmartFocus" val="False"/>
             <entry key="WinSubProjectDisplayName" val=""/>
            </MetaData>
            <ExtraData>
             <Entry key="ZoomPanBin">
              <ZoomPanBin id="2221"  >
               <ZoomPanKeyframes>
                <ZoomPanKeyframe id="2222" timeRangeEnd="-9999999/1" timeRangeDuration="0/1" interpolaterName=""  />
               </ZoomPanKeyframes>
              </ZoomPanBin>
             </Entry>
             <Entry key="CursorEffectBin">
              <CursorEffectBin id="2223"  >
               <CursorEffectKeyframes>
               </CursorEffectKeyframes>
              </CursorEffectBin>
             </Entry>
            </ExtraData>
           </ScreenVMFile>
           <ScreenVMFile id="2224" start="2288" duration="33" scalar="1/1" mediaStart="2319/1" mediaDuration="33/1" trackNumber="0" src="4" >
            <Transformer>
             <VectorParam id="2225"  name="translation">
              <InterpolatingParam id="2226" interp="linr"  time="-9999999/1" value="0" leadInLength="0/1"  />
              <InterpolatingParam id="2227" interp="linr"  time="-9999999/1" value="0" leadInLength="0/1"  />
              <InterpolatingParam id="2228" interp="linr"  time="-9999999/1" value="0" leadInLength="0/1"  />
             </VectorParam>
             <VectorParam id="2229"  name="rotation">
              <InterpolatingParam id="2230" interp="linr"  time="-9999999/1" value="0" leadInLength="0/1"  />
              <InterpolatingParam id="2231" interp="linr"  time="-9999999/1" value="0" leadInLength="0/1"  />
              <InterpolatingParam id="2232" interp="linr"  time="-9999999/1" value="0" leadInLength="0/1"  />
             </VectorParam>
             <VectorParam id="2233"  name="shear">
              <InterpolatingParam id="2234" interp="linr"  time="-9999999/1" value="0" leadInLength="0/1"  />
              <InterpolatingParam id="2235" interp="linr"  time="-9999999/1" value="0" leadInLength="0/1"  />
              <InterpolatingParam id="2236" interp="linr"  time="-9999999/1" value="0" leadInLength="0/1"  />
             </VectorParam>
             <VectorParam id="2237"  name="scale">
              <InterpolatingParam id="2238" interp="linr"  time="-9999999/1" value="1" leadInLength="0/1"  />
              <InterpolatingParam id="2239" interp="linr"  time="-9999999/1" value="1" leadInLength="0/1"  />
              <InterpolatingParam id="2240" interp="linr"  time="-9999999/1" value="1" leadInLength="0/1"  />
             </VectorParam>
             <VectorParam id="2241"  name="anchor">
              <InterpolatingParam id="2242" interp="linr"  time="0/1" value="0" leadInLength="0/1"  />
              <InterpolatingParam id="2243" interp="linr"  time="0/1" value="0" leadInLength="0/1"  />
              <InterpolatingParam id="2244" interp="linr"  time="0/1" value="0" leadInLength="0/1"  />
             </VectorParam>
            </Transformer>
            <Parameters>
             <VectorParam id="2245"  name="sourceCrop">
              <InterpolatingParam id="2246" interp="linr"  time="0/1" value="0" leadInLength="0/1"  />
              <InterpolatingParam id="2247" interp="linr"  time="0/1" value="0" leadInLength="0/1"  />
              <InterpolatingParam id="2248" interp="linr"  time="0/1" value="0" leadInLength="0/1"  />
              <InterpolatingParam id="2249" interp="linr"  time="0/1" value="0" leadInLength="0/1"  />
             </VectorParam>
             <VectorParam id="2250"  name="geometryCrop">
              <InterpolatingParam id="2251" interp="linr"  time="-9999999/1" value="0" leadInLength="0/1"  />
              <InterpolatingParam id="2252" interp="linr"  time="-9999999/1" value="0" leadInLength="0/1"  />
              <InterpolatingParam id="2253" interp="linr"  time="-9999999/1" value="0" leadInLength="0/1"  />
              <InterpolatingParam id="2254" interp="linr"  time="-9999999/1" value="0" leadInLength="0/1"  />
             </VectorParam>
             <InterpolatingParam id="2255" interp="linr"  time="-9999999/1" value="1" leadInLength="0/1"  name="opacity"/>
             <InterpolatingParam id="2256" interp="linr"  time="0/1" value="0" leadInLength="0/1"  name="cursorOpacity"/>
             <InterpolatingParam id="2257" interp="linr"  time="0/1" value="0" leadInLength="0/1"  name="cursorScale"/>
            </Parameters>
            <Attributes>
             <Attribute id="2258" value="" name="ident"/>
            </Attributes>
            <MetaData>
             <entry key="AutoAppliedSmartFocus" val="False"/>
             <entry key="WinSubProjectDisplayName" val=""/>
            </MetaData>
            <ExtraData>
             <Entry key="ZoomPanBin">
              <ZoomPanBin id="2259"  >
               <ZoomPanKeyframes>
                <ZoomPanKeyframe id="2260" timeRangeEnd="-9999999/1" timeRangeDuration="0/1" interpolaterName=""  />
               </ZoomPanKeyframes>
              </ZoomPanBin>
             </Entry>
             <Entry key="CursorEffectBin">
              <CursorEffectBin id="2261"  >
               <CursorEffectKeyframes>
               </CursorEffectKeyframes>
              </CursorEffectBin>
             </Entry>
            </ExtraData>
           </ScreenVMFile>
           <ScreenVMFile id="2262" start="2321" duration="21" scalar="1/1" mediaStart="2382/1" mediaDuration="21/1" trackNumber="0" src="4" >
            <Transformer>
             <VectorParam id="2263"  name="translation">
              <InterpolatingParam id="2264" interp="linr"  time="-9999999/1" value="0" leadInLength="0/1"  />
              <InterpolatingParam id="2265" interp="linr"  time="-9999999/1" value="0" leadInLength="0/1"  />
              <InterpolatingParam id="2266" interp="linr"  time="-9999999/1" value="0" leadInLength="0/1"  />
             </VectorParam>
             <VectorParam id="2267"  name="rotation">
              <InterpolatingParam id="2268" interp="linr"  time="-9999999/1" value="0" leadInLength="0/1"  />
              <InterpolatingParam id="2269" interp="linr"  time="-9999999/1" value="0" leadInLength="0/1"  />
              <InterpolatingParam id="2270" interp="linr"  time="-9999999/1" value="0" leadInLength="0/1"  />
             </VectorParam>
             <VectorParam id="2271"  name="shear">
              <InterpolatingParam id="2272" interp="linr"  time="-9999999/1" value="0" leadInLength="0/1"  />
              <InterpolatingParam id="2273" interp="linr"  time="-9999999/1" value="0" leadInLength="0/1"  />
              <InterpolatingParam id="2274" interp="linr"  time="-9999999/1" value="0" leadInLength="0/1"  />
             </VectorParam>
             <VectorParam id="2275"  name="scale">
              <InterpolatingParam id="2276" interp="linr"  time="-9999999/1" value="1" leadInLength="0/1"  />
              <InterpolatingParam id="2277" interp="linr"  time="-9999999/1" value="1" leadInLength="0/1"  />
              <InterpolatingParam id="2278" interp="linr"  time="-9999999/1" value="1" leadInLength="0/1"  />
             </VectorParam>
             <VectorParam id="2279"  name="anchor">
              <InterpolatingParam id="2280" interp="linr"  time="0/1" value="0" leadInLength="0/1"  />
              <InterpolatingParam id="2281" interp="linr"  time="0/1" value="0" leadInLength="0/1"  />
              <InterpolatingParam id="2282" interp="linr"  time="0/1" value="0" leadInLength="0/1"  />
             </VectorParam>
            </Transformer>
            <Parameters>
             <VectorParam id="2283"  name="sourceCrop">
              <InterpolatingParam id="2284" interp="linr"  time="0/1" value="0" leadInLength="0/1"  />
              <InterpolatingParam id="2285" interp="linr"  time="0/1" value="0" leadInLength="0/1"  />
              <InterpolatingParam id="2286" interp="linr"  time="0/1" value="0" leadInLength="0/1"  />
              <InterpolatingParam id="2287" interp="linr"  time="0/1" value="0" leadInLength="0/1"  />
             </VectorParam>
             <VectorParam id="2288"  name="geometryCrop">
              <InterpolatingParam id="2289" interp="linr"  time="-9999999/1" value="0" leadInLength="0/1"  />
              <InterpolatingParam id="2290" interp="linr"  time="-9999999/1" value="0" leadInLength="0/1"  />
              <InterpolatingParam id="2291" interp="linr"  time="-9999999/1" value="0" leadInLength="0/1"  />
              <InterpolatingParam id="2292" interp="linr"  time="-9999999/1" value="0" leadInLength="0/1"  />
             </VectorParam>
             <InterpolatingParam id="2293" interp="linr"  time="-9999999/1" value="1" leadInLength="0/1"  name="opacity"/>
             <InterpolatingParam id="2294" interp="linr"  time="0/1" value="0" leadInLength="0/1"  name="cursorOpacity"/>
             <InterpolatingParam id="2295" interp="linr"  time="0/1" value="0" leadInLength="0/1"  name="cursorScale"/>
            </Parameters>
            <Attributes>
             <Attribute id="2296" value="" name="ident"/>
            </Attributes>
            <MetaData>
             <entry key="AutoAppliedSmartFocus" val="False"/>
             <entry key="WinSubProjectDisplayName" val=""/>
            </MetaData>
            <ExtraData>
             <Entry key="ZoomPanBin">
              <ZoomPanBin id="2297"  >
               <ZoomPanKeyframes>
                <ZoomPanKeyframe id="2298" timeRangeEnd="-9999999/1" timeRangeDuration="0/1" interpolaterName=""  />
               </ZoomPanKeyframes>
              </ZoomPanBin>
             </Entry>
             <Entry key="CursorEffectBin">
              <CursorEffectBin id="2299"  >
               <CursorEffectKeyframes>
               </CursorEffectKeyframes>
              </CursorEffectBin>
             </Entry>
            </ExtraData>
           </ScreenVMFile>
           <ScreenVMFile id="2300" start="2342" duration="13" scalar="1/1" mediaStart="2413/1" mediaDuration="13/1" trackNumber="0" src="4" >
            <Transformer>
             <VectorParam id="2301"  name="translation">
              <InterpolatingParam id="2302" interp="linr"  time="-9999999/1" value="0" leadInLength="0/1"  />
              <InterpolatingParam id="2303" interp="linr"  time="-9999999/1" value="0" leadInLength="0/1"  />
              <InterpolatingParam id="2304" interp="linr"  time="-9999999/1" value="0" leadInLength="0/1"  />
             </VectorParam>
             <VectorParam id="2305"  name="rotation">
              <InterpolatingParam id="2306" interp="linr"  time="-9999999/1" value="0" leadInLength="0/1"  />
              <InterpolatingParam id="2307" interp="linr"  time="-9999999/1" value="0" leadInLength="0/1"  />
              <InterpolatingParam id="2308" interp="linr"  time="-9999999/1" value="0" leadInLength="0/1"  />
             </VectorParam>
             <VectorParam id="2309"  name="shear">
              <InterpolatingParam id="2310" interp="linr"  time="-9999999/1" value="0" leadInLength="0/1"  />
              <InterpolatingParam id="2311" interp="linr"  time="-9999999/1" value="0" leadInLength="0/1"  />
              <InterpolatingParam id="2312" interp="linr"  time="-9999999/1" value="0" leadInLength="0/1"  />
             </VectorParam>
             <VectorParam id="2313"  name="scale">
              <InterpolatingParam id="2314" interp="linr"  time="-9999999/1" value="1" leadInLength="0/1"  />
              <InterpolatingParam id="2315" interp="linr"  time="-9999999/1" value="1" leadInLength="0/1"  />
              <InterpolatingParam id="2316" interp="linr"  time="-9999999/1" value="1" leadInLength="0/1"  />
             </VectorParam>
             <VectorParam id="2317"  name="anchor">
              <InterpolatingParam id="2318" interp="linr"  time="0/1" value="0" leadInLength="0/1"  />
              <InterpolatingParam id="2319" interp="linr"  time="0/1" value="0" leadInLength="0/1"  />
              <InterpolatingParam id="2320" interp="linr"  time="0/1" value="0" leadInLength="0/1"  />
             </VectorParam>
            </Transformer>
            <Parameters>
             <VectorParam id="2321"  name="sourceCrop">
              <InterpolatingParam id="2322" interp="linr"  time="0/1" value="0" leadInLength="0/1"  />
              <InterpolatingParam id="2323" interp="linr"  time="0/1" value="0" leadInLength="0/1"  />
              <InterpolatingParam id="2324" interp="linr"  time="0/1" value="0" leadInLength="0/1"  />
              <InterpolatingParam id="2325" interp="linr"  time="0/1" value="0" leadInLength="0/1"  />
             </VectorParam>
             <VectorParam id="2326"  name="geometryCrop">
              <InterpolatingParam id="2327" interp="linr"  time="-9999999/1" value="0" leadInLength="0/1"  />
              <InterpolatingParam id="2328" interp="linr"  time="-9999999/1" value="0" leadInLength="0/1"  />
              <InterpolatingParam id="2329" interp="linr"  time="-9999999/1" value="0" leadInLength="0/1"  />
              <InterpolatingParam id="2330" interp="linr"  time="-9999999/1" value="0" leadInLength="0/1"  />
             </VectorParam>
             <InterpolatingParam id="2331" interp="linr"  time="-9999999/1" value="1" leadInLength="0/1"  name="opacity"/>
             <InterpolatingParam id="2332" interp="linr"  time="0/1" value="0" leadInLength="0/1"  name="cursorOpacity"/>
             <InterpolatingParam id="2333" interp="linr"  time="0/1" value="0" leadInLength="0/1"  name="cursorScale"/>
            </Parameters>
            <Attributes>
             <Attribute id="2334" value="" name="ident"/>
            </Attributes>
            <MetaData>
             <entry key="AutoAppliedSmartFocus" val="False"/>
             <entry key="WinSubProjectDisplayName" val=""/>
            </MetaData>
            <ExtraData>
             <Entry key="ZoomPanBin">
              <ZoomPanBin id="2335"  >
               <ZoomPanKeyframes>
                <ZoomPanKeyframe id="2336" timeRangeEnd="-9999999/1" timeRangeDuration="0/1" interpolaterName=""  />
               </ZoomPanKeyframes>
              </ZoomPanBin>
             </Entry>
             <Entry key="CursorEffectBin">
              <CursorEffectBin id="2337"  >
               <CursorEffectKeyframes>
               </CursorEffectKeyframes>
              </CursorEffectBin>
             </Entry>
            </ExtraData>
           </ScreenVMFile>
           <ScreenVMFile id="2338" start="2355" duration="34" scalar="1/1" mediaStart="2441/1" mediaDuration="34/1" trackNumber="0" src="4" >
            <Transformer>
             <VectorParam id="2339"  name="translation">
              <InterpolatingParam id="2340" interp="linr"  time="-9999999/1" value="0" leadInLength="0/1"  />
              <InterpolatingParam id="2341" interp="linr"  time="-9999999/1" value="0" leadInLength="0/1"  />
              <InterpolatingParam id="2342" interp="linr"  time="-9999999/1" value="0" leadInLength="0/1"  />
             </VectorParam>
             <VectorParam id="2343"  name="rotation">
              <InterpolatingParam id="2344" interp="linr"  time="-9999999/1" value="0" leadInLength="0/1"  />
              <InterpolatingParam id="2345" interp="linr"  time="-9999999/1" value="0" leadInLength="0/1"  />
              <InterpolatingParam id="2346" interp="linr"  time="-9999999/1" value="0" leadInLength="0/1"  />
             </VectorParam>
             <VectorParam id="2347"  name="shear">
              <InterpolatingParam id="2348" interp="linr"  time="-9999999/1" value="0" leadInLength="0/1"  />
              <InterpolatingParam id="2349" interp="linr"  time="-9999999/1" value="0" leadInLength="0/1"  />
              <InterpolatingParam id="2350" interp="linr"  time="-9999999/1" value="0" leadInLength="0/1"  />
             </VectorParam>
             <VectorParam id="2351"  name="scale">
              <InterpolatingParam id="2352" interp="linr"  time="-9999999/1" value="1" leadInLength="0/1"  />
              <InterpolatingParam id="2353" interp="linr"  time="-9999999/1" value="1" leadInLength="0/1"  />
              <InterpolatingParam id="2354" interp="linr"  time="-9999999/1" value="1" leadInLength="0/1"  />
             </VectorParam>
             <VectorParam id="2355"  name="anchor">
              <InterpolatingParam id="2356" interp="linr"  time="0/1" value="0" leadInLength="0/1"  />
              <InterpolatingParam id="2357" interp="linr"  time="0/1" value="0" leadInLength="0/1"  />
              <InterpolatingParam id="2358" interp="linr"  time="0/1" value="0" leadInLength="0/1"  />
             </VectorParam>
            </Transformer>
            <Parameters>
             <VectorParam id="2359"  name="sourceCrop">
              <InterpolatingParam id="2360" interp="linr"  time="0/1" value="0" leadInLength="0/1"  />
              <InterpolatingParam id="2361" interp="linr"  time="0/1" value="0" leadInLength="0/1"  />
              <InterpolatingParam id="2362" interp="linr"  time="0/1" value="0" leadInLength="0/1"  />
              <InterpolatingParam id="2363" interp="linr"  time="0/1" value="0" leadInLength="0/1"  />
             </VectorParam>
             <VectorParam id="2364"  name="geometryCrop">
              <InterpolatingParam id="2365" interp="linr"  time="-9999999/1" value="0" leadInLength="0/1"  />
              <InterpolatingParam id="2366" interp="linr"  time="-9999999/1" value="0" leadInLength="0/1"  />
              <InterpolatingParam id="2367" interp="linr"  time="-9999999/1" value="0" leadInLength="0/1"  />
              <InterpolatingParam id="2368" interp="linr"  time="-9999999/1" value="0" leadInLength="0/1"  />
             </VectorParam>
             <InterpolatingParam id="2369" interp="linr"  time="-9999999/1" value="1" leadInLength="0/1"  name="opacity"/>
             <InterpolatingParam id="2370" interp="linr"  time="0/1" value="0" leadInLength="0/1"  name="cursorOpacity"/>
             <InterpolatingParam id="2371" interp="linr"  time="0/1" value="0" leadInLength="0/1"  name="cursorScale"/>
            </Parameters>
            <Attributes>
             <Attribute id="2372" value="" name="ident"/>
            </Attributes>
            <MetaData>
             <entry key="AutoAppliedSmartFocus" val="False"/>
             <entry key="WinSubProjectDisplayName" val=""/>
            </MetaData>
            <ExtraData>
             <Entry key="ZoomPanBin">
              <ZoomPanBin id="2373"  >
               <ZoomPanKeyframes>
                <ZoomPanKeyframe id="2374" timeRangeEnd="-9999999/1" timeRangeDuration="0/1" interpolaterName=""  />
               </ZoomPanKeyframes>
              </ZoomPanBin>
             </Entry>
             <Entry key="CursorEffectBin">
              <CursorEffectBin id="2375"  >
               <CursorEffectKeyframes>
               </CursorEffectKeyframes>
              </CursorEffectBin>
             </Entry>
            </ExtraData>
           </ScreenVMFile>
           <ScreenVMFile id="2376" start="2389" duration="208" scalar="1/1" mediaStart="2500/1" mediaDuration="208/1" trackNumber="0" src="4" >
            <Transformer>
             <VectorParam id="2377"  name="translation">
              <InterpolatingParam id="2378" interp="linr"  time="-9999999/1" value="0" leadInLength="0/1"  />
              <InterpolatingParam id="2379" interp="linr"  time="-9999999/1" value="0" leadInLength="0/1"  />
              <InterpolatingParam id="2380" interp="linr"  time="-9999999/1" value="0" leadInLength="0/1"  />
             </VectorParam>
             <VectorParam id="2381"  name="rotation">
              <InterpolatingParam id="2382" interp="linr"  time="-9999999/1" value="0" leadInLength="0/1"  />
              <InterpolatingParam id="2383" interp="linr"  time="-9999999/1" value="0" leadInLength="0/1"  />
              <InterpolatingParam id="2384" interp="linr"  time="-9999999/1" value="0" leadInLength="0/1"  />
             </VectorParam>
             <VectorParam id="2385"  name="shear">
              <InterpolatingParam id="2386" interp="linr"  time="-9999999/1" value="0" leadInLength="0/1"  />
              <InterpolatingParam id="2387" interp="linr"  time="-9999999/1" value="0" leadInLength="0/1"  />
              <InterpolatingParam id="2388" interp="linr"  time="-9999999/1" value="0" leadInLength="0/1"  />
             </VectorParam>
             <VectorParam id="2389"  name="scale">
              <InterpolatingParam id="2390" interp="linr"  time="-9999999/1" value="1" leadInLength="0/1"  />
              <InterpolatingParam id="2391" interp="linr"  time="-9999999/1" value="1" leadInLength="0/1"  />
              <InterpolatingParam id="2392" interp="linr"  time="-9999999/1" value="1" leadInLength="0/1"  />
             </VectorParam>
             <VectorParam id="2393"  name="anchor">
              <InterpolatingParam id="2394" interp="linr"  time="0/1" value="0" leadInLength="0/1"  />
              <InterpolatingParam id="2395" interp="linr"  time="0/1" value="0" leadInLength="0/1"  />
              <InterpolatingParam id="2396" interp="linr"  time="0/1" value="0" leadInLength="0/1"  />
             </VectorParam>
            </Transformer>
            <Parameters>
             <VectorParam id="2397"  name="sourceCrop">
              <InterpolatingParam id="2398" interp="linr"  time="0/1" value="0" leadInLength="0/1"  />
              <InterpolatingParam id="2399" interp="linr"  time="0/1" value="0" leadInLength="0/1"  />
              <InterpolatingParam id="2400" interp="linr"  time="0/1" value="0" leadInLength="0/1"  />
              <InterpolatingParam id="2401" interp="linr"  time="0/1" value="0" leadInLength="0/1"  />
             </VectorParam>
             <VectorParam id="2402"  name="geometryCrop">
              <InterpolatingParam id="2403" interp="linr"  time="-9999999/1" value="0" leadInLength="0/1"  />
              <InterpolatingParam id="2404" interp="linr"  time="-9999999/1" value="0" leadInLength="0/1"  />
              <InterpolatingParam id="2405" interp="linr"  time="-9999999/1" value="0" leadInLength="0/1"  />
              <InterpolatingParam id="2406" interp="linr"  time="-9999999/1" value="0" leadInLength="0/1"  />
             </VectorParam>
             <InterpolatingParam id="2407" interp="linr"  time="-9999999/1" value="1" leadInLength="0/1"  name="opacity"/>
             <InterpolatingParam id="2408" interp="linr"  time="0/1" value="0" leadInLength="0/1"  name="cursorOpacity"/>
             <InterpolatingParam id="2409" interp="linr"  time="0/1" value="0" leadInLength="0/1"  name="cursorScale"/>
            </Parameters>
            <Attributes>
             <Attribute id="2410" value="" name="ident"/>
            </Attributes>
            <MetaData>
             <entry key="AutoAppliedSmartFocus" val="False"/>
             <entry key="WinSubProjectDisplayName" val=""/>
            </MetaData>
            <ExtraData>
             <Entry key="ZoomPanBin">
              <ZoomPanBin id="2411"  >
               <ZoomPanKeyframes>
                <ZoomPanKeyframe id="2412" timeRangeEnd="-9999999/1" timeRangeDuration="0/1" interpolaterName=""  />
               </ZoomPanKeyframes>
              </ZoomPanBin>
             </Entry>
             <Entry key="CursorEffectBin">
              <CursorEffectBin id="2413"  >
               <CursorEffectKeyframes>
               </CursorEffectKeyframes>
              </CursorEffectBin>
             </Entry>
            </ExtraData>
           </ScreenVMFile>
           <ScreenVMFile id="2414" start="2597" duration="237" scalar="1/1" mediaStart="2753/1" mediaDuration="237/1" trackNumber="0" src="4" >
            <Transformer>
             <VectorParam id="2415"  name="translation">
              <InterpolatingParam id="2416" interp="linr"  time="-9999999/1" value="0" leadInLength="0/1"  />
              <InterpolatingParam id="2417" interp="linr"  time="-9999999/1" value="0" leadInLength="0/1"  />
              <InterpolatingParam id="2418" interp="linr"  time="-9999999/1" value="0" leadInLength="0/1"  />
             </VectorParam>
             <VectorParam id="2419"  name="rotation">
              <InterpolatingParam id="2420" interp="linr"  time="-9999999/1" value="0" leadInLength="0/1"  />
              <InterpolatingParam id="2421" interp="linr"  time="-9999999/1" value="0" leadInLength="0/1"  />
              <InterpolatingParam id="2422" interp="linr"  time="-9999999/1" value="0" leadInLength="0/1"  />
             </VectorParam>
             <VectorParam id="2423"  name="shear">
              <InterpolatingParam id="2424" interp="linr"  time="-9999999/1" value="0" leadInLength="0/1"  />
              <InterpolatingParam id="2425" interp="linr"  time="-9999999/1" value="0" leadInLength="0/1"  />
              <InterpolatingParam id="2426" interp="linr"  time="-9999999/1" value="0" leadInLength="0/1"  />
             </VectorParam>
             <VectorParam id="2427"  name="scale">
              <InterpolatingParam id="2428" interp="linr"  time="-9999999/1" value="1" leadInLength="0/1"  />
              <InterpolatingParam id="2429" interp="linr"  time="-9999999/1" value="1" leadInLength="0/1"  />
              <InterpolatingParam id="2430" interp="linr"  time="-9999999/1" value="1" leadInLength="0/1"  />
             </VectorParam>
             <VectorParam id="2431"  name="anchor">
              <InterpolatingParam id="2432" interp="linr"  time="0/1" value="0" leadInLength="0/1"  />
              <InterpolatingParam id="2433" interp="linr"  time="0/1" value="0" leadInLength="0/1"  />
              <InterpolatingParam id="2434" interp="linr"  time="0/1" value="0" leadInLength="0/1"  />
             </VectorParam>
            </Transformer>
            <Parameters>
             <VectorParam id="2435"  name="sourceCrop">
              <InterpolatingParam id="2436" interp="linr"  time="0/1" value="0" leadInLength="0/1"  />
              <InterpolatingParam id="2437" interp="linr"  time="0/1" value="0" leadInLength="0/1"  />
              <InterpolatingParam id="2438" interp="linr"  time="0/1" value="0" leadInLength="0/1"  />
              <InterpolatingParam id="2439" interp="linr"  time="0/1" value="0" leadInLength="0/1"  />
             </VectorParam>
             <VectorParam id="2440"  name="geometryCrop">
              <InterpolatingParam id="2441" interp="linr"  time="-9999999/1" value="0" leadInLength="0/1"  />
              <InterpolatingParam id="2442" interp="linr"  time="-9999999/1" value="0" leadInLength="0/1"  />
              <InterpolatingParam id="2443" interp="linr"  time="-9999999/1" value="0" leadInLength="0/1"  />
              <InterpolatingParam id="2444" interp="linr"  time="-9999999/1" value="0" leadInLength="0/1"  />
             </VectorParam>
             <InterpolatingParam id="2445" interp="linr"  time="-9999999/1" value="1" leadInLength="0/1"  name="opacity"/>
             <InterpolatingParam id="2446" interp="linr"  time="0/1" value="0" leadInLength="0/1"  name="cursorOpacity"/>
             <InterpolatingParam id="2447" interp="linr"  time="0/1" value="0" leadInLength="0/1"  name="cursorScale"/>
            </Parameters>
            <Attributes>
             <Attribute id="2448" value="" name="ident"/>
            </Attributes>
            <MetaData>
             <entry key="AutoAppliedSmartFocus" val="False"/>
             <entry key="WinSubProjectDisplayName" val=""/>
            </MetaData>
            <ExtraData>
             <Entry key="ZoomPanBin">
              <ZoomPanBin id="2449"  >
               <ZoomPanKeyframes>
                <ZoomPanKeyframe id="2450" timeRangeEnd="-9999999/1" timeRangeDuration="0/1" interpolaterName=""  />
               </ZoomPanKeyframes>
              </ZoomPanBin>
             </Entry>
             <Entry key="CursorEffectBin">
              <CursorEffectBin id="2451"  >
               <CursorEffectKeyframes>
               </CursorEffectKeyframes>
              </CursorEffectBin>
             </Entry>
            </ExtraData>
           </ScreenVMFile>
           <ScreenVMFile id="2452" start="2834" duration="115" scalar="1/1" mediaStart="3035/1" mediaDuration="115/1" trackNumber="0" src="4" >
            <Transformer>
             <VectorParam id="2453"  name="translation">
              <InterpolatingParam id="2454" interp="linr"  time="-9999999/1" value="0" leadInLength="0/1"  />
              <InterpolatingParam id="2455" interp="linr"  time="-9999999/1" value="0" leadInLength="0/1"  />
              <InterpolatingParam id="2456" interp="linr"  time="-9999999/1" value="0" leadInLength="0/1"  />
             </VectorParam>
             <VectorParam id="2457"  name="rotation">
              <InterpolatingParam id="2458" interp="linr"  time="-9999999/1" value="0" leadInLength="0/1"  />
              <InterpolatingParam id="2459" interp="linr"  time="-9999999/1" value="0" leadInLength="0/1"  />
              <InterpolatingParam id="2460" interp="linr"  time="-9999999/1" value="0" leadInLength="0/1"  />
             </VectorParam>
             <VectorParam id="2461"  name="shear">
              <InterpolatingParam id="2462" interp="linr"  time="-9999999/1" value="0" leadInLength="0/1"  />
              <InterpolatingParam id="2463" interp="linr"  time="-9999999/1" value="0" leadInLength="0/1"  />
              <InterpolatingParam id="2464" interp="linr"  time="-9999999/1" value="0" leadInLength="0/1"  />
             </VectorParam>
             <VectorParam id="2465"  name="scale">
              <InterpolatingParam id="2466" interp="linr"  time="-9999999/1" value="1" leadInLength="0/1"  />
              <InterpolatingParam id="2467" interp="linr"  time="-9999999/1" value="1" leadInLength="0/1"  />
              <InterpolatingParam id="2468" interp="linr"  time="-9999999/1" value="1" leadInLength="0/1"  />
             </VectorParam>
             <VectorParam id="2469"  name="anchor">
              <InterpolatingParam id="2470" interp="linr"  time="0/1" value="0" leadInLength="0/1"  />
              <InterpolatingParam id="2471" interp="linr"  time="0/1" value="0" leadInLength="0/1"  />
              <InterpolatingParam id="2472" interp="linr"  time="0/1" value="0" leadInLength="0/1"  />
             </VectorParam>
            </Transformer>
            <Parameters>
             <VectorParam id="2473"  name="sourceCrop">
              <InterpolatingParam id="2474" interp="linr"  time="0/1" value="0" leadInLength="0/1"  />
              <InterpolatingParam id="2475" interp="linr"  time="0/1" value="0" leadInLength="0/1"  />
              <InterpolatingParam id="2476" interp="linr"  time="0/1" value="0" leadInLength="0/1"  />
              <InterpolatingParam id="2477" interp="linr"  time="0/1" value="0" leadInLength="0/1"  />
             </VectorParam>
             <VectorParam id="2478"  name="geometryCrop">
              <InterpolatingParam id="2479" interp="linr"  time="-9999999/1" value="0" leadInLength="0/1"  />
              <InterpolatingParam id="2480" interp="linr"  time="-9999999/1" value="0" leadInLength="0/1"  />
              <InterpolatingParam id="2481" interp="linr"  time="-9999999/1" value="0" leadInLength="0/1"  />
              <InterpolatingParam id="2482" interp="linr"  time="-9999999/1" value="0" leadInLength="0/1"  />
             </VectorParam>
             <InterpolatingParam id="2483" interp="linr"  time="-9999999/1" value="1" leadInLength="0/1"  name="opacity"/>
             <InterpolatingParam id="2484" interp="linr"  time="0/1" value="0" leadInLength="0/1"  name="cursorOpacity"/>
             <InterpolatingParam id="2485" interp="linr"  time="0/1" value="0" leadInLength="0/1"  name="cursorScale"/>
            </Parameters>
            <Attributes>
             <Attribute id="2486" value="" name="ident"/>
            </Attributes>
            <MetaData>
             <entry key="AutoAppliedSmartFocus" val="False"/>
             <entry key="WinSubProjectDisplayName" val=""/>
            </MetaData>
            <ExtraData>
             <Entry key="ZoomPanBin">
              <ZoomPanBin id="2487"  >
               <ZoomPanKeyframes>
                <ZoomPanKeyframe id="2488" timeRangeEnd="-9999999/1" timeRangeDuration="0/1" interpolaterName=""  />
               </ZoomPanKeyframes>
              </ZoomPanBin>
             </Entry>
             <Entry key="CursorEffectBin">
              <CursorEffectBin id="2489"  >
               <CursorEffectKeyframes>
               </CursorEffectKeyframes>
              </CursorEffectBin>
             </Entry>
            </ExtraData>
           </ScreenVMFile>
           <ScreenVMFile id="2490" start="2949" duration="305" scalar="1/1" mediaStart="3165/1" mediaDuration="305/1" trackNumber="0" src="4" >
            <Transformer>
             <VectorParam id="2491"  name="translation">
              <InterpolatingParam id="2492" interp="linr"  time="-9999999/1" value="0" leadInLength="0/1"  />
              <InterpolatingParam id="2493" interp="linr"  time="-9999999/1" value="0" leadInLength="0/1"  />
              <InterpolatingParam id="2494" interp="linr"  time="-9999999/1" value="0" leadInLength="0/1"  />
             </VectorParam>
             <VectorParam id="2495"  name="rotation">
              <InterpolatingParam id="2496" interp="linr"  time="-9999999/1" value="0" leadInLength="0/1"  />
              <InterpolatingParam id="2497" interp="linr"  time="-9999999/1" value="0" leadInLength="0/1"  />
              <InterpolatingParam id="2498" interp="linr"  time="-9999999/1" value="0" leadInLength="0/1"  />
             </VectorParam>
             <VectorParam id="2499"  name="shear">
              <InterpolatingParam id="2500" interp="linr"  time="-9999999/1" value="0" leadInLength="0/1"  />
              <InterpolatingParam id="2501" interp="linr"  time="-9999999/1" value="0" leadInLength="0/1"  />
              <InterpolatingParam id="2502" interp="linr"  time="-9999999/1" value="0" leadInLength="0/1"  />
             </VectorParam>
             <VectorParam id="2503"  name="scale">
              <InterpolatingParam id="2504" interp="linr"  time="-9999999/1" value="1" leadInLength="0/1"  />
              <InterpolatingParam id="2505" interp="linr"  time="-9999999/1" value="1" leadInLength="0/1"  />
              <InterpolatingParam id="2506" interp="linr"  time="-9999999/1" value="1" leadInLength="0/1"  />
             </VectorParam>
             <VectorParam id="2507"  name="anchor">
              <InterpolatingParam id="2508" interp="linr"  time="0/1" value="0" leadInLength="0/1"  />
              <InterpolatingParam id="2509" interp="linr"  time="0/1" value="0" leadInLength="0/1"  />
              <InterpolatingParam id="2510" interp="linr"  time="0/1" value="0" leadInLength="0/1"  />
             </VectorParam>
            </Transformer>
            <Parameters>
             <VectorParam id="2511"  name="sourceCrop">
              <InterpolatingParam id="2512" interp="linr"  time="0/1" value="0" leadInLength="0/1"  />
              <InterpolatingParam id="2513" interp="linr"  time="0/1" value="0" leadInLength="0/1"  />
              <InterpolatingParam id="2514" interp="linr"  time="0/1" value="0" leadInLength="0/1"  />
              <InterpolatingParam id="2515" interp="linr"  time="0/1" value="0" leadInLength="0/1"  />
             </VectorParam>
             <VectorParam id="2516"  name="geometryCrop">
              <InterpolatingParam id="2517" interp="linr"  time="-9999999/1" value="0" leadInLength="0/1"  />
              <InterpolatingParam id="2518" interp="linr"  time="-9999999/1" value="0" leadInLength="0/1"  />
              <InterpolatingParam id="2519" interp="linr"  time="-9999999/1" value="0" leadInLength="0/1"  />
              <InterpolatingParam id="2520" interp="linr"  time="-9999999/1" value="0" leadInLength="0/1"  />
             </VectorParam>
             <InterpolatingParam id="2521" interp="linr"  time="-9999999/1" value="1" leadInLength="0/1"  name="opacity"/>
             <InterpolatingParam id="2522" interp="linr"  time="0/1" value="0" leadInLength="0/1"  name="cursorOpacity"/>
             <InterpolatingParam id="2523" interp="linr"  time="0/1" value="0" leadInLength="0/1"  name="cursorScale"/>
            </Parameters>
            <Attributes>
             <Attribute id="2524" value="" name="ident"/>
            </Attributes>
            <MetaData>
             <entry key="AutoAppliedSmartFocus" val="False"/>
             <entry key="WinSubProjectDisplayName" val=""/>
            </MetaData>
            <ExtraData>
             <Entry key="ZoomPanBin">
              <ZoomPanBin id="2525"  >
               <ZoomPanKeyframes>
                <ZoomPanKeyframe id="2526" timeRangeEnd="-9999999/1" timeRangeDuration="0/1" interpolaterName=""  />
               </ZoomPanKeyframes>
              </ZoomPanBin>
             </Entry>
             <Entry key="CursorEffectBin">
              <CursorEffectBin id="2527"  >
               <CursorEffectKeyframes>
               </CursorEffectKeyframes>
              </CursorEffectBin>
             </Entry>
            </ExtraData>
           </ScreenVMFile>
           <ScreenVMFile id="2528" start="3254" duration="150" scalar="1/1" mediaStart="3477/1" mediaDuration="150/1" trackNumber="0" src="4" >
            <Transformer>
             <VectorParam id="2529"  name="translation">
              <InterpolatingParam id="2530" interp="linr"  time="-9999999/1" value="0" leadInLength="0/1"  />
              <InterpolatingParam id="2531" interp="linr"  time="-9999999/1" value="0" leadInLength="0/1"  />
              <InterpolatingParam id="2532" interp="linr"  time="-9999999/1" value="0" leadInLength="0/1"  />
             </VectorParam>
             <VectorParam id="2533"  name="rotation">
              <InterpolatingParam id="2534" interp="linr"  time="-9999999/1" value="0" leadInLength="0/1"  />
              <InterpolatingParam id="2535" interp="linr"  time="-9999999/1" value="0" leadInLength="0/1"  />
              <InterpolatingParam id="2536" interp="linr"  time="-9999999/1" value="0" leadInLength="0/1"  />
             </VectorParam>
             <VectorParam id="2537"  name="shear">
              <InterpolatingParam id="2538" interp="linr"  time="-9999999/1" value="0" leadInLength="0/1"  />
              <InterpolatingParam id="2539" interp="linr"  time="-9999999/1" value="0" leadInLength="0/1"  />
              <InterpolatingParam id="2540" interp="linr"  time="-9999999/1" value="0" leadInLength="0/1"  />
             </VectorParam>
             <VectorParam id="2541"  name="scale">
              <InterpolatingParam id="2542" interp="linr"  time="-9999999/1" value="1" leadInLength="0/1"  />
              <InterpolatingParam id="2543" interp="linr"  time="-9999999/1" value="1" leadInLength="0/1"  />
              <InterpolatingParam id="2544" interp="linr"  time="-9999999/1" value="1" leadInLength="0/1"  />
             </VectorParam>
             <VectorParam id="2545"  name="anchor">
              <InterpolatingParam id="2546" interp="linr"  time="0/1" value="0" leadInLength="0/1"  />
              <InterpolatingParam id="2547" interp="linr"  time="0/1" value="0" leadInLength="0/1"  />
              <InterpolatingParam id="2548" interp="linr"  time="0/1" value="0" leadInLength="0/1"  />
             </VectorParam>
            </Transformer>
            <Parameters>
             <VectorParam id="2549"  name="sourceCrop">
              <InterpolatingParam id="2550" interp="linr"  time="0/1" value="0" leadInLength="0/1"  />
              <InterpolatingParam id="2551" interp="linr"  time="0/1" value="0" leadInLength="0/1"  />
              <InterpolatingParam id="2552" interp="linr"  time="0/1" value="0" leadInLength="0/1"  />
              <InterpolatingParam id="2553" interp="linr"  time="0/1" value="0" leadInLength="0/1"  />
             </VectorParam>
             <VectorParam id="2554"  name="geometryCrop">
              <InterpolatingParam id="2555" interp="linr"  time="-9999999/1" value="0" leadInLength="0/1"  />
              <InterpolatingParam id="2556" interp="linr"  time="-9999999/1" value="0" leadInLength="0/1"  />
              <InterpolatingParam id="2557" interp="linr"  time="-9999999/1" value="0" leadInLength="0/1"  />
              <InterpolatingParam id="2558" interp="linr"  time="-9999999/1" value="0" leadInLength="0/1"  />
             </VectorParam>
             <InterpolatingParam id="2559" interp="linr"  time="-9999999/1" value="1" leadInLength="0/1"  name="opacity"/>
             <InterpolatingParam id="2560" interp="linr"  time="0/1" value="0" leadInLength="0/1"  name="cursorOpacity"/>
             <InterpolatingParam id="2561" interp="linr"  time="0/1" value="0" leadInLength="0/1"  name="cursorScale"/>
            </Parameters>
            <Attributes>
             <Attribute id="2562" value="" name="ident"/>
            </Attributes>
            <MetaData>
             <entry key="AutoAppliedSmartFocus" val="False"/>
             <entry key="WinSubProjectDisplayName" val=""/>
            </MetaData>
            <ExtraData>
             <Entry key="ZoomPanBin">
              <ZoomPanBin id="2563"  >
               <ZoomPanKeyframes>
                <ZoomPanKeyframe id="2564" timeRangeEnd="-9999999/1" timeRangeDuration="0/1" interpolaterName=""  />
               </ZoomPanKeyframes>
              </ZoomPanBin>
             </Entry>
             <Entry key="CursorEffectBin">
              <CursorEffectBin id="2565"  >
               <CursorEffectKeyframes>
               </CursorEffectKeyframes>
              </CursorEffectBin>
             </Entry>
            </ExtraData>
           </ScreenVMFile>
           <ScreenVMFile id="2566" start="3404" duration="277" scalar="1/1" mediaStart="3674/1" mediaDuration="277/1" trackNumber="0" src="4" >
            <Transformer>
             <VectorParam id="2567"  name="translation">
              <InterpolatingParam id="2568" interp="linr"  time="-9999999/1" value="0" leadInLength="0/1"  />
              <InterpolatingParam id="2569" interp="linr"  time="-9999999/1" value="0" leadInLength="0/1"  />
              <InterpolatingParam id="2570" interp="linr"  time="-9999999/1" value="0" leadInLength="0/1"  />
             </VectorParam>
             <VectorParam id="2571"  name="rotation">
              <InterpolatingParam id="2572" interp="linr"  time="-9999999/1" value="0" leadInLength="0/1"  />
              <InterpolatingParam id="2573" interp="linr"  time="-9999999/1" value="0" leadInLength="0/1"  />
              <InterpolatingParam id="2574" interp="linr"  time="-9999999/1" value="0" leadInLength="0/1"  />
             </VectorParam>
             <VectorParam id="2575"  name="shear">
              <InterpolatingParam id="2576" interp="linr"  time="-9999999/1" value="0" leadInLength="0/1"  />
              <InterpolatingParam id="2577" interp="linr"  time="-9999999/1" value="0" leadInLength="0/1"  />
              <InterpolatingParam id="2578" interp="linr"  time="-9999999/1" value="0" leadInLength="0/1"  />
             </VectorParam>
             <VectorParam id="2579"  name="scale">
              <InterpolatingParam id="2580" interp="linr"  time="-9999999/1" value="1" leadInLength="0/1"  />
              <InterpolatingParam id="2581" interp="linr"  time="-9999999/1" value="1" leadInLength="0/1"  />
              <InterpolatingParam id="2582" interp="linr"  time="-9999999/1" value="1" leadInLength="0/1"  />
             </VectorParam>
             <VectorParam id="2583"  name="anchor">
              <InterpolatingParam id="2584" interp="linr"  time="0/1" value="0" leadInLength="0/1"  />
              <InterpolatingParam id="2585" interp="linr"  time="0/1" value="0" leadInLength="0/1"  />
              <InterpolatingParam id="2586" interp="linr"  time="0/1" value="0" leadInLength="0/1"  />
             </VectorParam>
            </Transformer>
            <Parameters>
             <VectorParam id="2587"  name="sourceCrop">
              <InterpolatingParam id="2588" interp="linr"  time="0/1" value="0" leadInLength="0/1"  />
              <InterpolatingParam id="2589" interp="linr"  time="0/1" value="0" leadInLength="0/1"  />
              <InterpolatingParam id="2590" interp="linr"  time="0/1" value="0" leadInLength="0/1"  />
              <InterpolatingParam id="2591" interp="linr"  time="0/1" value="0" leadInLength="0/1"  />
             </VectorParam>
             <VectorParam id="2592"  name="geometryCrop">
              <InterpolatingParam id="2593" interp="linr"  time="-9999999/1" value="0" leadInLength="0/1"  />
              <InterpolatingParam id="2594" interp="linr"  time="-9999999/1" value="0" leadInLength="0/1"  />
              <InterpolatingParam id="2595" interp="linr"  time="-9999999/1" value="0" leadInLength="0/1"  />
              <InterpolatingParam id="2596" interp="linr"  time="-9999999/1" value="0" leadInLength="0/1"  />
             </VectorParam>
             <InterpolatingParam id="2597" interp="linr"  time="-9999999/1" value="1" leadInLength="0/1"  name="opacity"/>
             <InterpolatingParam id="2598" interp="linr"  time="0/1" value="0" leadInLength="0/1"  name="cursorOpacity"/>
             <InterpolatingParam id="2599" interp="linr"  time="0/1" value="0" leadInLength="0/1"  name="cursorScale"/>
            </Parameters>
            <Attributes>
             <Attribute id="2600" value="" name="ident"/>
            </Attributes>
            <MetaData>
             <entry key="AutoAppliedSmartFocus" val="False"/>
             <entry key="WinSubProjectDisplayName" val=""/>
            </MetaData>
            <ExtraData>
             <Entry key="ZoomPanBin">
              <ZoomPanBin id="2601"  >
               <ZoomPanKeyframes>
                <ZoomPanKeyframe id="2602" timeRangeEnd="-9999999/1" timeRangeDuration="0/1" interpolaterName=""  />
               </ZoomPanKeyframes>
              </ZoomPanBin>
             </Entry>
             <Entry key="CursorEffectBin">
              <CursorEffectBin id="2603"  >
               <CursorEffectKeyframes>
               </CursorEffectKeyframes>
              </CursorEffectBin>
             </Entry>
            </ExtraData>
           </ScreenVMFile>
           <ScreenVMFile id="2604" start="3681" duration="20" scalar="1/1" mediaStart="3968/1" mediaDuration="20/1" trackNumber="0" src="4" >
            <Transformer>
             <VectorParam id="2605"  name="translation">
              <InterpolatingParam id="2606" interp="linr"  time="-9999999/1" value="0" leadInLength="0/1"  />
              <InterpolatingParam id="2607" interp="linr"  time="-9999999/1" value="0" leadInLength="0/1"  />
              <InterpolatingParam id="2608" interp="linr"  time="-9999999/1" value="0" leadInLength="0/1"  />
             </VectorParam>
             <VectorParam id="2609"  name="rotation">
              <InterpolatingParam id="2610" interp="linr"  time="-9999999/1" value="0" leadInLength="0/1"  />
              <InterpolatingParam id="2611" interp="linr"  time="-9999999/1" value="0" leadInLength="0/1"  />
              <InterpolatingParam id="2612" interp="linr"  time="-9999999/1" value="0" leadInLength="0/1"  />
             </VectorParam>
             <VectorParam id="2613"  name="shear">
              <InterpolatingParam id="2614" interp="linr"  time="-9999999/1" value="0" leadInLength="0/1"  />
              <InterpolatingParam id="2615" interp="linr"  time="-9999999/1" value="0" leadInLength="0/1"  />
              <InterpolatingParam id="2616" interp="linr"  time="-9999999/1" value="0" leadInLength="0/1"  />
             </VectorParam>
             <VectorParam id="2617"  name="scale">
              <InterpolatingParam id="2618" interp="linr"  time="-9999999/1" value="1" leadInLength="0/1"  />
              <InterpolatingParam id="2619" interp="linr"  time="-9999999/1" value="1" leadInLength="0/1"  />
              <InterpolatingParam id="2620" interp="linr"  time="-9999999/1" value="1" leadInLength="0/1"  />
             </VectorParam>
             <VectorParam id="2621"  name="anchor">
              <InterpolatingParam id="2622" interp="linr"  time="0/1" value="0" leadInLength="0/1"  />
              <InterpolatingParam id="2623" interp="linr"  time="0/1" value="0" leadInLength="0/1"  />
              <InterpolatingParam id="2624" interp="linr"  time="0/1" value="0" leadInLength="0/1"  />
             </VectorParam>
            </Transformer>
            <Parameters>
             <VectorParam id="2625"  name="sourceCrop">
              <InterpolatingParam id="2626" interp="linr"  time="0/1" value="0" leadInLength="0/1"  />
              <InterpolatingParam id="2627" interp="linr"  time="0/1" value="0" leadInLength="0/1"  />
              <InterpolatingParam id="2628" interp="linr"  time="0/1" value="0" leadInLength="0/1"  />
              <InterpolatingParam id="2629" interp="linr"  time="0/1" value="0" leadInLength="0/1"  />
             </VectorParam>
             <VectorParam id="2630"  name="geometryCrop">
              <InterpolatingParam id="2631" interp="linr"  time="-9999999/1" value="0" leadInLength="0/1"  />
              <InterpolatingParam id="2632" interp="linr"  time="-9999999/1" value="0" leadInLength="0/1"  />
              <InterpolatingParam id="2633" interp="linr"  time="-9999999/1" value="0" leadInLength="0/1"  />
              <InterpolatingParam id="2634" interp="linr"  time="-9999999/1" value="0" leadInLength="0/1"  />
             </VectorParam>
             <InterpolatingParam id="2635" interp="linr"  time="-9999999/1" value="1" leadInLength="0/1"  name="opacity"/>
             <InterpolatingParam id="2636" interp="linr"  time="0/1" value="0" leadInLength="0/1"  name="cursorOpacity"/>
             <InterpolatingParam id="2637" interp="linr"  time="0/1" value="0" leadInLength="0/1"  name="cursorScale"/>
            </Parameters>
            <Attributes>
             <Attribute id="2638" value="" name="ident"/>
            </Attributes>
            <MetaData>
             <entry key="AutoAppliedSmartFocus" val="False"/>
             <entry key="WinSubProjectDisplayName" val=""/>
            </MetaData>
            <ExtraData>
             <Entry key="ZoomPanBin">
              <ZoomPanBin id="2639"  >
               <ZoomPanKeyframes>
                <ZoomPanKeyframe id="2640" timeRangeEnd="-9999999/1" timeRangeDuration="0/1" interpolaterName=""  />
               </ZoomPanKeyframes>
              </ZoomPanBin>
             </Entry>
             <Entry key="CursorEffectBin">
              <CursorEffectBin id="2641"  >
               <CursorEffectKeyframes>
               </CursorEffectKeyframes>
              </CursorEffectBin>
             </Entry>
            </ExtraData>
           </ScreenVMFile>
           <ScreenVMFile id="2642" start="3701" duration="101" scalar="1/1" mediaStart="4000/1" mediaDuration="101/1" trackNumber="0" src="4" >
            <Transformer>
             <VectorParam id="2643"  name="translation">
              <InterpolatingParam id="2644" interp="linr"  time="-9999999/1" value="0" leadInLength="0/1"  />
              <InterpolatingParam id="2645" interp="linr"  time="-9999999/1" value="0" leadInLength="0/1"  />
              <InterpolatingParam id="2646" interp="linr"  time="-9999999/1" value="0" leadInLength="0/1"  />
             </VectorParam>
             <VectorParam id="2647"  name="rotation">
              <InterpolatingParam id="2648" interp="linr"  time="-9999999/1" value="0" leadInLength="0/1"  />
              <InterpolatingParam id="2649" interp="linr"  time="-9999999/1" value="0" leadInLength="0/1"  />
              <InterpolatingParam id="2650" interp="linr"  time="-9999999/1" value="0" leadInLength="0/1"  />
             </VectorParam>
             <VectorParam id="2651"  name="shear">
              <InterpolatingParam id="2652" interp="linr"  time="-9999999/1" value="0" leadInLength="0/1"  />
              <InterpolatingParam id="2653" interp="linr"  time="-9999999/1" value="0" leadInLength="0/1"  />
              <InterpolatingParam id="2654" interp="linr"  time="-9999999/1" value="0" leadInLength="0/1"  />
             </VectorParam>
             <VectorParam id="2655"  name="scale">
              <InterpolatingParam id="2656" interp="linr"  time="-9999999/1" value="1" leadInLength="0/1"  />
              <InterpolatingParam id="2657" interp="linr"  time="-9999999/1" value="1" leadInLength="0/1"  />
              <InterpolatingParam id="2658" interp="linr"  time="-9999999/1" value="1" leadInLength="0/1"  />
             </VectorParam>
             <VectorParam id="2659"  name="anchor">
              <InterpolatingParam id="2660" interp="linr"  time="0/1" value="0" leadInLength="0/1"  />
              <InterpolatingParam id="2661" interp="linr"  time="0/1" value="0" leadInLength="0/1"  />
              <InterpolatingParam id="2662" interp="linr"  time="0/1" value="0" leadInLength="0/1"  />
             </VectorParam>
            </Transformer>
            <Parameters>
             <VectorParam id="2663"  name="sourceCrop">
              <InterpolatingParam id="2664" interp="linr"  time="0/1" value="0" leadInLength="0/1"  />
              <InterpolatingParam id="2665" interp="linr"  time="0/1" value="0" leadInLength="0/1"  />
              <InterpolatingParam id="2666" interp="linr"  time="0/1" value="0" leadInLength="0/1"  />
              <InterpolatingParam id="2667" interp="linr"  time="0/1" value="0" leadInLength="0/1"  />
             </VectorParam>
             <VectorParam id="2668"  name="geometryCrop">
              <InterpolatingParam id="2669" interp="linr"  time="-9999999/1" value="0" leadInLength="0/1"  />
              <InterpolatingParam id="2670" interp="linr"  time="-9999999/1" value="0" leadInLength="0/1"  />
              <InterpolatingParam id="2671" interp="linr"  time="-9999999/1" value="0" leadInLength="0/1"  />
              <InterpolatingParam id="2672" interp="linr"  time="-9999999/1" value="0" leadInLength="0/1"  />
             </VectorParam>
             <InterpolatingParam id="2673" interp="linr"  time="-9999999/1" value="1" leadInLength="0/1"  name="opacity"/>
             <InterpolatingParam id="2674" interp="linr"  time="0/1" value="0" leadInLength="0/1"  name="cursorOpacity"/>
             <InterpolatingParam id="2675" interp="linr"  time="0/1" value="0" leadInLength="0/1"  name="cursorScale"/>
            </Parameters>
            <Attributes>
             <Attribute id="2676" value="" name="ident"/>
            </Attributes>
            <MetaData>
             <entry key="AutoAppliedSmartFocus" val="False"/>
             <entry key="WinSubProjectDisplayName" val=""/>
            </MetaData>
            <ExtraData>
             <Entry key="ZoomPanBin">
              <ZoomPanBin id="2677"  >
               <ZoomPanKeyframes>
                <ZoomPanKeyframe id="2678" timeRangeEnd="-9999999/1" timeRangeDuration="0/1" interpolaterName=""  />
               </ZoomPanKeyframes>
              </ZoomPanBin>
             </Entry>
             <Entry key="CursorEffectBin">
              <CursorEffectBin id="2679"  >
               <CursorEffectKeyframes>
               </CursorEffectKeyframes>
              </CursorEffectBin>
             </Entry>
            </ExtraData>
           </ScreenVMFile>
           <ScreenVMFile id="2680" start="3802" duration="102" scalar="1/1" mediaStart="4258/1" mediaDuration="102/1" trackNumber="0" src="4" >
            <Transformer>
             <VectorParam id="2681"  name="translation">
              <InterpolatingParam id="2682" interp="linr"  time="-9999999/1" value="0" leadInLength="0/1"  />
              <InterpolatingParam id="2683" interp="linr"  time="-9999999/1" value="0" leadInLength="0/1"  />
              <InterpolatingParam id="2684" interp="linr"  time="-9999999/1" value="0" leadInLength="0/1"  />
             </VectorParam>
             <VectorParam id="2685"  name="rotation">
              <InterpolatingParam id="2686" interp="linr"  time="-9999999/1" value="0" leadInLength="0/1"  />
              <InterpolatingParam id="2687" interp="linr"  time="-9999999/1" value="0" leadInLength="0/1"  />
              <InterpolatingParam id="2688" interp="linr"  time="-9999999/1" value="0" leadInLength="0/1"  />
             </VectorParam>
             <VectorParam id="2689"  name="shear">
              <InterpolatingParam id="2690" interp="linr"  time="-9999999/1" value="0" leadInLength="0/1"  />
              <InterpolatingParam id="2691" interp="linr"  time="-9999999/1" value="0" leadInLength="0/1"  />
              <InterpolatingParam id="2692" interp="linr"  time="-9999999/1" value="0" leadInLength="0/1"  />
             </VectorParam>
             <VectorParam id="2693"  name="scale">
              <InterpolatingParam id="2694" interp="linr"  time="-9999999/1" value="1" leadInLength="0/1"  />
              <InterpolatingParam id="2695" interp="linr"  time="-9999999/1" value="1" leadInLength="0/1"  />
              <InterpolatingParam id="2696" interp="linr"  time="-9999999/1" value="1" leadInLength="0/1"  />
             </VectorParam>
             <VectorParam id="2697"  name="anchor">
              <InterpolatingParam id="2698" interp="linr"  time="0/1" value="0" leadInLength="0/1"  />
              <InterpolatingParam id="2699" interp="linr"  time="0/1" value="0" leadInLength="0/1"  />
              <InterpolatingParam id="2700" interp="linr"  time="0/1" value="0" leadInLength="0/1"  />
             </VectorParam>
            </Transformer>
            <Parameters>
             <VectorParam id="2701"  name="sourceCrop">
              <InterpolatingParam id="2702" interp="linr"  time="0/1" value="0" leadInLength="0/1"  />
              <InterpolatingParam id="2703" interp="linr"  time="0/1" value="0" leadInLength="0/1"  />
              <InterpolatingParam id="2704" interp="linr"  time="0/1" value="0" leadInLength="0/1"  />
              <InterpolatingParam id="2705" interp="linr"  time="0/1" value="0" leadInLength="0/1"  />
             </VectorParam>
             <VectorParam id="2706"  name="geometryCrop">
              <InterpolatingParam id="2707" interp="linr"  time="-9999999/1" value="0" leadInLength="0/1"  />
              <InterpolatingParam id="2708" interp="linr"  time="-9999999/1" value="0" leadInLength="0/1"  />
              <InterpolatingParam id="2709" interp="linr"  time="-9999999/1" value="0" leadInLength="0/1"  />
              <InterpolatingParam id="2710" interp="linr"  time="-9999999/1" value="0" leadInLength="0/1"  />
             </VectorParam>
             <InterpolatingParam id="2711" interp="linr"  time="-9999999/1" value="1" leadInLength="0/1"  name="opacity"/>
             <InterpolatingParam id="2712" interp="linr"  time="0/1" value="0" leadInLength="0/1"  name="cursorOpacity"/>
             <InterpolatingParam id="2713" interp="linr"  time="0/1" value="0" leadInLength="0/1"  name="cursorScale"/>
            </Parameters>
            <Attributes>
             <Attribute id="2714" value="" name="ident"/>
            </Attributes>
            <MetaData>
             <entry key="AutoAppliedSmartFocus" val="False"/>
             <entry key="WinSubProjectDisplayName" val=""/>
            </MetaData>
            <ExtraData>
             <Entry key="ZoomPanBin">
              <ZoomPanBin id="2715"  >
               <ZoomPanKeyframes>
                <ZoomPanKeyframe id="2716" timeRangeEnd="-9999999/1" timeRangeDuration="0/1" interpolaterName=""  />
               </ZoomPanKeyframes>
              </ZoomPanBin>
             </Entry>
             <Entry key="CursorEffectBin">
              <CursorEffectBin id="2717"  >
               <CursorEffectKeyframes>
               </CursorEffectKeyframes>
              </CursorEffectBin>
             </Entry>
            </ExtraData>
           </ScreenVMFile>
           <ScreenVMFile id="2718" start="3904" duration="10283" scalar="1/1" mediaStart="4478/1" mediaDuration="10283/1" trackNumber="0" src="4" >
            <Transformer>
             <VectorParam id="2719"  name="translation">
              <InterpolatingParam id="2720" interp="linr"  time="-9999999/1" value="0" leadInLength="0/1"  />
              <InterpolatingParam id="2721" interp="linr"  time="-9999999/1" value="0" leadInLength="0/1"  />
              <InterpolatingParam id="2722" interp="linr"  time="-9999999/1" value="0" leadInLength="0/1"  />
             </VectorParam>
             <VectorParam id="2723"  name="rotation">
              <InterpolatingParam id="2724" interp="linr"  time="-9999999/1" value="0" leadInLength="0/1"  />
              <InterpolatingParam id="2725" interp="linr"  time="-9999999/1" value="0" leadInLength="0/1"  />
              <InterpolatingParam id="2726" interp="linr"  time="-9999999/1" value="0" leadInLength="0/1"  />
             </VectorParam>
             <VectorParam id="2727"  name="shear">
              <InterpolatingParam id="2728" interp="linr"  time="-9999999/1" value="0" leadInLength="0/1"  />
              <InterpolatingParam id="2729" interp="linr"  time="-9999999/1" value="0" leadInLength="0/1"  />
              <InterpolatingParam id="2730" interp="linr"  time="-9999999/1" value="0" leadInLength="0/1"  />
             </VectorParam>
             <VectorParam id="2731"  name="scale">
              <InterpolatingParam id="2732" interp="linr"  time="-9999999/1" value="1" leadInLength="0/1"  />
              <InterpolatingParam id="2733" interp="linr"  time="-9999999/1" value="1" leadInLength="0/1"  />
              <InterpolatingParam id="2734" interp="linr"  time="-9999999/1" value="1" leadInLength="0/1"  />
             </VectorParam>
             <VectorParam id="2735"  name="anchor">
              <InterpolatingParam id="2736" interp="linr"  time="0/1" value="0" leadInLength="0/1"  />
              <InterpolatingParam id="2737" interp="linr"  time="0/1" value="0" leadInLength="0/1"  />
              <InterpolatingParam id="2738" interp="linr"  time="0/1" value="0" leadInLength="0/1"  />
             </VectorParam>
            </Transformer>
            <Parameters>
             <VectorParam id="2739"  name="sourceCrop">
              <InterpolatingParam id="2740" interp="linr"  time="0/1" value="0" leadInLength="0/1"  />
              <InterpolatingParam id="2741" interp="linr"  time="0/1" value="0" leadInLength="0/1"  />
              <InterpolatingParam id="2742" interp="linr"  time="0/1" value="0" leadInLength="0/1"  />
              <InterpolatingParam id="2743" interp="linr"  time="0/1" value="0" leadInLength="0/1"  />
             </VectorParam>
             <VectorParam id="2744"  name="geometryCrop">
              <InterpolatingParam id="2745" interp="linr"  time="-9999999/1" value="0" leadInLength="0/1"  />
              <InterpolatingParam id="2746" interp="linr"  time="-9999999/1" value="0" leadInLength="0/1"  />
              <InterpolatingParam id="2747" interp="linr"  time="-9999999/1" value="0" leadInLength="0/1"  />
              <InterpolatingParam id="2748" interp="linr"  time="-9999999/1" value="0" leadInLength="0/1"  />
             </VectorParam>
             <InterpolatingParam id="2749" interp="linr"  time="-9999999/1" value="1" leadInLength="0/1"  name="opacity"/>
             <InterpolatingParam id="2750" interp="linr"  time="0/1" value="0" leadInLength="0/1"  name="cursorOpacity"/>
             <InterpolatingParam id="2751" interp="linr"  time="0/1" value="0" leadInLength="0/1"  name="cursorScale"/>
            </Parameters>
            <Attributes>
             <Attribute id="2752" value="" name="ident"/>
            </Attributes>
            <MetaData>
             <entry key="AutoAppliedSmartFocus" val="False"/>
             <entry key="WinSubProjectDisplayName" val=""/>
            </MetaData>
            <ExtraData>
             <Entry key="ZoomPanBin">
              <ZoomPanBin id="2753"  >
               <ZoomPanKeyframes>
                <ZoomPanKeyframe id="2754" timeRangeEnd="-9999999/1" timeRangeDuration="0/1" interpolaterName=""  />
               </ZoomPanKeyframes>
              </ZoomPanBin>
             </Entry>
             <Entry key="CursorEffectBin">
              <CursorEffectBin id="2755"  >
               <CursorEffectKeyframes>
               </CursorEffectKeyframes>
              </CursorEffectBin>
             </Entry>
            </ExtraData>
           </ScreenVMFile>
           <ScreenVMFile id="2756" start="14187" duration="1233" scalar="1/1" mediaStart="14919/1" mediaDuration="1233/1" trackNumber="0" src="4" >
            <Transformer>
             <VectorParam id="2757"  name="translation">
              <InterpolatingParam id="2758" interp="linr"  time="-9999999/1" value="0" leadInLength="0/1"  />
              <InterpolatingParam id="2759" interp="linr"  time="-9999999/1" value="0" leadInLength="0/1"  />
              <InterpolatingParam id="2760" interp="linr"  time="-9999999/1" value="0" leadInLength="0/1"  />
             </VectorParam>
             <VectorParam id="2761"  name="rotation">
              <InterpolatingParam id="2762" interp="linr"  time="-9999999/1" value="0" leadInLength="0/1"  />
              <InterpolatingParam id="2763" interp="linr"  time="-9999999/1" value="0" leadInLength="0/1"  />
              <InterpolatingParam id="2764" interp="linr"  time="-9999999/1" value="0" leadInLength="0/1"  />
             </VectorParam>
             <VectorParam id="2765"  name="shear">
              <InterpolatingParam id="2766" interp="linr"  time="-9999999/1" value="0" leadInLength="0/1"  />
              <InterpolatingParam id="2767" interp="linr"  time="-9999999/1" value="0" leadInLength="0/1"  />
              <InterpolatingParam id="2768" interp="linr"  time="-9999999/1" value="0" leadInLength="0/1"  />
             </VectorParam>
             <VectorParam id="2769"  name="scale">
              <InterpolatingParam id="2770" interp="linr"  time="-9999999/1" value="1" leadInLength="0/1"  />
              <InterpolatingParam id="2771" interp="linr"  time="-9999999/1" value="1" leadInLength="0/1"  />
              <InterpolatingParam id="2772" interp="linr"  time="-9999999/1" value="1" leadInLength="0/1"  />
             </VectorParam>
             <VectorParam id="2773"  name="anchor">
              <InterpolatingParam id="2774" interp="linr"  time="0/1" value="0" leadInLength="0/1"  />
              <InterpolatingParam id="2775" interp="linr"  time="0/1" value="0" leadInLength="0/1"  />
              <InterpolatingParam id="2776" interp="linr"  time="0/1" value="0" leadInLength="0/1"  />
             </VectorParam>
            </Transformer>
            <Parameters>
             <VectorParam id="2777"  name="sourceCrop">
              <InterpolatingParam id="2778" interp="linr"  time="0/1" value="0" leadInLength="0/1"  />
              <InterpolatingParam id="2779" interp="linr"  time="0/1" value="0" leadInLength="0/1"  />
              <InterpolatingParam id="2780" interp="linr"  time="0/1" value="0" leadInLength="0/1"  />
              <InterpolatingParam id="2781" interp="linr"  time="0/1" value="0" leadInLength="0/1"  />
             </VectorParam>
             <VectorParam id="2782"  name="geometryCrop">
              <InterpolatingParam id="2783" interp="linr"  time="-9999999/1" value="0" leadInLength="0/1"  />
              <InterpolatingParam id="2784" interp="linr"  time="-9999999/1" value="0" leadInLength="0/1"  />
              <InterpolatingParam id="2785" interp="linr"  time="-9999999/1" value="0" leadInLength="0/1"  />
              <InterpolatingParam id="2786" interp="linr"  time="-9999999/1" value="0" leadInLength="0/1"  />
             </VectorParam>
             <InterpolatingParam id="2787" interp="linr"  time="-9999999/1" value="1" leadInLength="0/1"  name="opacity"/>
             <InterpolatingParam id="2788" interp="linr"  time="0/1" value="0" leadInLength="0/1"  name="cursorOpacity"/>
             <InterpolatingParam id="2789" interp="linr"  time="0/1" value="0" leadInLength="0/1"  name="cursorScale"/>
            </Parameters>
            <Attributes>
             <Attribute id="2790" value="" name="ident"/>
            </Attributes>
            <MetaData>
             <entry key="AutoAppliedSmartFocus" val="False"/>
             <entry key="WinSubProjectDisplayName" val=""/>
            </MetaData>
            <ExtraData>
             <Entry key="ZoomPanBin">
              <ZoomPanBin id="2791"  >
               <ZoomPanKeyframes>
                <ZoomPanKeyframe id="2792" timeRangeEnd="-9999999/1" timeRangeDuration="0/1" interpolaterName=""  />
               </ZoomPanKeyframes>
              </ZoomPanBin>
             </Entry>
             <Entry key="CursorEffectBin">
              <CursorEffectBin id="2793"  >
               <CursorEffectKeyframes>
               </CursorEffectKeyframes>
              </CursorEffectBin>
             </Entry>
            </ExtraData>
           </ScreenVMFile>
           <ScreenVMFile id="2794" start="15420" duration="3408" scalar="1/1" mediaStart="16328/1" mediaDuration="3408/1" trackNumber="0" src="4" >
            <Transformer>
             <VectorParam id="2795"  name="translation">
              <InterpolatingParam id="2796" interp="linr"  time="-9999999/1" value="0" leadInLength="0/1"  />
              <InterpolatingParam id="2797" interp="linr"  time="-9999999/1" value="0" leadInLength="0/1"  />
              <InterpolatingParam id="2798" interp="linr"  time="-9999999/1" value="0" leadInLength="0/1"  />
             </VectorParam>
             <VectorParam id="2799"  name="rotation">
              <InterpolatingParam id="2800" interp="linr"  time="-9999999/1" value="0" leadInLength="0/1"  />
              <InterpolatingParam id="2801" interp="linr"  time="-9999999/1" value="0" leadInLength="0/1"  />
              <InterpolatingParam id="2802" interp="linr"  time="-9999999/1" value="0" leadInLength="0/1"  />
             </VectorParam>
             <VectorParam id="2803"  name="shear">
              <InterpolatingParam id="2804" interp="linr"  time="-9999999/1" value="0" leadInLength="0/1"  />
              <InterpolatingParam id="2805" interp="linr"  time="-9999999/1" value="0" leadInLength="0/1"  />
              <InterpolatingParam id="2806" interp="linr"  time="-9999999/1" value="0" leadInLength="0/1"  />
             </VectorParam>
             <VectorParam id="2807"  name="scale">
              <InterpolatingParam id="2808" interp="linr"  time="-9999999/1" value="1" leadInLength="0/1"  />
              <InterpolatingParam id="2809" interp="linr"  time="-9999999/1" value="1" leadInLength="0/1"  />
              <InterpolatingParam id="2810" interp="linr"  time="-9999999/1" value="1" leadInLength="0/1"  />
             </VectorParam>
             <VectorParam id="2811"  name="anchor">
              <InterpolatingParam id="2812" interp="linr"  time="0/1" value="0" leadInLength="0/1"  />
              <InterpolatingParam id="2813" interp="linr"  time="0/1" value="0" leadInLength="0/1"  />
              <InterpolatingParam id="2814" interp="linr"  time="0/1" value="0" leadInLength="0/1"  />
             </VectorParam>
            </Transformer>
            <Parameters>
             <VectorParam id="2815"  name="sourceCrop">
              <InterpolatingParam id="2816" interp="linr"  time="0/1" value="0" leadInLength="0/1"  />
              <InterpolatingParam id="2817" interp="linr"  time="0/1" value="0" leadInLength="0/1"  />
              <InterpolatingParam id="2818" interp="linr"  time="0/1" value="0" leadInLength="0/1"  />
              <InterpolatingParam id="2819" interp="linr"  time="0/1" value="0" leadInLength="0/1"  />
             </VectorParam>
             <VectorParam id="2820"  name="geometryCrop">
              <InterpolatingParam id="2821" interp="linr"  time="-9999999/1" value="0" leadInLength="0/1"  />
              <InterpolatingParam id="2822" interp="linr"  time="-9999999/1" value="0" leadInLength="0/1"  />
              <InterpolatingParam id="2823" interp="linr"  time="-9999999/1" value="0" leadInLength="0/1"  />
              <InterpolatingParam id="2824" interp="linr"  time="-9999999/1" value="0" leadInLength="0/1"  />
             </VectorParam>
             <InterpolatingParam id="2825" interp="linr"  time="-9999999/1" value="1" leadInLength="0/1"  name="opacity"/>
             <InterpolatingParam id="2826" interp="linr"  time="0/1" value="0" leadInLength="0/1"  name="cursorOpacity"/>
             <InterpolatingParam id="2827" interp="linr"  time="0/1" value="0" leadInLength="0/1"  name="cursorScale"/>
            </Parameters>
            <Attributes>
             <Attribute id="2828" value="" name="ident"/>
            </Attributes>
            <MetaData>
             <entry key="AutoAppliedSmartFocus" val="False"/>
             <entry key="WinSubProjectDisplayName" val=""/>
            </MetaData>
            <ExtraData>
             <Entry key="ZoomPanBin">
              <ZoomPanBin id="2829"  >
               <ZoomPanKeyframes>
                <ZoomPanKeyframe id="2830" timeRangeEnd="-9999999/1" timeRangeDuration="0/1" interpolaterName=""  />
               </ZoomPanKeyframes>
              </ZoomPanBin>
             </Entry>
             <Entry key="CursorEffectBin">
              <CursorEffectBin id="2831"  >
               <CursorEffectKeyframes>
               </CursorEffectKeyframes>
              </CursorEffectBin>
             </Entry>
            </ExtraData>
           </ScreenVMFile>
          </Medias>
         </GenericTrack>
        </StitchedMedia>
        <StitchedMedia id="2832" start="12060" duration="2853" scalar="1/1" mediaStart="0/1" mediaDuration="2853/1" minMediaStart="0/1" >
         <Transformer>
          <VectorParam id="2833"  name="translation">
           <InterpolatingParam id="2834" interp="linr"  time="-9999999/1" value="-9.086062107977724e-011" leadInLength="0/1"  />
           <InterpolatingParam id="2835" interp="linr"  time="-9999999/1" value="-0.21114369505468766" leadInLength="0/1"  />
           <InterpolatingParam id="2836" interp="linr"  time="-9999999/1" value="0" leadInLength="0/1"  />
          </VectorParam>
          <VectorParam id="2837"  name="rotation">
           <InterpolatingParam id="2838" interp="linr"  time="-9999999/1" value="0" leadInLength="0/1"  />
           <InterpolatingParam id="2839" interp="linr"  time="-9999999/1" value="0" leadInLength="0/1"  />
           <InterpolatingParam id="2840" interp="linr"  time="-9999999/1" value="0" leadInLength="0/1"  />
          </VectorParam>
          <VectorParam id="2841"  name="shear">
           <InterpolatingParam id="2842" interp="linr"  time="-9999999/1" value="0" leadInLength="0/1"  />
           <InterpolatingParam id="2843" interp="linr"  time="-9999999/1" value="0" leadInLength="0/1"  />
           <InterpolatingParam id="2844" interp="linr"  time="-9999999/1" value="0" leadInLength="0/1"  />
          </VectorParam>
          <VectorParam id="2845"  name="scale">
           <InterpolatingParam id="2846" interp="linr"  time="-9999999/1" value="0.93695014662756593" leadInLength="0/1"  />
           <InterpolatingParam id="2847" interp="linr"  time="-9999999/1" value="0.93695014662756593" leadInLength="0/1"  />
           <InterpolatingParam id="2848" interp="linr"  time="-9999999/1" value="1" leadInLength="0/1"  />
          </VectorParam>
          <VectorParam id="2849"  name="anchor">
           <InterpolatingParam id="2850" interp="linr"  time="0/1" value="0" leadInLength="0/1"  />
           <InterpolatingParam id="2851" interp="linr"  time="0/1" value="0" leadInLength="0/1"  />
           <InterpolatingParam id="2852" interp="linr"  time="0/1" value="0" leadInLength="0/1"  />
          </VectorParam>
         </Transformer>
         <Parameters>
          <VectorParam id="2853"  name="sourceCrop">
           <InterpolatingParam id="2854" interp="linr"  time="0/1" value="0" leadInLength="0/1"  />
           <InterpolatingParam id="2855" interp="linr"  time="0/1" value="0" leadInLength="0/1"  />
           <InterpolatingParam id="2856" interp="linr"  time="0/1" value="0" leadInLength="0/1"  />
           <InterpolatingParam id="2857" interp="linr"  time="0/1" value="0" leadInLength="0/1"  />
          </VectorParam>
          <VectorParam id="2858"  name="geometryCrop">
           <InterpolatingParam id="2859" interp="linr"  time="-9999999/1" value="0" leadInLength="0/1"  />
           <InterpolatingParam id="2860" interp="linr"  time="-9999999/1" value="0" leadInLength="0/1"  />
           <InterpolatingParam id="2861" interp="linr"  time="-9999999/1" value="0" leadInLength="0/1"  />
           <InterpolatingParam id="2862" interp="linr"  time="-9999999/1" value="0" leadInLength="0/1"  />
          </VectorParam>
          <InterpolatingParam id="2863" interp="linr"  time="-9999999/1" value="1" leadInLength="0/1"  name="opacity"/>
          <InterpolatingParam id="2864" interp="linr"  time="0/1" value="1" leadInLength="0/1"  name="cursorOpacity"/>
          <InterpolatingParam id="2865" interp="linr"  time="0/1" value="1" leadInLength="0/1"  name="cursorScale"/>
          <Parameter id="2866"  name="captions"/>
         </Parameters>
         <Effects>
          <GenericEffect id="2867" name = "CursorBaseEffectName" >
           <Parameters>
           <InterpolatingParam id="2868" interp="linr"  time="-9999999/1" value="1" leadInLength="0/1"   name="cursorSize"/>
           <InterpolatingParam id="2869" interp="linr"  time="-9999999/1" value="0" leadInLength="0/1"   name="highlightBlurRadius"/>
           <InterpolatingParam id="2870" interp="linr"  time="-9999999/1" value="0" leadInLength="0/1"   name="highlightColorBlue"/>
           <InterpolatingParam id="2871" interp="linr"  time="-9999999/1" value="255" leadInLength="0/1"   name="highlightColorGreen"/>
           <InterpolatingParam id="2872" interp="linr"  time="-9999999/1" value="255" leadInLength="0/1"   name="highlightColorRed"/>
           <InterpolatingParam id="2873" interp="linr"  time="-9999999/1" value="5" leadInLength="0/1"   name="highlightFeatherSize"/>
           <InterpolatingParam id="2874" interp="linr"  time="-9999999/1" value="2" leadInLength="0/1"   name="highlightMagnification"/>
           <InterpolatingParam id="2875" interp="linr"  time="-9999999/1" value="1" leadInLength="0/1"   name="highlightOpacity"/>
           <InterpolatingParam id="2876" interp="linr"  time="-9999999/1" value="45" leadInLength="0/1"   name="highlightSize"/>
           <Parameter id="2877"   name="highlightType">
            <Keyframes>
            <Keyframe id="2878"  time="-9999999/1" value="0" leadInLength="0/1"  />
            </Keyframes>
           </Parameter>
           <InterpolatingParam id="2879" interp="linr"  time="-9999999/1" value="0" leadInLength="0/1"   name="leftClickColorBlue"/>
           <InterpolatingParam id="2880" interp="linr"  time="-9999999/1" value="0" leadInLength="0/1"   name="leftClickColorGreen"/>
           <InterpolatingParam id="2881" interp="linr"  time="-9999999/1" value="255" leadInLength="0/1"   name="leftClickColorRed"/>
           <InterpolatingParam id="2882" interp="linr"  time="-9999999/1" value="0.80000000000000004" leadInLength="0/1"   name="leftClickDuration"/>
           <InterpolatingParam id="2883" interp="linr"  time="-9999999/1" value="20" leadInLength="0/1"   name="leftClickSize"/>
           <Parameter id="2884"   name="leftClickSoundFilename">
            <Keyframes>
            <Keyframe id="2885"  time="-9999999/1" value="" leadInLength="0/1"  />
            </Keyframes>
           </Parameter>
           <InterpolatingParam id="2886" interp="linr"  time="-9999999/1" value="1" leadInLength="0/1"   name="leftClickSoundVolume"/>
           <Parameter id="2887"   name="leftClickType">
            <Keyframes>
            <Keyframe id="2888"  time="-9999999/1" value="0" leadInLength="0/1"  />
            </Keyframes>
           </Parameter>
           <InterpolatingParam id="2889" interp="linr"  time="-9999999/1" value="1" leadInLength="0/1"   name="opacity"/>
           <InterpolatingParam id="2890" interp="linr"  time="-9999999/1" value="255" leadInLength="0/1"   name="rightClickColorBlue"/>
           <InterpolatingParam id="2891" interp="linr"  time="-9999999/1" value="0" leadInLength="0/1"   name="rightClickColorGreen"/>
           <InterpolatingParam id="2892" interp="linr"  time="-9999999/1" value="0" leadInLength="0/1"   name="rightClickColorRed"/>
           <InterpolatingParam id="2893" interp="linr"  time="-9999999/1" value="0.80000000000000004" leadInLength="0/1"   name="rightClickDuration"/>
           <InterpolatingParam id="2894" interp="linr"  time="-9999999/1" value="20" leadInLength="0/1"   name="rightClickSize"/>
           <Parameter id="2895"   name="rightClickSoundFilename">
            <Keyframes>
            <Keyframe id="2896"  time="-9999999/1" value="" leadInLength="0/1"  />
            </Keyframes>
           </Parameter>
           <InterpolatingParam id="2897" interp="linr"  time="-9999999/1" value="1" leadInLength="0/1"   name="rightClickSoundVolume"/>
           <Parameter id="2898"   name="rightClickType">
            <Keyframes>
            <Keyframe id="2899"  time="-9999999/1" value="0" leadInLength="0/1"  />
            </Keyframes>
           </Parameter>
           </Parameters>
          </GenericEffect>
         </Effects>
         <Attributes>
          <Attribute id="2900" value="" name="ident"/>
         </Attributes>
         <MetaData>
          <entry key="AutoAppliedSmartFocus" val="False"/>
          <entry key="WinSubProjectDisplayName" val=""/>
         </MetaData>
         <ExtraData>
          <Entry key="ZoomPanBin">
           <ZoomPanBin id="2901"  >
            <ZoomPanKeyframes>
             <ZoomPanKeyframe id="2902" timeRangeEnd="-9999999/1" timeRangeDuration="0/1" interpolaterName=""  />
            </ZoomPanKeyframes>
           </ZoomPanBin>
          </Entry>
          <Entry key="CursorEffectBin">
           <CursorEffectBin id="2903"  >
            <CursorEffectKeyframes>
             <CursorEffectKeyframe id="2904" timeRangeEnd="-9999999/1" timeRangeDuration="0/1" interpolaterName=""  />
            </CursorEffectKeyframes>
           </CursorEffectBin>
          </Entry>
         </ExtraData>
         <GenericTrack id="2905"  >
          <Attributes>
           <Attribute id="2906" value="" name="ident"/>
           <Attribute id="2907" value="0" name="audioMuted"/>
           <Attribute id="2908" value="0" name="videoHidden"/>
          </Attributes>
          <MetaData>
           <entry key="IsLocked" val="False"/>
           <entry key="WinTrackHeight" val="0"/>
          </MetaData>
          <Medias>
           <ScreenVMFile id="2909" start="0" duration="3033" scalar="1/1" mediaStart="0/1" mediaDuration="3033/1" trackNumber="0" src="7" >
            <Transformer>
             <VectorParam id="2910"  name="translation">
              <InterpolatingParam id="2911" interp="linr"  time="-9999999/1" value="0" leadInLength="0/1"  />
              <InterpolatingParam id="2912" interp="linr"  time="-9999999/1" value="0" leadInLength="0/1"  />
              <InterpolatingParam id="2913" interp="linr"  time="-9999999/1" value="0" leadInLength="0/1"  />
             </VectorParam>
             <VectorParam id="2914"  name="rotation">
              <InterpolatingParam id="2915" interp="linr"  time="-9999999/1" value="0" leadInLength="0/1"  />
              <InterpolatingParam id="2916" interp="linr"  time="-9999999/1" value="0" leadInLength="0/1"  />
              <InterpolatingParam id="2917" interp="linr"  time="-9999999/1" value="0" leadInLength="0/1"  />
             </VectorParam>
             <VectorParam id="2918"  name="shear">
              <InterpolatingParam id="2919" interp="linr"  time="-9999999/1" value="0" leadInLength="0/1"  />
              <InterpolatingParam id="2920" interp="linr"  time="-9999999/1" value="0" leadInLength="0/1"  />
              <InterpolatingParam id="2921" interp="linr"  time="-9999999/1" value="0" leadInLength="0/1"  />
             </VectorParam>
             <VectorParam id="2922"  name="scale">
              <InterpolatingParam id="2923" interp="linr"  time="-9999999/1" value="1" leadInLength="0/1"  />
              <InterpolatingParam id="2924" interp="linr"  time="-9999999/1" value="1" leadInLength="0/1"  />
              <InterpolatingParam id="2925" interp="linr"  time="-9999999/1" value="1" leadInLength="0/1"  />
             </VectorParam>
             <VectorParam id="2926"  name="anchor">
              <InterpolatingParam id="2927" interp="linr"  time="0/1" value="0" leadInLength="0/1"  />
              <InterpolatingParam id="2928" interp="linr"  time="0/1" value="0" leadInLength="0/1"  />
              <InterpolatingParam id="2929" interp="linr"  time="0/1" value="0" leadInLength="0/1"  />
             </VectorParam>
            </Transformer>
            <Parameters>
             <VectorParam id="2930"  name="sourceCrop">
              <InterpolatingParam id="2931" interp="linr"  time="0/1" value="0" leadInLength="0/1"  />
              <InterpolatingParam id="2932" interp="linr"  time="0/1" value="0" leadInLength="0/1"  />
              <InterpolatingParam id="2933" interp="linr"  time="0/1" value="0" leadInLength="0/1"  />
              <InterpolatingParam id="2934" interp="linr"  time="0/1" value="0" leadInLength="0/1"  />
             </VectorParam>
             <VectorParam id="2935"  name="geometryCrop">
              <InterpolatingParam id="2936" interp="linr"  time="-9999999/1" value="0" leadInLength="0/1"  />
              <InterpolatingParam id="2937" interp="linr"  time="-9999999/1" value="0" leadInLength="0/1"  />
              <InterpolatingParam id="2938" interp="linr"  time="-9999999/1" value="0" leadInLength="0/1"  />
              <InterpolatingParam id="2939" interp="linr"  time="-9999999/1" value="0" leadInLength="0/1"  />
             </VectorParam>
             <InterpolatingParam id="2940" interp="linr"  time="-9999999/1" value="1" leadInLength="0/1"  name="opacity"/>
             <InterpolatingParam id="2941" interp="linr"  time="0/1" value="0" leadInLength="0/1"  name="cursorOpacity"/>
             <InterpolatingParam id="2942" interp="linr"  time="0/1" value="0" leadInLength="0/1"  name="cursorScale"/>
            </Parameters>
            <Attributes>
             <Attribute id="2943" value="" name="ident"/>
            </Attributes>
            <MetaData>
             <entry key="AutoAppliedSmartFocus" val="False"/>
             <entry key="WinSubProjectDisplayName" val=""/>
            </MetaData>
            <ExtraData>
             <Entry key="ZoomPanBin">
              <ZoomPanBin id="2944"  >
               <ZoomPanKeyframes>
                <ZoomPanKeyframe id="2945" timeRangeEnd="-9999999/1" timeRangeDuration="0/1" interpolaterName=""  />
               </ZoomPanKeyframes>
              </ZoomPanBin>
             </Entry>
             <Entry key="CursorEffectBin">
              <CursorEffectBin id="2946"  >
               <CursorEffectKeyframes>
               </CursorEffectKeyframes>
              </CursorEffectBin>
             </Entry>
            </ExtraData>
           </ScreenVMFile>
           <ScreenVMFile id="2947" start="3033" duration="19" scalar="1/1" mediaStart="3186/1" mediaDuration="19/1" trackNumber="0" src="7" >
            <Transformer>
             <VectorParam id="2948"  name="translation">
              <InterpolatingParam id="2949" interp="linr"  time="-9999999/1" value="0" leadInLength="0/1"  />
              <InterpolatingParam id="2950" interp="linr"  time="-9999999/1" value="0" leadInLength="0/1"  />
              <InterpolatingParam id="2951" interp="linr"  time="-9999999/1" value="0" leadInLength="0/1"  />
             </VectorParam>
             <VectorParam id="2952"  name="rotation">
              <InterpolatingParam id="2953" interp="linr"  time="-9999999/1" value="0" leadInLength="0/1"  />
              <InterpolatingParam id="2954" interp="linr"  time="-9999999/1" value="0" leadInLength="0/1"  />
              <InterpolatingParam id="2955" interp="linr"  time="-9999999/1" value="0" leadInLength="0/1"  />
             </VectorParam>
             <VectorParam id="2956"  name="shear">
              <InterpolatingParam id="2957" interp="linr"  time="-9999999/1" value="0" leadInLength="0/1"  />
              <InterpolatingParam id="2958" interp="linr"  time="-9999999/1" value="0" leadInLength="0/1"  />
              <InterpolatingParam id="2959" interp="linr"  time="-9999999/1" value="0" leadInLength="0/1"  />
             </VectorParam>
             <VectorParam id="2960"  name="scale">
              <InterpolatingParam id="2961" interp="linr"  time="-9999999/1" value="1" leadInLength="0/1"  />
              <InterpolatingParam id="2962" interp="linr"  time="-9999999/1" value="1" leadInLength="0/1"  />
              <InterpolatingParam id="2963" interp="linr"  time="-9999999/1" value="1" leadInLength="0/1"  />
             </VectorParam>
             <VectorParam id="2964"  name="anchor">
              <InterpolatingParam id="2965" interp="linr"  time="0/1" value="0" leadInLength="0/1"  />
              <InterpolatingParam id="2966" interp="linr"  time="0/1" value="0" leadInLength="0/1"  />
              <InterpolatingParam id="2967" interp="linr"  time="0/1" value="0" leadInLength="0/1"  />
             </VectorParam>
            </Transformer>
            <Parameters>
             <VectorParam id="2968"  name="sourceCrop">
              <InterpolatingParam id="2969" interp="linr"  time="0/1" value="0" leadInLength="0/1"  />
              <InterpolatingParam id="2970" interp="linr"  time="0/1" value="0" leadInLength="0/1"  />
              <InterpolatingParam id="2971" interp="linr"  time="0/1" value="0" leadInLength="0/1"  />
              <InterpolatingParam id="2972" interp="linr"  time="0/1" value="0" leadInLength="0/1"  />
             </VectorParam>
             <VectorParam id="2973"  name="geometryCrop">
              <InterpolatingParam id="2974" interp="linr"  time="-9999999/1" value="0" leadInLength="0/1"  />
              <InterpolatingParam id="2975" interp="linr"  time="-9999999/1" value="0" leadInLength="0/1"  />
              <InterpolatingParam id="2976" interp="linr"  time="-9999999/1" value="0" leadInLength="0/1"  />
              <InterpolatingParam id="2977" interp="linr"  time="-9999999/1" value="0" leadInLength="0/1"  />
             </VectorParam>
             <InterpolatingParam id="2978" interp="linr"  time="-9999999/1" value="1" leadInLength="0/1"  name="opacity"/>
             <InterpolatingParam id="2979" interp="linr"  time="0/1" value="0" leadInLength="0/1"  name="cursorOpacity"/>
             <InterpolatingParam id="2980" interp="linr"  time="0/1" value="0" leadInLength="0/1"  name="cursorScale"/>
            </Parameters>
            <Attributes>
             <Attribute id="2981" value="" name="ident"/>
            </Attributes>
            <MetaData>
             <entry key="AutoAppliedSmartFocus" val="False"/>
             <entry key="WinSubProjectDisplayName" val=""/>
            </MetaData>
            <ExtraData>
             <Entry key="ZoomPanBin">
              <ZoomPanBin id="2982"  >
               <ZoomPanKeyframes>
                <ZoomPanKeyframe id="2983" timeRangeEnd="-9999999/1" timeRangeDuration="0/1" interpolaterName=""  />
               </ZoomPanKeyframes>
              </ZoomPanBin>
             </Entry>
             <Entry key="CursorEffectBin">
              <CursorEffectBin id="2984"  >
               <CursorEffectKeyframes>
               </CursorEffectKeyframes>
              </CursorEffectBin>
             </Entry>
            </ExtraData>
           </ScreenVMFile>
          </Medias>
         </GenericTrack>
        </StitchedMedia>
       </Medias>
      </GenericTrack>
      <GenericTrack id="2985"  >
       <Attributes>
        <Attribute id="2986" value="" name="ident"/>
        <Attribute id="2987" value="0" name="audioMuted"/>
        <Attribute id="2988" value="0" name="videoHidden"/>
       </Attributes>
       <MetaData>
        <entry key="IsLocked" val="False"/>
        <entry key="WinTrackHeight" val="62"/>
       </MetaData>
       <Medias>
        <AMFile id="2989" start="0" duration="10518" scalar="1/1" mediaStart="0/1" mediaDuration="10518/1" trackNumber="0" src="9" channelNumber="0,1" >
         <Parameters>
          <InterpolatingParam id="2990" interp="linr"  time="0/1" value="1" leadInLength="0/1"  name="volume"/>
          <Parameter id="2991"  name="captions"/>
         </Parameters>
         <Attributes>
          <Attribute id="2992" value="" name="ident"/>
          <Attribute id="2993" value="44100" name="sampleRate"/>
          <Attribute id="2994" value="0" name="bitDepth"/>
          <Attribute id="2995" value="1" name="gain"/>
          <Attribute id="2996" value="0" name="mixToMono"/>
         </Attributes>
         <MetaData>
          <entry key="WinSubProjectDisplayName" val=""/>
         </MetaData>
        </AMFile>
        <AMFile id="2997" start="10518" duration="4395" scalar="1/1" mediaStart="0/1" mediaDuration="4395/1" trackNumber="0" src="9" channelNumber="0,1" >
         <Parameters>
          <InterpolatingParam id="2998" interp="linr"  time="0/1" value="1" leadInLength="0/1"  name="volume"/>
          <Parameter id="2999"  name="captions"/>
         </Parameters>
         <Attributes>
          <Attribute id="3000" value="" name="ident"/>
          <Attribute id="3001" value="44100" name="sampleRate"/>
          <Attribute id="3002" value="0" name="bitDepth"/>
          <Attribute id="3003" value="1" name="gain"/>
          <Attribute id="3004" value="0" name="mixToMono"/>
         </Attributes>
         <MetaData>
          <entry key="WinSubProjectDisplayName" val=""/>
         </MetaData>
        </AMFile>
        <Callout id="3005" start="21611" duration="59" scalar="1/1" mediaStart="7/1" mediaDuration="59/1" >
         <Transformer>
          <VectorParam id="3006"  name="translation">
           <InterpolatingParam id="3007" interp="linr"  time="-9999999/1" value="-471.35513841158479" leadInLength="0/1"  />
           <InterpolatingParam id="3008" interp="linr"  time="-9999999/1" value="8.1247009810871393" leadInLength="0/1"  />
           <InterpolatingParam id="3009" interp="linr"  time="-9999999/1" value="-3.4106051316488567e-010" leadInLength="0/1"  />
          </VectorParam>
          <VectorParam id="3010"  name="rotation">
           <InterpolatingParam id="3011" interp="linr"  time="-9999999/1" value="0" leadInLength="0/1"  />
           <InterpolatingParam id="3012" interp="linr"  time="-9999999/1" value="0" leadInLength="0/1"  />
           <InterpolatingParam id="3013" interp="linr"  time="-9999999/1" value="0.62640179832175225" leadInLength="0/1"  />
          </VectorParam>
          <VectorParam id="3014"  name="shear">
           <InterpolatingParam id="3015" interp="linr"  time="-9999999/1" value="-4.5019485135697366e-017" leadInLength="0/1"  />
           <InterpolatingParam id="3016" interp="linr"  time="-9999999/1" value="0" leadInLength="0/1"  />
           <InterpolatingParam id="3017" interp="linr"  time="-9999999/1" value="0" leadInLength="0/1"  />
          </VectorParam>
          <VectorParam id="3018"  name="scale">
           <InterpolatingParam id="3019" interp="linr"  time="-9999999/1" value="0.55521329804535224" leadInLength="0/1"  />
           <InterpolatingParam id="3020" interp="linr"  time="-9999999/1" value="0.35922967771444003" leadInLength="0/1"  />
           <InterpolatingParam id="3021" interp="linr"  time="-9999999/1" value="1" leadInLength="0/1"  />
          </VectorParam>
          <VectorParam id="3022"  name="anchor">
           <InterpolatingParam id="3023" interp="linr"  time="0/1" value="0" leadInLength="0/1"  />
           <InterpolatingParam id="3024" interp="linr"  time="0/1" value="0" leadInLength="0/1"  />
           <InterpolatingParam id="3025" interp="linr"  time="0/1" value="0" leadInLength="0/1"  />
          </VectorParam>
         </Transformer>
         <Parameters>
          <VectorParam id="3026"  name="sourceCrop">
           <InterpolatingParam id="3027" interp="linr"  time="0/1" value="0" leadInLength="0/1"  />
           <InterpolatingParam id="3028" interp="linr"  time="0/1" value="0" leadInLength="0/1"  />
           <InterpolatingParam id="3029" interp="linr"  time="0/1" value="0" leadInLength="0/1"  />
           <InterpolatingParam id="3030" interp="linr"  time="0/1" value="0" leadInLength="0/1"  />
          </VectorParam>
          <VectorParam id="3031"  name="geometryCrop">
           <InterpolatingParam id="3032" interp="linr"  time="-9999999/1" value="0" leadInLength="0/1"  />
           <InterpolatingParam id="3033" interp="linr"  time="-9999999/1" value="0" leadInLength="0/1"  />
           <InterpolatingParam id="3034" interp="linr"  time="-9999999/1" value="0" leadInLength="0/1"  />
           <InterpolatingParam id="3035" interp="linr"  time="-9999999/1" value="0" leadInLength="0/1"  />
          </VectorParam>
          <InterpolatingParam id="3036" interp="linr"  time="-9999999/1" value="1" leadInLength="0/1"  name="opacity"/>
         </Parameters>
         <Effects>
          <GenericEffect id="3037" name = "DropShadow" >
           <Parameters>
           <InterpolatingParam id="3038" interp="linr"  time="0/1" value="315" leadInLength="0/1"   name="angle"/>
           <InterpolatingParam id="3039" interp="linr"  time="0/1" value="2" leadInLength="0/1"   name="blur"/>
           <Parameter id="3040"   name="enabled">
            <Keyframes>
            <Keyframe id="3041"  time="0/1" value="1" leadInLength="0/1"  />
            </Keyframes>
           </Parameter>
           <InterpolatingParam id="3042" interp="linr"  time="0/1" value="4" leadInLength="0/1"   name="offset"/>
           <InterpolatingParam id="3043" interp="linr"  time="0/1" value="0.75" leadInLength="0/1"   name="opacity"/>
           </Parameters>
          </GenericEffect>
         </Effects>
         <Attributes>
          <Attribute id="3044"  name="vectorNode">
           <VectorNode id="3045" kind="TypeWinXML"  >
            <DoubleParameters>
             <InterpolatingParam id="3046" interp="linr"  time="0/1" value="-1" leadInLength="0/1"  name="CutoutPercentage"/>
             <InterpolatingParam id="3047" interp="linr"  time="0/1" value="-1" leadInLength="0/1"  name="RoundedRectRadius"/>
             <InterpolatingParam id="3048" interp="linr"  time="0/1" value="5" leadInLength="0/1"  name="Style"/>
             <InterpolatingParam id="3049" interp="linr"  time="0/1" value="59" leadInLength="0/1"  name="borderColorBlue"/>
             <InterpolatingParam id="3050" interp="linr"  time="0/1" value="209" leadInLength="0/1"  name="borderColorGreen"/>
             <InterpolatingParam id="3051" interp="linr"  time="0/1" value="127" leadInLength="0/1"  name="borderColorRed"/>
             <InterpolatingParam id="3052" interp="linr"  time="0/1" value="1" leadInLength="0/1"  name="borderState"/>
             <InterpolatingParam id="3053" interp="linr"  time="0/1" value="5" leadInLength="0/1"  name="borderWidth"/>
             <InterpolatingParam id="3054" interp="linr"  time="0/1" value="59" leadInLength="0/1"  name="fillColorBlue"/>
             <InterpolatingParam id="3055" interp="linr"  time="0/1" value="209" leadInLength="0/1"  name="fillColorGreen"/>
             <InterpolatingParam id="3056" interp="linr"  time="0/1" value="127" leadInLength="0/1"  name="fillColorRed"/>
             <InterpolatingParam id="3057" interp="linr"  time="0/1" value="1" leadInLength="0/1"  name="fillState"/>
             <InterpolatingParam id="3058" interp="linr"  time="0/1" value="0" leadInLength="0/1"  name="flipOnXAxis"/>
             <InterpolatingParam id="3059" interp="linr"  time="0/1" value="0" leadInLength="0/1"  name="flipOnYAxis"/>
             <InterpolatingParam id="3060" interp="linr"  time="0/1" value="275.5539033457249" leadInLength="0/1"  name="height"/>
             <InterpolatingParam id="3061" interp="linr"  time="0/1" value="319.5" leadInLength="0/1"  name="width"/>
            </DoubleParameters>
            <StringParameters>
             <Parameter id="3062"  name="VectorPath">
              <Keyframes>
              <Keyframe id="3063"  time="0/1" value="" leadInLength="0/1"  />
              </Keyframes>
             </Parameter>
             <Parameter id="3064"  name="filename">
              <Keyframes>
              <Keyframe id="3065"  time="0/1" value="C:\Program Files (x86)\TechSmith\Camtasia Studio 8\Media\Studio\Callouts\roundedarrow.xml" leadInLength="0/1"  />
              </Keyframes>
             </Parameter>
             <Parameter id="3066"  name="name">
              <Keyframes>
              <Keyframe id="3067"  time="0/1" value="Rounded Arrow" leadInLength="0/1"  />
              </Keyframes>
             </Parameter>
             <Parameter id="3068"  name="xmlContent">
              <Keyframes>
              <Keyframe id="3069"  time="0/1" value="﻿&lt;?xml version=&quot;1.0&quot;?&gt;&#xa;&#xa;&lt;Overlay version=&quot;1.0.1&quot;&gt;&#xa;&#xa;&lt;Overlay_Filename&gt;roundedarrow.png&lt;/Overlay_Filename&gt;&#xa;&lt;Overlay_Name&gt;Rounded Arrow&lt;/Overlay_Name&gt;&#xa;&lt;Text_Top&gt;-1&lt;/Text_Top&gt;&#xa;&lt;Text_Left&gt;-1&lt;/Text_Left&gt;&#xa;&lt;Text_Bottom&gt;-1&lt;/Text_Bottom&gt;&#xa;&lt;Text_Right&gt;-1&lt;/Text_Right&gt;&#xa;&lt;Fill_Color&gt;1&lt;/Fill_Color&gt;&#xa;&lt;Border_Color&gt;1&lt;/Border_Color&gt;&#xa;&lt;Initial_Fill_Color&gt;0xff017b34&lt;/Initial_Fill_Color&gt;&#xa;&lt;Initial_Border_Color&gt;0xffd7d7d7&lt;/Initial_Border_Color&gt;&#xa;&lt;VectorProps&gt;&#xa;&lt;figure&gt;&#xa;&lt;svg&gt;M29.27,148.243c94.722,0,131.744,0,131.744,0s-6.617,6.619-26.562,26.568&#xa;&#x9;c-33.056,33.055,14.351,79.121,48.086,45.385c13.726-13.723,57.03-57.029,68.668-68.666c21.731-21.732,23.239-49.4,4.19-68.45&#xa;&#x9;c-18.033-18.033-51.981-51.98-73.981-73.98C152.773-19.542,105.138,26.28,131.057,52.2c21.607,21.609,29.957,29.959,29.957,29.959&#xa;&#x9;s-35.786,0-130.057,0C-9.106,82.159-10.93,148.243,29.27,148.243z&lt;/svg&gt;&#xa;&lt;/figure&gt;&#xa;&lt;borderWidth&gt;5.00&lt;/borderWidth&gt;&#xa;&lt;seamY&gt;116.00&lt;/seamY&gt;&#xa;&lt;shapeWidth&gt;269&lt;/shapeWidth&gt;&#xa;&lt;shapeHeight&gt;232&lt;/shapeHeight&gt;&#xa;&lt;/VectorProps&gt;&#xa;&lt;Style&gt;5&lt;/Style&gt;&#xa;&lt;/Overlay&gt;" leadInLength="0/1"  />
              </Keyframes>
             </Parameter>
            </StringParameters>
           </VectorNode>
          </Attribute>
         </Attributes>
         <MetaData>
          <entry key="WinSubProjectDisplayName" val=""/>
         </MetaData>
         <LeftEdgeMods length="23/1" groupName="OpacityFade">
          <EdgeMod parameter="3036">
           <FadeInFunc id="3070"  />
          </EdgeMod>
         </LeftEdgeMods>
         <RightEdgeMods length="7/1" groupName="OpacityFade">
          <EdgeMod parameter="3036">
           <FadeOutFunc id="3071"  />
          </EdgeMod>
         </RightEdgeMods>
         <ExtraData>
          <Entry key="ZoomPanBin">
           <ZoomPanBin id="3072"  >
            <ZoomPanKeyframes>
             <ZoomPanKeyframe id="3073" timeRangeEnd="-9999999/1" timeRangeDuration="0/1" interpolaterName="linr"  />
            </ZoomPanKeyframes>
           </ZoomPanBin>
          </Entry>
         </ExtraData>
        </Callout>
        <Callout id="3074" start="21673" duration="64" scalar="1/1" mediaStart="0/1" mediaDuration="64/1" >
         <Transformer>
          <VectorParam id="3075"  name="translation">
           <InterpolatingParam id="3076" interp="linr"  time="-9999999/1" value="90.051801541835886" leadInLength="0/1"  />
           <InterpolatingParam id="3077" interp="linr"  time="-9999999/1" value="-5.8855585829458192" leadInLength="0/1"  />
           <InterpolatingParam id="3078" interp="linr"  time="-9999999/1" value="0" leadInLength="0/1"  />
          </VectorParam>
          <VectorParam id="3079"  name="rotation">
           <InterpolatingParam id="3080" interp="linr"  time="-9999999/1" value="0" leadInLength="0/1"  />
           <InterpolatingParam id="3081" interp="linr"  time="-9999999/1" value="0" leadInLength="0/1"  />
           <InterpolatingParam id="3082" interp="linr"  time="-9999999/1" value="0" leadInLength="0/1"  />
          </VectorParam>
          <VectorParam id="3083"  name="shear">
           <InterpolatingParam id="3084" interp="linr"  time="-9999999/1" value="0" leadInLength="0/1"  />
           <InterpolatingParam id="3085" interp="linr"  time="-9999999/1" value="0" leadInLength="0/1"  />
           <InterpolatingParam id="3086" interp="linr"  time="-9999999/1" value="0" leadInLength="0/1"  />
          </VectorParam>
          <VectorParam id="3087"  name="scale">
           <InterpolatingParam id="3088" interp="linr"  time="-9999999/1" value="1" leadInLength="0/1"  />
           <InterpolatingParam id="3089" interp="linr"  time="-9999999/1" value="1" leadInLength="0/1"  />
           <InterpolatingParam id="3090" interp="linr"  time="-9999999/1" value="1" leadInLength="0/1"  />
          </VectorParam>
          <VectorParam id="3091"  name="anchor">
           <InterpolatingParam id="3092" interp="linr"  time="0/1" value="0" leadInLength="0/1"  />
           <InterpolatingParam id="3093" interp="linr"  time="0/1" value="0" leadInLength="0/1"  />
           <InterpolatingParam id="3094" interp="linr"  time="0/1" value="0" leadInLength="0/1"  />
          </VectorParam>
         </Transformer>
         <Parameters>
          <VectorParam id="3095"  name="sourceCrop">
           <InterpolatingParam id="3096" interp="linr"  time="0/1" value="0" leadInLength="0/1"  />
           <InterpolatingParam id="3097" interp="linr"  time="0/1" value="0" leadInLength="0/1"  />
           <InterpolatingParam id="3098" interp="linr"  time="0/1" value="0" leadInLength="0/1"  />
           <InterpolatingParam id="3099" interp="linr"  time="0/1" value="0" leadInLength="0/1"  />
          </VectorParam>
          <VectorParam id="3100"  name="geometryCrop">
           <InterpolatingParam id="3101" interp="linr"  time="-9999999/1" value="0" leadInLength="0/1"  />
           <InterpolatingParam id="3102" interp="linr"  time="-9999999/1" value="0" leadInLength="0/1"  />
           <InterpolatingParam id="3103" interp="linr"  time="-9999999/1" value="0" leadInLength="0/1"  />
           <InterpolatingParam id="3104" interp="linr"  time="-9999999/1" value="0" leadInLength="0/1"  />
          </VectorParam>
          <InterpolatingParam id="3105" interp="linr"  time="-9999999/1" value="1" leadInLength="0/1"  name="opacity"/>
         </Parameters>
         <Attributes>
          <Attribute id="3106"  name="vectorNode">
           <VectorNode id="3107" kind="TypeWinText"  >
            <DoubleParameters>
             <InterpolatingParam id="3108" interp="linr"  time="0/1" value="5" leadInLength="0/1"  name="Style"/>
             <InterpolatingParam id="3109" interp="linr"  time="0/1" value="0" leadInLength="0/1"  name="dimensionTime"/>
             <InterpolatingParam id="3110" interp="linr"  time="0/1" value="180" leadInLength="0/1"  name="height"/>
             <InterpolatingParam id="3111" interp="linr"  time="0/1" value="0" leadInLength="0/1"  name="textDropShadow"/>
             <InterpolatingParam id="3112" interp="linr"  time="0/1" value="0" leadInLength="0/1"  name="textIgnoresOpacity"/>
             <InterpolatingParam id="3113" interp="linr"  time="0/1" value="1" leadInLength="0/1"  name="textRectHeight"/>
             <InterpolatingParam id="3114" interp="linr"  time="0/1" value="1" leadInLength="0/1"  name="textRectWidth"/>
             <InterpolatingParam id="3115" interp="linr"  time="0/1" value="0" leadInLength="0/1"  name="textRectX"/>
             <InterpolatingParam id="3116" interp="linr"  time="0/1" value="0" leadInLength="0/1"  name="textRectY"/>
             <InterpolatingParam id="3117" interp="linr"  time="0/1" value="0" leadInLength="0/1"  name="textVerticalAlign"/>
             <InterpolatingParam id="3118" interp="linr"  time="0/1" value="319.5" leadInLength="0/1"  name="width"/>
            </DoubleParameters>
            <StringParameters>
             <Parameter id="3119"  name="filename">
              <Keyframes>
              <Keyframe id="3120"  time="0/1" value="C:\Program Files (x86)\TechSmith\Camtasia Studio 8\Media\Studio\Callouts\trans_100x100.xml" leadInLength="0/1"  />
              </Keyframes>
             </Parameter>
             <Parameter id="3121"  name="name">
              <Keyframes>
              <Keyframe id="3122"  time="0/1" value="Text" leadInLength="0/1"  />
              </Keyframes>
             </Parameter>
             <Parameter id="3123"  name="text">
              <Keyframes>
              <Keyframe id="3124"  time="0/1" value="{\rtf1\ansi\ansicpg1252\deff0\deflang1033{\fonttbl{\f0\fswiss\fprq2\fcharset0 Arial Rounded MT Bold;}{\f1\fswiss\fprq2\fcharset0 Arial;}}&#xD;&#xa;{\colortbl ;\red63\green108\blue25;\red0\green0\blue0;}&#xD;&#xa;\viewkind4\uc1\pard\qc\cf1\f0\fs52 CASO DE USO\cf2\f1\fs32\par&#xD;&#xa;}&#xD;&#xa;" leadInLength="0/1"  />
              </Keyframes>
             </Parameter>
             <Parameter id="3125"  name="xmlContent">
              <Keyframes>
              <Keyframe id="3126"  time="0/1" value="﻿&lt;?xml version=&quot;1.0&quot;?&gt;&#xa;&#xa;&lt;Overlay version=&quot;1.0.1&quot;&gt;&#xa;&#xa;&lt;Overlay_Filename&gt;trans_100x100.png&lt;/Overlay_Filename&gt;&#xa;&lt;Overlay_Name&gt;Text&lt;/Overlay_Name&gt;&#xa;&lt;Text_Top&gt;0&lt;/Text_Top&gt;&#xa;&lt;Text_Left&gt;0&lt;/Text_Left&gt;&#xa;&lt;Text_Bottom&gt;0&lt;/Text_Bottom&gt;&#xa;&lt;Text_Right&gt;0&lt;/Text_Right&gt;&#xa;&lt;Fill_Color&gt;0&lt;/Fill_Color&gt;&#xa;&lt;Border_Color&gt;0&lt;/Border_Color&gt;&#xa;&lt;Style&gt;5&lt;/Style&gt;&#xa;&lt;/Overlay&gt;" leadInLength="0/1"  />
              </Keyframes>
             </Parameter>
            </StringParameters>
           </VectorNode>
          </Attribute>
         </Attributes>
         <MetaData>
          <entry key="WinSubProjectDisplayName" val=""/>
         </MetaData>
         <LeftEdgeMods length="24/1" groupName="OpacityFade">
          <EdgeMod parameter="3105">
           <FadeInFunc id="3071"  />
          </EdgeMod>
         </LeftEdgeMods>
         <RightEdgeMods length="5/1" groupName="OpacityFade">
          <EdgeMod parameter="3105">
           <FadeOutFunc id="3127"  />
          </EdgeMod>
         </RightEdgeMods>
         <ExtraData>
          <Entry key="ZoomPanBin">
           <ZoomPanBin id="3128"  >
            <ZoomPanKeyframes>
             <ZoomPanKeyframe id="3129" timeRangeEnd="-9999999/1" timeRangeDuration="0/1" interpolaterName="linr"  />
            </ZoomPanKeyframes>
           </ZoomPanBin>
          </Entry>
         </ExtraData>
        </Callout>
        <Callout id="3130" start="21823" duration="69" scalar="1/1" mediaStart="0/1" mediaDuration="69/1" >
         <Transformer>
          <VectorParam id="3131"  name="translation">
           <InterpolatingParam id="3132" interp="linr"  time="-9999999/1" value="-284.21052631605693" leadInLength="0/1"  />
           <InterpolatingParam id="3133" interp="linr"  time="-9999999/1" value="-56.842105263144383" leadInLength="0/1"  />
           <InterpolatingParam id="3134" interp="linr"  time="-9999999/1" value="0" leadInLength="0/1"  />
          </VectorParam>
          <VectorParam id="3135"  name="rotation">
           <InterpolatingParam id="3136" interp="linr"  time="-9999999/1" value="0" leadInLength="0/1"  />
           <InterpolatingParam id="3137" interp="linr"  time="-9999999/1" value="0" leadInLength="0/1"  />
           <InterpolatingParam id="3138" interp="linr"  time="-9999999/1" value="1.4885269387986817" leadInLength="0/1"  />
          </VectorParam>
          <VectorParam id="3139"  name="shear">
           <InterpolatingParam id="3140" interp="linr"  time="-9999999/1" value="4.2465968607361587e-017" leadInLength="0/1"  />
           <InterpolatingParam id="3141" interp="linr"  time="-9999999/1" value="0" leadInLength="0/1"  />
           <InterpolatingParam id="3142" interp="linr"  time="-9999999/1" value="0" leadInLength="0/1"  />
          </VectorParam>
          <VectorParam id="3143"  name="scale">
           <InterpolatingParam id="3144" interp="linr"  time="-9999999/1" value="0.57166236835508155" leadInLength="0/1"  />
           <InterpolatingParam id="3145" interp="linr"  time="-9999999/1" value="0.30934995554213451" leadInLength="0/1"  />
           <InterpolatingParam id="3146" interp="linr"  time="-9999999/1" value="1" leadInLength="0/1"  />
          </VectorParam>
          <VectorParam id="3147"  name="anchor">
           <InterpolatingParam id="3148" interp="linr"  time="0/1" value="0" leadInLength="0/1"  />
           <InterpolatingParam id="3149" interp="linr"  time="0/1" value="0" leadInLength="0/1"  />
           <InterpolatingParam id="3150" interp="linr"  time="0/1" value="0" leadInLength="0/1"  />
          </VectorParam>
         </Transformer>
         <Parameters>
          <VectorParam id="3151"  name="sourceCrop">
           <InterpolatingParam id="3152" interp="linr"  time="0/1" value="0" leadInLength="0/1"  />
           <InterpolatingParam id="3153" interp="linr"  time="0/1" value="0" leadInLength="0/1"  />
           <InterpolatingParam id="3154" interp="linr"  time="0/1" value="0" leadInLength="0/1"  />
           <InterpolatingParam id="3155" interp="linr"  time="0/1" value="0" leadInLength="0/1"  />
          </VectorParam>
          <VectorParam id="3156"  name="geometryCrop">
           <InterpolatingParam id="3157" interp="linr"  time="-9999999/1" value="0" leadInLength="0/1"  />
           <InterpolatingParam id="3158" interp="linr"  time="-9999999/1" value="0" leadInLength="0/1"  />
           <InterpolatingParam id="3159" interp="linr"  time="-9999999/1" value="0" leadInLength="0/1"  />
           <InterpolatingParam id="3160" interp="linr"  time="-9999999/1" value="0" leadInLength="0/1"  />
          </VectorParam>
          <InterpolatingParam id="3161" interp="linr"  time="-9999999/1" value="1" leadInLength="0/1"  name="opacity"/>
         </Parameters>
         <Attributes>
          <Attribute id="3162"  name="vectorNode">
           <VectorNode id="3163" kind="TypeWinXML"  >
            <DoubleParameters>
             <InterpolatingParam id="3164" interp="linr"  time="0/1" value="-1" leadInLength="0/1"  name="CutoutPercentage"/>
             <InterpolatingParam id="3165" interp="linr"  time="0/1" value="-1" leadInLength="0/1"  name="RoundedRectRadius"/>
             <InterpolatingParam id="3166" interp="linr"  time="0/1" value="5" leadInLength="0/1"  name="Style"/>
             <InterpolatingParam id="3167" interp="linr"  time="0/1" value="59" leadInLength="0/1"  name="borderColorBlue"/>
             <InterpolatingParam id="3168" interp="linr"  time="0/1" value="209" leadInLength="0/1"  name="borderColorGreen"/>
             <InterpolatingParam id="3169" interp="linr"  time="0/1" value="127" leadInLength="0/1"  name="borderColorRed"/>
             <InterpolatingParam id="3170" interp="linr"  time="0/1" value="1" leadInLength="0/1"  name="borderState"/>
             <InterpolatingParam id="3171" interp="linr"  time="0/1" value="5" leadInLength="0/1"  name="borderWidth"/>
             <InterpolatingParam id="3172" interp="linr"  time="0/1" value="59" leadInLength="0/1"  name="fillColorBlue"/>
             <InterpolatingParam id="3173" interp="linr"  time="0/1" value="209" leadInLength="0/1"  name="fillColorGreen"/>
             <InterpolatingParam id="3174" interp="linr"  time="0/1" value="127" leadInLength="0/1"  name="fillColorRed"/>
             <InterpolatingParam id="3175" interp="linr"  time="0/1" value="1" leadInLength="0/1"  name="fillState"/>
             <InterpolatingParam id="3176" interp="linr"  time="0/1" value="0" leadInLength="0/1"  name="flipOnXAxis"/>
             <InterpolatingParam id="3177" interp="linr"  time="0/1" value="0" leadInLength="0/1"  name="flipOnYAxis"/>
             <InterpolatingParam id="3178" interp="linr"  time="0/1" value="275.5539033457249" leadInLength="0/1"  name="height"/>
             <InterpolatingParam id="3179" interp="linr"  time="0/1" value="319.5" leadInLength="0/1"  name="width"/>
            </DoubleParameters>
            <StringParameters>
             <Parameter id="3180"  name="VectorPath">
              <Keyframes>
              <Keyframe id="3181"  time="0/1" value="" leadInLength="0/1"  />
              </Keyframes>
             </Parameter>
             <Parameter id="3182"  name="filename">
              <Keyframes>
              <Keyframe id="3183"  time="0/1" value="C:\Program Files (x86)\TechSmith\Camtasia Studio 8\Media\Studio\Callouts\roundedarrow.xml" leadInLength="0/1"  />
              </Keyframes>
             </Parameter>
             <Parameter id="3184"  name="name">
              <Keyframes>
              <Keyframe id="3185"  time="0/1" value="Rounded Arrow" leadInLength="0/1"  />
              </Keyframes>
             </Parameter>
             <Parameter id="3186"  name="xmlContent">
              <Keyframes>
              <Keyframe id="3187"  time="0/1" value="﻿&lt;?xml version=&quot;1.0&quot;?&gt;&#xa;&#xa;&lt;Overlay version=&quot;1.0.1&quot;&gt;&#xa;&#xa;&lt;Overlay_Filename&gt;roundedarrow.png&lt;/Overlay_Filename&gt;&#xa;&lt;Overlay_Name&gt;Rounded Arrow&lt;/Overlay_Name&gt;&#xa;&lt;Text_Top&gt;-1&lt;/Text_Top&gt;&#xa;&lt;Text_Left&gt;-1&lt;/Text_Left&gt;&#xa;&lt;Text_Bottom&gt;-1&lt;/Text_Bottom&gt;&#xa;&lt;Text_Right&gt;-1&lt;/Text_Right&gt;&#xa;&lt;Fill_Color&gt;1&lt;/Fill_Color&gt;&#xa;&lt;Border_Color&gt;1&lt;/Border_Color&gt;&#xa;&lt;Initial_Fill_Color&gt;0xff017b34&lt;/Initial_Fill_Color&gt;&#xa;&lt;Initial_Border_Color&gt;0xffd7d7d7&lt;/Initial_Border_Color&gt;&#xa;&lt;VectorProps&gt;&#xa;&lt;figure&gt;&#xa;&lt;svg&gt;M29.27,148.243c94.722,0,131.744,0,131.744,0s-6.617,6.619-26.562,26.568&#xa;&#x9;c-33.056,33.055,14.351,79.121,48.086,45.385c13.726-13.723,57.03-57.029,68.668-68.666c21.731-21.732,23.239-49.4,4.19-68.45&#xa;&#x9;c-18.033-18.033-51.981-51.98-73.981-73.98C152.773-19.542,105.138,26.28,131.057,52.2c21.607,21.609,29.957,29.959,29.957,29.959&#xa;&#x9;s-35.786,0-130.057,0C-9.106,82.159-10.93,148.243,29.27,148.243z&lt;/svg&gt;&#xa;&lt;/figure&gt;&#xa;&lt;borderWidth&gt;5.00&lt;/borderWidth&gt;&#xa;&lt;seamY&gt;116.00&lt;/seamY&gt;&#xa;&lt;shapeWidth&gt;269&lt;/shapeWidth&gt;&#xa;&lt;shapeHeight&gt;232&lt;/shapeHeight&gt;&#xa;&lt;/VectorProps&gt;&#xa;&lt;Style&gt;5&lt;/Style&gt;&#xa;&lt;/Overlay&gt;" leadInLength="0/1"  />
              </Keyframes>
             </Parameter>
            </StringParameters>
           </VectorNode>
          </Attribute>
         </Attributes>
         <MetaData>
          <entry key="WinSubProjectDisplayName" val=""/>
         </MetaData>
         <LeftEdgeMods length="24/1" groupName="OpacityFade">
          <EdgeMod parameter="3161">
           <FadeInFunc id="3188"  />
          </EdgeMod>
         </LeftEdgeMods>
         <RightEdgeMods length="5/1" groupName="OpacityFade">
          <EdgeMod parameter="3161">
           <FadeOutFunc id="3189"  />
          </EdgeMod>
         </RightEdgeMods>
         <ExtraData>
          <Entry key="ZoomPanBin">
           <ZoomPanBin id="3190"  >
            <ZoomPanKeyframes>
             <ZoomPanKeyframe id="3191" timeRangeEnd="-9999999/1" timeRangeDuration="0/1" interpolaterName="linr"  />
            </ZoomPanKeyframes>
           </ZoomPanBin>
          </Entry>
         </ExtraData>
        </Callout>
        <Callout id="3192" start="24674" duration="57" scalar="1/1" mediaStart="0/1" mediaDuration="57/1" >
         <Transformer>
          <VectorParam id="3193"  name="translation">
           <InterpolatingParam id="3194" interp="linr"  time="-9999999/1" value="156.9924812030381" leadInLength="0/1"  />
           <InterpolatingParam id="3195" interp="linr"  time="-9999999/1" value="126.31578947368703" leadInLength="0/1"  />
           <InterpolatingParam id="3196" interp="linr"  time="-9999999/1" value="0" leadInLength="0/1"  />
          </VectorParam>
          <VectorParam id="3197"  name="rotation">
           <InterpolatingParam id="3198" interp="linr"  time="-9999999/1" value="0" leadInLength="0/1"  />
           <InterpolatingParam id="3199" interp="linr"  time="-9999999/1" value="0" leadInLength="0/1"  />
           <InterpolatingParam id="3200" interp="linr"  time="-9999999/1" value="-4.7123889803846897" leadInLength="0/1"  />
          </VectorParam>
          <VectorParam id="3201"  name="shear">
           <InterpolatingParam id="3202" interp="linr"  time="-9999999/1" value="1.9690158946873613e-032" leadInLength="0/1"  />
           <InterpolatingParam id="3203" interp="linr"  time="-9999999/1" value="0" leadInLength="0/1"  />
           <InterpolatingParam id="3204" interp="linr"  time="-9999999/1" value="0" leadInLength="0/1"  />
          </VectorParam>
          <VectorParam id="3205"  name="scale">
           <InterpolatingParam id="3206" interp="linr"  time="-9999999/1" value="0.55946203537053396" leadInLength="0/1"  />
           <InterpolatingParam id="3207" interp="linr"  time="-9999999/1" value="0.4761064699993568" leadInLength="0/1"  />
           <InterpolatingParam id="3208" interp="linr"  time="-9999999/1" value="1" leadInLength="0/1"  />
          </VectorParam>
          <VectorParam id="3209"  name="anchor">
           <InterpolatingParam id="3210" interp="linr"  time="0/1" value="0" leadInLength="0/1"  />
           <InterpolatingParam id="3211" interp="linr"  time="0/1" value="0" leadInLength="0/1"  />
           <InterpolatingParam id="3212" interp="linr"  time="0/1" value="0" leadInLength="0/1"  />
          </VectorParam>
         </Transformer>
         <Parameters>
          <VectorParam id="3213"  name="sourceCrop">
           <InterpolatingParam id="3214" interp="linr"  time="0/1" value="0" leadInLength="0/1"  />
           <InterpolatingParam id="3215" interp="linr"  time="0/1" value="0" leadInLength="0/1"  />
           <InterpolatingParam id="3216" interp="linr"  time="0/1" value="0" leadInLength="0/1"  />
           <InterpolatingParam id="3217" interp="linr"  time="0/1" value="0" leadInLength="0/1"  />
          </VectorParam>
          <VectorParam id="3218"  name="geometryCrop">
           <InterpolatingParam id="3219" interp="linr"  time="-9999999/1" value="0" leadInLength="0/1"  />
           <InterpolatingParam id="3220" interp="linr"  time="-9999999/1" value="0" leadInLength="0/1"  />
           <InterpolatingParam id="3221" interp="linr"  time="-9999999/1" value="0" leadInLength="0/1"  />
           <InterpolatingParam id="3222" interp="linr"  time="-9999999/1" value="0" leadInLength="0/1"  />
          </VectorParam>
          <InterpolatingParam id="3223" interp="linr"  time="-9999999/1" value="1" leadInLength="0/1"  name="opacity"/>
         </Parameters>
         <Effects>
          <GenericEffect id="3224" name = "DropShadow" >
           <Parameters>
           <InterpolatingParam id="3225" interp="linr"  time="0/1" value="315" leadInLength="0/1"   name="angle"/>
           <InterpolatingParam id="3226" interp="linr"  time="0/1" value="2" leadInLength="0/1"   name="blur"/>
           <Parameter id="3227"   name="enabled">
            <Keyframes>
            <Keyframe id="3228"  time="0/1" value="1" leadInLength="0/1"  />
            </Keyframes>
           </Parameter>
           <InterpolatingParam id="3229" interp="linr"  time="0/1" value="4" leadInLength="0/1"   name="offset"/>
           <InterpolatingParam id="3230" interp="linr"  time="0/1" value="0.75" leadInLength="0/1"   name="opacity"/>
           </Parameters>
          </GenericEffect>
         </Effects>
         <Attributes>
          <Attribute id="3231"  name="vectorNode">
           <VectorNode id="3232" kind="TypeWinXML"  >
            <DoubleParameters>
             <InterpolatingParam id="3233" interp="linr"  time="0/1" value="-1" leadInLength="0/1"  name="CutoutPercentage"/>
             <InterpolatingParam id="3234" interp="linr"  time="0/1" value="-1" leadInLength="0/1"  name="RoundedRectRadius"/>
             <InterpolatingParam id="3235" interp="linr"  time="0/1" value="5" leadInLength="0/1"  name="Style"/>
             <InterpolatingParam id="3236" interp="linr"  time="0/1" value="59" leadInLength="0/1"  name="borderColorBlue"/>
             <InterpolatingParam id="3237" interp="linr"  time="0/1" value="209" leadInLength="0/1"  name="borderColorGreen"/>
             <InterpolatingParam id="3238" interp="linr"  time="0/1" value="127" leadInLength="0/1"  name="borderColorRed"/>
             <InterpolatingParam id="3239" interp="linr"  time="0/1" value="1" leadInLength="0/1"  name="borderState"/>
             <InterpolatingParam id="3240" interp="linr"  time="0/1" value="5" leadInLength="0/1"  name="borderWidth"/>
             <InterpolatingParam id="3241" interp="linr"  time="0/1" value="59" leadInLength="0/1"  name="fillColorBlue"/>
             <InterpolatingParam id="3242" interp="linr"  time="0/1" value="209" leadInLength="0/1"  name="fillColorGreen"/>
             <InterpolatingParam id="3243" interp="linr"  time="0/1" value="127" leadInLength="0/1"  name="fillColorRed"/>
             <InterpolatingParam id="3244" interp="linr"  time="0/1" value="1" leadInLength="0/1"  name="fillState"/>
             <InterpolatingParam id="3245" interp="linr"  time="0/1" value="0" leadInLength="0/1"  name="flipOnXAxis"/>
             <InterpolatingParam id="3246" interp="linr"  time="0/1" value="0" leadInLength="0/1"  name="flipOnYAxis"/>
             <InterpolatingParam id="3247" interp="linr"  time="0/1" value="275.5539033457249" leadInLength="0/1"  name="height"/>
             <InterpolatingParam id="3248" interp="linr"  time="0/1" value="319.5" leadInLength="0/1"  name="width"/>
            </DoubleParameters>
            <StringParameters>
             <Parameter id="3249"  name="VectorPath">
              <Keyframes>
              <Keyframe id="3250"  time="0/1" value="" leadInLength="0/1"  />
              </Keyframes>
             </Parameter>
             <Parameter id="3251"  name="filename">
              <Keyframes>
              <Keyframe id="3252"  time="0/1" value="C:\Program Files (x86)\TechSmith\Camtasia Studio 8\Media\Studio\Callouts\roundedarrow.xml" leadInLength="0/1"  />
              </Keyframes>
             </Parameter>
             <Parameter id="3253"  name="name">
              <Keyframes>
              <Keyframe id="3254"  time="0/1" value="Rounded Arrow" leadInLength="0/1"  />
              </Keyframes>
             </Parameter>
             <Parameter id="3255"  name="xmlContent">
              <Keyframes>
              <Keyframe id="3256"  time="0/1" value="﻿&lt;?xml version=&quot;1.0&quot;?&gt;&#xa;&#xa;&lt;Overlay version=&quot;1.0.1&quot;&gt;&#xa;&#xa;&lt;Overlay_Filename&gt;roundedarrow.png&lt;/Overlay_Filename&gt;&#xa;&lt;Overlay_Name&gt;Rounded Arrow&lt;/Overlay_Name&gt;&#xa;&lt;Text_Top&gt;-1&lt;/Text_Top&gt;&#xa;&lt;Text_Left&gt;-1&lt;/Text_Left&gt;&#xa;&lt;Text_Bottom&gt;-1&lt;/Text_Bottom&gt;&#xa;&lt;Text_Right&gt;-1&lt;/Text_Right&gt;&#xa;&lt;Fill_Color&gt;1&lt;/Fill_Color&gt;&#xa;&lt;Border_Color&gt;1&lt;/Border_Color&gt;&#xa;&lt;Initial_Fill_Color&gt;0xff017b34&lt;/Initial_Fill_Color&gt;&#xa;&lt;Initial_Border_Color&gt;0xffd7d7d7&lt;/Initial_Border_Color&gt;&#xa;&lt;VectorProps&gt;&#xa;&lt;figure&gt;&#xa;&lt;svg&gt;M29.27,148.243c94.722,0,131.744,0,131.744,0s-6.617,6.619-26.562,26.568&#xa;&#x9;c-33.056,33.055,14.351,79.121,48.086,45.385c13.726-13.723,57.03-57.029,68.668-68.666c21.731-21.732,23.239-49.4,4.19-68.45&#xa;&#x9;c-18.033-18.033-51.981-51.98-73.981-73.98C152.773-19.542,105.138,26.28,131.057,52.2c21.607,21.609,29.957,29.959,29.957,29.959&#xa;&#x9;s-35.786,0-130.057,0C-9.106,82.159-10.93,148.243,29.27,148.243z&lt;/svg&gt;&#xa;&lt;/figure&gt;&#xa;&lt;borderWidth&gt;5.00&lt;/borderWidth&gt;&#xa;&lt;seamY&gt;116.00&lt;/seamY&gt;&#xa;&lt;shapeWidth&gt;269&lt;/shapeWidth&gt;&#xa;&lt;shapeHeight&gt;232&lt;/shapeHeight&gt;&#xa;&lt;/VectorProps&gt;&#xa;&lt;Style&gt;5&lt;/Style&gt;&#xa;&lt;/Overlay&gt;" leadInLength="0/1"  />
              </Keyframes>
             </Parameter>
            </StringParameters>
           </VectorNode>
          </Attribute>
         </Attributes>
         <MetaData>
          <entry key="WinSubProjectDisplayName" val=""/>
         </MetaData>
         <LeftEdgeMods length="23/1" groupName="OpacityFade">
          <EdgeMod parameter="3223">
           <FadeInFunc id="3189"  />
          </EdgeMod>
         </LeftEdgeMods>
         <RightEdgeMods length="7/1" groupName="OpacityFade">
          <EdgeMod parameter="3223">
           <FadeOutFunc id="3189"  />
          </EdgeMod>
         </RightEdgeMods>
         <ExtraData>
          <Entry key="ZoomPanBin">
           <ZoomPanBin id="3257"  >
            <ZoomPanKeyframes>
             <ZoomPanKeyframe id="3258" timeRangeEnd="-9999999/1" timeRangeDuration="0/1" interpolaterName="linr"  />
            </ZoomPanKeyframes>
           </ZoomPanBin>
          </Entry>
         </ExtraData>
        </Callout>
        <Callout id="3259" start="24828" duration="41" scalar="1/1" mediaStart="0/1" mediaDuration="41/1" >
         <Transformer>
          <VectorParam id="3260"  name="translation">
           <InterpolatingParam id="3261" interp="linr"  time="-9999999/1" value="-527.0695488722987" leadInLength="0/1"  />
           <InterpolatingParam id="3262" interp="linr"  time="-9999999/1" value="-139.21539011275755" leadInLength="0/1"  />
           <InterpolatingParam id="3263" interp="linr"  time="-9999999/1" value="0" leadInLength="0/1"  />
          </VectorParam>
          <VectorParam id="3264"  name="rotation">
           <InterpolatingParam id="3265" interp="linr"  time="-9999999/1" value="0" leadInLength="0/1"  />
           <InterpolatingParam id="3266" interp="linr"  time="-9999999/1" value="0" leadInLength="0/1"  />
           <InterpolatingParam id="3267" interp="linr"  time="-9999999/1" value="0" leadInLength="0/1"  />
          </VectorParam>
          <VectorParam id="3268"  name="shear">
           <InterpolatingParam id="3269" interp="linr"  time="-9999999/1" value="0" leadInLength="0/1"  />
           <InterpolatingParam id="3270" interp="linr"  time="-9999999/1" value="0" leadInLength="0/1"  />
           <InterpolatingParam id="3271" interp="linr"  time="-9999999/1" value="0" leadInLength="0/1"  />
          </VectorParam>
          <VectorParam id="3272"  name="scale">
           <InterpolatingParam id="3273" interp="linr"  time="-9999999/1" value="0.73454763669731671" leadInLength="0/1"  />
           <InterpolatingParam id="3274" interp="linr"  time="-9999999/1" value="0.87969924812001121" leadInLength="0/1"  />
           <InterpolatingParam id="3275" interp="linr"  time="-9999999/1" value="0.99999999999999989" leadInLength="0/1"  />
          </VectorParam>
          <VectorParam id="3276"  name="anchor">
           <InterpolatingParam id="3277" interp="linr"  time="0/1" value="0" leadInLength="0/1"  />
           <InterpolatingParam id="3278" interp="linr"  time="0/1" value="0" leadInLength="0/1"  />
           <InterpolatingParam id="3279" interp="linr"  time="0/1" value="0" leadInLength="0/1"  />
          </VectorParam>
         </Transformer>
         <Parameters>
          <VectorParam id="3280"  name="sourceCrop">
           <InterpolatingParam id="3281" interp="linr"  time="0/1" value="0" leadInLength="0/1"  />
           <InterpolatingParam id="3282" interp="linr"  time="0/1" value="0" leadInLength="0/1"  />
           <InterpolatingParam id="3283" interp="linr"  time="0/1" value="0" leadInLength="0/1"  />
           <InterpolatingParam id="3284" interp="linr"  time="0/1" value="0" leadInLength="0/1"  />
          </VectorParam>
          <VectorParam id="3285"  name="geometryCrop">
           <InterpolatingParam id="3286" interp="linr"  time="-9999999/1" value="0" leadInLength="0/1"  />
           <InterpolatingParam id="3287" interp="linr"  time="-9999999/1" value="0" leadInLength="0/1"  />
           <InterpolatingParam id="3288" interp="linr"  time="-9999999/1" value="0" leadInLength="0/1"  />
           <InterpolatingParam id="3289" interp="linr"  time="-9999999/1" value="0" leadInLength="0/1"  />
          </VectorParam>
          <InterpolatingParam id="3290" interp="linr"  time="-9999999/1" value="1" leadInLength="0/1"  name="opacity"/>
         </Parameters>
         <Attributes>
          <Attribute id="3291"  name="vectorNode">
           <VectorNode id="3292" kind="TypeWinText"  >
            <DoubleParameters>
             <InterpolatingParam id="3293" interp="linr"  time="0/1" value="5" leadInLength="0/1"  name="Style"/>
             <InterpolatingParam id="3294" interp="linr"  time="0/1" value="0" leadInLength="0/1"  name="dimensionTime"/>
             <InterpolatingParam id="3295" interp="linr"  time="0/1" value="180" leadInLength="0/1"  name="height"/>
             <InterpolatingParam id="3296" interp="linr"  time="0/1" value="0" leadInLength="0/1"  name="textDropShadow"/>
             <InterpolatingParam id="3297" interp="linr"  time="0/1" value="0" leadInLength="0/1"  name="textIgnoresOpacity"/>
             <InterpolatingParam id="3298" interp="linr"  time="0/1" value="1" leadInLength="0/1"  name="textRectHeight"/>
             <InterpolatingParam id="3299" interp="linr"  time="0/1" value="1" leadInLength="0/1"  name="textRectWidth"/>
             <InterpolatingParam id="3300" interp="linr"  time="0/1" value="0" leadInLength="0/1"  name="textRectX"/>
             <InterpolatingParam id="3301" interp="linr"  time="0/1" value="0" leadInLength="0/1"  name="textRectY"/>
             <InterpolatingParam id="3302" interp="linr"  time="0/1" value="0" leadInLength="0/1"  name="textVerticalAlign"/>
             <InterpolatingParam id="3303" interp="linr"  time="0/1" value="319.5" leadInLength="0/1"  name="width"/>
            </DoubleParameters>
            <StringParameters>
             <Parameter id="3304"  name="filename">
              <Keyframes>
              <Keyframe id="3305"  time="0/1" value="C:\Program Files (x86)\TechSmith\Camtasia Studio 8\Media\Studio\Callouts\trans_100x100.xml" leadInLength="0/1"  />
              </Keyframes>
             </Parameter>
             <Parameter id="3306"  name="name">
              <Keyframes>
              <Keyframe id="3307"  time="0/1" value="Text" leadInLength="0/1"  />
              </Keyframes>
             </Parameter>
             <Parameter id="3308"  name="text">
              <Keyframes>
              <Keyframe id="3309"  time="0/1" value="{\rtf1\ansi\ansicpg1252\deff0\deflang1033{\fonttbl{\f0\fswiss\fprq2\fcharset0 Arial Rounded MT Bold;}{\f1\fswiss\fprq2\fcharset0 Arial;}}&#xD;&#xa;{\colortbl ;\red63\green108\blue25;\red0\green0\blue0;}&#xD;&#xa;\viewkind4\uc1\pard\qc\cf1\f0\fs52 CASO DE USO\cf2\f1\fs32\par&#xD;&#xa;}&#xD;&#xa;" leadInLength="0/1"  />
              </Keyframes>
             </Parameter>
             <Parameter id="3310"  name="xmlContent">
              <Keyframes>
              <Keyframe id="3311"  time="0/1" value="﻿&lt;?xml version=&quot;1.0&quot;?&gt;&#xa;&#xa;&lt;Overlay version=&quot;1.0.1&quot;&gt;&#xa;&#xa;&lt;Overlay_Filename&gt;trans_100x100.png&lt;/Overlay_Filename&gt;&#xa;&lt;Overlay_Name&gt;Text&lt;/Overlay_Name&gt;&#xa;&lt;Text_Top&gt;0&lt;/Text_Top&gt;&#xa;&lt;Text_Left&gt;0&lt;/Text_Left&gt;&#xa;&lt;Text_Bottom&gt;0&lt;/Text_Bottom&gt;&#xa;&lt;Text_Right&gt;0&lt;/Text_Right&gt;&#xa;&lt;Fill_Color&gt;0&lt;/Fill_Color&gt;&#xa;&lt;Border_Color&gt;0&lt;/Border_Color&gt;&#xa;&lt;Style&gt;5&lt;/Style&gt;&#xa;&lt;/Overlay&gt;" leadInLength="0/1"  />
              </Keyframes>
             </Parameter>
            </StringParameters>
           </VectorNode>
          </Attribute>
         </Attributes>
         <MetaData>
          <entry key="WinSubProjectDisplayName" val=""/>
         </MetaData>
         <LeftEdgeMods length="24/1" groupName="OpacityFade">
          <EdgeMod parameter="3290">
           <FadeInFunc id="3070"  />
          </EdgeMod>
         </LeftEdgeMods>
         <RightEdgeMods length="5/1" groupName="OpacityFade">
          <EdgeMod parameter="3290">
           <FadeOutFunc id="3189"  />
          </EdgeMod>
         </RightEdgeMods>
         <ExtraData>
          <Entry key="ZoomPanBin">
           <ZoomPanBin id="3312"  >
            <ZoomPanKeyframes>
             <ZoomPanKeyframe id="3313" timeRangeEnd="-9999999/1" timeRangeDuration="0/1" interpolaterName="linr"  />
            </ZoomPanKeyframes>
           </ZoomPanBin>
          </Entry>
         </ExtraData>
        </Callout>
        <Callout id="3314" start="27367" duration="179" scalar="1/1" mediaStart="0/1" mediaDuration="179/1" >
         <Transformer>
          <VectorParam id="3315"  name="translation">
           <InterpolatingParam id="3316" interp="linr"  time="-9999999/1" value="-294.13533834584734" leadInLength="0/1"  />
           <InterpolatingParam id="3317" interp="linr"  time="-9999999/1" value="-196.6917293232967" leadInLength="0/1"  />
           <InterpolatingParam id="3318" interp="linr"  time="-9999999/1" value="0" leadInLength="0/1"  />
          </VectorParam>
          <VectorParam id="3319"  name="rotation">
           <InterpolatingParam id="3320" interp="linr"  time="-9999999/1" value="0" leadInLength="0/1"  />
           <InterpolatingParam id="3321" interp="linr"  time="-9999999/1" value="0" leadInLength="0/1"  />
           <InterpolatingParam id="3322" interp="linr"  time="-9999999/1" value="0" leadInLength="0/1"  />
          </VectorParam>
          <VectorParam id="3323"  name="shear">
           <InterpolatingParam id="3324" interp="linr"  time="-9999999/1" value="0" leadInLength="0/1"  />
           <InterpolatingParam id="3325" interp="linr"  time="-9999999/1" value="0" leadInLength="0/1"  />
           <InterpolatingParam id="3326" interp="linr"  time="-9999999/1" value="0" leadInLength="0/1"  />
          </VectorParam>
          <VectorParam id="3327"  name="scale">
           <InterpolatingParam id="3328" interp="linr"  time="-9999999/1" value="1" leadInLength="0/1"  />
           <InterpolatingParam id="3329" interp="linr"  time="-9999999/1" value="1" leadInLength="0/1"  />
           <InterpolatingParam id="3330" interp="linr"  time="-9999999/1" value="1" leadInLength="0/1"  />
          </VectorParam>
          <VectorParam id="3331"  name="anchor">
           <InterpolatingParam id="3332" interp="linr"  time="0/1" value="0" leadInLength="0/1"  />
           <InterpolatingParam id="3333" interp="linr"  time="0/1" value="0" leadInLength="0/1"  />
           <InterpolatingParam id="3334" interp="linr"  time="0/1" value="0" leadInLength="0/1"  />
          </VectorParam>
         </Transformer>
         <Parameters>
          <VectorParam id="3335"  name="sourceCrop">
           <InterpolatingParam id="3336" interp="linr"  time="0/1" value="0" leadInLength="0/1"  />
           <InterpolatingParam id="3337" interp="linr"  time="0/1" value="0" leadInLength="0/1"  />
           <InterpolatingParam id="3338" interp="linr"  time="0/1" value="0" leadInLength="0/1"  />
           <InterpolatingParam id="3339" interp="linr"  time="0/1" value="0" leadInLength="0/1"  />
          </VectorParam>
          <VectorParam id="3340"  name="geometryCrop">
           <InterpolatingParam id="3341" interp="linr"  time="-9999999/1" value="0" leadInLength="0/1"  />
           <InterpolatingParam id="3342" interp="linr"  time="-9999999/1" value="0" leadInLength="0/1"  />
           <InterpolatingParam id="3343" interp="linr"  time="-9999999/1" value="0" leadInLength="0/1"  />
           <InterpolatingParam id="3344" interp="linr"  time="-9999999/1" value="0" leadInLength="0/1"  />
          </VectorParam>
          <InterpolatingParam id="3345" interp="linr"  time="-9999999/1" value="1" leadInLength="0/1"  name="opacity"/>
         </Parameters>
         <Attributes>
          <Attribute id="3346"  name="vectorNode">
           <VectorNode id="3347" kind="TypeWinText"  >
            <DoubleParameters>
             <InterpolatingParam id="3348" interp="linr"  time="0/1" value="5" leadInLength="0/1"  name="Style"/>
             <InterpolatingParam id="3349" interp="linr"  time="0/1" value="0" leadInLength="0/1"  name="dimensionTime"/>
             <InterpolatingParam id="3350" interp="linr"  time="0/1" value="180" leadInLength="0/1"  name="height"/>
             <InterpolatingParam id="3351" interp="linr"  time="0/1" value="0" leadInLength="0/1"  name="textDropShadow"/>
             <InterpolatingParam id="3352" interp="linr"  time="0/1" value="0" leadInLength="0/1"  name="textIgnoresOpacity"/>
             <InterpolatingParam id="3353" interp="linr"  time="0/1" value="1" leadInLength="0/1"  name="textRectHeight"/>
             <InterpolatingParam id="3354" interp="linr"  time="0/1" value="1" leadInLength="0/1"  name="textRectWidth"/>
             <InterpolatingParam id="3355" interp="linr"  time="0/1" value="0" leadInLength="0/1"  name="textRectX"/>
             <InterpolatingParam id="3356" interp="linr"  time="0/1" value="0" leadInLength="0/1"  name="textRectY"/>
             <InterpolatingParam id="3357" interp="linr"  time="0/1" value="0" leadInLength="0/1"  name="textVerticalAlign"/>
             <InterpolatingParam id="3358" interp="linr"  time="0/1" value="319.5" leadInLength="0/1"  name="width"/>
            </DoubleParameters>
            <StringParameters>
             <Parameter id="3359"  name="filename">
              <Keyframes>
              <Keyframe id="3360"  time="0/1" value="C:\Program Files (x86)\TechSmith\Camtasia Studio 8\Media\Studio\Callouts\trans_100x100.xml" leadInLength="0/1"  />
              </Keyframes>
             </Parameter>
             <Parameter id="3361"  name="name">
              <Keyframes>
              <Keyframe id="3362"  time="0/1" value="Text" leadInLength="0/1"  />
              </Keyframes>
             </Parameter>
             <Parameter id="3363"  name="text">
              <Keyframes>
              <Keyframe id="3364"  time="0/1" value="{\rtf1\ansi\ansicpg1252\deff0\deflang1033{\fonttbl{\f0\fswiss\fprq2\fcharset0 Arial Rounded MT Bold;}{\f1\fswiss\fprq2\fcharset0 Arial;}}&#xD;&#xa;{\colortbl ;\red63\green108\blue25;\red0\green0\blue0;}&#xD;&#xa;\viewkind4\uc1\pard\qc\cf1\f0\fs52 COMUNICACION\cf2\f1\fs32\par&#xD;&#xa;}&#xD;&#xa;" leadInLength="0/1"  />
              </Keyframes>
             </Parameter>
             <Parameter id="3365"  name="xmlContent">
              <Keyframes>
              <Keyframe id="3366"  time="0/1" value="﻿&lt;?xml version=&quot;1.0&quot;?&gt;&#xa;&#xa;&lt;Overlay version=&quot;1.0.1&quot;&gt;&#xa;&#xa;&lt;Overlay_Filename&gt;trans_100x100.png&lt;/Overlay_Filename&gt;&#xa;&lt;Overlay_Name&gt;Text&lt;/Overlay_Name&gt;&#xa;&lt;Text_Top&gt;0&lt;/Text_Top&gt;&#xa;&lt;Text_Left&gt;0&lt;/Text_Left&gt;&#xa;&lt;Text_Bottom&gt;0&lt;/Text_Bottom&gt;&#xa;&lt;Text_Right&gt;0&lt;/Text_Right&gt;&#xa;&lt;Fill_Color&gt;0&lt;/Fill_Color&gt;&#xa;&lt;Border_Color&gt;0&lt;/Border_Color&gt;&#xa;&lt;Style&gt;5&lt;/Style&gt;&#xa;&lt;/Overlay&gt;" leadInLength="0/1"  />
              </Keyframes>
             </Parameter>
            </StringParameters>
           </VectorNode>
          </Attribute>
         </Attributes>
         <MetaData>
          <entry key="WinSubProjectDisplayName" val=""/>
         </MetaData>
         <LeftEdgeMods length="24/1" groupName="OpacityFade">
          <EdgeMod parameter="3345">
           <FadeInFunc id="3071"  />
          </EdgeMod>
         </LeftEdgeMods>
         <RightEdgeMods length="5/1" groupName="OpacityFade">
          <EdgeMod parameter="3345">
           <FadeOutFunc id="3188"  />
          </EdgeMod>
         </RightEdgeMods>
         <ExtraData>
          <Entry key="ZoomPanBin">
           <ZoomPanBin id="3367"  >
            <ZoomPanKeyframes>
             <ZoomPanKeyframe id="3368" timeRangeEnd="-9999999/1" timeRangeDuration="0/1" interpolaterName="linr"  />
            </ZoomPanKeyframes>
           </ZoomPanBin>
          </Entry>
         </ExtraData>
        </Callout>
        <Callout id="3369" start="29847" duration="179" scalar="1/1" mediaStart="0/1" mediaDuration="179/1" >
         <Transformer>
          <VectorParam id="3370"  name="translation">
           <InterpolatingParam id="3371" interp="linr"  time="-9999999/1" value="-326.61654135368536" leadInLength="0/1"  />
           <InterpolatingParam id="3372" interp="linr"  time="-9999999/1" value="-49.624060150353543" leadInLength="0/1"  />
           <InterpolatingParam id="3373" interp="linr"  time="-9999999/1" value="0" leadInLength="0/1"  />
          </VectorParam>
          <VectorParam id="3374"  name="rotation">
           <InterpolatingParam id="3375" interp="linr"  time="-9999999/1" value="0" leadInLength="0/1"  />
           <InterpolatingParam id="3376" interp="linr"  time="-9999999/1" value="0" leadInLength="0/1"  />
           <InterpolatingParam id="3377" interp="linr"  time="-9999999/1" value="-4.479702261147521" leadInLength="0/1"  />
          </VectorParam>
          <VectorParam id="3378"  name="shear">
           <InterpolatingParam id="3379" interp="linr"  time="-9999999/1" value="0" leadInLength="0/1"  />
           <InterpolatingParam id="3380" interp="linr"  time="-9999999/1" value="0" leadInLength="0/1"  />
           <InterpolatingParam id="3381" interp="linr"  time="-9999999/1" value="0" leadInLength="0/1"  />
          </VectorParam>
          <VectorParam id="3382"  name="scale">
           <InterpolatingParam id="3383" interp="linr"  time="-9999999/1" value="0.64982879734410925" leadInLength="0/1"  />
           <InterpolatingParam id="3384" interp="linr"  time="-9999999/1" value="0.39097377137423561" leadInLength="0/1"  />
           <InterpolatingParam id="3385" interp="linr"  time="-9999999/1" value="1" leadInLength="0/1"  />
          </VectorParam>
          <VectorParam id="3386"  name="anchor">
           <InterpolatingParam id="3387" interp="linr"  time="0/1" value="0" leadInLength="0/1"  />
           <InterpolatingParam id="3388" interp="linr"  time="0/1" value="0" leadInLength="0/1"  />
           <InterpolatingParam id="3389" interp="linr"  time="0/1" value="0" leadInLength="0/1"  />
          </VectorParam>
         </Transformer>
         <Parameters>
          <VectorParam id="3390"  name="sourceCrop">
           <InterpolatingParam id="3391" interp="linr"  time="0/1" value="0" leadInLength="0/1"  />
           <InterpolatingParam id="3392" interp="linr"  time="0/1" value="0" leadInLength="0/1"  />
           <InterpolatingParam id="3393" interp="linr"  time="0/1" value="0" leadInLength="0/1"  />
           <InterpolatingParam id="3394" interp="linr"  time="0/1" value="0" leadInLength="0/1"  />
          </VectorParam>
          <VectorParam id="3395"  name="geometryCrop">
           <InterpolatingParam id="3396" interp="linr"  time="-9999999/1" value="0" leadInLength="0/1"  />
           <InterpolatingParam id="3397" interp="linr"  time="-9999999/1" value="0" leadInLength="0/1"  />
           <InterpolatingParam id="3398" interp="linr"  time="-9999999/1" value="0" leadInLength="0/1"  />
           <InterpolatingParam id="3399" interp="linr"  time="-9999999/1" value="0" leadInLength="0/1"  />
          </VectorParam>
          <InterpolatingParam id="3400" interp="linr"  time="-9999999/1" value="1" leadInLength="0/1"  name="opacity"/>
         </Parameters>
         <Attributes>
          <Attribute id="3401"  name="vectorNode">
           <VectorNode id="3402" kind="TypeWinXML"  >
            <DoubleParameters>
             <InterpolatingParam id="3403" interp="linr"  time="0/1" value="-1" leadInLength="0/1"  name="CutoutPercentage"/>
             <InterpolatingParam id="3404" interp="linr"  time="0/1" value="-1" leadInLength="0/1"  name="RoundedRectRadius"/>
             <InterpolatingParam id="3405" interp="linr"  time="0/1" value="5" leadInLength="0/1"  name="Style"/>
             <InterpolatingParam id="3406" interp="linr"  time="0/1" value="59" leadInLength="0/1"  name="borderColorBlue"/>
             <InterpolatingParam id="3407" interp="linr"  time="0/1" value="209" leadInLength="0/1"  name="borderColorGreen"/>
             <InterpolatingParam id="3408" interp="linr"  time="0/1" value="127" leadInLength="0/1"  name="borderColorRed"/>
             <InterpolatingParam id="3409" interp="linr"  time="0/1" value="1" leadInLength="0/1"  name="borderState"/>
             <InterpolatingParam id="3410" interp="linr"  time="0/1" value="5" leadInLength="0/1"  name="borderWidth"/>
             <InterpolatingParam id="3411" interp="linr"  time="0/1" value="59" leadInLength="0/1"  name="fillColorBlue"/>
             <InterpolatingParam id="3412" interp="linr"  time="0/1" value="209" leadInLength="0/1"  name="fillColorGreen"/>
             <InterpolatingParam id="3413" interp="linr"  time="0/1" value="127" leadInLength="0/1"  name="fillColorRed"/>
             <InterpolatingParam id="3414" interp="linr"  time="0/1" value="1" leadInLength="0/1"  name="fillState"/>
             <InterpolatingParam id="3415" interp="linr"  time="0/1" value="0" leadInLength="0/1"  name="flipOnXAxis"/>
             <InterpolatingParam id="3416" interp="linr"  time="0/1" value="0" leadInLength="0/1"  name="flipOnYAxis"/>
             <InterpolatingParam id="3417" interp="linr"  time="0/1" value="275.5539033457249" leadInLength="0/1"  name="height"/>
             <InterpolatingParam id="3418" interp="linr"  time="0/1" value="319.5" leadInLength="0/1"  name="width"/>
            </DoubleParameters>
            <StringParameters>
             <Parameter id="3419"  name="VectorPath">
              <Keyframes>
              <Keyframe id="3420"  time="0/1" value="" leadInLength="0/1"  />
              </Keyframes>
             </Parameter>
             <Parameter id="3421"  name="filename">
              <Keyframes>
              <Keyframe id="3422"  time="0/1" value="C:\Program Files (x86)\TechSmith\Camtasia Studio 8\Media\Studio\Callouts\roundedarrow.xml" leadInLength="0/1"  />
              </Keyframes>
             </Parameter>
             <Parameter id="3423"  name="name">
              <Keyframes>
              <Keyframe id="3424"  time="0/1" value="Rounded Arrow" leadInLength="0/1"  />
              </Keyframes>
             </Parameter>
             <Parameter id="3425"  name="xmlContent">
              <Keyframes>
              <Keyframe id="3426"  time="0/1" value="﻿&lt;?xml version=&quot;1.0&quot;?&gt;&#xa;&#xa;&lt;Overlay version=&quot;1.0.1&quot;&gt;&#xa;&#xa;&lt;Overlay_Filename&gt;roundedarrow.png&lt;/Overlay_Filename&gt;&#xa;&lt;Overlay_Name&gt;Rounded Arrow&lt;/Overlay_Name&gt;&#xa;&lt;Text_Top&gt;-1&lt;/Text_Top&gt;&#xa;&lt;Text_Left&gt;-1&lt;/Text_Left&gt;&#xa;&lt;Text_Bottom&gt;-1&lt;/Text_Bottom&gt;&#xa;&lt;Text_Right&gt;-1&lt;/Text_Right&gt;&#xa;&lt;Fill_Color&gt;1&lt;/Fill_Color&gt;&#xa;&lt;Border_Color&gt;1&lt;/Border_Color&gt;&#xa;&lt;Initial_Fill_Color&gt;0xff017b34&lt;/Initial_Fill_Color&gt;&#xa;&lt;Initial_Border_Color&gt;0xffd7d7d7&lt;/Initial_Border_Color&gt;&#xa;&lt;VectorProps&gt;&#xa;&lt;figure&gt;&#xa;&lt;svg&gt;M29.27,148.243c94.722,0,131.744,0,131.744,0s-6.617,6.619-26.562,26.568&#xa;&#x9;c-33.056,33.055,14.351,79.121,48.086,45.385c13.726-13.723,57.03-57.029,68.668-68.666c21.731-21.732,23.239-49.4,4.19-68.45&#xa;&#x9;c-18.033-18.033-51.981-51.98-73.981-73.98C152.773-19.542,105.138,26.28,131.057,52.2c21.607,21.609,29.957,29.959,29.957,29.959&#xa;&#x9;s-35.786,0-130.057,0C-9.106,82.159-10.93,148.243,29.27,148.243z&lt;/svg&gt;&#xa;&lt;/figure&gt;&#xa;&lt;borderWidth&gt;5.00&lt;/borderWidth&gt;&#xa;&lt;seamY&gt;116.00&lt;/seamY&gt;&#xa;&lt;shapeWidth&gt;269&lt;/shapeWidth&gt;&#xa;&lt;shapeHeight&gt;232&lt;/shapeHeight&gt;&#xa;&lt;/VectorProps&gt;&#xa;&lt;Style&gt;5&lt;/Style&gt;&#xa;&lt;/Overlay&gt;" leadInLength="0/1"  />
              </Keyframes>
             </Parameter>
            </StringParameters>
           </VectorNode>
          </Attribute>
         </Attributes>
         <MetaData>
          <entry key="WinSubProjectDisplayName" val=""/>
         </MetaData>
         <LeftEdgeMods length="24/1" groupName="OpacityFade">
          <EdgeMod parameter="3400">
           <FadeInFunc id="3189"  />
          </EdgeMod>
         </LeftEdgeMods>
         <RightEdgeMods length="5/1" groupName="OpacityFade">
          <EdgeMod parameter="3400">
           <FadeOutFunc id="3427"  />
          </EdgeMod>
         </RightEdgeMods>
         <ExtraData>
          <Entry key="ZoomPanBin">
           <ZoomPanBin id="3428"  >
            <ZoomPanKeyframes>
             <ZoomPanKeyframe id="3429" timeRangeEnd="-9999999/1" timeRangeDuration="0/1" interpolaterName="linr"  />
            </ZoomPanKeyframes>
           </ZoomPanBin>
          </Entry>
         </ExtraData>
        </Callout>
        <Callout id="3430" start="33191" duration="150" scalar="1/1" mediaStart="0/1" mediaDuration="150/1" >
         <Transformer>
          <VectorParam id="3431"  name="translation">
           <InterpolatingParam id="3432" interp="linr"  time="-9999999/1" value="-435.90361445783634" leadInLength="0/1"  />
           <InterpolatingParam id="3433" interp="linr"  time="-9999999/1" value="-24.207831325253068" leadInLength="0/1"  />
           <InterpolatingParam id="3434" interp="linr"  time="-9999999/1" value="-6.8212102632965761e-010" leadInLength="0/1"  />
          </VectorParam>
          <VectorParam id="3435"  name="rotation">
           <InterpolatingParam id="3436" interp="linr"  time="-9999999/1" value="0" leadInLength="0/1"  />
           <InterpolatingParam id="3437" interp="linr"  time="-9999999/1" value="0" leadInLength="0/1"  />
           <InterpolatingParam id="3438" interp="linr"  time="-9999999/1" value="-4.7123889803846897" leadInLength="0/1"  />
          </VectorParam>
          <VectorParam id="3439"  name="shear">
           <InterpolatingParam id="3440" interp="linr"  time="-9999999/1" value="4.5325634618387e-032" leadInLength="0/1"  />
           <InterpolatingParam id="3441" interp="linr"  time="-9999999/1" value="0" leadInLength="0/1"  />
           <InterpolatingParam id="3442" interp="linr"  time="-9999999/1" value="0" leadInLength="0/1"  />
          </VectorParam>
          <VectorParam id="3443"  name="scale">
           <InterpolatingParam id="3444" interp="linr"  time="-9999999/1" value="0.36874257593766702" leadInLength="0/1"  />
           <InterpolatingParam id="3445" interp="linr"  time="-9999999/1" value="0.41760239582751274" leadInLength="0/1"  />
           <InterpolatingParam id="3446" interp="linr"  time="-9999999/1" value="1" leadInLength="0/1"  />
          </VectorParam>
          <VectorParam id="3447"  name="anchor">
           <InterpolatingParam id="3448" interp="linr"  time="0/1" value="0" leadInLength="0/1"  />
           <InterpolatingParam id="3449" interp="linr"  time="0/1" value="0" leadInLength="0/1"  />
           <InterpolatingParam id="3450" interp="linr"  time="0/1" value="0" leadInLength="0/1"  />
          </VectorParam>
         </Transformer>
         <Parameters>
          <VectorParam id="3451"  name="sourceCrop">
           <InterpolatingParam id="3452" interp="linr"  time="0/1" value="0" leadInLength="0/1"  />
           <InterpolatingParam id="3453" interp="linr"  time="0/1" value="0" leadInLength="0/1"  />
           <InterpolatingParam id="3454" interp="linr"  time="0/1" value="0" leadInLength="0/1"  />
           <InterpolatingParam id="3455" interp="linr"  time="0/1" value="0" leadInLength="0/1"  />
          </VectorParam>
          <VectorParam id="3456"  name="geometryCrop">
           <InterpolatingParam id="3457" interp="linr"  time="-9999999/1" value="0" leadInLength="0/1"  />
           <InterpolatingParam id="3458" interp="linr"  time="-9999999/1" value="0" leadInLength="0/1"  />
           <InterpolatingParam id="3459" interp="linr"  time="-9999999/1" value="0" leadInLength="0/1"  />
           <InterpolatingParam id="3460" interp="linr"  time="-9999999/1" value="0" leadInLength="0/1"  />
          </VectorParam>
          <InterpolatingParam id="3461" interp="linr"  time="-9999999/1" value="1" leadInLength="0/1"  name="opacity"/>
         </Parameters>
         <Attributes>
          <Attribute id="3462"  name="vectorNode">
           <VectorNode id="3463" kind="TypeWinXML"  >
            <DoubleParameters>
             <InterpolatingParam id="3464" interp="linr"  time="0/1" value="-1" leadInLength="0/1"  name="CutoutPercentage"/>
             <InterpolatingParam id="3465" interp="linr"  time="0/1" value="-1" leadInLength="0/1"  name="RoundedRectRadius"/>
             <InterpolatingParam id="3466" interp="linr"  time="0/1" value="5" leadInLength="0/1"  name="Style"/>
             <InterpolatingParam id="3467" interp="linr"  time="0/1" value="59" leadInLength="0/1"  name="borderColorBlue"/>
             <InterpolatingParam id="3468" interp="linr"  time="0/1" value="209" leadInLength="0/1"  name="borderColorGreen"/>
             <InterpolatingParam id="3469" interp="linr"  time="0/1" value="127" leadInLength="0/1"  name="borderColorRed"/>
             <InterpolatingParam id="3470" interp="linr"  time="0/1" value="1" leadInLength="0/1"  name="borderState"/>
             <InterpolatingParam id="3471" interp="linr"  time="0/1" value="3" leadInLength="0/1"  name="borderWidth"/>
             <InterpolatingParam id="3472" interp="linr"  time="0/1" value="59" leadInLength="0/1"  name="fillColorBlue"/>
             <InterpolatingParam id="3473" interp="linr"  time="0/1" value="209" leadInLength="0/1"  name="fillColorGreen"/>
             <InterpolatingParam id="3474" interp="linr"  time="0/1" value="127" leadInLength="0/1"  name="fillColorRed"/>
             <InterpolatingParam id="3475" interp="linr"  time="0/1" value="1" leadInLength="0/1"  name="fillState"/>
             <InterpolatingParam id="3476" interp="linr"  time="0/1" value="0" leadInLength="0/1"  name="flipOnXAxis"/>
             <InterpolatingParam id="3477" interp="linr"  time="0/1" value="0" leadInLength="0/1"  name="flipOnYAxis"/>
             <InterpolatingParam id="3478" interp="linr"  time="0/1" value="275.5539033457249" leadInLength="0/1"  name="height"/>
             <InterpolatingParam id="3479" interp="linr"  time="0/1" value="319.5" leadInLength="0/1"  name="width"/>
            </DoubleParameters>
            <StringParameters>
             <Parameter id="3480"  name="VectorPath">
              <Keyframes>
              <Keyframe id="3481"  time="0/1" value="" leadInLength="0/1"  />
              </Keyframes>
             </Parameter>
             <Parameter id="3482"  name="filename">
              <Keyframes>
              <Keyframe id="3483"  time="0/1" value="C:\Program Files (x86)\TechSmith\Camtasia Studio 8\Media\Studio\Callouts\roundedarrow.xml" leadInLength="0/1"  />
              </Keyframes>
             </Parameter>
             <Parameter id="3484"  name="name">
              <Keyframes>
              <Keyframe id="3485"  time="0/1" value="Rounded Arrow" leadInLength="0/1"  />
              </Keyframes>
             </Parameter>
             <Parameter id="3486"  name="xmlContent">
              <Keyframes>
              <Keyframe id="3487"  time="0/1" value="﻿&lt;?xml version=&quot;1.0&quot;?&gt;&#xa;&#xa;&lt;Overlay version=&quot;1.0.1&quot;&gt;&#xa;&#xa;&lt;Overlay_Filename&gt;roundedarrow.png&lt;/Overlay_Filename&gt;&#xa;&lt;Overlay_Name&gt;Rounded Arrow&lt;/Overlay_Name&gt;&#xa;&lt;Text_Top&gt;-1&lt;/Text_Top&gt;&#xa;&lt;Text_Left&gt;-1&lt;/Text_Left&gt;&#xa;&lt;Text_Bottom&gt;-1&lt;/Text_Bottom&gt;&#xa;&lt;Text_Right&gt;-1&lt;/Text_Right&gt;&#xa;&lt;Fill_Color&gt;1&lt;/Fill_Color&gt;&#xa;&lt;Border_Color&gt;1&lt;/Border_Color&gt;&#xa;&lt;Initial_Fill_Color&gt;0xff017b34&lt;/Initial_Fill_Color&gt;&#xa;&lt;Initial_Border_Color&gt;0xffd7d7d7&lt;/Initial_Border_Color&gt;&#xa;&lt;VectorProps&gt;&#xa;&lt;figure&gt;&#xa;&lt;svg&gt;M29.27,148.243c94.722,0,131.744,0,131.744,0s-6.617,6.619-26.562,26.568&#xa;&#x9;c-33.056,33.055,14.351,79.121,48.086,45.385c13.726-13.723,57.03-57.029,68.668-68.666c21.731-21.732,23.239-49.4,4.19-68.45&#xa;&#x9;c-18.033-18.033-51.981-51.98-73.981-73.98C152.773-19.542,105.138,26.28,131.057,52.2c21.607,21.609,29.957,29.959,29.957,29.959&#xa;&#x9;s-35.786,0-130.057,0C-9.106,82.159-10.93,148.243,29.27,148.243z&lt;/svg&gt;&#xa;&lt;/figure&gt;&#xa;&lt;borderWidth&gt;5.00&lt;/borderWidth&gt;&#xa;&lt;seamY&gt;116.00&lt;/seamY&gt;&#xa;&lt;shapeWidth&gt;269&lt;/shapeWidth&gt;&#xa;&lt;shapeHeight&gt;232&lt;/shapeHeight&gt;&#xa;&lt;/VectorProps&gt;&#xa;&lt;Style&gt;5&lt;/Style&gt;&#xa;&lt;/Overlay&gt;" leadInLength="0/1"  />
              </Keyframes>
             </Parameter>
            </StringParameters>
           </VectorNode>
          </Attribute>
         </Attributes>
         <MetaData>
          <entry key="WinSubProjectDisplayName" val=""/>
         </MetaData>
         <LeftEdgeMods length="0/1" groupName="OpacityFade">
          <EdgeMod parameter="3461">
           <FadeInFunc id="3189"  />
          </EdgeMod>
         </LeftEdgeMods>
         <RightEdgeMods length="0/1" groupName="OpacityFade">
          <EdgeMod parameter="3461">
           <FadeOutFunc id="3427"  />
          </EdgeMod>
         </RightEdgeMods>
         <ExtraData>
          <Entry key="ZoomPanBin">
           <ZoomPanBin id="3488"  >
            <ZoomPanKeyframes>
             <ZoomPanKeyframe id="3489" timeRangeEnd="-9999999/1" timeRangeDuration="0/1" interpolaterName="linr"  />
            </ZoomPanKeyframes>
           </ZoomPanBin>
          </Entry>
         </ExtraData>
        </Callout>
        <Callout id="3490" start="33389" duration="150" scalar="1/1" mediaStart="0/1" mediaDuration="150/1" >
         <Transformer>
          <VectorParam id="3491"  name="translation">
           <InterpolatingParam id="3492" interp="linr"  time="-9999999/1" value="-264.57831325299645" leadInLength="0/1"  />
           <InterpolatingParam id="3493" interp="linr"  time="-9999999/1" value="-160.48192771083399" leadInLength="0/1"  />
           <InterpolatingParam id="3494" interp="linr"  time="-9999999/1" value="0" leadInLength="0/1"  />
          </VectorParam>
          <VectorParam id="3495"  name="rotation">
           <InterpolatingParam id="3496" interp="linr"  time="-9999999/1" value="0" leadInLength="0/1"  />
           <InterpolatingParam id="3497" interp="linr"  time="-9999999/1" value="0" leadInLength="0/1"  />
           <InterpolatingParam id="3498" interp="linr"  time="-9999999/1" value="0" leadInLength="0/1"  />
          </VectorParam>
          <VectorParam id="3499"  name="shear">
           <InterpolatingParam id="3500" interp="linr"  time="-9999999/1" value="0" leadInLength="0/1"  />
           <InterpolatingParam id="3501" interp="linr"  time="-9999999/1" value="0" leadInLength="0/1"  />
           <InterpolatingParam id="3502" interp="linr"  time="-9999999/1" value="0" leadInLength="0/1"  />
          </VectorParam>
          <VectorParam id="3503"  name="scale">
           <InterpolatingParam id="3504" interp="linr"  time="-9999999/1" value="1" leadInLength="0/1"  />
           <InterpolatingParam id="3505" interp="linr"  time="-9999999/1" value="1" leadInLength="0/1"  />
           <InterpolatingParam id="3506" interp="linr"  time="-9999999/1" value="1" leadInLength="0/1"  />
          </VectorParam>
          <VectorParam id="3507"  name="anchor">
           <InterpolatingParam id="3508" interp="linr"  time="0/1" value="0" leadInLength="0/1"  />
           <InterpolatingParam id="3509" interp="linr"  time="0/1" value="0" leadInLength="0/1"  />
           <InterpolatingParam id="3510" interp="linr"  time="0/1" value="0" leadInLength="0/1"  />
          </VectorParam>
         </Transformer>
         <Parameters>
          <VectorParam id="3511"  name="sourceCrop">
           <InterpolatingParam id="3512" interp="linr"  time="0/1" value="0" leadInLength="0/1"  />
           <InterpolatingParam id="3513" interp="linr"  time="0/1" value="0" leadInLength="0/1"  />
           <InterpolatingParam id="3514" interp="linr"  time="0/1" value="0" leadInLength="0/1"  />
           <InterpolatingParam id="3515" interp="linr"  time="0/1" value="0" leadInLength="0/1"  />
          </VectorParam>
          <VectorParam id="3516"  name="geometryCrop">
           <InterpolatingParam id="3517" interp="linr"  time="-9999999/1" value="0" leadInLength="0/1"  />
           <InterpolatingParam id="3518" interp="linr"  time="-9999999/1" value="0" leadInLength="0/1"  />
           <InterpolatingParam id="3519" interp="linr"  time="-9999999/1" value="0" leadInLength="0/1"  />
           <InterpolatingParam id="3520" interp="linr"  time="-9999999/1" value="0" leadInLength="0/1"  />
          </VectorParam>
          <InterpolatingParam id="3521" interp="linr"  time="-9999999/1" value="1" leadInLength="0/1"  name="opacity"/>
         </Parameters>
         <Attributes>
          <Attribute id="3522"  name="vectorNode">
           <VectorNode id="3523" kind="TypeWinText"  >
            <DoubleParameters>
             <InterpolatingParam id="3524" interp="linr"  time="0/1" value="5" leadInLength="0/1"  name="Style"/>
             <InterpolatingParam id="3525" interp="linr"  time="0/1" value="0" leadInLength="0/1"  name="dimensionTime"/>
             <InterpolatingParam id="3526" interp="linr"  time="0/1" value="180" leadInLength="0/1"  name="height"/>
             <InterpolatingParam id="3527" interp="linr"  time="0/1" value="0" leadInLength="0/1"  name="textDropShadow"/>
             <InterpolatingParam id="3528" interp="linr"  time="0/1" value="0" leadInLength="0/1"  name="textIgnoresOpacity"/>
             <InterpolatingParam id="3529" interp="linr"  time="0/1" value="1" leadInLength="0/1"  name="textRectHeight"/>
             <InterpolatingParam id="3530" interp="linr"  time="0/1" value="1" leadInLength="0/1"  name="textRectWidth"/>
             <InterpolatingParam id="3531" interp="linr"  time="0/1" value="0" leadInLength="0/1"  name="textRectX"/>
             <InterpolatingParam id="3532" interp="linr"  time="0/1" value="0" leadInLength="0/1"  name="textRectY"/>
             <InterpolatingParam id="3533" interp="linr"  time="0/1" value="0" leadInLength="0/1"  name="textVerticalAlign"/>
             <InterpolatingParam id="3534" interp="linr"  time="0/1" value="319.5" leadInLength="0/1"  name="width"/>
            </DoubleParameters>
            <StringParameters>
             <Parameter id="3535"  name="filename">
              <Keyframes>
              <Keyframe id="3536"  time="0/1" value="C:\Program Files (x86)\TechSmith\Camtasia Studio 8\Media\Studio\Callouts\trans_100x100.xml" leadInLength="0/1"  />
              </Keyframes>
             </Parameter>
             <Parameter id="3537"  name="name">
              <Keyframes>
              <Keyframe id="3538"  time="0/1" value="Text" leadInLength="0/1"  />
              </Keyframes>
             </Parameter>
             <Parameter id="3539"  name="text">
              <Keyframes>
              <Keyframe id="3540"  time="0/1" value="{\rtf1\ansi\ansicpg1252\deff0\deflang1033{\fonttbl{\f0\fswiss\fprq2\fcharset0 Arial Rounded MT Bold;}}&#xD;&#xa;{\colortbl ;\red63\green108\blue25;}&#xD;&#xa;\viewkind4\uc1\pard\qc\cf1\f0\fs52 ACTIVIDAD\par&#xD;&#xa;\par&#xD;&#xa;}&#xD;&#xa;" leadInLength="0/1"  />
              </Keyframes>
             </Parameter>
             <Parameter id="3541"  name="xmlContent">
              <Keyframes>
              <Keyframe id="3542"  time="0/1" value="﻿&lt;?xml version=&quot;1.0&quot;?&gt;&#xa;&#xa;&lt;Overlay version=&quot;1.0.1&quot;&gt;&#xa;&#xa;&lt;Overlay_Filename&gt;trans_100x100.png&lt;/Overlay_Filename&gt;&#xa;&lt;Overlay_Name&gt;Text&lt;/Overlay_Name&gt;&#xa;&lt;Text_Top&gt;0&lt;/Text_Top&gt;&#xa;&lt;Text_Left&gt;0&lt;/Text_Left&gt;&#xa;&lt;Text_Bottom&gt;0&lt;/Text_Bottom&gt;&#xa;&lt;Text_Right&gt;0&lt;/Text_Right&gt;&#xa;&lt;Fill_Color&gt;0&lt;/Fill_Color&gt;&#xa;&lt;Border_Color&gt;0&lt;/Border_Color&gt;&#xa;&lt;Style&gt;5&lt;/Style&gt;&#xa;&lt;/Overlay&gt;" leadInLength="0/1"  />
              </Keyframes>
             </Parameter>
            </StringParameters>
           </VectorNode>
          </Attribute>
         </Attributes>
         <MetaData>
          <entry key="WinSubProjectDisplayName" val=""/>
         </MetaData>
         <LeftEdgeMods length="0/1" groupName="OpacityFade">
          <EdgeMod parameter="3521">
           <FadeInFunc id="3127"  />
          </EdgeMod>
         </LeftEdgeMods>
         <RightEdgeMods length="0/1" groupName="OpacityFade">
          <EdgeMod parameter="3521">
           <FadeOutFunc id="3071"  />
          </EdgeMod>
         </RightEdgeMods>
         <ExtraData>
          <Entry key="ZoomPanBin">
           <ZoomPanBin id="3543"  >
            <ZoomPanKeyframes>
             <ZoomPanKeyframe id="3544" timeRangeEnd="-9999999/1" timeRangeDuration="0/1" interpolaterName="linr"  />
            </ZoomPanKeyframes>
           </ZoomPanBin>
          </Entry>
         </ExtraData>
        </Callout>
        <Callout id="3545" start="33555" duration="150" scalar="1/1" mediaStart="0/1" mediaDuration="150/1" >
         <Transformer>
          <VectorParam id="3546"  name="translation">
           <InterpolatingParam id="3547" interp="linr"  time="-9999999/1" value="-9.7590361445302989" leadInLength="0/1"  />
           <InterpolatingParam id="3548" interp="linr"  time="-9999999/1" value="72.650602409612475" leadInLength="0/1"  />
           <InterpolatingParam id="3549" interp="linr"  time="-9999999/1" value="0" leadInLength="0/1"  />
          </VectorParam>
          <VectorParam id="3550"  name="rotation">
           <InterpolatingParam id="3551" interp="linr"  time="-9999999/1" value="0" leadInLength="0/1"  />
           <InterpolatingParam id="3552" interp="linr"  time="-9999999/1" value="0" leadInLength="0/1"  />
           <InterpolatingParam id="3553" interp="linr"  time="-9999999/1" value="-3.2358011419334005" leadInLength="0/1"  />
          </VectorParam>
          <VectorParam id="3554"  name="shear">
           <InterpolatingParam id="3555" interp="linr"  time="-9999999/1" value="0" leadInLength="0/1"  />
           <InterpolatingParam id="3556" interp="linr"  time="-9999999/1" value="0" leadInLength="0/1"  />
           <InterpolatingParam id="3557" interp="linr"  time="-9999999/1" value="0" leadInLength="0/1"  />
          </VectorParam>
          <VectorParam id="3558"  name="scale">
           <InterpolatingParam id="3559" interp="linr"  time="-9999999/1" value="0.55879857458029569" leadInLength="0/1"  />
           <InterpolatingParam id="3560" interp="linr"  time="-9999999/1" value="0.34677025478053081" leadInLength="0/1"  />
           <InterpolatingParam id="3561" interp="linr"  time="-9999999/1" value="1" leadInLength="0/1"  />
          </VectorParam>
          <VectorParam id="3562"  name="anchor">
           <InterpolatingParam id="3563" interp="linr"  time="0/1" value="0" leadInLength="0/1"  />
           <InterpolatingParam id="3564" interp="linr"  time="0/1" value="0" leadInLength="0/1"  />
           <InterpolatingParam id="3565" interp="linr"  time="0/1" value="0" leadInLength="0/1"  />
          </VectorParam>
         </Transformer>
         <Parameters>
          <VectorParam id="3566"  name="sourceCrop">
           <InterpolatingParam id="3567" interp="linr"  time="0/1" value="0" leadInLength="0/1"  />
           <InterpolatingParam id="3568" interp="linr"  time="0/1" value="0" leadInLength="0/1"  />
           <InterpolatingParam id="3569" interp="linr"  time="0/1" value="0" leadInLength="0/1"  />
           <InterpolatingParam id="3570" interp="linr"  time="0/1" value="0" leadInLength="0/1"  />
          </VectorParam>
          <VectorParam id="3571"  name="geometryCrop">
           <InterpolatingParam id="3572" interp="linr"  time="-9999999/1" value="0" leadInLength="0/1"  />
           <InterpolatingParam id="3573" interp="linr"  time="-9999999/1" value="0" leadInLength="0/1"  />
           <InterpolatingParam id="3574" interp="linr"  time="-9999999/1" value="0" leadInLength="0/1"  />
           <InterpolatingParam id="3575" interp="linr"  time="-9999999/1" value="0" leadInLength="0/1"  />
          </VectorParam>
          <InterpolatingParam id="3576" interp="linr"  time="-9999999/1" value="1" leadInLength="0/1"  name="opacity"/>
         </Parameters>
         <Attributes>
          <Attribute id="3577"  name="vectorNode">
           <VectorNode id="3578" kind="TypeWinXML"  >
            <DoubleParameters>
             <InterpolatingParam id="3579" interp="linr"  time="0/1" value="-1" leadInLength="0/1"  name="CutoutPercentage"/>
             <InterpolatingParam id="3580" interp="linr"  time="0/1" value="-1" leadInLength="0/1"  name="RoundedRectRadius"/>
             <InterpolatingParam id="3581" interp="linr"  time="0/1" value="5" leadInLength="0/1"  name="Style"/>
             <InterpolatingParam id="3582" interp="linr"  time="0/1" value="59" leadInLength="0/1"  name="borderColorBlue"/>
             <InterpolatingParam id="3583" interp="linr"  time="0/1" value="209" leadInLength="0/1"  name="borderColorGreen"/>
             <InterpolatingParam id="3584" interp="linr"  time="0/1" value="127" leadInLength="0/1"  name="borderColorRed"/>
             <InterpolatingParam id="3585" interp="linr"  time="0/1" value="1" leadInLength="0/1"  name="borderState"/>
             <InterpolatingParam id="3586" interp="linr"  time="0/1" value="3" leadInLength="0/1"  name="borderWidth"/>
             <InterpolatingParam id="3587" interp="linr"  time="0/1" value="59" leadInLength="0/1"  name="fillColorBlue"/>
             <InterpolatingParam id="3588" interp="linr"  time="0/1" value="209" leadInLength="0/1"  name="fillColorGreen"/>
             <InterpolatingParam id="3589" interp="linr"  time="0/1" value="127" leadInLength="0/1"  name="fillColorRed"/>
             <InterpolatingParam id="3590" interp="linr"  time="0/1" value="1" leadInLength="0/1"  name="fillState"/>
             <InterpolatingParam id="3591" interp="linr"  time="0/1" value="0" leadInLength="0/1"  name="flipOnXAxis"/>
             <InterpolatingParam id="3592" interp="linr"  time="0/1" value="0" leadInLength="0/1"  name="flipOnYAxis"/>
             <InterpolatingParam id="3593" interp="linr"  time="0/1" value="275.5539033457249" leadInLength="0/1"  name="height"/>
             <InterpolatingParam id="3594" interp="linr"  time="0/1" value="319.5" leadInLength="0/1"  name="width"/>
            </DoubleParameters>
            <StringParameters>
             <Parameter id="3595"  name="VectorPath">
              <Keyframes>
              <Keyframe id="3596"  time="0/1" value="" leadInLength="0/1"  />
              </Keyframes>
             </Parameter>
             <Parameter id="3597"  name="filename">
              <Keyframes>
              <Keyframe id="3598"  time="0/1" value="C:\Program Files (x86)\TechSmith\Camtasia Studio 8\Media\Studio\Callouts\roundedarrow.xml" leadInLength="0/1"  />
              </Keyframes>
             </Parameter>
             <Parameter id="3599"  name="name">
              <Keyframes>
              <Keyframe id="3600"  time="0/1" value="Rounded Arrow" leadInLength="0/1"  />
              </Keyframes>
             </Parameter>
             <Parameter id="3601"  name="xmlContent">
              <Keyframes>
              <Keyframe id="3602"  time="0/1" value="﻿&lt;?xml version=&quot;1.0&quot;?&gt;&#xa;&#xa;&lt;Overlay version=&quot;1.0.1&quot;&gt;&#xa;&#xa;&lt;Overlay_Filename&gt;roundedarrow.png&lt;/Overlay_Filename&gt;&#xa;&lt;Overlay_Name&gt;Rounded Arrow&lt;/Overlay_Name&gt;&#xa;&lt;Text_Top&gt;-1&lt;/Text_Top&gt;&#xa;&lt;Text_Left&gt;-1&lt;/Text_Left&gt;&#xa;&lt;Text_Bottom&gt;-1&lt;/Text_Bottom&gt;&#xa;&lt;Text_Right&gt;-1&lt;/Text_Right&gt;&#xa;&lt;Fill_Color&gt;1&lt;/Fill_Color&gt;&#xa;&lt;Border_Color&gt;1&lt;/Border_Color&gt;&#xa;&lt;Initial_Fill_Color&gt;0xff017b34&lt;/Initial_Fill_Color&gt;&#xa;&lt;Initial_Border_Color&gt;0xffd7d7d7&lt;/Initial_Border_Color&gt;&#xa;&lt;VectorProps&gt;&#xa;&lt;figure&gt;&#xa;&lt;svg&gt;M29.27,148.243c94.722,0,131.744,0,131.744,0s-6.617,6.619-26.562,26.568&#xa;&#x9;c-33.056,33.055,14.351,79.121,48.086,45.385c13.726-13.723,57.03-57.029,68.668-68.666c21.731-21.732,23.239-49.4,4.19-68.45&#xa;&#x9;c-18.033-18.033-51.981-51.98-73.981-73.98C152.773-19.542,105.138,26.28,131.057,52.2c21.607,21.609,29.957,29.959,29.957,29.959&#xa;&#x9;s-35.786,0-130.057,0C-9.106,82.159-10.93,148.243,29.27,148.243z&lt;/svg&gt;&#xa;&lt;/figure&gt;&#xa;&lt;borderWidth&gt;5.00&lt;/borderWidth&gt;&#xa;&lt;seamY&gt;116.00&lt;/seamY&gt;&#xa;&lt;shapeWidth&gt;269&lt;/shapeWidth&gt;&#xa;&lt;shapeHeight&gt;232&lt;/shapeHeight&gt;&#xa;&lt;/VectorProps&gt;&#xa;&lt;Style&gt;5&lt;/Style&gt;&#xa;&lt;/Overlay&gt;" leadInLength="0/1"  />
              </Keyframes>
             </Parameter>
            </StringParameters>
           </VectorNode>
          </Attribute>
         </Attributes>
         <MetaData>
          <entry key="WinSubProjectDisplayName" val=""/>
         </MetaData>
         <LeftEdgeMods length="0/1" groupName="OpacityFade">
          <EdgeMod parameter="3576">
           <FadeInFunc id="3189"  />
          </EdgeMod>
         </LeftEdgeMods>
         <RightEdgeMods length="0/1" groupName="OpacityFade">
          <EdgeMod parameter="3576">
           <FadeOutFunc id="3189"  />
          </EdgeMod>
         </RightEdgeMods>
         <ExtraData>
          <Entry key="ZoomPanBin">
           <ZoomPanBin id="3603"  >
            <ZoomPanKeyframes>
             <ZoomPanKeyframe id="3604" timeRangeEnd="-9999999/1" timeRangeDuration="0/1" interpolaterName="linr"  />
            </ZoomPanKeyframes>
           </ZoomPanBin>
          </Entry>
         </ExtraData>
        </Callout>
        <Callout id="3605" start="33761" duration="150" scalar="1/1" mediaStart="0/1" mediaDuration="150/1" >
         <Transformer>
          <VectorParam id="3606"  name="translation">
           <InterpolatingParam id="3607" interp="linr"  time="-9999999/1" value="23.374809126469302" leadInLength="0/1"  />
           <InterpolatingParam id="3608" interp="linr"  time="-9999999/1" value="-15.12984723778948" leadInLength="0/1"  />
           <InterpolatingParam id="3609" interp="linr"  time="-9999999/1" value="0" leadInLength="0/1"  />
          </VectorParam>
          <VectorParam id="3610"  name="rotation">
           <InterpolatingParam id="3611" interp="linr"  time="-9999999/1" value="0" leadInLength="0/1"  />
           <InterpolatingParam id="3612" interp="linr"  time="-9999999/1" value="0" leadInLength="0/1"  />
           <InterpolatingParam id="3613" interp="linr"  time="-9999999/1" value="-4.8178520855193145" leadInLength="0/1"  />
          </VectorParam>
          <VectorParam id="3614"  name="shear">
           <InterpolatingParam id="3615" interp="linr"  time="-9999999/1" value="0" leadInLength="0/1"  />
           <InterpolatingParam id="3616" interp="linr"  time="-9999999/1" value="0" leadInLength="0/1"  />
           <InterpolatingParam id="3617" interp="linr"  time="-9999999/1" value="0" leadInLength="0/1"  />
          </VectorParam>
          <VectorParam id="3618"  name="scale">
           <InterpolatingParam id="3619" interp="linr"  time="-9999999/1" value="0.44145645957112989" leadInLength="0/1"  />
           <InterpolatingParam id="3620" interp="linr"  time="-9999999/1" value="0.44121310951055021" leadInLength="0/1"  />
           <InterpolatingParam id="3621" interp="linr"  time="-9999999/1" value="1" leadInLength="0/1"  />
          </VectorParam>
          <VectorParam id="3622"  name="anchor">
           <InterpolatingParam id="3623" interp="linr"  time="0/1" value="0" leadInLength="0/1"  />
           <InterpolatingParam id="3624" interp="linr"  time="0/1" value="0" leadInLength="0/1"  />
           <InterpolatingParam id="3625" interp="linr"  time="0/1" value="0" leadInLength="0/1"  />
          </VectorParam>
         </Transformer>
         <Parameters>
          <VectorParam id="3626"  name="sourceCrop">
           <InterpolatingParam id="3627" interp="linr"  time="0/1" value="0" leadInLength="0/1"  />
           <InterpolatingParam id="3628" interp="linr"  time="0/1" value="0" leadInLength="0/1"  />
           <InterpolatingParam id="3629" interp="linr"  time="0/1" value="0" leadInLength="0/1"  />
           <InterpolatingParam id="3630" interp="linr"  time="0/1" value="0" leadInLength="0/1"  />
          </VectorParam>
          <VectorParam id="3631"  name="geometryCrop">
           <InterpolatingParam id="3632" interp="linr"  time="-9999999/1" value="0" leadInLength="0/1"  />
           <InterpolatingParam id="3633" interp="linr"  time="-9999999/1" value="0" leadInLength="0/1"  />
           <InterpolatingParam id="3634" interp="linr"  time="-9999999/1" value="0" leadInLength="0/1"  />
           <InterpolatingParam id="3635" interp="linr"  time="-9999999/1" value="0" leadInLength="0/1"  />
          </VectorParam>
          <InterpolatingParam id="3636" interp="linr"  time="-9999999/1" value="1" leadInLength="0/1"  name="opacity"/>
         </Parameters>
         <Attributes>
          <Attribute id="3637"  name="vectorNode">
           <VectorNode id="3638" kind="TypeWinXML"  >
            <DoubleParameters>
             <InterpolatingParam id="3639" interp="linr"  time="0/1" value="-1" leadInLength="0/1"  name="CutoutPercentage"/>
             <InterpolatingParam id="3640" interp="linr"  time="0/1" value="-1" leadInLength="0/1"  name="RoundedRectRadius"/>
             <InterpolatingParam id="3641" interp="linr"  time="0/1" value="5" leadInLength="0/1"  name="Style"/>
             <InterpolatingParam id="3642" interp="linr"  time="0/1" value="59" leadInLength="0/1"  name="borderColorBlue"/>
             <InterpolatingParam id="3643" interp="linr"  time="0/1" value="209" leadInLength="0/1"  name="borderColorGreen"/>
             <InterpolatingParam id="3644" interp="linr"  time="0/1" value="127" leadInLength="0/1"  name="borderColorRed"/>
             <InterpolatingParam id="3645" interp="linr"  time="0/1" value="1" leadInLength="0/1"  name="borderState"/>
             <InterpolatingParam id="3646" interp="linr"  time="0/1" value="3" leadInLength="0/1"  name="borderWidth"/>
             <InterpolatingParam id="3647" interp="linr"  time="0/1" value="59" leadInLength="0/1"  name="fillColorBlue"/>
             <InterpolatingParam id="3648" interp="linr"  time="0/1" value="209" leadInLength="0/1"  name="fillColorGreen"/>
             <InterpolatingParam id="3649" interp="linr"  time="0/1" value="127" leadInLength="0/1"  name="fillColorRed"/>
             <InterpolatingParam id="3650" interp="linr"  time="0/1" value="1" leadInLength="0/1"  name="fillState"/>
             <InterpolatingParam id="3651" interp="linr"  time="0/1" value="0" leadInLength="0/1"  name="flipOnXAxis"/>
             <InterpolatingParam id="3652" interp="linr"  time="0/1" value="0" leadInLength="0/1"  name="flipOnYAxis"/>
             <InterpolatingParam id="3653" interp="linr"  time="0/1" value="275.5539033457249" leadInLength="0/1"  name="height"/>
             <InterpolatingParam id="3654" interp="linr"  time="0/1" value="319.5" leadInLength="0/1"  name="width"/>
            </DoubleParameters>
            <StringParameters>
             <Parameter id="3655"  name="VectorPath">
              <Keyframes>
              <Keyframe id="3656"  time="0/1" value="" leadInLength="0/1"  />
              </Keyframes>
             </Parameter>
             <Parameter id="3657"  name="filename">
              <Keyframes>
              <Keyframe id="3658"  time="0/1" value="C:\Program Files (x86)\TechSmith\Camtasia Studio 8\Media\Studio\Callouts\roundedarrow.xml" leadInLength="0/1"  />
              </Keyframes>
             </Parameter>
             <Parameter id="3659"  name="name">
              <Keyframes>
              <Keyframe id="3660"  time="0/1" value="Rounded Arrow" leadInLength="0/1"  />
              </Keyframes>
             </Parameter>
             <Parameter id="3661"  name="xmlContent">
              <Keyframes>
              <Keyframe id="3662"  time="0/1" value="﻿&lt;?xml version=&quot;1.0&quot;?&gt;&#xa;&#xa;&lt;Overlay version=&quot;1.0.1&quot;&gt;&#xa;&#xa;&lt;Overlay_Filename&gt;roundedarrow.png&lt;/Overlay_Filename&gt;&#xa;&lt;Overlay_Name&gt;Rounded Arrow&lt;/Overlay_Name&gt;&#xa;&lt;Text_Top&gt;-1&lt;/Text_Top&gt;&#xa;&lt;Text_Left&gt;-1&lt;/Text_Left&gt;&#xa;&lt;Text_Bottom&gt;-1&lt;/Text_Bottom&gt;&#xa;&lt;Text_Right&gt;-1&lt;/Text_Right&gt;&#xa;&lt;Fill_Color&gt;1&lt;/Fill_Color&gt;&#xa;&lt;Border_Color&gt;1&lt;/Border_Color&gt;&#xa;&lt;Initial_Fill_Color&gt;0xff017b34&lt;/Initial_Fill_Color&gt;&#xa;&lt;Initial_Border_Color&gt;0xffd7d7d7&lt;/Initial_Border_Color&gt;&#xa;&lt;VectorProps&gt;&#xa;&lt;figure&gt;&#xa;&lt;svg&gt;M29.27,148.243c94.722,0,131.744,0,131.744,0s-6.617,6.619-26.562,26.568&#xa;&#x9;c-33.056,33.055,14.351,79.121,48.086,45.385c13.726-13.723,57.03-57.029,68.668-68.666c21.731-21.732,23.239-49.4,4.19-68.45&#xa;&#x9;c-18.033-18.033-51.981-51.98-73.981-73.98C152.773-19.542,105.138,26.28,131.057,52.2c21.607,21.609,29.957,29.959,29.957,29.959&#xa;&#x9;s-35.786,0-130.057,0C-9.106,82.159-10.93,148.243,29.27,148.243z&lt;/svg&gt;&#xa;&lt;/figure&gt;&#xa;&lt;borderWidth&gt;5.00&lt;/borderWidth&gt;&#xa;&lt;seamY&gt;116.00&lt;/seamY&gt;&#xa;&lt;shapeWidth&gt;269&lt;/shapeWidth&gt;&#xa;&lt;shapeHeight&gt;232&lt;/shapeHeight&gt;&#xa;&lt;/VectorProps&gt;&#xa;&lt;Style&gt;5&lt;/Style&gt;&#xa;&lt;/Overlay&gt;" leadInLength="0/1"  />
              </Keyframes>
             </Parameter>
            </StringParameters>
           </VectorNode>
          </Attribute>
         </Attributes>
         <MetaData>
          <entry key="WinSubProjectDisplayName" val=""/>
         </MetaData>
         <LeftEdgeMods length="0/1" groupName="OpacityFade">
          <EdgeMod parameter="3636">
           <FadeInFunc id="3070"  />
          </EdgeMod>
         </LeftEdgeMods>
         <RightEdgeMods length="0/1" groupName="OpacityFade">
          <EdgeMod parameter="3636">
           <FadeOutFunc id="3188"  />
          </EdgeMod>
         </RightEdgeMods>
         <ExtraData>
          <Entry key="ZoomPanBin">
           <ZoomPanBin id="3663"  >
            <ZoomPanKeyframes>
             <ZoomPanKeyframe id="3664" timeRangeEnd="-9999999/1" timeRangeDuration="0/1" interpolaterName="linr"  />
            </ZoomPanKeyframes>
           </ZoomPanBin>
          </Entry>
         </ExtraData>
        </Callout>
        <Callout id="3665" start="35948" duration="1" scalar="1/1" mediaStart="179/1" mediaDuration="1/1" >
         <Transformer>
          <VectorParam id="3666"  name="translation">
           <InterpolatingParam id="3667" interp="linr"  time="-9999999/1" value="-179.99999999998946" leadInLength="0/1"  />
           <InterpolatingParam id="3668" interp="linr"  time="-9999999/1" value="-199.51807228914492" leadInLength="0/1"  />
           <InterpolatingParam id="3669" interp="linr"  time="-9999999/1" value="0" leadInLength="0/1"  />
          </VectorParam>
          <VectorParam id="3670"  name="rotation">
           <InterpolatingParam id="3671" interp="linr"  time="-9999999/1" value="0" leadInLength="0/1"  />
           <InterpolatingParam id="3672" interp="linr"  time="-9999999/1" value="0" leadInLength="0/1"  />
           <InterpolatingParam id="3673" interp="linr"  time="-9999999/1" value="0" leadInLength="0/1"  />
          </VectorParam>
          <VectorParam id="3674"  name="shear">
           <InterpolatingParam id="3675" interp="linr"  time="-9999999/1" value="0" leadInLength="0/1"  />
           <InterpolatingParam id="3676" interp="linr"  time="-9999999/1" value="0" leadInLength="0/1"  />
           <InterpolatingParam id="3677" interp="linr"  time="-9999999/1" value="0" leadInLength="0/1"  />
          </VectorParam>
          <VectorParam id="3678"  name="scale">
           <InterpolatingParam id="3679" interp="linr"  time="-9999999/1" value="1" leadInLength="0/1"  />
           <InterpolatingParam id="3680" interp="linr"  time="-9999999/1" value="1" leadInLength="0/1"  />
           <InterpolatingParam id="3681" interp="linr"  time="-9999999/1" value="1" leadInLength="0/1"  />
          </VectorParam>
          <VectorParam id="3682"  name="anchor">
           <InterpolatingParam id="3683" interp="linr"  time="0/1" value="0" leadInLength="0/1"  />
           <InterpolatingParam id="3684" interp="linr"  time="0/1" value="0" leadInLength="0/1"  />
           <InterpolatingParam id="3685" interp="linr"  time="0/1" value="0" leadInLength="0/1"  />
          </VectorParam>
         </Transformer>
         <Parameters>
          <VectorParam id="3686"  name="sourceCrop">
           <InterpolatingParam id="3687" interp="linr"  time="0/1" value="0" leadInLength="0/1"  />
           <InterpolatingParam id="3688" interp="linr"  time="0/1" value="0" leadInLength="0/1"  />
           <InterpolatingParam id="3689" interp="linr"  time="0/1" value="0" leadInLength="0/1"  />
           <InterpolatingParam id="3690" interp="linr"  time="0/1" value="0" leadInLength="0/1"  />
          </VectorParam>
          <VectorParam id="3691"  name="geometryCrop">
           <InterpolatingParam id="3692" interp="linr"  time="-9999999/1" value="0" leadInLength="0/1"  />
           <InterpolatingParam id="3693" interp="linr"  time="-9999999/1" value="0" leadInLength="0/1"  />
           <InterpolatingParam id="3694" interp="linr"  time="-9999999/1" value="0" leadInLength="0/1"  />
           <InterpolatingParam id="3695" interp="linr"  time="-9999999/1" value="0" leadInLength="0/1"  />
          </VectorParam>
          <InterpolatingParam id="3696" interp="linr"  time="-9999999/1" value="1" leadInLength="0/1"  name="opacity"/>
         </Parameters>
         <Attributes>
          <Attribute id="3697"  name="vectorNode">
           <VectorNode id="3698" kind="TypeWinText"  >
            <DoubleParameters>
             <InterpolatingParam id="3699" interp="linr"  time="0/1" value="5" leadInLength="0/1"  name="Style"/>
             <InterpolatingParam id="3700" interp="linr"  time="0/1" value="0" leadInLength="0/1"  name="dimensionTime"/>
             <InterpolatingParam id="3701" interp="linr"  time="0/1" value="180" leadInLength="0/1"  name="height"/>
             <InterpolatingParam id="3702" interp="linr"  time="0/1" value="0" leadInLength="0/1"  name="textDropShadow"/>
             <InterpolatingParam id="3703" interp="linr"  time="0/1" value="0" leadInLength="0/1"  name="textIgnoresOpacity"/>
             <InterpolatingParam id="3704" interp="linr"  time="0/1" value="1" leadInLength="0/1"  name="textRectHeight"/>
             <InterpolatingParam id="3705" interp="linr"  time="0/1" value="1" leadInLength="0/1"  name="textRectWidth"/>
             <InterpolatingParam id="3706" interp="linr"  time="0/1" value="0" leadInLength="0/1"  name="textRectX"/>
             <InterpolatingParam id="3707" interp="linr"  time="0/1" value="0" leadInLength="0/1"  name="textRectY"/>
             <InterpolatingParam id="3708" interp="linr"  time="0/1" value="0" leadInLength="0/1"  name="textVerticalAlign"/>
             <InterpolatingParam id="3709" interp="linr"  time="0/1" value="319.5" leadInLength="0/1"  name="width"/>
            </DoubleParameters>
            <StringParameters>
             <Parameter id="3710"  name="filename">
              <Keyframes>
              <Keyframe id="3711"  time="0/1" value="C:\Program Files (x86)\TechSmith\Camtasia Studio 8\Media\Studio\Callouts\trans_100x100.xml" leadInLength="0/1"  />
              </Keyframes>
             </Parameter>
             <Parameter id="3712"  name="name">
              <Keyframes>
              <Keyframe id="3713"  time="0/1" value="Text" leadInLength="0/1"  />
              </Keyframes>
             </Parameter>
             <Parameter id="3714"  name="text">
              <Keyframes>
              <Keyframe id="3715"  time="0/1" value="{\rtf1\ansi\ansicpg1252\deff0\deflang1033{\fonttbl{\f0\fswiss\fprq2\fcharset0 Arial Rounded MT Bold;}}&#xD;&#xa;{\colortbl ;\red63\green108\blue25;}&#xD;&#xa;\viewkind4\uc1\pard\qc\cf1\f0\fs52 FIN\par&#xD;&#xa;DIAGRAMA\par&#xD;&#xa;\par&#xD;&#xa;}&#xD;&#xa;" leadInLength="0/1"  />
              </Keyframes>
             </Parameter>
             <Parameter id="3716"  name="xmlContent">
              <Keyframes>
              <Keyframe id="3717"  time="0/1" value="﻿&lt;?xml version=&quot;1.0&quot;?&gt;&#xa;&#xa;&lt;Overlay version=&quot;1.0.1&quot;&gt;&#xa;&#xa;&lt;Overlay_Filename&gt;trans_100x100.png&lt;/Overlay_Filename&gt;&#xa;&lt;Overlay_Name&gt;Text&lt;/Overlay_Name&gt;&#xa;&lt;Text_Top&gt;0&lt;/Text_Top&gt;&#xa;&lt;Text_Left&gt;0&lt;/Text_Left&gt;&#xa;&lt;Text_Bottom&gt;0&lt;/Text_Bottom&gt;&#xa;&lt;Text_Right&gt;0&lt;/Text_Right&gt;&#xa;&lt;Fill_Color&gt;0&lt;/Fill_Color&gt;&#xa;&lt;Border_Color&gt;0&lt;/Border_Color&gt;&#xa;&lt;Style&gt;5&lt;/Style&gt;&#xa;&lt;/Overlay&gt;" leadInLength="0/1"  />
              </Keyframes>
             </Parameter>
            </StringParameters>
           </VectorNode>
          </Attribute>
         </Attributes>
         <MetaData>
          <entry key="WinSubProjectDisplayName" val=""/>
         </MetaData>
         <LeftEdgeMods length="0/1" groupName="OpacityFade">
          <EdgeMod parameter="3696">
           <FadeInFunc id="3070"  />
          </EdgeMod>
         </LeftEdgeMods>
         <RightEdgeMods length="0/1" groupName="OpacityFade">
          <EdgeMod parameter="3696">
           <FadeOutFunc id="3071"  />
          </EdgeMod>
         </RightEdgeMods>
         <ExtraData>
          <Entry key="ZoomPanBin">
           <ZoomPanBin id="3718"  >
            <ZoomPanKeyframes>
             <ZoomPanKeyframe id="3719" timeRangeEnd="-9999999/1" timeRangeDuration="0/1" interpolaterName="linr"  />
            </ZoomPanKeyframes>
           </ZoomPanBin>
          </Entry>
         </ExtraData>
        </Callout>
       </Medias>
      </GenericTrack>
      <GenericTrack id="3720"  >
       <Attributes>
        <Attribute id="3721" value="" name="ident"/>
        <Attribute id="3722" value="0" name="audioMuted"/>
        <Attribute id="3723" value="0" name="videoHidden"/>
       </Attributes>
       <MetaData>
        <entry key="IsLocked" val="False"/>
        <entry key="WinTrackHeight" val="62"/>
       </MetaData>
       <Medias>
        <Callout id="3724" start="572" duration="62" scalar="1/1" mediaStart="6/1" mediaDuration="62/1" >
         <Transformer>
          <VectorParam id="3725"  name="translation">
           <InterpolatingParam id="3726" interp="linr"  time="-9999999/1" value="-514.19616984387517" leadInLength="0/1"  />
           <InterpolatingParam id="3727" interp="linr"  time="-9999999/1" value="-81.875299018822673" leadInLength="0/1"  />
           <InterpolatingParam id="3728" interp="linr"  time="-9999999/1" value="0" leadInLength="0/1"  />
          </VectorParam>
          <VectorParam id="3729"  name="rotation">
           <InterpolatingParam id="3730" interp="linr"  time="-9999999/1" value="0" leadInLength="0/1"  />
           <InterpolatingParam id="3731" interp="linr"  time="-9999999/1" value="0" leadInLength="0/1"  />
           <InterpolatingParam id="3732" interp="linr"  time="-9999999/1" value="0" leadInLength="0/1"  />
          </VectorParam>
          <VectorParam id="3733"  name="shear">
           <InterpolatingParam id="3734" interp="linr"  time="-9999999/1" value="0" leadInLength="0/1"  />
           <InterpolatingParam id="3735" interp="linr"  time="-9999999/1" value="0" leadInLength="0/1"  />
           <InterpolatingParam id="3736" interp="linr"  time="-9999999/1" value="0" leadInLength="0/1"  />
          </VectorParam>
          <VectorParam id="3737"  name="scale">
           <InterpolatingParam id="3738" interp="linr"  time="-9999999/1" value="1" leadInLength="0/1"  />
           <InterpolatingParam id="3739" interp="linr"  time="-9999999/1" value="1" leadInLength="0/1"  />
           <InterpolatingParam id="3740" interp="linr"  time="-9999999/1" value="1" leadInLength="0/1"  />
          </VectorParam>
          <VectorParam id="3741"  name="anchor">
           <InterpolatingParam id="3742" interp="linr"  time="0/1" value="0" leadInLength="0/1"  />
           <InterpolatingParam id="3743" interp="linr"  time="0/1" value="0" leadInLength="0/1"  />
           <InterpolatingParam id="3744" interp="linr"  time="0/1" value="0" leadInLength="0/1"  />
          </VectorParam>
         </Transformer>
         <Parameters>
          <VectorParam id="3745"  name="sourceCrop">
           <InterpolatingParam id="3746" interp="linr"  time="0/1" value="0" leadInLength="0/1"  />
           <InterpolatingParam id="3747" interp="linr"  time="0/1" value="0" leadInLength="0/1"  />
           <InterpolatingParam id="3748" interp="linr"  time="0/1" value="0" leadInLength="0/1"  />
           <InterpolatingParam id="3749" interp="linr"  time="0/1" value="0" leadInLength="0/1"  />
          </VectorParam>
          <VectorParam id="3750"  name="geometryCrop">
           <InterpolatingParam id="3751" interp="linr"  time="-9999999/1" value="0" leadInLength="0/1"  />
           <InterpolatingParam id="3752" interp="linr"  time="-9999999/1" value="0" leadInLength="0/1"  />
           <InterpolatingParam id="3753" interp="linr"  time="-9999999/1" value="0" leadInLength="0/1"  />
           <InterpolatingParam id="3754" interp="linr"  time="-9999999/1" value="0" leadInLength="0/1"  />
          </VectorParam>
          <InterpolatingParam id="3755" interp="linr"  time="-9999999/1" value="1" leadInLength="0/1"  name="opacity"/>
         </Parameters>
         <Attributes>
          <Attribute id="3756"  name="vectorNode">
           <VectorNode id="3757" kind="TypeWinText"  >
            <DoubleParameters>
             <InterpolatingParam id="3758" interp="linr"  time="0/1" value="5" leadInLength="0/1"  name="Style"/>
             <InterpolatingParam id="3759" interp="linr"  time="0/1" value="0" leadInLength="0/1"  name="dimensionTime"/>
             <InterpolatingParam id="3760" interp="linr"  time="0/1" value="180" leadInLength="0/1"  name="height"/>
             <InterpolatingParam id="3761" interp="linr"  time="0/1" value="0" leadInLength="0/1"  name="textDropShadow"/>
             <InterpolatingParam id="3762" interp="linr"  time="0/1" value="0" leadInLength="0/1"  name="textIgnoresOpacity"/>
             <InterpolatingParam id="3763" interp="linr"  time="0/1" value="1" leadInLength="0/1"  name="textRectHeight"/>
             <InterpolatingParam id="3764" interp="linr"  time="0/1" value="1" leadInLength="0/1"  name="textRectWidth"/>
             <InterpolatingParam id="3765" interp="linr"  time="0/1" value="0" leadInLength="0/1"  name="textRectX"/>
             <InterpolatingParam id="3766" interp="linr"  time="0/1" value="0" leadInLength="0/1"  name="textRectY"/>
             <InterpolatingParam id="3767" interp="linr"  time="0/1" value="0" leadInLength="0/1"  name="textVerticalAlign"/>
             <InterpolatingParam id="3768" interp="linr"  time="0/1" value="319.5" leadInLength="0/1"  name="width"/>
            </DoubleParameters>
            <StringParameters>
             <Parameter id="3769"  name="filename">
              <Keyframes>
              <Keyframe id="3770"  time="0/1" value="C:\Program Files (x86)\TechSmith\Camtasia Studio 8\Media\Studio\Callouts\trans_100x100.xml" leadInLength="0/1"  />
              </Keyframes>
             </Parameter>
             <Parameter id="3771"  name="name">
              <Keyframes>
              <Keyframe id="3772"  time="0/1" value="Text" leadInLength="0/1"  />
              </Keyframes>
             </Parameter>
             <Parameter id="3773"  name="text">
              <Keyframes>
              <Keyframe id="3774"  time="0/1" value="{\rtf1\ansi\ansicpg1252\deff0\deflang1033{\fonttbl{\f0\fswiss\fprq2\fcharset0 Arial Rounded MT Bold;}{\f1\fswiss\fprq2\fcharset0 Arial;}}&#xD;&#xa;{\colortbl ;\red63\green108\blue25;\red0\green0\blue0;}&#xD;&#xa;\viewkind4\uc1\pard\qc\cf1\f0\fs52  ACTOR\cf2\f1\fs32\par&#xD;&#xa;}&#xD;&#xa;" leadInLength="0/1"  />
              </Keyframes>
             </Parameter>
             <Parameter id="3775"  name="xmlContent">
              <Keyframes>
              <Keyframe id="3776"  time="0/1" value="﻿&lt;?xml version=&quot;1.0&quot;?&gt;&#xa;&#xa;&lt;Overlay version=&quot;1.0.1&quot;&gt;&#xa;&#xa;&lt;Overlay_Filename&gt;trans_100x100.png&lt;/Overlay_Filename&gt;&#xa;&lt;Overlay_Name&gt;Text&lt;/Overlay_Name&gt;&#xa;&lt;Text_Top&gt;0&lt;/Text_Top&gt;&#xa;&lt;Text_Left&gt;0&lt;/Text_Left&gt;&#xa;&lt;Text_Bottom&gt;0&lt;/Text_Bottom&gt;&#xa;&lt;Text_Right&gt;0&lt;/Text_Right&gt;&#xa;&lt;Fill_Color&gt;0&lt;/Fill_Color&gt;&#xa;&lt;Border_Color&gt;0&lt;/Border_Color&gt;&#xa;&lt;Style&gt;5&lt;/Style&gt;&#xa;&lt;/Overlay&gt;" leadInLength="0/1"  />
              </Keyframes>
             </Parameter>
            </StringParameters>
           </VectorNode>
          </Attribute>
         </Attributes>
         <MetaData>
          <entry key="WinSubProjectDisplayName" val=""/>
         </MetaData>
         <LeftEdgeMods length="24/1" groupName="OpacityFade">
          <EdgeMod parameter="3755">
           <FadeInFunc id="3189"  />
          </EdgeMod>
         </LeftEdgeMods>
         <RightEdgeMods length="5/1" groupName="OpacityFade">
          <EdgeMod parameter="3755">
           <FadeOutFunc id="3189"  />
          </EdgeMod>
         </RightEdgeMods>
         <ExtraData>
          <Entry key="ZoomPanBin">
           <ZoomPanBin id="3777"  >
            <ZoomPanKeyframes>
             <ZoomPanKeyframe id="3778" timeRangeEnd="-9999999/1" timeRangeDuration="0/1" interpolaterName="linr"  />
            </ZoomPanKeyframes>
           </ZoomPanBin>
          </Entry>
         </ExtraData>
        </Callout>
        <Callout id="3779" start="638" duration="63" scalar="1/1" mediaStart="0/1" mediaDuration="63/1" >
         <Transformer>
          <VectorParam id="3780"  name="translation">
           <InterpolatingParam id="3781" interp="linr"  time="-9999999/1" value="-6.0152930448598081" leadInLength="0/1"  />
           <InterpolatingParam id="3782" interp="linr"  time="-9999999/1" value="88.217546346531165" leadInLength="0/1"  />
           <InterpolatingParam id="3783" interp="linr"  time="-9999999/1" value="0" leadInLength="0/1"  />
          </VectorParam>
          <VectorParam id="3784"  name="rotation">
           <InterpolatingParam id="3785" interp="linr"  time="-9999999/1" value="0" leadInLength="0/1"  />
           <InterpolatingParam id="3786" interp="linr"  time="-9999999/1" value="0" leadInLength="0/1"  />
           <InterpolatingParam id="3787" interp="linr"  time="-9999999/1" value="-0.59230365229367621" leadInLength="0/1"  />
          </VectorParam>
          <VectorParam id="3788"  name="shear">
           <InterpolatingParam id="3789" interp="linr"  time="-9999999/1" value="-1.5803951997413307e-016" leadInLength="0/1"  />
           <InterpolatingParam id="3790" interp="linr"  time="-9999999/1" value="0" leadInLength="0/1"  />
           <InterpolatingParam id="3791" interp="linr"  time="-9999999/1" value="0" leadInLength="0/1"  />
          </VectorParam>
          <VectorParam id="3792"  name="scale">
           <InterpolatingParam id="3793" interp="linr"  time="-9999999/1" value="0.51326056515495877" leadInLength="0/1"  />
           <InterpolatingParam id="3794" interp="linr"  time="-9999999/1" value="0.36455712393004719" leadInLength="0/1"  />
           <InterpolatingParam id="3795" interp="linr"  time="-9999999/1" value="1" leadInLength="0/1"  />
          </VectorParam>
          <VectorParam id="3796"  name="anchor">
           <InterpolatingParam id="3797" interp="linr"  time="0/1" value="0" leadInLength="0/1"  />
           <InterpolatingParam id="3798" interp="linr"  time="0/1" value="0" leadInLength="0/1"  />
           <InterpolatingParam id="3799" interp="linr"  time="0/1" value="0" leadInLength="0/1"  />
          </VectorParam>
         </Transformer>
         <Parameters>
          <VectorParam id="3800"  name="sourceCrop">
           <InterpolatingParam id="3801" interp="linr"  time="0/1" value="0" leadInLength="0/1"  />
           <InterpolatingParam id="3802" interp="linr"  time="0/1" value="0" leadInLength="0/1"  />
           <InterpolatingParam id="3803" interp="linr"  time="0/1" value="0" leadInLength="0/1"  />
           <InterpolatingParam id="3804" interp="linr"  time="0/1" value="0" leadInLength="0/1"  />
          </VectorParam>
          <VectorParam id="3805"  name="geometryCrop">
           <InterpolatingParam id="3806" interp="linr"  time="-9999999/1" value="0" leadInLength="0/1"  />
           <InterpolatingParam id="3807" interp="linr"  time="-9999999/1" value="0" leadInLength="0/1"  />
           <InterpolatingParam id="3808" interp="linr"  time="-9999999/1" value="0" leadInLength="0/1"  />
           <InterpolatingParam id="3809" interp="linr"  time="-9999999/1" value="0" leadInLength="0/1"  />
          </VectorParam>
          <InterpolatingParam id="3810" interp="linr"  time="-9999999/1" value="1" leadInLength="0/1"  name="opacity"/>
         </Parameters>
         <Effects>
          <GenericEffect id="3811" name = "DropShadow" >
           <Parameters>
           <InterpolatingParam id="3812" interp="linr"  time="0/1" value="315" leadInLength="0/1"   name="angle"/>
           <InterpolatingParam id="3813" interp="linr"  time="0/1" value="2" leadInLength="0/1"   name="blur"/>
           <Parameter id="3814"   name="enabled">
            <Keyframes>
            <Keyframe id="3815"  time="0/1" value="1" leadInLength="0/1"  />
            </Keyframes>
           </Parameter>
           <InterpolatingParam id="3816" interp="linr"  time="0/1" value="4" leadInLength="0/1"   name="offset"/>
           <InterpolatingParam id="3817" interp="linr"  time="0/1" value="0.75" leadInLength="0/1"   name="opacity"/>
           </Parameters>
          </GenericEffect>
         </Effects>
         <Attributes>
          <Attribute id="3818"  name="vectorNode">
           <VectorNode id="3819" kind="TypeWinXML"  >
            <DoubleParameters>
             <InterpolatingParam id="3820" interp="linr"  time="0/1" value="-1" leadInLength="0/1"  name="CutoutPercentage"/>
             <InterpolatingParam id="3821" interp="linr"  time="0/1" value="-1" leadInLength="0/1"  name="RoundedRectRadius"/>
             <InterpolatingParam id="3822" interp="linr"  time="0/1" value="5" leadInLength="0/1"  name="Style"/>
             <InterpolatingParam id="3823" interp="linr"  time="0/1" value="59" leadInLength="0/1"  name="borderColorBlue"/>
             <InterpolatingParam id="3824" interp="linr"  time="0/1" value="209" leadInLength="0/1"  name="borderColorGreen"/>
             <InterpolatingParam id="3825" interp="linr"  time="0/1" value="127" leadInLength="0/1"  name="borderColorRed"/>
             <InterpolatingParam id="3826" interp="linr"  time="0/1" value="1" leadInLength="0/1"  name="borderState"/>
             <InterpolatingParam id="3827" interp="linr"  time="0/1" value="5" leadInLength="0/1"  name="borderWidth"/>
             <InterpolatingParam id="3828" interp="linr"  time="0/1" value="59" leadInLength="0/1"  name="fillColorBlue"/>
             <InterpolatingParam id="3829" interp="linr"  time="0/1" value="209" leadInLength="0/1"  name="fillColorGreen"/>
             <InterpolatingParam id="3830" interp="linr"  time="0/1" value="127" leadInLength="0/1"  name="fillColorRed"/>
             <InterpolatingParam id="3831" interp="linr"  time="0/1" value="1" leadInLength="0/1"  name="fillState"/>
             <InterpolatingParam id="3832" interp="linr"  time="0/1" value="0" leadInLength="0/1"  name="flipOnXAxis"/>
             <InterpolatingParam id="3833" interp="linr"  time="0/1" value="0" leadInLength="0/1"  name="flipOnYAxis"/>
             <InterpolatingParam id="3834" interp="linr"  time="0/1" value="275.5539033457249" leadInLength="0/1"  name="height"/>
             <InterpolatingParam id="3835" interp="linr"  time="0/1" value="319.5" leadInLength="0/1"  name="width"/>
            </DoubleParameters>
            <StringParameters>
             <Parameter id="3836"  name="VectorPath">
              <Keyframes>
              <Keyframe id="3837"  time="0/1" value="" leadInLength="0/1"  />
              </Keyframes>
             </Parameter>
             <Parameter id="3838"  name="filename">
              <Keyframes>
              <Keyframe id="3839"  time="0/1" value="C:\Program Files (x86)\TechSmith\Camtasia Studio 8\Media\Studio\Callouts\roundedarrow.xml" leadInLength="0/1"  />
              </Keyframes>
             </Parameter>
             <Parameter id="3840"  name="name">
              <Keyframes>
              <Keyframe id="3841"  time="0/1" value="Rounded Arrow" leadInLength="0/1"  />
              </Keyframes>
             </Parameter>
             <Parameter id="3842"  name="xmlContent">
              <Keyframes>
              <Keyframe id="3843"  time="0/1" value="﻿&lt;?xml version=&quot;1.0&quot;?&gt;&#xa;&#xa;&lt;Overlay version=&quot;1.0.1&quot;&gt;&#xa;&#xa;&lt;Overlay_Filename&gt;roundedarrow.png&lt;/Overlay_Filename&gt;&#xa;&lt;Overlay_Name&gt;Rounded Arrow&lt;/Overlay_Name&gt;&#xa;&lt;Text_Top&gt;-1&lt;/Text_Top&gt;&#xa;&lt;Text_Left&gt;-1&lt;/Text_Left&gt;&#xa;&lt;Text_Bottom&gt;-1&lt;/Text_Bottom&gt;&#xa;&lt;Text_Right&gt;-1&lt;/Text_Right&gt;&#xa;&lt;Fill_Color&gt;1&lt;/Fill_Color&gt;&#xa;&lt;Border_Color&gt;1&lt;/Border_Color&gt;&#xa;&lt;Initial_Fill_Color&gt;0xff017b34&lt;/Initial_Fill_Color&gt;&#xa;&lt;Initial_Border_Color&gt;0xffd7d7d7&lt;/Initial_Border_Color&gt;&#xa;&lt;VectorProps&gt;&#xa;&lt;figure&gt;&#xa;&lt;svg&gt;M29.27,148.243c94.722,0,131.744,0,131.744,0s-6.617,6.619-26.562,26.568&#xa;&#x9;c-33.056,33.055,14.351,79.121,48.086,45.385c13.726-13.723,57.03-57.029,68.668-68.666c21.731-21.732,23.239-49.4,4.19-68.45&#xa;&#x9;c-18.033-18.033-51.981-51.98-73.981-73.98C152.773-19.542,105.138,26.28,131.057,52.2c21.607,21.609,29.957,29.959,29.957,29.959&#xa;&#x9;s-35.786,0-130.057,0C-9.106,82.159-10.93,148.243,29.27,148.243z&lt;/svg&gt;&#xa;&lt;/figure&gt;&#xa;&lt;borderWidth&gt;5.00&lt;/borderWidth&gt;&#xa;&lt;seamY&gt;116.00&lt;/seamY&gt;&#xa;&lt;shapeWidth&gt;269&lt;/shapeWidth&gt;&#xa;&lt;shapeHeight&gt;232&lt;/shapeHeight&gt;&#xa;&lt;/VectorProps&gt;&#xa;&lt;Style&gt;5&lt;/Style&gt;&#xa;&lt;/Overlay&gt;" leadInLength="0/1"  />
              </Keyframes>
             </Parameter>
            </StringParameters>
           </VectorNode>
          </Attribute>
         </Attributes>
         <MetaData>
          <entry key="WinSubProjectDisplayName" val=""/>
         </MetaData>
         <LeftEdgeMods length="23/1" groupName="OpacityFade">
          <EdgeMod parameter="3810">
           <FadeInFunc id="3427"  />
          </EdgeMod>
         </LeftEdgeMods>
         <RightEdgeMods length="7/1" groupName="OpacityFade">
          <EdgeMod parameter="3810">
           <FadeOutFunc id="3427"  />
          </EdgeMod>
         </RightEdgeMods>
         <ExtraData>
          <Entry key="ZoomPanBin">
           <ZoomPanBin id="3844"  >
            <ZoomPanKeyframes>
             <ZoomPanKeyframe id="3845" timeRangeEnd="-9999999/1" timeRangeDuration="0/1" interpolaterName="linr"  />
            </ZoomPanKeyframes>
           </ZoomPanBin>
          </Entry>
         </ExtraData>
        </Callout>
        <Callout id="3846" start="787" duration="69" scalar="1/1" mediaStart="0/1" mediaDuration="69/1" >
         <Transformer>
          <VectorParam id="3847"  name="translation">
           <InterpolatingParam id="3848" interp="linr"  time="-9999999/1" value="-364.51127819546718" leadInLength="0/1"  />
           <InterpolatingParam id="3849" interp="linr"  time="-9999999/1" value="-189.47368421051513" leadInLength="0/1"  />
           <InterpolatingParam id="3850" interp="linr"  time="-9999999/1" value="0" leadInLength="0/1"  />
          </VectorParam>
          <VectorParam id="3851"  name="rotation">
           <InterpolatingParam id="3852" interp="linr"  time="-9999999/1" value="0" leadInLength="0/1"  />
           <InterpolatingParam id="3853" interp="linr"  time="-9999999/1" value="0" leadInLength="0/1"  />
           <InterpolatingParam id="3854" interp="linr"  time="-9999999/1" value="0" leadInLength="0/1"  />
          </VectorParam>
          <VectorParam id="3855"  name="shear">
           <InterpolatingParam id="3856" interp="linr"  time="-9999999/1" value="0" leadInLength="0/1"  />
           <InterpolatingParam id="3857" interp="linr"  time="-9999999/1" value="0" leadInLength="0/1"  />
           <InterpolatingParam id="3858" interp="linr"  time="-9999999/1" value="0" leadInLength="0/1"  />
          </VectorParam>
          <VectorParam id="3859"  name="scale">
           <InterpolatingParam id="3860" interp="linr"  time="-9999999/1" value="1" leadInLength="0/1"  />
           <InterpolatingParam id="3861" interp="linr"  time="-9999999/1" value="1" leadInLength="0/1"  />
           <InterpolatingParam id="3862" interp="linr"  time="-9999999/1" value="1" leadInLength="0/1"  />
          </VectorParam>
          <VectorParam id="3863"  name="anchor">
           <InterpolatingParam id="3864" interp="linr"  time="0/1" value="0" leadInLength="0/1"  />
           <InterpolatingParam id="3865" interp="linr"  time="0/1" value="0" leadInLength="0/1"  />
           <InterpolatingParam id="3866" interp="linr"  time="0/1" value="0" leadInLength="0/1"  />
          </VectorParam>
         </Transformer>
         <Parameters>
          <VectorParam id="3867"  name="sourceCrop">
           <InterpolatingParam id="3868" interp="linr"  time="0/1" value="0" leadInLength="0/1"  />
           <InterpolatingParam id="3869" interp="linr"  time="0/1" value="0" leadInLength="0/1"  />
           <InterpolatingParam id="3870" interp="linr"  time="0/1" value="0" leadInLength="0/1"  />
           <InterpolatingParam id="3871" interp="linr"  time="0/1" value="0" leadInLength="0/1"  />
          </VectorParam>
          <VectorParam id="3872"  name="geometryCrop">
           <InterpolatingParam id="3873" interp="linr"  time="-9999999/1" value="0" leadInLength="0/1"  />
           <InterpolatingParam id="3874" interp="linr"  time="-9999999/1" value="0" leadInLength="0/1"  />
           <InterpolatingParam id="3875" interp="linr"  time="-9999999/1" value="0" leadInLength="0/1"  />
           <InterpolatingParam id="3876" interp="linr"  time="-9999999/1" value="0" leadInLength="0/1"  />
          </VectorParam>
          <InterpolatingParam id="3877" interp="linr"  time="-9999999/1" value="1" leadInLength="0/1"  name="opacity"/>
         </Parameters>
         <Attributes>
          <Attribute id="3878"  name="vectorNode">
           <VectorNode id="3879" kind="TypeWinText"  >
            <DoubleParameters>
             <InterpolatingParam id="3880" interp="linr"  time="0/1" value="5" leadInLength="0/1"  name="Style"/>
             <InterpolatingParam id="3881" interp="linr"  time="0/1" value="0" leadInLength="0/1"  name="dimensionTime"/>
             <InterpolatingParam id="3882" interp="linr"  time="0/1" value="180" leadInLength="0/1"  name="height"/>
             <InterpolatingParam id="3883" interp="linr"  time="0/1" value="0" leadInLength="0/1"  name="textDropShadow"/>
             <InterpolatingParam id="3884" interp="linr"  time="0/1" value="0" leadInLength="0/1"  name="textIgnoresOpacity"/>
             <InterpolatingParam id="3885" interp="linr"  time="0/1" value="1" leadInLength="0/1"  name="textRectHeight"/>
             <InterpolatingParam id="3886" interp="linr"  time="0/1" value="1" leadInLength="0/1"  name="textRectWidth"/>
             <InterpolatingParam id="3887" interp="linr"  time="0/1" value="0" leadInLength="0/1"  name="textRectX"/>
             <InterpolatingParam id="3888" interp="linr"  time="0/1" value="0" leadInLength="0/1"  name="textRectY"/>
             <InterpolatingParam id="3889" interp="linr"  time="0/1" value="0" leadInLength="0/1"  name="textVerticalAlign"/>
             <InterpolatingParam id="3890" interp="linr"  time="0/1" value="319.5" leadInLength="0/1"  name="width"/>
            </DoubleParameters>
            <StringParameters>
             <Parameter id="3891"  name="filename">
              <Keyframes>
              <Keyframe id="3892"  time="0/1" value="C:\Program Files (x86)\TechSmith\Camtasia Studio 8\Media\Studio\Callouts\trans_100x100.xml" leadInLength="0/1"  />
              </Keyframes>
             </Parameter>
             <Parameter id="3893"  name="name">
              <Keyframes>
              <Keyframe id="3894"  time="0/1" value="Text" leadInLength="0/1"  />
              </Keyframes>
             </Parameter>
             <Parameter id="3895"  name="text">
              <Keyframes>
              <Keyframe id="3896"  time="0/1" value="{\rtf1\ansi\ansicpg1252\deff0\deflang1033{\fonttbl{\f0\fswiss\fprq2\fcharset0 Arial Rounded MT Bold;}{\f1\fswiss\fprq2\fcharset0 Arial;}}&#xD;&#xa;{\colortbl ;\red63\green108\blue25;\red0\green0\blue0;}&#xD;&#xa;\viewkind4\uc1\pard\qc\cf1\f0\fs52 RELACION\cf2\f1\fs32\par&#xD;&#xa;}&#xD;&#xa;" leadInLength="0/1"  />
              </Keyframes>
             </Parameter>
             <Parameter id="3897"  name="xmlContent">
              <Keyframes>
              <Keyframe id="3898"  time="0/1" value="﻿&lt;?xml version=&quot;1.0&quot;?&gt;&#xa;&#xa;&lt;Overlay version=&quot;1.0.1&quot;&gt;&#xa;&#xa;&lt;Overlay_Filename&gt;trans_100x100.png&lt;/Overlay_Filename&gt;&#xa;&lt;Overlay_Name&gt;Text&lt;/Overlay_Name&gt;&#xa;&lt;Text_Top&gt;0&lt;/Text_Top&gt;&#xa;&lt;Text_Left&gt;0&lt;/Text_Left&gt;&#xa;&lt;Text_Bottom&gt;0&lt;/Text_Bottom&gt;&#xa;&lt;Text_Right&gt;0&lt;/Text_Right&gt;&#xa;&lt;Fill_Color&gt;0&lt;/Fill_Color&gt;&#xa;&lt;Border_Color&gt;0&lt;/Border_Color&gt;&#xa;&lt;Style&gt;5&lt;/Style&gt;&#xa;&lt;/Overlay&gt;" leadInLength="0/1"  />
              </Keyframes>
             </Parameter>
            </StringParameters>
           </VectorNode>
          </Attribute>
         </Attributes>
         <MetaData>
          <entry key="WinSubProjectDisplayName" val=""/>
         </MetaData>
         <LeftEdgeMods length="24/1" groupName="OpacityFade">
          <EdgeMod parameter="3877">
           <FadeInFunc id="3188"  />
          </EdgeMod>
         </LeftEdgeMods>
         <RightEdgeMods length="5/1" groupName="OpacityFade">
          <EdgeMod parameter="3877">
           <FadeOutFunc id="3070"  />
          </EdgeMod>
         </RightEdgeMods>
         <ExtraData>
          <Entry key="ZoomPanBin">
           <ZoomPanBin id="3899"  >
            <ZoomPanKeyframes>
             <ZoomPanKeyframe id="3900" timeRangeEnd="-9999999/1" timeRangeDuration="0/1" interpolaterName="linr"  />
            </ZoomPanKeyframes>
           </ZoomPanBin>
          </Entry>
         </ExtraData>
        </Callout>
        <Callout id="3901" start="3643" duration="52" scalar="1/1" mediaStart="-6/1" mediaDuration="52/1" >
         <Transformer>
          <VectorParam id="3902"  name="translation">
           <InterpolatingParam id="3903" interp="linr"  time="-9999999/1" value="171.42857142856735" leadInLength="0/1"  />
           <InterpolatingParam id="3904" interp="linr"  time="-9999999/1" value="-53.058270676827853" leadInLength="0/1"  />
           <InterpolatingParam id="3905" interp="linr"  time="-9999999/1" value="0" leadInLength="0/1"  />
          </VectorParam>
          <VectorParam id="3906"  name="rotation">
           <InterpolatingParam id="3907" interp="linr"  time="-9999999/1" value="0" leadInLength="0/1"  />
           <InterpolatingParam id="3908" interp="linr"  time="-9999999/1" value="0" leadInLength="0/1"  />
           <InterpolatingParam id="3909" interp="linr"  time="-9999999/1" value="0" leadInLength="0/1"  />
          </VectorParam>
          <VectorParam id="3910"  name="shear">
           <InterpolatingParam id="3911" interp="linr"  time="-9999999/1" value="0" leadInLength="0/1"  />
           <InterpolatingParam id="3912" interp="linr"  time="-9999999/1" value="0" leadInLength="0/1"  />
           <InterpolatingParam id="3913" interp="linr"  time="-9999999/1" value="0" leadInLength="0/1"  />
          </VectorParam>
          <VectorParam id="3914"  name="scale">
           <InterpolatingParam id="3915" interp="linr"  time="-9999999/1" value="1" leadInLength="0/1"  />
           <InterpolatingParam id="3916" interp="linr"  time="-9999999/1" value="1" leadInLength="0/1"  />
           <InterpolatingParam id="3917" interp="linr"  time="-9999999/1" value="1" leadInLength="0/1"  />
          </VectorParam>
          <VectorParam id="3918"  name="anchor">
           <InterpolatingParam id="3919" interp="linr"  time="0/1" value="0" leadInLength="0/1"  />
           <InterpolatingParam id="3920" interp="linr"  time="0/1" value="0" leadInLength="0/1"  />
           <InterpolatingParam id="3921" interp="linr"  time="0/1" value="0" leadInLength="0/1"  />
          </VectorParam>
         </Transformer>
         <Parameters>
          <VectorParam id="3922"  name="sourceCrop">
           <InterpolatingParam id="3923" interp="linr"  time="0/1" value="0" leadInLength="0/1"  />
           <InterpolatingParam id="3924" interp="linr"  time="0/1" value="0" leadInLength="0/1"  />
           <InterpolatingParam id="3925" interp="linr"  time="0/1" value="0" leadInLength="0/1"  />
           <InterpolatingParam id="3926" interp="linr"  time="0/1" value="0" leadInLength="0/1"  />
          </VectorParam>
          <VectorParam id="3927"  name="geometryCrop">
           <InterpolatingParam id="3928" interp="linr"  time="-9999999/1" value="0" leadInLength="0/1"  />
           <InterpolatingParam id="3929" interp="linr"  time="-9999999/1" value="0" leadInLength="0/1"  />
           <InterpolatingParam id="3930" interp="linr"  time="-9999999/1" value="0" leadInLength="0/1"  />
           <InterpolatingParam id="3931" interp="linr"  time="-9999999/1" value="0" leadInLength="0/1"  />
          </VectorParam>
          <InterpolatingParam id="3932" interp="linr"  time="-9999999/1" value="1" leadInLength="0/1"  name="opacity"/>
         </Parameters>
         <Attributes>
          <Attribute id="3933"  name="vectorNode">
           <VectorNode id="3934" kind="TypeWinText"  >
            <DoubleParameters>
             <InterpolatingParam id="3935" interp="linr"  time="0/1" value="5" leadInLength="0/1"  name="Style"/>
             <InterpolatingParam id="3936" interp="linr"  time="0/1" value="0" leadInLength="0/1"  name="dimensionTime"/>
             <InterpolatingParam id="3937" interp="linr"  time="0/1" value="180" leadInLength="0/1"  name="height"/>
             <InterpolatingParam id="3938" interp="linr"  time="0/1" value="0" leadInLength="0/1"  name="textDropShadow"/>
             <InterpolatingParam id="3939" interp="linr"  time="0/1" value="0" leadInLength="0/1"  name="textIgnoresOpacity"/>
             <InterpolatingParam id="3940" interp="linr"  time="0/1" value="1" leadInLength="0/1"  name="textRectHeight"/>
             <InterpolatingParam id="3941" interp="linr"  time="0/1" value="1" leadInLength="0/1"  name="textRectWidth"/>
             <InterpolatingParam id="3942" interp="linr"  time="0/1" value="0" leadInLength="0/1"  name="textRectX"/>
             <InterpolatingParam id="3943" interp="linr"  time="0/1" value="0" leadInLength="0/1"  name="textRectY"/>
             <InterpolatingParam id="3944" interp="linr"  time="0/1" value="0" leadInLength="0/1"  name="textVerticalAlign"/>
             <InterpolatingParam id="3945" interp="linr"  time="0/1" value="319.5" leadInLength="0/1"  name="width"/>
            </DoubleParameters>
            <StringParameters>
             <Parameter id="3946"  name="filename">
              <Keyframes>
              <Keyframe id="3947"  time="0/1" value="C:\Program Files (x86)\TechSmith\Camtasia Studio 8\Media\Studio\Callouts\trans_100x100.xml" leadInLength="0/1"  />
              </Keyframes>
             </Parameter>
             <Parameter id="3948"  name="name">
              <Keyframes>
              <Keyframe id="3949"  time="0/1" value="Text" leadInLength="0/1"  />
              </Keyframes>
             </Parameter>
             <Parameter id="3950"  name="text">
              <Keyframes>
              <Keyframe id="3951"  time="0/1" value="{\rtf1\ansi\ansicpg1252\deff0\deflang1033{\fonttbl{\f0\fswiss\fprq2\fcharset0 Arial Rounded MT Bold;}{\f1\fswiss\fprq2\fcharset0 Arial;}}&#xD;&#xa;{\colortbl ;\red63\green108\blue25;\red0\green0\blue0;}&#xD;&#xa;\viewkind4\uc1\pard\qc\cf1\f0\fs52 BOTON DE REGRESO\cf2\f1\fs32\par&#xD;&#xa;}&#xD;&#xa;" leadInLength="0/1"  />
              </Keyframes>
             </Parameter>
             <Parameter id="3952"  name="xmlContent">
              <Keyframes>
              <Keyframe id="3953"  time="0/1" value="﻿&lt;?xml version=&quot;1.0&quot;?&gt;&#xa;&#xa;&lt;Overlay version=&quot;1.0.1&quot;&gt;&#xa;&#xa;&lt;Overlay_Filename&gt;trans_100x100.png&lt;/Overlay_Filename&gt;&#xa;&lt;Overlay_Name&gt;Text&lt;/Overlay_Name&gt;&#xa;&lt;Text_Top&gt;0&lt;/Text_Top&gt;&#xa;&lt;Text_Left&gt;0&lt;/Text_Left&gt;&#xa;&lt;Text_Bottom&gt;0&lt;/Text_Bottom&gt;&#xa;&lt;Text_Right&gt;0&lt;/Text_Right&gt;&#xa;&lt;Fill_Color&gt;0&lt;/Fill_Color&gt;&#xa;&lt;Border_Color&gt;0&lt;/Border_Color&gt;&#xa;&lt;Style&gt;5&lt;/Style&gt;&#xa;&lt;/Overlay&gt;" leadInLength="0/1"  />
              </Keyframes>
             </Parameter>
            </StringParameters>
           </VectorNode>
          </Attribute>
         </Attributes>
         <MetaData>
          <entry key="WinSubProjectDisplayName" val=""/>
         </MetaData>
         <LeftEdgeMods length="24/1" groupName="OpacityFade">
          <EdgeMod parameter="3932">
           <FadeInFunc id="3189"  />
          </EdgeMod>
         </LeftEdgeMods>
         <RightEdgeMods length="5/1" groupName="OpacityFade">
          <EdgeMod parameter="3932">
           <FadeOutFunc id="3070"  />
          </EdgeMod>
         </RightEdgeMods>
         <ExtraData>
          <Entry key="ZoomPanBin">
           <ZoomPanBin id="3954"  >
            <ZoomPanKeyframes>
             <ZoomPanKeyframe id="3955" timeRangeEnd="-9999999/1" timeRangeDuration="0/1" interpolaterName="linr"  />
            </ZoomPanKeyframes>
           </ZoomPanBin>
          </Entry>
         </ExtraData>
        </Callout>
        <Callout id="3956" start="3792" duration="41" scalar="1/1" mediaStart="0/1" mediaDuration="41/1" >
         <Transformer>
          <VectorParam id="3957"  name="translation">
           <InterpolatingParam id="3958" interp="linr"  time="-9999999/1" value="-477.23513952031914" leadInLength="0/1"  />
           <InterpolatingParam id="3959" interp="linr"  time="-9999999/1" value="-13.966617370458611" leadInLength="0/1"  />
           <InterpolatingParam id="3960" interp="linr"  time="-9999999/1" value="-3.4106051316488557e-010" leadInLength="0/1"  />
          </VectorParam>
          <VectorParam id="3961"  name="rotation">
           <InterpolatingParam id="3962" interp="linr"  time="-9999999/1" value="0" leadInLength="0/1"  />
           <InterpolatingParam id="3963" interp="linr"  time="-9999999/1" value="0" leadInLength="0/1"  />
           <InterpolatingParam id="3964" interp="linr"  time="-9999999/1" value="-5.4434562194508107" leadInLength="0/1"  />
          </VectorParam>
          <VectorParam id="3965"  name="shear">
           <InterpolatingParam id="3966" interp="linr"  time="-9999999/1" value="7.0189989311018686e-017" leadInLength="0/1"  />
           <InterpolatingParam id="3967" interp="linr"  time="-9999999/1" value="0" leadInLength="0/1"  />
           <InterpolatingParam id="3968" interp="linr"  time="-9999999/1" value="0" leadInLength="0/1"  />
          </VectorParam>
          <VectorParam id="3969"  name="scale">
           <InterpolatingParam id="3970" interp="linr"  time="-9999999/1" value="0.62883619488732345" leadInLength="0/1"  />
           <InterpolatingParam id="3971" interp="linr"  time="-9999999/1" value="0.31210647941598851" leadInLength="0/1"  />
           <InterpolatingParam id="3972" interp="linr"  time="-9999999/1" value="1" leadInLength="0/1"  />
          </VectorParam>
          <VectorParam id="3973"  name="anchor">
           <InterpolatingParam id="3974" interp="linr"  time="0/1" value="0" leadInLength="0/1"  />
           <InterpolatingParam id="3975" interp="linr"  time="0/1" value="0" leadInLength="0/1"  />
           <InterpolatingParam id="3976" interp="linr"  time="0/1" value="0" leadInLength="0/1"  />
          </VectorParam>
         </Transformer>
         <Parameters>
          <VectorParam id="3977"  name="sourceCrop">
           <InterpolatingParam id="3978" interp="linr"  time="0/1" value="0" leadInLength="0/1"  />
           <InterpolatingParam id="3979" interp="linr"  time="0/1" value="0" leadInLength="0/1"  />
           <InterpolatingParam id="3980" interp="linr"  time="0/1" value="0" leadInLength="0/1"  />
           <InterpolatingParam id="3981" interp="linr"  time="0/1" value="0" leadInLength="0/1"  />
          </VectorParam>
          <VectorParam id="3982"  name="geometryCrop">
           <InterpolatingParam id="3983" interp="linr"  time="-9999999/1" value="0" leadInLength="0/1"  />
           <InterpolatingParam id="3984" interp="linr"  time="-9999999/1" value="0" leadInLength="0/1"  />
           <InterpolatingParam id="3985" interp="linr"  time="-9999999/1" value="0" leadInLength="0/1"  />
           <InterpolatingParam id="3986" interp="linr"  time="-9999999/1" value="0" leadInLength="0/1"  />
          </VectorParam>
          <InterpolatingParam id="3987" interp="linr"  time="-9999999/1" value="1" leadInLength="0/1"  name="opacity"/>
         </Parameters>
         <Attributes>
          <Attribute id="3988"  name="vectorNode">
           <VectorNode id="3989" kind="TypeWinXML"  >
            <DoubleParameters>
             <InterpolatingParam id="3990" interp="linr"  time="0/1" value="-1" leadInLength="0/1"  name="CutoutPercentage"/>
             <InterpolatingParam id="3991" interp="linr"  time="0/1" value="-1" leadInLength="0/1"  name="RoundedRectRadius"/>
             <InterpolatingParam id="3992" interp="linr"  time="0/1" value="5" leadInLength="0/1"  name="Style"/>
             <InterpolatingParam id="3993" interp="linr"  time="0/1" value="59" leadInLength="0/1"  name="borderColorBlue"/>
             <InterpolatingParam id="3994" interp="linr"  time="0/1" value="209" leadInLength="0/1"  name="borderColorGreen"/>
             <InterpolatingParam id="3995" interp="linr"  time="0/1" value="127" leadInLength="0/1"  name="borderColorRed"/>
             <InterpolatingParam id="3996" interp="linr"  time="0/1" value="1" leadInLength="0/1"  name="borderState"/>
             <InterpolatingParam id="3997" interp="linr"  time="0/1" value="5" leadInLength="0/1"  name="borderWidth"/>
             <InterpolatingParam id="3998" interp="linr"  time="0/1" value="59" leadInLength="0/1"  name="fillColorBlue"/>
             <InterpolatingParam id="3999" interp="linr"  time="0/1" value="209" leadInLength="0/1"  name="fillColorGreen"/>
             <InterpolatingParam id="4000" interp="linr"  time="0/1" value="127" leadInLength="0/1"  name="fillColorRed"/>
             <InterpolatingParam id="4001" interp="linr"  time="0/1" value="1" leadInLength="0/1"  name="fillState"/>
             <InterpolatingParam id="4002" interp="linr"  time="0/1" value="0" leadInLength="0/1"  name="flipOnXAxis"/>
             <InterpolatingParam id="4003" interp="linr"  time="0/1" value="0" leadInLength="0/1"  name="flipOnYAxis"/>
             <InterpolatingParam id="4004" interp="linr"  time="0/1" value="275.5539033457249" leadInLength="0/1"  name="height"/>
             <InterpolatingParam id="4005" interp="linr"  time="0/1" value="319.5" leadInLength="0/1"  name="width"/>
            </DoubleParameters>
            <StringParameters>
             <Parameter id="4006"  name="VectorPath">
              <Keyframes>
              <Keyframe id="4007"  time="0/1" value="" leadInLength="0/1"  />
              </Keyframes>
             </Parameter>
             <Parameter id="4008"  name="filename">
              <Keyframes>
              <Keyframe id="4009"  time="0/1" value="C:\Program Files (x86)\TechSmith\Camtasia Studio 8\Media\Studio\Callouts\roundedarrow.xml" leadInLength="0/1"  />
              </Keyframes>
             </Parameter>
             <Parameter id="4010"  name="name">
              <Keyframes>
              <Keyframe id="4011"  time="0/1" value="Rounded Arrow" leadInLength="0/1"  />
              </Keyframes>
             </Parameter>
             <Parameter id="4012"  name="xmlContent">
              <Keyframes>
              <Keyframe id="4013"  time="0/1" value="﻿&lt;?xml version=&quot;1.0&quot;?&gt;&#xa;&#xa;&lt;Overlay version=&quot;1.0.1&quot;&gt;&#xa;&#xa;&lt;Overlay_Filename&gt;roundedarrow.png&lt;/Overlay_Filename&gt;&#xa;&lt;Overlay_Name&gt;Rounded Arrow&lt;/Overlay_Name&gt;&#xa;&lt;Text_Top&gt;-1&lt;/Text_Top&gt;&#xa;&lt;Text_Left&gt;-1&lt;/Text_Left&gt;&#xa;&lt;Text_Bottom&gt;-1&lt;/Text_Bottom&gt;&#xa;&lt;Text_Right&gt;-1&lt;/Text_Right&gt;&#xa;&lt;Fill_Color&gt;1&lt;/Fill_Color&gt;&#xa;&lt;Border_Color&gt;1&lt;/Border_Color&gt;&#xa;&lt;Initial_Fill_Color&gt;0xff017b34&lt;/Initial_Fill_Color&gt;&#xa;&lt;Initial_Border_Color&gt;0xffd7d7d7&lt;/Initial_Border_Color&gt;&#xa;&lt;VectorProps&gt;&#xa;&lt;figure&gt;&#xa;&lt;svg&gt;M29.27,148.243c94.722,0,131.744,0,131.744,0s-6.617,6.619-26.562,26.568&#xa;&#x9;c-33.056,33.055,14.351,79.121,48.086,45.385c13.726-13.723,57.03-57.029,68.668-68.666c21.731-21.732,23.239-49.4,4.19-68.45&#xa;&#x9;c-18.033-18.033-51.981-51.98-73.981-73.98C152.773-19.542,105.138,26.28,131.057,52.2c21.607,21.609,29.957,29.959,29.957,29.959&#xa;&#x9;s-35.786,0-130.057,0C-9.106,82.159-10.93,148.243,29.27,148.243z&lt;/svg&gt;&#xa;&lt;/figure&gt;&#xa;&lt;borderWidth&gt;5.00&lt;/borderWidth&gt;&#xa;&lt;seamY&gt;116.00&lt;/seamY&gt;&#xa;&lt;shapeWidth&gt;269&lt;/shapeWidth&gt;&#xa;&lt;shapeHeight&gt;232&lt;/shapeHeight&gt;&#xa;&lt;/VectorProps&gt;&#xa;&lt;Style&gt;5&lt;/Style&gt;&#xa;&lt;/Overlay&gt;" leadInLength="0/1"  />
              </Keyframes>
             </Parameter>
            </StringParameters>
           </VectorNode>
          </Attribute>
         </Attributes>
         <MetaData>
          <entry key="WinSubProjectDisplayName" val=""/>
         </MetaData>
         <LeftEdgeMods length="24/1" groupName="OpacityFade">
          <EdgeMod parameter="3987">
           <FadeInFunc id="3189"  />
          </EdgeMod>
         </LeftEdgeMods>
         <RightEdgeMods length="5/1" groupName="OpacityFade">
          <EdgeMod parameter="3987">
           <FadeOutFunc id="3070"  />
          </EdgeMod>
         </RightEdgeMods>
         <ExtraData>
          <Entry key="ZoomPanBin">
           <ZoomPanBin id="4014"  >
            <ZoomPanKeyframes>
             <ZoomPanKeyframe id="4015" timeRangeEnd="-9999999/1" timeRangeDuration="0/1" interpolaterName="linr"  />
            </ZoomPanKeyframes>
           </ZoomPanBin>
          </Entry>
         </ExtraData>
        </Callout>
        <Callout id="4016" start="6331" duration="179" scalar="1/1" mediaStart="0/1" mediaDuration="179/1" >
         <Transformer>
          <VectorParam id="4017"  name="translation">
           <InterpolatingParam id="4018" interp="linr"  time="-9999999/1" value="-308.5714285713936" leadInLength="0/1"  />
           <InterpolatingParam id="4019" interp="linr"  time="-9999999/1" value="-87.730270084327117" leadInLength="0/1"  />
           <InterpolatingParam id="4020" interp="linr"  time="-9999999/1" value="0" leadInLength="0/1"  />
          </VectorParam>
          <VectorParam id="4021"  name="rotation">
           <InterpolatingParam id="4022" interp="linr"  time="-9999999/1" value="0" leadInLength="0/1"  />
           <InterpolatingParam id="4023" interp="linr"  time="-9999999/1" value="0" leadInLength="0/1"  />
           <InterpolatingParam id="4024" interp="linr"  time="-9999999/1" value="1.5707963267948966" leadInLength="0/1"  />
          </VectorParam>
          <VectorParam id="4025"  name="shear">
           <InterpolatingParam id="4026" interp="linr"  time="-9999999/1" value="0" leadInLength="0/1"  />
           <InterpolatingParam id="4027" interp="linr"  time="-9999999/1" value="0" leadInLength="0/1"  />
           <InterpolatingParam id="4028" interp="linr"  time="-9999999/1" value="0" leadInLength="0/1"  />
          </VectorParam>
          <VectorParam id="4029"  name="scale">
           <InterpolatingParam id="4030" interp="linr"  time="-9999999/1" value="0.57640580324047952" leadInLength="0/1"  />
           <InterpolatingParam id="4031" interp="linr"  time="-9999999/1" value="0.30430617815028138" leadInLength="0/1"  />
           <InterpolatingParam id="4032" interp="linr"  time="-9999999/1" value="1" leadInLength="0/1"  />
          </VectorParam>
          <VectorParam id="4033"  name="anchor">
           <InterpolatingParam id="4034" interp="linr"  time="0/1" value="0" leadInLength="0/1"  />
           <InterpolatingParam id="4035" interp="linr"  time="0/1" value="0" leadInLength="0/1"  />
           <InterpolatingParam id="4036" interp="linr"  time="0/1" value="0" leadInLength="0/1"  />
          </VectorParam>
         </Transformer>
         <Parameters>
          <VectorParam id="4037"  name="sourceCrop">
           <InterpolatingParam id="4038" interp="linr"  time="0/1" value="0" leadInLength="0/1"  />
           <InterpolatingParam id="4039" interp="linr"  time="0/1" value="0" leadInLength="0/1"  />
           <InterpolatingParam id="4040" interp="linr"  time="0/1" value="0" leadInLength="0/1"  />
           <InterpolatingParam id="4041" interp="linr"  time="0/1" value="0" leadInLength="0/1"  />
          </VectorParam>
          <VectorParam id="4042"  name="geometryCrop">
           <InterpolatingParam id="4043" interp="linr"  time="-9999999/1" value="0" leadInLength="0/1"  />
           <InterpolatingParam id="4044" interp="linr"  time="-9999999/1" value="0" leadInLength="0/1"  />
           <InterpolatingParam id="4045" interp="linr"  time="-9999999/1" value="0" leadInLength="0/1"  />
           <InterpolatingParam id="4046" interp="linr"  time="-9999999/1" value="0" leadInLength="0/1"  />
          </VectorParam>
          <InterpolatingParam id="4047" interp="linr"  time="-9999999/1" value="1" leadInLength="0/1"  name="opacity"/>
         </Parameters>
         <Attributes>
          <Attribute id="4048"  name="vectorNode">
           <VectorNode id="4049" kind="TypeWinXML"  >
            <DoubleParameters>
             <InterpolatingParam id="4050" interp="linr"  time="0/1" value="-1" leadInLength="0/1"  name="CutoutPercentage"/>
             <InterpolatingParam id="4051" interp="linr"  time="0/1" value="-1" leadInLength="0/1"  name="RoundedRectRadius"/>
             <InterpolatingParam id="4052" interp="linr"  time="0/1" value="5" leadInLength="0/1"  name="Style"/>
             <InterpolatingParam id="4053" interp="linr"  time="0/1" value="59" leadInLength="0/1"  name="borderColorBlue"/>
             <InterpolatingParam id="4054" interp="linr"  time="0/1" value="209" leadInLength="0/1"  name="borderColorGreen"/>
             <InterpolatingParam id="4055" interp="linr"  time="0/1" value="127" leadInLength="0/1"  name="borderColorRed"/>
             <InterpolatingParam id="4056" interp="linr"  time="0/1" value="1" leadInLength="0/1"  name="borderState"/>
             <InterpolatingParam id="4057" interp="linr"  time="0/1" value="5" leadInLength="0/1"  name="borderWidth"/>
             <InterpolatingParam id="4058" interp="linr"  time="0/1" value="59" leadInLength="0/1"  name="fillColorBlue"/>
             <InterpolatingParam id="4059" interp="linr"  time="0/1" value="209" leadInLength="0/1"  name="fillColorGreen"/>
             <InterpolatingParam id="4060" interp="linr"  time="0/1" value="127" leadInLength="0/1"  name="fillColorRed"/>
             <InterpolatingParam id="4061" interp="linr"  time="0/1" value="1" leadInLength="0/1"  name="fillState"/>
             <InterpolatingParam id="4062" interp="linr"  time="0/1" value="0" leadInLength="0/1"  name="flipOnXAxis"/>
             <InterpolatingParam id="4063" interp="linr"  time="0/1" value="0" leadInLength="0/1"  name="flipOnYAxis"/>
             <InterpolatingParam id="4064" interp="linr"  time="0/1" value="275.5539033457249" leadInLength="0/1"  name="height"/>
             <InterpolatingParam id="4065" interp="linr"  time="0/1" value="319.5" leadInLength="0/1"  name="width"/>
            </DoubleParameters>
            <StringParameters>
             <Parameter id="4066"  name="VectorPath">
              <Keyframes>
              <Keyframe id="4067"  time="0/1" value="" leadInLength="0/1"  />
              </Keyframes>
             </Parameter>
             <Parameter id="4068"  name="filename">
              <Keyframes>
              <Keyframe id="4069"  time="0/1" value="C:\Program Files (x86)\TechSmith\Camtasia Studio 8\Media\Studio\Callouts\roundedarrow.xml" leadInLength="0/1"  />
              </Keyframes>
             </Parameter>
             <Parameter id="4070"  name="name">
              <Keyframes>
              <Keyframe id="4071"  time="0/1" value="Rounded Arrow" leadInLength="0/1"  />
              </Keyframes>
             </Parameter>
             <Parameter id="4072"  name="xmlContent">
              <Keyframes>
              <Keyframe id="4073"  time="0/1" value="﻿&lt;?xml version=&quot;1.0&quot;?&gt;&#xa;&#xa;&lt;Overlay version=&quot;1.0.1&quot;&gt;&#xa;&#xa;&lt;Overlay_Filename&gt;roundedarrow.png&lt;/Overlay_Filename&gt;&#xa;&lt;Overlay_Name&gt;Rounded Arrow&lt;/Overlay_Name&gt;&#xa;&lt;Text_Top&gt;-1&lt;/Text_Top&gt;&#xa;&lt;Text_Left&gt;-1&lt;/Text_Left&gt;&#xa;&lt;Text_Bottom&gt;-1&lt;/Text_Bottom&gt;&#xa;&lt;Text_Right&gt;-1&lt;/Text_Right&gt;&#xa;&lt;Fill_Color&gt;1&lt;/Fill_Color&gt;&#xa;&lt;Border_Color&gt;1&lt;/Border_Color&gt;&#xa;&lt;Initial_Fill_Color&gt;0xff017b34&lt;/Initial_Fill_Color&gt;&#xa;&lt;Initial_Border_Color&gt;0xffd7d7d7&lt;/Initial_Border_Color&gt;&#xa;&lt;VectorProps&gt;&#xa;&lt;figure&gt;&#xa;&lt;svg&gt;M29.27,148.243c94.722,0,131.744,0,131.744,0s-6.617,6.619-26.562,26.568&#xa;&#x9;c-33.056,33.055,14.351,79.121,48.086,45.385c13.726-13.723,57.03-57.029,68.668-68.666c21.731-21.732,23.239-49.4,4.19-68.45&#xa;&#x9;c-18.033-18.033-51.981-51.98-73.981-73.98C152.773-19.542,105.138,26.28,131.057,52.2c21.607,21.609,29.957,29.959,29.957,29.959&#xa;&#x9;s-35.786,0-130.057,0C-9.106,82.159-10.93,148.243,29.27,148.243z&lt;/svg&gt;&#xa;&lt;/figure&gt;&#xa;&lt;borderWidth&gt;5.00&lt;/borderWidth&gt;&#xa;&lt;seamY&gt;116.00&lt;/seamY&gt;&#xa;&lt;shapeWidth&gt;269&lt;/shapeWidth&gt;&#xa;&lt;shapeHeight&gt;232&lt;/shapeHeight&gt;&#xa;&lt;/VectorProps&gt;&#xa;&lt;Style&gt;5&lt;/Style&gt;&#xa;&lt;/Overlay&gt;" leadInLength="0/1"  />
              </Keyframes>
             </Parameter>
            </StringParameters>
           </VectorNode>
          </Attribute>
         </Attributes>
         <MetaData>
          <entry key="WinSubProjectDisplayName" val=""/>
         </MetaData>
         <LeftEdgeMods length="24/1" groupName="OpacityFade">
          <EdgeMod parameter="4047">
           <FadeInFunc id="3070"  />
          </EdgeMod>
         </LeftEdgeMods>
         <RightEdgeMods length="5/1" groupName="OpacityFade">
          <EdgeMod parameter="4047">
           <FadeOutFunc id="3189"  />
          </EdgeMod>
         </RightEdgeMods>
         <ExtraData>
          <Entry key="ZoomPanBin">
           <ZoomPanBin id="4074"  >
            <ZoomPanKeyframes>
             <ZoomPanKeyframe id="4075" timeRangeEnd="-9999999/1" timeRangeDuration="0/1" interpolaterName="linr"  />
            </ZoomPanKeyframes>
           </ZoomPanBin>
          </Entry>
         </ExtraData>
        </Callout>
        <Callout id="4076" start="8811" duration="179" scalar="1/1" mediaStart="0/1" mediaDuration="179/1" >
         <Transformer>
          <VectorParam id="4077"  name="translation">
           <InterpolatingParam id="4078" interp="linr"  time="-9999999/1" value="-312.18045112780118" leadInLength="0/1"  />
           <InterpolatingParam id="4079" interp="linr"  time="-9999999/1" value="-176.84210526314757" leadInLength="0/1"  />
           <InterpolatingParam id="4080" interp="linr"  time="-9999999/1" value="0" leadInLength="0/1"  />
          </VectorParam>
          <VectorParam id="4081"  name="rotation">
           <InterpolatingParam id="4082" interp="linr"  time="-9999999/1" value="0" leadInLength="0/1"  />
           <InterpolatingParam id="4083" interp="linr"  time="-9999999/1" value="0" leadInLength="0/1"  />
           <InterpolatingParam id="4084" interp="linr"  time="-9999999/1" value="0" leadInLength="0/1"  />
          </VectorParam>
          <VectorParam id="4085"  name="shear">
           <InterpolatingParam id="4086" interp="linr"  time="-9999999/1" value="0" leadInLength="0/1"  />
           <InterpolatingParam id="4087" interp="linr"  time="-9999999/1" value="0" leadInLength="0/1"  />
           <InterpolatingParam id="4088" interp="linr"  time="-9999999/1" value="0" leadInLength="0/1"  />
          </VectorParam>
          <VectorParam id="4089"  name="scale">
           <InterpolatingParam id="4090" interp="linr"  time="-9999999/1" value="1" leadInLength="0/1"  />
           <InterpolatingParam id="4091" interp="linr"  time="-9999999/1" value="1" leadInLength="0/1"  />
           <InterpolatingParam id="4092" interp="linr"  time="-9999999/1" value="1" leadInLength="0/1"  />
          </VectorParam>
          <VectorParam id="4093"  name="anchor">
           <InterpolatingParam id="4094" interp="linr"  time="0/1" value="0" leadInLength="0/1"  />
           <InterpolatingParam id="4095" interp="linr"  time="0/1" value="0" leadInLength="0/1"  />
           <InterpolatingParam id="4096" interp="linr"  time="0/1" value="0" leadInLength="0/1"  />
          </VectorParam>
         </Transformer>
         <Parameters>
          <VectorParam id="4097"  name="sourceCrop">
           <InterpolatingParam id="4098" interp="linr"  time="0/1" value="0" leadInLength="0/1"  />
           <InterpolatingParam id="4099" interp="linr"  time="0/1" value="0" leadInLength="0/1"  />
           <InterpolatingParam id="4100" interp="linr"  time="0/1" value="0" leadInLength="0/1"  />
           <InterpolatingParam id="4101" interp="linr"  time="0/1" value="0" leadInLength="0/1"  />
          </VectorParam>
          <VectorParam id="4102"  name="geometryCrop">
           <InterpolatingParam id="4103" interp="linr"  time="-9999999/1" value="0" leadInLength="0/1"  />
           <InterpolatingParam id="4104" interp="linr"  time="-9999999/1" value="0" leadInLength="0/1"  />
           <InterpolatingParam id="4105" interp="linr"  time="-9999999/1" value="0" leadInLength="0/1"  />
           <InterpolatingParam id="4106" interp="linr"  time="-9999999/1" value="0" leadInLength="0/1"  />
          </VectorParam>
          <InterpolatingParam id="4107" interp="linr"  time="-9999999/1" value="1" leadInLength="0/1"  name="opacity"/>
         </Parameters>
         <Attributes>
          <Attribute id="4108"  name="vectorNode">
           <VectorNode id="4109" kind="TypeWinXML"  >
            <DoubleParameters>
             <InterpolatingParam id="4110" interp="linr"  time="0/1" value="-1" leadInLength="0/1"  name="CutoutPercentage"/>
             <InterpolatingParam id="4111" interp="linr"  time="0/1" value="-1" leadInLength="0/1"  name="RoundedRectRadius"/>
             <InterpolatingParam id="4112" interp="linr"  time="0/1" value="5" leadInLength="0/1"  name="Style"/>
             <InterpolatingParam id="4113" interp="linr"  time="0/1" value="59" leadInLength="0/1"  name="borderColorBlue"/>
             <InterpolatingParam id="4114" interp="linr"  time="0/1" value="209" leadInLength="0/1"  name="borderColorGreen"/>
             <InterpolatingParam id="4115" interp="linr"  time="0/1" value="127" leadInLength="0/1"  name="borderColorRed"/>
             <InterpolatingParam id="4116" interp="linr"  time="0/1" value="1" leadInLength="0/1"  name="borderState"/>
             <InterpolatingParam id="4117" interp="linr"  time="0/1" value="5" leadInLength="0/1"  name="borderWidth"/>
             <InterpolatingParam id="4118" interp="linr"  time="0/1" value="59" leadInLength="0/1"  name="fillColorBlue"/>
             <InterpolatingParam id="4119" interp="linr"  time="0/1" value="209" leadInLength="0/1"  name="fillColorGreen"/>
             <InterpolatingParam id="4120" interp="linr"  time="0/1" value="127" leadInLength="0/1"  name="fillColorRed"/>
             <InterpolatingParam id="4121" interp="linr"  time="0/1" value="1" leadInLength="0/1"  name="fillState"/>
             <InterpolatingParam id="4122" interp="linr"  time="0/1" value="0" leadInLength="0/1"  name="flipOnXAxis"/>
             <InterpolatingParam id="4123" interp="linr"  time="0/1" value="0" leadInLength="0/1"  name="flipOnYAxis"/>
             <InterpolatingParam id="4124" interp="linr"  time="0/1" value="275.5539033457249" leadInLength="0/1"  name="height"/>
             <InterpolatingParam id="4125" interp="linr"  time="0/1" value="319.5" leadInLength="0/1"  name="width"/>
            </DoubleParameters>
            <StringParameters>
             <Parameter id="4126"  name="VectorPath">
              <Keyframes>
              <Keyframe id="4127"  time="0/1" value="" leadInLength="0/1"  />
              </Keyframes>
             </Parameter>
             <Parameter id="4128"  name="filename">
              <Keyframes>
              <Keyframe id="4129"  time="0/1" value="C:\Program Files (x86)\TechSmith\Camtasia Studio 8\Media\Studio\Callouts\roundedarrow.xml" leadInLength="0/1"  />
              </Keyframes>
             </Parameter>
             <Parameter id="4130"  name="name">
              <Keyframes>
              <Keyframe id="4131"  time="0/1" value="Rounded Arrow" leadInLength="0/1"  />
              </Keyframes>
             </Parameter>
             <Parameter id="4132"  name="xmlContent">
              <Keyframes>
              <Keyframe id="4133"  time="0/1" value="﻿&lt;?xml version=&quot;1.0&quot;?&gt;&#xa;&#xa;&lt;Overlay version=&quot;1.0.1&quot;&gt;&#xa;&#xa;&lt;Overlay_Filename&gt;roundedarrow.png&lt;/Overlay_Filename&gt;&#xa;&lt;Overlay_Name&gt;Rounded Arrow&lt;/Overlay_Name&gt;&#xa;&lt;Text_Top&gt;-1&lt;/Text_Top&gt;&#xa;&lt;Text_Left&gt;-1&lt;/Text_Left&gt;&#xa;&lt;Text_Bottom&gt;-1&lt;/Text_Bottom&gt;&#xa;&lt;Text_Right&gt;-1&lt;/Text_Right&gt;&#xa;&lt;Fill_Color&gt;1&lt;/Fill_Color&gt;&#xa;&lt;Border_Color&gt;1&lt;/Border_Color&gt;&#xa;&lt;Initial_Fill_Color&gt;0xff017b34&lt;/Initial_Fill_Color&gt;&#xa;&lt;Initial_Border_Color&gt;0xffd7d7d7&lt;/Initial_Border_Color&gt;&#xa;&lt;VectorProps&gt;&#xa;&lt;figure&gt;&#xa;&lt;svg&gt;M29.27,148.243c94.722,0,131.744,0,131.744,0s-6.617,6.619-26.562,26.568&#xa;&#x9;c-33.056,33.055,14.351,79.121,48.086,45.385c13.726-13.723,57.03-57.029,68.668-68.666c21.731-21.732,23.239-49.4,4.19-68.45&#xa;&#x9;c-18.033-18.033-51.981-51.98-73.981-73.98C152.773-19.542,105.138,26.28,131.057,52.2c21.607,21.609,29.957,29.959,29.957,29.959&#xa;&#x9;s-35.786,0-130.057,0C-9.106,82.159-10.93,148.243,29.27,148.243z&lt;/svg&gt;&#xa;&lt;/figure&gt;&#xa;&lt;borderWidth&gt;5.00&lt;/borderWidth&gt;&#xa;&lt;seamY&gt;116.00&lt;/seamY&gt;&#xa;&lt;shapeWidth&gt;269&lt;/shapeWidth&gt;&#xa;&lt;shapeHeight&gt;232&lt;/shapeHeight&gt;&#xa;&lt;/VectorProps&gt;&#xa;&lt;Style&gt;5&lt;/Style&gt;&#xa;&lt;/Overlay&gt;" leadInLength="0/1"  />
              </Keyframes>
             </Parameter>
            </StringParameters>
           </VectorNode>
          </Attribute>
         </Attributes>
         <MetaData>
          <entry key="WinSubProjectDisplayName" val=""/>
         </MetaData>
         <LeftEdgeMods length="24/1" groupName="OpacityFade">
          <EdgeMod parameter="4107">
           <FadeInFunc id="3071"  />
          </EdgeMod>
         </LeftEdgeMods>
         <RightEdgeMods length="5/1" groupName="OpacityFade">
          <EdgeMod parameter="4107">
           <FadeOutFunc id="3071"  />
          </EdgeMod>
         </RightEdgeMods>
         <ExtraData>
          <Entry key="ZoomPanBin">
           <ZoomPanBin id="4134"  >
            <ZoomPanKeyframes>
             <ZoomPanKeyframe id="4135" timeRangeEnd="-9999999/1" timeRangeDuration="0/1" interpolaterName="linr"  />
            </ZoomPanKeyframes>
           </ZoomPanBin>
          </Entry>
         </ExtraData>
        </Callout>
        <Callout id="4136" start="12155" duration="150" scalar="1/1" mediaStart="0/1" mediaDuration="150/1" >
         <Transformer>
          <VectorParam id="4137"  name="translation">
           <InterpolatingParam id="4138" interp="linr"  time="-9999999/1" value="-388.19277108435722" leadInLength="0/1"  />
           <InterpolatingParam id="4139" interp="linr"  time="-9999999/1" value="-173.11445783127769" leadInLength="0/1"  />
           <InterpolatingParam id="4140" interp="linr"  time="-9999999/1" value="0" leadInLength="0/1"  />
          </VectorParam>
          <VectorParam id="4141"  name="rotation">
           <InterpolatingParam id="4142" interp="linr"  time="-9999999/1" value="0" leadInLength="0/1"  />
           <InterpolatingParam id="4143" interp="linr"  time="-9999999/1" value="0" leadInLength="0/1"  />
           <InterpolatingParam id="4144" interp="linr"  time="-9999999/1" value="0" leadInLength="0/1"  />
          </VectorParam>
          <VectorParam id="4145"  name="shear">
           <InterpolatingParam id="4146" interp="linr"  time="-9999999/1" value="0" leadInLength="0/1"  />
           <InterpolatingParam id="4147" interp="linr"  time="-9999999/1" value="0" leadInLength="0/1"  />
           <InterpolatingParam id="4148" interp="linr"  time="-9999999/1" value="0" leadInLength="0/1"  />
          </VectorParam>
          <VectorParam id="4149"  name="scale">
           <InterpolatingParam id="4150" interp="linr"  time="-9999999/1" value="1" leadInLength="0/1"  />
           <InterpolatingParam id="4151" interp="linr"  time="-9999999/1" value="1" leadInLength="0/1"  />
           <InterpolatingParam id="4152" interp="linr"  time="-9999999/1" value="1" leadInLength="0/1"  />
          </VectorParam>
          <VectorParam id="4153"  name="anchor">
           <InterpolatingParam id="4154" interp="linr"  time="0/1" value="0" leadInLength="0/1"  />
           <InterpolatingParam id="4155" interp="linr"  time="0/1" value="0" leadInLength="0/1"  />
           <InterpolatingParam id="4156" interp="linr"  time="0/1" value="0" leadInLength="0/1"  />
          </VectorParam>
         </Transformer>
         <Parameters>
          <VectorParam id="4157"  name="sourceCrop">
           <InterpolatingParam id="4158" interp="linr"  time="0/1" value="0" leadInLength="0/1"  />
           <InterpolatingParam id="4159" interp="linr"  time="0/1" value="0" leadInLength="0/1"  />
           <InterpolatingParam id="4160" interp="linr"  time="0/1" value="0" leadInLength="0/1"  />
           <InterpolatingParam id="4161" interp="linr"  time="0/1" value="0" leadInLength="0/1"  />
          </VectorParam>
          <VectorParam id="4162"  name="geometryCrop">
           <InterpolatingParam id="4163" interp="linr"  time="-9999999/1" value="0" leadInLength="0/1"  />
           <InterpolatingParam id="4164" interp="linr"  time="-9999999/1" value="0" leadInLength="0/1"  />
           <InterpolatingParam id="4165" interp="linr"  time="-9999999/1" value="0" leadInLength="0/1"  />
           <InterpolatingParam id="4166" interp="linr"  time="-9999999/1" value="0" leadInLength="0/1"  />
          </VectorParam>
          <InterpolatingParam id="4167" interp="linr"  time="-9999999/1" value="1" leadInLength="0/1"  name="opacity"/>
         </Parameters>
         <Attributes>
          <Attribute id="4168"  name="vectorNode">
           <VectorNode id="4169" kind="TypeWinText"  >
            <DoubleParameters>
             <InterpolatingParam id="4170" interp="linr"  time="0/1" value="5" leadInLength="0/1"  name="Style"/>
             <InterpolatingParam id="4171" interp="linr"  time="0/1" value="0" leadInLength="0/1"  name="dimensionTime"/>
             <InterpolatingParam id="4172" interp="linr"  time="0/1" value="180" leadInLength="0/1"  name="height"/>
             <InterpolatingParam id="4173" interp="linr"  time="0/1" value="0" leadInLength="0/1"  name="textDropShadow"/>
             <InterpolatingParam id="4174" interp="linr"  time="0/1" value="0" leadInLength="0/1"  name="textIgnoresOpacity"/>
             <InterpolatingParam id="4175" interp="linr"  time="0/1" value="1" leadInLength="0/1"  name="textRectHeight"/>
             <InterpolatingParam id="4176" interp="linr"  time="0/1" value="1" leadInLength="0/1"  name="textRectWidth"/>
             <InterpolatingParam id="4177" interp="linr"  time="0/1" value="0" leadInLength="0/1"  name="textRectX"/>
             <InterpolatingParam id="4178" interp="linr"  time="0/1" value="0" leadInLength="0/1"  name="textRectY"/>
             <InterpolatingParam id="4179" interp="linr"  time="0/1" value="0" leadInLength="0/1"  name="textVerticalAlign"/>
             <InterpolatingParam id="4180" interp="linr"  time="0/1" value="319.5" leadInLength="0/1"  name="width"/>
            </DoubleParameters>
            <StringParameters>
             <Parameter id="4181"  name="filename">
              <Keyframes>
              <Keyframe id="4182"  time="0/1" value="C:\Program Files (x86)\TechSmith\Camtasia Studio 8\Media\Studio\Callouts\trans_100x100.xml" leadInLength="0/1"  />
              </Keyframes>
             </Parameter>
             <Parameter id="4183"  name="name">
              <Keyframes>
              <Keyframe id="4184"  time="0/1" value="Text" leadInLength="0/1"  />
              </Keyframes>
             </Parameter>
             <Parameter id="4185"  name="text">
              <Keyframes>
              <Keyframe id="4186"  time="0/1" value="{\rtf1\ansi\ansicpg1252\deff0\deflang1033{\fonttbl{\f0\fswiss\fprq2\fcharset0 Arial Rounded MT Bold;}}&#xD;&#xa;{\colortbl ;\red63\green108\blue25;}&#xD;&#xa;\viewkind4\uc1\pard\qc\cf1\f0\fs52 INICIO DE \par&#xD;&#xa;DIAGRAMA\par&#xD;&#xa;\par&#xD;&#xa;}&#xD;&#xa;" leadInLength="0/1"  />
              </Keyframes>
             </Parameter>
             <Parameter id="4187"  name="xmlContent">
              <Keyframes>
              <Keyframe id="4188"  time="0/1" value="﻿&lt;?xml version=&quot;1.0&quot;?&gt;&#xa;&#xa;&lt;Overlay version=&quot;1.0.1&quot;&gt;&#xa;&#xa;&lt;Overlay_Filename&gt;trans_100x100.png&lt;/Overlay_Filename&gt;&#xa;&lt;Overlay_Name&gt;Text&lt;/Overlay_Name&gt;&#xa;&lt;Text_Top&gt;0&lt;/Text_Top&gt;&#xa;&lt;Text_Left&gt;0&lt;/Text_Left&gt;&#xa;&lt;Text_Bottom&gt;0&lt;/Text_Bottom&gt;&#xa;&lt;Text_Right&gt;0&lt;/Text_Right&gt;&#xa;&lt;Fill_Color&gt;0&lt;/Fill_Color&gt;&#xa;&lt;Border_Color&gt;0&lt;/Border_Color&gt;&#xa;&lt;Style&gt;5&lt;/Style&gt;&#xa;&lt;/Overlay&gt;" leadInLength="0/1"  />
              </Keyframes>
             </Parameter>
            </StringParameters>
           </VectorNode>
          </Attribute>
         </Attributes>
         <MetaData>
          <entry key="WinSubProjectDisplayName" val=""/>
         </MetaData>
         <LeftEdgeMods length="0/1" groupName="OpacityFade">
          <EdgeMod parameter="4167">
           <FadeInFunc id="3071"  />
          </EdgeMod>
         </LeftEdgeMods>
         <RightEdgeMods length="0/1" groupName="OpacityFade">
          <EdgeMod parameter="4167">
           <FadeOutFunc id="3188"  />
          </EdgeMod>
         </RightEdgeMods>
         <ExtraData>
          <Entry key="ZoomPanBin">
           <ZoomPanBin id="4189"  >
            <ZoomPanKeyframes>
             <ZoomPanKeyframe id="4190" timeRangeEnd="-9999999/1" timeRangeDuration="0/1" interpolaterName="linr"  />
            </ZoomPanKeyframes>
           </ZoomPanBin>
          </Entry>
         </ExtraData>
        </Callout>
        <Callout id="4191" start="12353" duration="150" scalar="1/1" mediaStart="0/1" mediaDuration="150/1" >
         <Transformer>
          <VectorParam id="4192"  name="translation">
           <InterpolatingParam id="4193" interp="linr"  time="-9999999/1" value="-291.68674698784099" leadInLength="0/1"  />
           <InterpolatingParam id="4194" interp="linr"  time="-9999999/1" value="-35.783132530147299" leadInLength="0/1"  />
           <InterpolatingParam id="4195" interp="linr"  time="-9999999/1" value="0" leadInLength="0/1"  />
          </VectorParam>
          <VectorParam id="4196"  name="rotation">
           <InterpolatingParam id="4197" interp="linr"  time="-9999999/1" value="0" leadInLength="0/1"  />
           <InterpolatingParam id="4198" interp="linr"  time="-9999999/1" value="0" leadInLength="0/1"  />
           <InterpolatingParam id="4199" interp="linr"  time="-9999999/1" value="-4.7725998010346373" leadInLength="0/1"  />
          </VectorParam>
          <VectorParam id="4200"  name="shear">
           <InterpolatingParam id="4201" interp="linr"  time="-9999999/1" value="-9.0996264748957996e-018" leadInLength="0/1"  />
           <InterpolatingParam id="4202" interp="linr"  time="-9999999/1" value="0" leadInLength="0/1"  />
           <InterpolatingParam id="4203" interp="linr"  time="-9999999/1" value="0" leadInLength="0/1"  />
          </VectorParam>
          <VectorParam id="4204"  name="scale">
           <InterpolatingParam id="4205" interp="linr"  time="-9999999/1" value="0.43661971831046381" leadInLength="0/1"  />
           <InterpolatingParam id="4206" interp="linr"  time="-9999999/1" value="0.45695358529892882" leadInLength="0/1"  />
           <InterpolatingParam id="4207" interp="linr"  time="-9999999/1" value="1" leadInLength="0/1"  />
          </VectorParam>
          <VectorParam id="4208"  name="anchor">
           <InterpolatingParam id="4209" interp="linr"  time="0/1" value="0" leadInLength="0/1"  />
           <InterpolatingParam id="4210" interp="linr"  time="0/1" value="0" leadInLength="0/1"  />
           <InterpolatingParam id="4211" interp="linr"  time="0/1" value="0" leadInLength="0/1"  />
          </VectorParam>
         </Transformer>
         <Parameters>
          <VectorParam id="4212"  name="sourceCrop">
           <InterpolatingParam id="4213" interp="linr"  time="0/1" value="0" leadInLength="0/1"  />
           <InterpolatingParam id="4214" interp="linr"  time="0/1" value="0" leadInLength="0/1"  />
           <InterpolatingParam id="4215" interp="linr"  time="0/1" value="0" leadInLength="0/1"  />
           <InterpolatingParam id="4216" interp="linr"  time="0/1" value="0" leadInLength="0/1"  />
          </VectorParam>
          <VectorParam id="4217"  name="geometryCrop">
           <InterpolatingParam id="4218" interp="linr"  time="-9999999/1" value="0" leadInLength="0/1"  />
           <InterpolatingParam id="4219" interp="linr"  time="-9999999/1" value="0" leadInLength="0/1"  />
           <InterpolatingParam id="4220" interp="linr"  time="-9999999/1" value="0" leadInLength="0/1"  />
           <InterpolatingParam id="4221" interp="linr"  time="-9999999/1" value="0" leadInLength="0/1"  />
          </VectorParam>
          <InterpolatingParam id="4222" interp="linr"  time="-9999999/1" value="1" leadInLength="0/1"  name="opacity"/>
         </Parameters>
         <Attributes>
          <Attribute id="4223"  name="vectorNode">
           <VectorNode id="4224" kind="TypeWinXML"  >
            <DoubleParameters>
             <InterpolatingParam id="4225" interp="linr"  time="0/1" value="-1" leadInLength="0/1"  name="CutoutPercentage"/>
             <InterpolatingParam id="4226" interp="linr"  time="0/1" value="-1" leadInLength="0/1"  name="RoundedRectRadius"/>
             <InterpolatingParam id="4227" interp="linr"  time="0/1" value="5" leadInLength="0/1"  name="Style"/>
             <InterpolatingParam id="4228" interp="linr"  time="0/1" value="59" leadInLength="0/1"  name="borderColorBlue"/>
             <InterpolatingParam id="4229" interp="linr"  time="0/1" value="209" leadInLength="0/1"  name="borderColorGreen"/>
             <InterpolatingParam id="4230" interp="linr"  time="0/1" value="127" leadInLength="0/1"  name="borderColorRed"/>
             <InterpolatingParam id="4231" interp="linr"  time="0/1" value="1" leadInLength="0/1"  name="borderState"/>
             <InterpolatingParam id="4232" interp="linr"  time="0/1" value="3" leadInLength="0/1"  name="borderWidth"/>
             <InterpolatingParam id="4233" interp="linr"  time="0/1" value="59" leadInLength="0/1"  name="fillColorBlue"/>
             <InterpolatingParam id="4234" interp="linr"  time="0/1" value="209" leadInLength="0/1"  name="fillColorGreen"/>
             <InterpolatingParam id="4235" interp="linr"  time="0/1" value="127" leadInLength="0/1"  name="fillColorRed"/>
             <InterpolatingParam id="4236" interp="linr"  time="0/1" value="1" leadInLength="0/1"  name="fillState"/>
             <InterpolatingParam id="4237" interp="linr"  time="0/1" value="0" leadInLength="0/1"  name="flipOnXAxis"/>
             <InterpolatingParam id="4238" interp="linr"  time="0/1" value="0" leadInLength="0/1"  name="flipOnYAxis"/>
             <InterpolatingParam id="4239" interp="linr"  time="0/1" value="275.5539033457249" leadInLength="0/1"  name="height"/>
             <InterpolatingParam id="4240" interp="linr"  time="0/1" value="319.5" leadInLength="0/1"  name="width"/>
            </DoubleParameters>
            <StringParameters>
             <Parameter id="4241"  name="VectorPath">
              <Keyframes>
              <Keyframe id="4242"  time="0/1" value="" leadInLength="0/1"  />
              </Keyframes>
             </Parameter>
             <Parameter id="4243"  name="filename">
              <Keyframes>
              <Keyframe id="4244"  time="0/1" value="C:\Program Files (x86)\TechSmith\Camtasia Studio 8\Media\Studio\Callouts\roundedarrow.xml" leadInLength="0/1"  />
              </Keyframes>
             </Parameter>
             <Parameter id="4245"  name="name">
              <Keyframes>
              <Keyframe id="4246"  time="0/1" value="Rounded Arrow" leadInLength="0/1"  />
              </Keyframes>
             </Parameter>
             <Parameter id="4247"  name="xmlContent">
              <Keyframes>
              <Keyframe id="4248"  time="0/1" value="﻿&lt;?xml version=&quot;1.0&quot;?&gt;&#xa;&#xa;&lt;Overlay version=&quot;1.0.1&quot;&gt;&#xa;&#xa;&lt;Overlay_Filename&gt;roundedarrow.png&lt;/Overlay_Filename&gt;&#xa;&lt;Overlay_Name&gt;Rounded Arrow&lt;/Overlay_Name&gt;&#xa;&lt;Text_Top&gt;-1&lt;/Text_Top&gt;&#xa;&lt;Text_Left&gt;-1&lt;/Text_Left&gt;&#xa;&lt;Text_Bottom&gt;-1&lt;/Text_Bottom&gt;&#xa;&lt;Text_Right&gt;-1&lt;/Text_Right&gt;&#xa;&lt;Fill_Color&gt;1&lt;/Fill_Color&gt;&#xa;&lt;Border_Color&gt;1&lt;/Border_Color&gt;&#xa;&lt;Initial_Fill_Color&gt;0xff017b34&lt;/Initial_Fill_Color&gt;&#xa;&lt;Initial_Border_Color&gt;0xffd7d7d7&lt;/Initial_Border_Color&gt;&#xa;&lt;VectorProps&gt;&#xa;&lt;figure&gt;&#xa;&lt;svg&gt;M29.27,148.243c94.722,0,131.744,0,131.744,0s-6.617,6.619-26.562,26.568&#xa;&#x9;c-33.056,33.055,14.351,79.121,48.086,45.385c13.726-13.723,57.03-57.029,68.668-68.666c21.731-21.732,23.239-49.4,4.19-68.45&#xa;&#x9;c-18.033-18.033-51.981-51.98-73.981-73.98C152.773-19.542,105.138,26.28,131.057,52.2c21.607,21.609,29.957,29.959,29.957,29.959&#xa;&#x9;s-35.786,0-130.057,0C-9.106,82.159-10.93,148.243,29.27,148.243z&lt;/svg&gt;&#xa;&lt;/figure&gt;&#xa;&lt;borderWidth&gt;5.00&lt;/borderWidth&gt;&#xa;&lt;seamY&gt;116.00&lt;/seamY&gt;&#xa;&lt;shapeWidth&gt;269&lt;/shapeWidth&gt;&#xa;&lt;shapeHeight&gt;232&lt;/shapeHeight&gt;&#xa;&lt;/VectorProps&gt;&#xa;&lt;Style&gt;5&lt;/Style&gt;&#xa;&lt;/Overlay&gt;" leadInLength="0/1"  />
              </Keyframes>
             </Parameter>
            </StringParameters>
           </VectorNode>
          </Attribute>
         </Attributes>
         <MetaData>
          <entry key="WinSubProjectDisplayName" val=""/>
         </MetaData>
         <LeftEdgeMods length="0/1" groupName="OpacityFade">
          <EdgeMod parameter="4222">
           <FadeInFunc id="3071"  />
          </EdgeMod>
         </LeftEdgeMods>
         <RightEdgeMods length="0/1" groupName="OpacityFade">
          <EdgeMod parameter="4222">
           <FadeOutFunc id="3427"  />
          </EdgeMod>
         </RightEdgeMods>
         <ExtraData>
          <Entry key="ZoomPanBin">
           <ZoomPanBin id="4249"  >
            <ZoomPanKeyframes>
             <ZoomPanKeyframe id="4250" timeRangeEnd="-9999999/1" timeRangeDuration="0/1" interpolaterName="linr"  />
            </ZoomPanKeyframes>
           </ZoomPanBin>
          </Entry>
         </ExtraData>
        </Callout>
        <Callout id="4251" start="12519" duration="150" scalar="1/1" mediaStart="0/1" mediaDuration="150/1" >
         <Transformer>
          <VectorParam id="4252"  name="translation">
           <InterpolatingParam id="4253" interp="linr"  time="-9999999/1" value="26.024096385540517" leadInLength="0/1"  />
           <InterpolatingParam id="4254" interp="linr"  time="-9999999/1" value="-30.361445783130733" leadInLength="0/1"  />
           <InterpolatingParam id="4255" interp="linr"  time="-9999999/1" value="0" leadInLength="0/1"  />
          </VectorParam>
          <VectorParam id="4256"  name="rotation">
           <InterpolatingParam id="4257" interp="linr"  time="-9999999/1" value="0" leadInLength="0/1"  />
           <InterpolatingParam id="4258" interp="linr"  time="-9999999/1" value="0" leadInLength="0/1"  />
           <InterpolatingParam id="4259" interp="linr"  time="-9999999/1" value="0" leadInLength="0/1"  />
          </VectorParam>
          <VectorParam id="4260"  name="shear">
           <InterpolatingParam id="4261" interp="linr"  time="-9999999/1" value="0" leadInLength="0/1"  />
           <InterpolatingParam id="4262" interp="linr"  time="-9999999/1" value="0" leadInLength="0/1"  />
           <InterpolatingParam id="4263" interp="linr"  time="-9999999/1" value="0" leadInLength="0/1"  />
          </VectorParam>
          <VectorParam id="4264"  name="scale">
           <InterpolatingParam id="4265" interp="linr"  time="-9999999/1" value="1" leadInLength="0/1"  />
           <InterpolatingParam id="4266" interp="linr"  time="-9999999/1" value="1" leadInLength="0/1"  />
           <InterpolatingParam id="4267" interp="linr"  time="-9999999/1" value="1" leadInLength="0/1"  />
          </VectorParam>
          <VectorParam id="4268"  name="anchor">
           <InterpolatingParam id="4269" interp="linr"  time="0/1" value="0" leadInLength="0/1"  />
           <InterpolatingParam id="4270" interp="linr"  time="0/1" value="0" leadInLength="0/1"  />
           <InterpolatingParam id="4271" interp="linr"  time="0/1" value="0" leadInLength="0/1"  />
          </VectorParam>
         </Transformer>
         <Parameters>
          <VectorParam id="4272"  name="sourceCrop">
           <InterpolatingParam id="4273" interp="linr"  time="0/1" value="0" leadInLength="0/1"  />
           <InterpolatingParam id="4274" interp="linr"  time="0/1" value="0" leadInLength="0/1"  />
           <InterpolatingParam id="4275" interp="linr"  time="0/1" value="0" leadInLength="0/1"  />
           <InterpolatingParam id="4276" interp="linr"  time="0/1" value="0" leadInLength="0/1"  />
          </VectorParam>
          <VectorParam id="4277"  name="geometryCrop">
           <InterpolatingParam id="4278" interp="linr"  time="-9999999/1" value="0" leadInLength="0/1"  />
           <InterpolatingParam id="4279" interp="linr"  time="-9999999/1" value="0" leadInLength="0/1"  />
           <InterpolatingParam id="4280" interp="linr"  time="-9999999/1" value="0" leadInLength="0/1"  />
           <InterpolatingParam id="4281" interp="linr"  time="-9999999/1" value="0" leadInLength="0/1"  />
          </VectorParam>
          <InterpolatingParam id="4282" interp="linr"  time="-9999999/1" value="1" leadInLength="0/1"  name="opacity"/>
         </Parameters>
         <Attributes>
          <Attribute id="4283"  name="vectorNode">
           <VectorNode id="4284" kind="TypeWinText"  >
            <DoubleParameters>
             <InterpolatingParam id="4285" interp="linr"  time="0/1" value="5" leadInLength="0/1"  name="Style"/>
             <InterpolatingParam id="4286" interp="linr"  time="0/1" value="0" leadInLength="0/1"  name="dimensionTime"/>
             <InterpolatingParam id="4287" interp="linr"  time="0/1" value="180" leadInLength="0/1"  name="height"/>
             <InterpolatingParam id="4288" interp="linr"  time="0/1" value="0" leadInLength="0/1"  name="textDropShadow"/>
             <InterpolatingParam id="4289" interp="linr"  time="0/1" value="0" leadInLength="0/1"  name="textIgnoresOpacity"/>
             <InterpolatingParam id="4290" interp="linr"  time="0/1" value="1" leadInLength="0/1"  name="textRectHeight"/>
             <InterpolatingParam id="4291" interp="linr"  time="0/1" value="1" leadInLength="0/1"  name="textRectWidth"/>
             <InterpolatingParam id="4292" interp="linr"  time="0/1" value="0" leadInLength="0/1"  name="textRectX"/>
             <InterpolatingParam id="4293" interp="linr"  time="0/1" value="0" leadInLength="0/1"  name="textRectY"/>
             <InterpolatingParam id="4294" interp="linr"  time="0/1" value="0" leadInLength="0/1"  name="textVerticalAlign"/>
             <InterpolatingParam id="4295" interp="linr"  time="0/1" value="319.5" leadInLength="0/1"  name="width"/>
            </DoubleParameters>
            <StringParameters>
             <Parameter id="4296"  name="filename">
              <Keyframes>
              <Keyframe id="4297"  time="0/1" value="C:\Program Files (x86)\TechSmith\Camtasia Studio 8\Media\Studio\Callouts\trans_100x100.xml" leadInLength="0/1"  />
              </Keyframes>
             </Parameter>
             <Parameter id="4298"  name="name">
              <Keyframes>
              <Keyframe id="4299"  time="0/1" value="Text" leadInLength="0/1"  />
              </Keyframes>
             </Parameter>
             <Parameter id="4300"  name="text">
              <Keyframes>
              <Keyframe id="4301"  time="0/1" value="{\rtf1\ansi\ansicpg1252\deff0\deflang1033{\fonttbl{\f0\fswiss\fprq2\fcharset0 Arial Rounded MT Bold;}}&#xD;&#xa;{\colortbl ;\red63\green108\blue25;}&#xD;&#xa;\viewkind4\uc1\pard\qc\cf1\f0\fs52 DESICION\par&#xD;&#xa;\par&#xD;&#xa;}&#xD;&#xa;" leadInLength="0/1"  />
              </Keyframes>
             </Parameter>
             <Parameter id="4302"  name="xmlContent">
              <Keyframes>
              <Keyframe id="4303"  time="0/1" value="﻿&lt;?xml version=&quot;1.0&quot;?&gt;&#xa;&#xa;&lt;Overlay version=&quot;1.0.1&quot;&gt;&#xa;&#xa;&lt;Overlay_Filename&gt;trans_100x100.png&lt;/Overlay_Filename&gt;&#xa;&lt;Overlay_Name&gt;Text&lt;/Overlay_Name&gt;&#xa;&lt;Text_Top&gt;0&lt;/Text_Top&gt;&#xa;&lt;Text_Left&gt;0&lt;/Text_Left&gt;&#xa;&lt;Text_Bottom&gt;0&lt;/Text_Bottom&gt;&#xa;&lt;Text_Right&gt;0&lt;/Text_Right&gt;&#xa;&lt;Fill_Color&gt;0&lt;/Fill_Color&gt;&#xa;&lt;Border_Color&gt;0&lt;/Border_Color&gt;&#xa;&lt;Style&gt;5&lt;/Style&gt;&#xa;&lt;/Overlay&gt;" leadInLength="0/1"  />
              </Keyframes>
             </Parameter>
            </StringParameters>
           </VectorNode>
          </Attribute>
         </Attributes>
         <MetaData>
          <entry key="WinSubProjectDisplayName" val=""/>
         </MetaData>
         <LeftEdgeMods length="0/1" groupName="OpacityFade">
          <EdgeMod parameter="4282">
           <FadeInFunc id="3189"  />
          </EdgeMod>
         </LeftEdgeMods>
         <RightEdgeMods length="0/1" groupName="OpacityFade">
          <EdgeMod parameter="4282">
           <FadeOutFunc id="3427"  />
          </EdgeMod>
         </RightEdgeMods>
         <ExtraData>
          <Entry key="ZoomPanBin">
           <ZoomPanBin id="4304"  >
            <ZoomPanKeyframes>
             <ZoomPanKeyframe id="4305" timeRangeEnd="-9999999/1" timeRangeDuration="0/1" interpolaterName="linr"  />
            </ZoomPanKeyframes>
           </ZoomPanBin>
          </Entry>
         </ExtraData>
        </Callout>
        <Callout id="4306" start="12725" duration="150" scalar="1/1" mediaStart="0/1" mediaDuration="150/1" >
         <Transformer>
          <VectorParam id="4307"  name="translation">
           <InterpolatingParam id="4308" interp="linr"  time="-9999999/1" value="23.374809126474062" leadInLength="0/1"  />
           <InterpolatingParam id="4309" interp="linr"  time="-9999999/1" value="-147.46987951806523" leadInLength="0/1"  />
           <InterpolatingParam id="4310" interp="linr"  time="-9999999/1" value="0" leadInLength="0/1"  />
          </VectorParam>
          <VectorParam id="4311"  name="rotation">
           <InterpolatingParam id="4312" interp="linr"  time="-9999999/1" value="0" leadInLength="0/1"  />
           <InterpolatingParam id="4313" interp="linr"  time="-9999999/1" value="0" leadInLength="0/1"  />
           <InterpolatingParam id="4314" interp="linr"  time="-9999999/1" value="0" leadInLength="0/1"  />
          </VectorParam>
          <VectorParam id="4315"  name="shear">
           <InterpolatingParam id="4316" interp="linr"  time="-9999999/1" value="0" leadInLength="0/1"  />
           <InterpolatingParam id="4317" interp="linr"  time="-9999999/1" value="0" leadInLength="0/1"  />
           <InterpolatingParam id="4318" interp="linr"  time="-9999999/1" value="0" leadInLength="0/1"  />
          </VectorParam>
          <VectorParam id="4319"  name="scale">
           <InterpolatingParam id="4320" interp="linr"  time="-9999999/1" value="1" leadInLength="0/1"  />
           <InterpolatingParam id="4321" interp="linr"  time="-9999999/1" value="1" leadInLength="0/1"  />
           <InterpolatingParam id="4322" interp="linr"  time="-9999999/1" value="1" leadInLength="0/1"  />
          </VectorParam>
          <VectorParam id="4323"  name="anchor">
           <InterpolatingParam id="4324" interp="linr"  time="0/1" value="0" leadInLength="0/1"  />
           <InterpolatingParam id="4325" interp="linr"  time="0/1" value="0" leadInLength="0/1"  />
           <InterpolatingParam id="4326" interp="linr"  time="0/1" value="0" leadInLength="0/1"  />
          </VectorParam>
         </Transformer>
         <Parameters>
          <VectorParam id="4327"  name="sourceCrop">
           <InterpolatingParam id="4328" interp="linr"  time="0/1" value="0" leadInLength="0/1"  />
           <InterpolatingParam id="4329" interp="linr"  time="0/1" value="0" leadInLength="0/1"  />
           <InterpolatingParam id="4330" interp="linr"  time="0/1" value="0" leadInLength="0/1"  />
           <InterpolatingParam id="4331" interp="linr"  time="0/1" value="0" leadInLength="0/1"  />
          </VectorParam>
          <VectorParam id="4332"  name="geometryCrop">
           <InterpolatingParam id="4333" interp="linr"  time="-9999999/1" value="0" leadInLength="0/1"  />
           <InterpolatingParam id="4334" interp="linr"  time="-9999999/1" value="0" leadInLength="0/1"  />
           <InterpolatingParam id="4335" interp="linr"  time="-9999999/1" value="0" leadInLength="0/1"  />
           <InterpolatingParam id="4336" interp="linr"  time="-9999999/1" value="0" leadInLength="0/1"  />
          </VectorParam>
          <InterpolatingParam id="4337" interp="linr"  time="-9999999/1" value="1" leadInLength="0/1"  name="opacity"/>
         </Parameters>
         <Attributes>
          <Attribute id="4338"  name="vectorNode">
           <VectorNode id="4339" kind="TypeWinText"  >
            <DoubleParameters>
             <InterpolatingParam id="4340" interp="linr"  time="0/1" value="5" leadInLength="0/1"  name="Style"/>
             <InterpolatingParam id="4341" interp="linr"  time="0/1" value="0" leadInLength="0/1"  name="dimensionTime"/>
             <InterpolatingParam id="4342" interp="linr"  time="0/1" value="180" leadInLength="0/1"  name="height"/>
             <InterpolatingParam id="4343" interp="linr"  time="0/1" value="0" leadInLength="0/1"  name="textDropShadow"/>
             <InterpolatingParam id="4344" interp="linr"  time="0/1" value="0" leadInLength="0/1"  name="textIgnoresOpacity"/>
             <InterpolatingParam id="4345" interp="linr"  time="0/1" value="1" leadInLength="0/1"  name="textRectHeight"/>
             <InterpolatingParam id="4346" interp="linr"  time="0/1" value="1" leadInLength="0/1"  name="textRectWidth"/>
             <InterpolatingParam id="4347" interp="linr"  time="0/1" value="0" leadInLength="0/1"  name="textRectX"/>
             <InterpolatingParam id="4348" interp="linr"  time="0/1" value="0" leadInLength="0/1"  name="textRectY"/>
             <InterpolatingParam id="4349" interp="linr"  time="0/1" value="0" leadInLength="0/1"  name="textVerticalAlign"/>
             <InterpolatingParam id="4350" interp="linr"  time="0/1" value="319.5" leadInLength="0/1"  name="width"/>
            </DoubleParameters>
            <StringParameters>
             <Parameter id="4351"  name="filename">
              <Keyframes>
              <Keyframe id="4352"  time="0/1" value="C:\Program Files (x86)\TechSmith\Camtasia Studio 8\Media\Studio\Callouts\trans_100x100.xml" leadInLength="0/1"  />
              </Keyframes>
             </Parameter>
             <Parameter id="4353"  name="name">
              <Keyframes>
              <Keyframe id="4354"  time="0/1" value="Text" leadInLength="0/1"  />
              </Keyframes>
             </Parameter>
             <Parameter id="4355"  name="text">
              <Keyframes>
              <Keyframe id="4356"  time="0/1" value="{\rtf1\ansi\ansicpg1252\deff0\deflang1033{\fonttbl{\f0\fswiss\fprq2\fcharset0 Arial Rounded MT Bold;}}&#xD;&#xa;{\colortbl ;\red63\green108\blue25;}&#xD;&#xa;\viewkind4\uc1\pard\qc\cf1\f0\fs52 FIN\par&#xD;&#xa;ACTIVIDAD\par&#xD;&#xa;\par&#xD;&#xa;}&#xD;&#xa;" leadInLength="0/1"  />
              </Keyframes>
             </Parameter>
             <Parameter id="4357"  name="xmlContent">
              <Keyframes>
              <Keyframe id="4358"  time="0/1" value="﻿&lt;?xml version=&quot;1.0&quot;?&gt;&#xa;&#xa;&lt;Overlay version=&quot;1.0.1&quot;&gt;&#xa;&#xa;&lt;Overlay_Filename&gt;trans_100x100.png&lt;/Overlay_Filename&gt;&#xa;&lt;Overlay_Name&gt;Text&lt;/Overlay_Name&gt;&#xa;&lt;Text_Top&gt;0&lt;/Text_Top&gt;&#xa;&lt;Text_Left&gt;0&lt;/Text_Left&gt;&#xa;&lt;Text_Bottom&gt;0&lt;/Text_Bottom&gt;&#xa;&lt;Text_Right&gt;0&lt;/Text_Right&gt;&#xa;&lt;Fill_Color&gt;0&lt;/Fill_Color&gt;&#xa;&lt;Border_Color&gt;0&lt;/Border_Color&gt;&#xa;&lt;Style&gt;5&lt;/Style&gt;&#xa;&lt;/Overlay&gt;" leadInLength="0/1"  />
              </Keyframes>
             </Parameter>
            </StringParameters>
           </VectorNode>
          </Attribute>
         </Attributes>
         <MetaData>
          <entry key="WinSubProjectDisplayName" val=""/>
         </MetaData>
         <LeftEdgeMods length="0/1" groupName="OpacityFade">
          <EdgeMod parameter="4337">
           <FadeInFunc id="3189"  />
          </EdgeMod>
         </LeftEdgeMods>
         <RightEdgeMods length="0/1" groupName="OpacityFade">
          <EdgeMod parameter="4337">
           <FadeOutFunc id="3189"  />
          </EdgeMod>
         </RightEdgeMods>
         <ExtraData>
          <Entry key="ZoomPanBin">
           <ZoomPanBin id="4359"  >
            <ZoomPanKeyframes>
             <ZoomPanKeyframe id="4360" timeRangeEnd="-9999999/1" timeRangeDuration="0/1" interpolaterName="linr"  />
            </ZoomPanKeyframes>
           </ZoomPanBin>
          </Entry>
         </ExtraData>
        </Callout>
        <Callout id="4361" start="14911" duration="1" scalar="1/1" mediaStart="148/1" mediaDuration="1/1" >
         <Transformer>
          <VectorParam id="4362"  name="translation">
           <InterpolatingParam id="4363" interp="linr"  time="-9999999/1" value="-48.263896894119121" leadInLength="0/1"  />
           <InterpolatingParam id="4364" interp="linr"  time="-9999999/1" value="-109.51807228924068" leadInLength="0/1"  />
           <InterpolatingParam id="4365" interp="linr"  time="-9999999/1" value="0" leadInLength="0/1"  />
          </VectorParam>
          <VectorParam id="4366"  name="rotation">
           <InterpolatingParam id="4367" interp="linr"  time="-9999999/1" value="0" leadInLength="0/1"  />
           <InterpolatingParam id="4368" interp="linr"  time="-9999999/1" value="0" leadInLength="0/1"  />
           <InterpolatingParam id="4369" interp="linr"  time="-9999999/1" value="-5.6232885649850175" leadInLength="0/1"  />
          </VectorParam>
          <VectorParam id="4370"  name="shear">
           <InterpolatingParam id="4371" interp="linr"  time="-9999999/1" value="-1.2198848705489355e-016" leadInLength="0/1"  />
           <InterpolatingParam id="4372" interp="linr"  time="-9999999/1" value="0" leadInLength="0/1"  />
           <InterpolatingParam id="4373" interp="linr"  time="-9999999/1" value="0" leadInLength="0/1"  />
          </VectorParam>
          <VectorParam id="4374"  name="scale">
           <InterpolatingParam id="4375" interp="linr"  time="-9999999/1" value="0.58419969545171824" leadInLength="0/1"  />
           <InterpolatingParam id="4376" interp="linr"  time="-9999999/1" value="0.33167405697801611" leadInLength="0/1"  />
           <InterpolatingParam id="4377" interp="linr"  time="-9999999/1" value="1" leadInLength="0/1"  />
          </VectorParam>
          <VectorParam id="4378"  name="anchor">
           <InterpolatingParam id="4379" interp="linr"  time="0/1" value="0" leadInLength="0/1"  />
           <InterpolatingParam id="4380" interp="linr"  time="0/1" value="0" leadInLength="0/1"  />
           <InterpolatingParam id="4381" interp="linr"  time="0/1" value="0" leadInLength="0/1"  />
          </VectorParam>
         </Transformer>
         <Parameters>
          <VectorParam id="4382"  name="sourceCrop">
           <InterpolatingParam id="4383" interp="linr"  time="0/1" value="0" leadInLength="0/1"  />
           <InterpolatingParam id="4384" interp="linr"  time="0/1" value="0" leadInLength="0/1"  />
           <InterpolatingParam id="4385" interp="linr"  time="0/1" value="0" leadInLength="0/1"  />
           <InterpolatingParam id="4386" interp="linr"  time="0/1" value="0" leadInLength="0/1"  />
          </VectorParam>
          <VectorParam id="4387"  name="geometryCrop">
           <InterpolatingParam id="4388" interp="linr"  time="-9999999/1" value="0" leadInLength="0/1"  />
           <InterpolatingParam id="4389" interp="linr"  time="-9999999/1" value="0" leadInLength="0/1"  />
           <InterpolatingParam id="4390" interp="linr"  time="-9999999/1" value="0" leadInLength="0/1"  />
           <InterpolatingParam id="4391" interp="linr"  time="-9999999/1" value="0" leadInLength="0/1"  />
          </VectorParam>
          <InterpolatingParam id="4392" interp="linr"  time="-9999999/1" value="1" leadInLength="0/1"  name="opacity"/>
         </Parameters>
         <Attributes>
          <Attribute id="4393"  name="vectorNode">
           <VectorNode id="4394" kind="TypeWinXML"  >
            <DoubleParameters>
             <InterpolatingParam id="4395" interp="linr"  time="0/1" value="-1" leadInLength="0/1"  name="CutoutPercentage"/>
             <InterpolatingParam id="4396" interp="linr"  time="0/1" value="-1" leadInLength="0/1"  name="RoundedRectRadius"/>
             <InterpolatingParam id="4397" interp="linr"  time="0/1" value="5" leadInLength="0/1"  name="Style"/>
             <InterpolatingParam id="4398" interp="linr"  time="0/1" value="59" leadInLength="0/1"  name="borderColorBlue"/>
             <InterpolatingParam id="4399" interp="linr"  time="0/1" value="209" leadInLength="0/1"  name="borderColorGreen"/>
             <InterpolatingParam id="4400" interp="linr"  time="0/1" value="127" leadInLength="0/1"  name="borderColorRed"/>
             <InterpolatingParam id="4401" interp="linr"  time="0/1" value="1" leadInLength="0/1"  name="borderState"/>
             <InterpolatingParam id="4402" interp="linr"  time="0/1" value="3" leadInLength="0/1"  name="borderWidth"/>
             <InterpolatingParam id="4403" interp="linr"  time="0/1" value="59" leadInLength="0/1"  name="fillColorBlue"/>
             <InterpolatingParam id="4404" interp="linr"  time="0/1" value="209" leadInLength="0/1"  name="fillColorGreen"/>
             <InterpolatingParam id="4405" interp="linr"  time="0/1" value="127" leadInLength="0/1"  name="fillColorRed"/>
             <InterpolatingParam id="4406" interp="linr"  time="0/1" value="1" leadInLength="0/1"  name="fillState"/>
             <InterpolatingParam id="4407" interp="linr"  time="0/1" value="0" leadInLength="0/1"  name="flipOnXAxis"/>
             <InterpolatingParam id="4408" interp="linr"  time="0/1" value="0" leadInLength="0/1"  name="flipOnYAxis"/>
             <InterpolatingParam id="4409" interp="linr"  time="0/1" value="275.5539033457249" leadInLength="0/1"  name="height"/>
             <InterpolatingParam id="4410" interp="linr"  time="0/1" value="319.5" leadInLength="0/1"  name="width"/>
            </DoubleParameters>
            <StringParameters>
             <Parameter id="4411"  name="VectorPath">
              <Keyframes>
              <Keyframe id="4412"  time="0/1" value="" leadInLength="0/1"  />
              </Keyframes>
             </Parameter>
             <Parameter id="4413"  name="filename">
              <Keyframes>
              <Keyframe id="4414"  time="0/1" value="C:\Program Files (x86)\TechSmith\Camtasia Studio 8\Media\Studio\Callouts\roundedarrow.xml" leadInLength="0/1"  />
              </Keyframes>
             </Parameter>
             <Parameter id="4415"  name="name">
              <Keyframes>
              <Keyframe id="4416"  time="0/1" value="Rounded Arrow" leadInLength="0/1"  />
              </Keyframes>
             </Parameter>
             <Parameter id="4417"  name="xmlContent">
              <Keyframes>
              <Keyframe id="4418"  time="0/1" value="﻿&lt;?xml version=&quot;1.0&quot;?&gt;&#xa;&#xa;&lt;Overlay version=&quot;1.0.1&quot;&gt;&#xa;&#xa;&lt;Overlay_Filename&gt;roundedarrow.png&lt;/Overlay_Filename&gt;&#xa;&lt;Overlay_Name&gt;Rounded Arrow&lt;/Overlay_Name&gt;&#xa;&lt;Text_Top&gt;-1&lt;/Text_Top&gt;&#xa;&lt;Text_Left&gt;-1&lt;/Text_Left&gt;&#xa;&lt;Text_Bottom&gt;-1&lt;/Text_Bottom&gt;&#xa;&lt;Text_Right&gt;-1&lt;/Text_Right&gt;&#xa;&lt;Fill_Color&gt;1&lt;/Fill_Color&gt;&#xa;&lt;Border_Color&gt;1&lt;/Border_Color&gt;&#xa;&lt;Initial_Fill_Color&gt;0xff017b34&lt;/Initial_Fill_Color&gt;&#xa;&lt;Initial_Border_Color&gt;0xffd7d7d7&lt;/Initial_Border_Color&gt;&#xa;&lt;VectorProps&gt;&#xa;&lt;figure&gt;&#xa;&lt;svg&gt;M29.27,148.243c94.722,0,131.744,0,131.744,0s-6.617,6.619-26.562,26.568&#xa;&#x9;c-33.056,33.055,14.351,79.121,48.086,45.385c13.726-13.723,57.03-57.029,68.668-68.666c21.731-21.732,23.239-49.4,4.19-68.45&#xa;&#x9;c-18.033-18.033-51.981-51.98-73.981-73.98C152.773-19.542,105.138,26.28,131.057,52.2c21.607,21.609,29.957,29.959,29.957,29.959&#xa;&#x9;s-35.786,0-130.057,0C-9.106,82.159-10.93,148.243,29.27,148.243z&lt;/svg&gt;&#xa;&lt;/figure&gt;&#xa;&lt;borderWidth&gt;5.00&lt;/borderWidth&gt;&#xa;&lt;seamY&gt;116.00&lt;/seamY&gt;&#xa;&lt;shapeWidth&gt;269&lt;/shapeWidth&gt;&#xa;&lt;shapeHeight&gt;232&lt;/shapeHeight&gt;&#xa;&lt;/VectorProps&gt;&#xa;&lt;Style&gt;5&lt;/Style&gt;&#xa;&lt;/Overlay&gt;" leadInLength="0/1"  />
              </Keyframes>
             </Parameter>
            </StringParameters>
           </VectorNode>
          </Attribute>
         </Attributes>
         <MetaData>
          <entry key="WinSubProjectDisplayName" val=""/>
         </MetaData>
         <LeftEdgeMods length="0/1" groupName="OpacityFade">
          <EdgeMod parameter="4392">
           <FadeInFunc id="3127"  />
          </EdgeMod>
         </LeftEdgeMods>
         <RightEdgeMods length="0/1" groupName="OpacityFade">
          <EdgeMod parameter="4392">
           <FadeOutFunc id="4419"  />
          </EdgeMod>
         </RightEdgeMods>
         <ExtraData>
          <Entry key="ZoomPanBin">
           <ZoomPanBin id="4420"  >
            <ZoomPanKeyframes>
             <ZoomPanKeyframe id="4421" timeRangeEnd="-9999999/1" timeRangeDuration="0/1" interpolaterName="linr"  />
            </ZoomPanKeyframes>
           </ZoomPanBin>
          </Entry>
         </ExtraData>
        </Callout>
       </Medias>
      </GenericTrack>
      <GenericTrack id="4422"  >
       <Attributes>
        <Attribute id="4423" value="" name="ident"/>
        <Attribute id="4424" value="0" name="audioMuted"/>
        <Attribute id="4425" value="0" name="videoHidden"/>
       </Attributes>
       <MetaData>
        <entry key="IsLocked" val="False"/>
        <entry key="WinTrackHeight" val="62"/>
       </MetaData>
       <Medias>
       </Medias>
      </GenericTrack>
      <GenericTrack id="4426"  >
       <Attributes>
        <Attribute id="4427" value="" name="ident"/>
        <Attribute id="4428" value="0" name="audioMuted"/>
        <Attribute id="4429" value="0" name="videoHidden"/>
       </Attributes>
       <MetaData>
        <entry key="IsLocked" val="False"/>
        <entry key="WinTrackHeight" val="62"/>
       </MetaData>
       <Medias>
       </Medias>
      </GenericTrack>
      <GenericTrack id="4430"  >
       <Attributes>
        <Attribute id="4431" value="" name="ident"/>
        <Attribute id="4432" value="0" name="audioMuted"/>
        <Attribute id="4433" value="0" name="videoHidden"/>
       </Attributes>
       <MetaData>
        <entry key="IsLocked" val="False"/>
        <entry key="WinTrackHeight" val="62"/>
       </MetaData>
       <Medias>
       </Medias>
      </GenericTrack>
      <GenericTrack id="4434"  >
       <Attributes>
        <Attribute id="4435" value="" name="ident"/>
        <Attribute id="4436" value="0" name="audioMuted"/>
        <Attribute id="4437" value="0" name="videoHidden"/>
       </Attributes>
       <MetaData>
        <entry key="IsLocked" val="False"/>
        <entry key="WinTrackHeight" val="62"/>
       </MetaData>
       <Medias>
       </Medias>
      </GenericTrack>
     </Tracks>
    </GenericMixer>
   <CaptionAttributes id="4438"  >
    <Attribute id="4439" value="1" name="captionsEnabled"/>
    <Attribute id="4440" value="Arial" name="captionsFontName"/>
    <Attribute id="4441" value="28" name="captionsFontSize"/>
    <Attribute id="4442" value="(0,0,0,255)" name="captionsBackgroundColor"/>
    <Attribute id="4443" value="(255,255,255,255)" name="captionsForegroundColor"/>
    <Attribute id="4444" value="en" name="lang"/>
    <Attribute id="4445" value="0" name="captionsAlignment"/>
    <Attribute id="4446" value="1" name="captionsDefaultFontSize"/>
    <Attribute id="4447" value="0.5" name="captionsOpacity"/>
    <Attribute id="4448" value="1" name="captionsBackgroundEnabled"/>
    <Attribute id="4449" value="1" name="captionsBackgroundOnlyAroundText"/>
   </CaptionAttributes>
   <Parameters>
    <VectorParam id="4450"  name="eyePosition">
     <InterpolatingParam id="4451" interp="linr"  time="0/1" value="0" leadInLength="0/1"  />
     <InterpolatingParam id="4452" interp="linr"  time="0/1" value="0" leadInLength="0/1"  />
     <InterpolatingParam id="4453" interp="linr"  time="0/1" value="3000" leadInLength="0/1"  />
    </VectorParam>
    <VectorParam id="4454"  name="eyeLookAtPosition">
     <InterpolatingParam id="4455" interp="linr"  time="0/1" value="0" leadInLength="0/1"  />
     <InterpolatingParam id="4456" interp="linr"  time="0/1" value="0" leadInLength="0/1"  />
     <InterpolatingParam id="4457" interp="linr"  time="0/1" value="0" leadInLength="0/1"  />
    </VectorParam>
    <VectorParam id="4458"  name="eyeUpVector">
     <InterpolatingParam id="4459" interp="linr"  time="0/1" value="0" leadInLength="0/1"  />
     <InterpolatingParam id="4460" interp="linr"  time="0/1" value="1" leadInLength="0/1"  />
     <InterpolatingParam id="4461" interp="linr"  time="0/1" value="0" leadInLength="0/1"  />
    </VectorParam>
    <InterpolatingParam id="4462" interp="linr"  time="0/1" value="0.23885785" leadInLength="0/1"  name="fov"/>
    <InterpolatingParam id="4463" interp="linr"  time="0/1" value="1.5" leadInLength="0/1"  name="nearClipDistance"/>
    <InterpolatingParam id="4464" interp="linr"  time="0/1" value="6000" leadInLength="0/1"  name="farClipDistance"/>
   </Parameters>
  </Timeline>
 </Project>
</GoProject>
</CSMLData>

</Project_Data>
